<svg xmlns="http://www.w3.org/2000/svg" viewBox="0 0 1600 900" fill="none">
  <defs>
    <linearGradient id="bg" x1="0" y1="0" x2="0" y2="1">
      <stop offset="0%" stop-color="#0d1827"/>
      <stop offset="48%" stop-color="#28425e"/>
      <stop offset="100%" stop-color="#0a1118"/>
    </linearGradient>
    <radialGradient id="glow" cx="50%" cy="25%" r="65%">
      <stop offset="0%" stop-color="#FDE68A47"/>
      <stop offset="100%" stop-color="#FDE68A00"/>
    </radialGradient>
    <linearGradient id="fade" x1="0" y1="0" x2="1" y2="1">
      <stop offset="0%" stop-color="#FACC152e"/>
      <stop offset="100%" stop-color="#D1D5DB08"/>
    </linearGradient>
  </defs>

  <rect width="1600" height="900" fill="url(#bg)"/>
  <rect width="1600" height="900" fill="url(#glow)"/>
  <rect width="1600" height="900" fill="url(#fade)"/>

  
        <g>
          <rect x="7.405514541082084" y="125.39552756585181" width="89.71108659170568" height="394.6044724341482" rx="8" fill="#D1D5DB30"/><rect x="140.1244141710922" y="316.31437371019274" width="101.73055126797408" height="203.68562628980726" rx="8" fill="#D1D5DB38"/><rect x="258.242432677187" y="245.41766985785216" width="105.81549470312893" height="274.58233014214784" rx="8" fill="#D1D5DB3e"/><rect x="386.90060999058187" y="288.3836420252919" width="74.39142181538045" height="231.61635797470808" rx="8" fill="#D1D5DB43"/><rect x="494.8940888810903" y="336.23147365637124" width="108.32238283008337" height="183.76852634362876" rx="8" fill="#D1D5DB37"/><rect x="630.9037933247164" y="321.7642902210355" width="115.84750040434301" height="198.23570977896452" rx="8" fill="#D1D5DB2f"/><rect x="740.4638204639778" y="101.25139388721436" width="71.52708172798157" height="418.74860611278564" rx="8" fill="#D1D5DB2c"/><rect x="840.7113360632211" y="185.85542917251587" width="85.203373930417" height="334.14457082748413" rx="8" fill="#D1D5DB35"/><rect x="987.8360260426998" y="202.38807808142155" width="103.50177045445889" height="317.61192191857845" rx="8" fill="#D1D5DB2d"/><rect x="1107.9248915920034" y="151.40243619680405" width="100.64575338736176" height="368.59756380319595" rx="8" fill="#D1D5DB47"/><rect x="1222.0285693695769" y="289.0054133022204" width="103.97057087160647" height="230.9945866977796" rx="8" fill="#D1D5DB3d"/><rect x="1354.8769777268171" y="324.738847380504" width="116.93862264044583" height="195.261152619496" rx="8" fill="#D1D5DB40"/><rect x="1461.955957956612" y="318.95053572021425" width="83.61695658415556" height="201.04946427978575" rx="8" fill="#D1D5DB45"/><rect x="1573.2952198125422" y="215.23318713530898" width="113.31481692846864" height="304.766812864691" rx="8" fill="#D1D5DB44"/>
          <circle cx="705.2930735051632" cy="74.86985495779663" r="1.8944898083806039" fill="#FFFFFF94"/><circle cx="521.4524615556002" cy="795.8897456992418" r="1.472861360386014" fill="#FFFFFFc5"/><circle cx="1422.8215854614973" cy="828.01536207553" r="2.316866583749652" fill="#FFFFFF97"/><circle cx="1137.6844059675932" cy="670.1047177193686" r="3.1092882020398975" fill="#FFFFFFc5"/><circle cx="847.5334465503693" cy="363.4786259382963" r="1.7271314725279807" fill="#FFFFFFbb"/><circle cx="674.9610632658005" cy="409.37628485262394" r="1.0254205968230963" fill="#FFFFFFc9"/><circle cx="1397.0589831471443" cy="80.12302312999964" r="3.1594210667535663" fill="#FFFFFFc2"/><circle cx="945.0557518750429" cy="721.4311240939423" r="2.806479224562645" fill="#FFFFFFbb"/><circle cx="409.11732725799084" cy="524.2912461049855" r="3.313152642548084" fill="#FFFFFF8f"/><circle cx="693.5639582574368" cy="843.0423020850867" r="2.3673187816515564" fill="#FFFFFFbd"/><circle cx="1018.2307031005621" cy="402.84764519892633" r="2.864813569188118" fill="#FFFFFFae"/><circle cx="733.3642356097698" cy="14.476170181296766" r="2.688369291648269" fill="#FFFFFF9a"/><circle cx="196.2531879544258" cy="371.12278605345637" r="1.3447959264740348" fill="#FFFFFF91"/><circle cx="158.5758250206709" cy="730.430740211159" r="1.7893622241914273" fill="#FFFFFFca"/><circle cx="53.50462682545185" cy="821.7302043456584" r="2.832589459232986" fill="#FFFFFFa0"/><circle cx="421.3362369686365" cy="514.7676145657897" r="1.632761289924383" fill="#FFFFFFa0"/><circle cx="928.2147482037544" cy="822.2174573689699" r="2.322239856980741" fill="#FFFFFFb1"/><circle cx="1535.5151880532503" cy="348.98030385375023" r="3.2550459621474146" fill="#FFFFFFbc"/><circle cx="950.4580896347761" cy="102.12356261909008" r="1.460026165470481" fill="#FFFFFFb8"/><circle cx="1038.388405367732" cy="842.5650300225243" r="2.9124400464817883" fill="#FFFFFFc0"/><circle cx="1380.1537360996008" cy="200.53508332930505" r="2.752247440442443" fill="#FFFFFF97"/><circle cx="94.12262924015522" cy="106.8217970430851" r="2.3757029915228483" fill="#FFFFFFba"/><circle cx="497.8529289364815" cy="263.3056608494371" r="1.8241983391344547" fill="#FFFFFF97"/><circle cx="1388.193617761135" cy="838.6082683922723" r="1.5776371778920293" fill="#FFFFFFb7"/><circle cx="397.3596040159464" cy="168.77719697076827" r="1.3636816870421171" fill="#FFFFFFc0"/><circle cx="905.116618424654" cy="587.0565206045285" r="2.0046917419880628" fill="#FFFFFFa6"/><circle cx="34.903158619999886" cy="660.8318492537364" r="2.5905308367684485" fill="#FFFFFFa2"/><circle cx="932.6414793729782" cy="527.8882298385724" r="2.1982265138998627" fill="#FFFFFFa1"/><circle cx="284.741922095418" cy="626.8475890159607" r="2.3562405806034805" fill="#FFFFFF90"/><circle cx="275.4088316112757" cy="392.4662928795442" r="2.6814503306522965" fill="#FFFFFF93"/><circle cx="906.2303084880114" cy="214.91317434702069" r="2.1737219668924808" fill="#FFFFFFac"/><circle cx="1018.5142982751131" cy="171.40059436205775" r="2.7218476891517636" fill="#FFFFFFa4"/><circle cx="1564.4067488610744" cy="546.8716276343912" r="2.2507473398" fill="#FFFFFF95"/><circle cx="204.37518283724785" cy="571.7556130606681" r="1.8928853757679462" fill="#FFFFFFc8"/><circle cx="770.3084770590067" cy="508.35142757277936" r="1.7666329838335515" fill="#FFFFFFcb"/><circle cx="353.8331389427185" cy="601.8448707880452" r="1.2876051584258676" fill="#FFFFFFc9"/><circle cx="1102.1353125572205" cy="614.623683784157" r="2.2909565016627313" fill="#FFFFFFcc"/><circle cx="385.77350080013275" cy="638.7103687506169" r="1.2016652615740895" fill="#FFFFFFbc"/><circle cx="430.13817854225636" cy="43.419251684099436" r="2.9792426066473126" fill="#FFFFFFa2"/><circle cx="102.75424383580685" cy="76.1505919508636" r="1.2732122426852583" fill="#FFFFFF9c"/><circle cx="240.2487475425005" cy="591.5026736911386" r="2.5220273464918135" fill="#FFFFFF92"/><circle cx="771.2539844214916" cy="885.6456959852949" r="2.0595723904669283" fill="#FFFFFF9c"/><circle cx="234.4104714691639" cy="716.5291777811944" r="2.685243962705135" fill="#FFFFFF9c"/><circle cx="181.08962662518024" cy="297.0685411943123" r="3.1390014899894596" fill="#FFFFFFac"/><circle cx="84.90195944905281" cy="704.3843138962984" r="2.0131247943267225" fill="#FFFFFFc9"/><circle cx="1560.940743982792" cy="557.305988157168" r="1.3777898142114282" fill="#FFFFFFa4"/><circle cx="867.8317416459322" cy="740.8219425240532" r="3.0276040762662886" fill="#FFFFFFc0"/><circle cx="1591.7980998754501" cy="303.04641814436764" r="3.2190347384661435" fill="#FFFFFF90"/><circle cx="1542.113947123289" cy="617.1518570976332" r="3.070589048974216" fill="#FFFFFFab"/><circle cx="789.0136830508709" cy="395.47905020881444" r="2.411998467892408" fill="#FFFFFFa8"/><circle cx="169.37383972108364" cy="323.0461958795786" r="2.8163906641304495" fill="#FFFFFFb9"/><circle cx="600.7807921618223" cy="340.66450456157327" r="3.2531594824045897" fill="#FFFFFFae"/><circle cx="1582.2434175759554" cy="457.07377328071743" r="2.596780927479267" fill="#FFFFFFab"/><circle cx="823.8638505339622" cy="549.548544944264" r="3.2388665985316036" fill="#FFFFFFc1"/><circle cx="1136.8546936661005" cy="387.6158906612545" r="2.079286604374647" fill="#FFFFFFa9"/><circle cx="123.3227901160717" cy="364.01223172433674" r="1.4800016148015858" fill="#FFFFFFbe"/><circle cx="828.4701600670815" cy="670.3001684043556" r="2.1985829900950193" fill="#FFFFFF9f"/><circle cx="327.313581854105" cy="307.30948741547763" r="1.646493665315211" fill="#FFFFFFb9"/><circle cx="487.2405733913183" cy="266.73696893267334" r="1.0923431009054183" fill="#FFFFFF9d"/><circle cx="518.4572573751211" cy="25.93768914230168" r="1.5898661583662033" fill="#FFFFFF9c"/>
        </g>
      

  <g opacity="0.92">
    
        <g transform="translate(318.48097688052803, 458.8129570009187)">
          <circle r="45.642841074597094" fill="#FACC15c7" stroke="#FDE68A99" stroke-width="4"/>
          <circle r="24.89609513159841" fill="none" stroke="#060b11e6" stroke-width="3"/>
        </g>
      
        <g transform="translate(578.9735731249675, 581.8585130898282)">
          <rect x="-14.573662461340428" y="-41.89927957635373" width="29.147324922680856" height="83.79855915270745" rx="6" fill="#FACC15c7" stroke="#FDE68A99" stroke-width="3"/>
          <rect x="-25.50390930734575" y="-49.186110807023944" width="51.0078186146915" height="10.93024684600532" rx="6" fill="#060b11e6"/>
          <rect x="-25.50390930734575" y="38.25586396101862" width="51.0078186146915" height="10.93024684600532" rx="6" fill="#060b11e6"/>
        </g>
      
        <g transform="translate(900.1075301645324, 429.35230779927224)">
          <path d="M0 -38.39192565201782 L27.422804037155583 -21.938243229724467 V9.140934679051862 Q27.422804037155583 31.07917790877633 0 42.04829952363856 Q-27.422804037155583 31.07917790877633 -27.422804037155583 9.140934679051862 V-21.938243229724467 Z" fill="#FACC15c7" stroke="#FDE68A99" stroke-width="3"/>
          <path d="M0 -16.45368242229335 V16.45368242229335" stroke="#060b11e6" stroke-width="3"/>
        </g>
      
        <g transform="translate(1237.5267029413953, 621.352431201376)">
          <path d="M-46.62581463128328 10.596776052564383 Q-8.477420842051506 -36.029038578718904 44.506459420770405 -8.477420842051506" stroke="#FDE68A99" stroke-width="6" fill="none" stroke-linecap="round"/>
          <path d="M25.432262526154517 -16.954841684103013 L44.506459420770405 -8.477420842051506 L29.670972947180275 6.358065631538629" fill="#FACC15c7"/>
        </g>
      
  </g>

  
    <g>
      <polyline points="0.0,672.6 160.0,648.8 320.0,626.4 480.0,648.6 640.0,625.9 800.0,608.4 960.0,627.8 1120.0,605.5 1280.0,592.4 1440.0,567.9 1600.0,546.2" fill="none" stroke="#FDE68Ae0" stroke-width="6" stroke-linecap="round" stroke-linejoin="round"/>
      <polygon points="0,900 0.0,672.6 160.0,648.8 320.0,626.4 480.0,648.6 640.0,625.9 800.0,608.4 960.0,627.8 1120.0,605.5 1280.0,592.4 1440.0,567.9 1600.0,546.2 1600,900" fill="#FACC151f"/>
    </g>
  

  <g opacity="0.09">
    <text x="70" y="784" font-family="Segoe UI, Arial, sans-serif" font-size="180" font-weight="700" fill="#FDE68A">
      0050.TW
    </text>
  </g>
  <g opacity="0.95">
    <text x="82" y="96" font-family="Segoe UI, Arial, sans-serif" font-size="28" font-weight="700" fill="#FDE68A">
      0050.TW
    </text>
    <text x="82" y="132" font-family="Segoe UI, Arial, sans-serif" font-size="18" font-weight="500" fill="#D1D5DBe6">
      元大台灣50 · 穩收金庫
    </text>
  </g>
</svg>