<svg xmlns="http://www.w3.org/2000/svg" viewBox="0 0 1600 900" fill="none">
  <defs>
    <linearGradient id="bg" x1="0" y1="0" x2="0" y2="1">
      <stop offset="0%" stop-color="#0d1827"/>
      <stop offset="48%" stop-color="#28425e"/>
      <stop offset="100%" stop-color="#0a1118"/>
    </linearGradient>
    <radialGradient id="glow" cx="50%" cy="25%" r="65%">
      <stop offset="0%" stop-color="#FDE68A47"/>
      <stop offset="100%" stop-color="#FDE68A00"/>
    </radialGradient>
    <linearGradient id="fade" x1="0" y1="0" x2="1" y2="1">
      <stop offset="0%" stop-color="#FACC152e"/>
      <stop offset="100%" stop-color="#D1D5DB08"/>
    </linearGradient>
  </defs>

  <rect width="1600" height="900" fill="url(#bg)"/>
  <rect width="1600" height="900" fill="url(#glow)"/>
  <rect width="1600" height="900" fill="url(#fade)"/>

  
        <g>
          <rect x="28.817108429968357" y="185.50904006697237" width="128.80530869122595" height="334.4909599330276" rx="8" fill="#D1D5DB34"/><rect x="133.03513882867992" y="306.95647065527737" width="77.1298964228481" height="213.04352934472263" rx="8" fill="#D1D5DB3d"/><rect x="264.01096964254975" y="303.0004538455978" width="75.82636188250035" height="216.9995461544022" rx="8" fill="#D1D5DB32"/><rect x="379.1077011683956" y="110.55361480917782" width="120.53448075428605" height="409.4463851908222" rx="8" fill="#D1D5DB29"/><rect x="512.790764188394" y="215.40556197054684" width="106.62682892754674" height="304.59443802945316" rx="8" fill="#D1D5DB39"/><rect x="634.4329351326451" y="292.5203697150573" width="110.03255820833147" height="227.4796302849427" rx="8" fill="#D1D5DB38"/><rect x="741.7697522928938" y="321.5955910086632" width="101.39537946786731" height="198.40440899133682" rx="8" fill="#D1D5DB31"/><rect x="866.2725533237681" y="232.7686985488981" width="99.31302402168512" height="287.2313014511019" rx="8" fill="#D1D5DB3e"/><rect x="976.9888700237498" y="295.8462787186727" width="92.09872084204108" height="224.1537212813273" rx="8" fill="#D1D5DB3a"/><rect x="1093.1919234590605" y="225.88710877113044" width="95.39963232818991" height="294.11289122886956" rx="8" fill="#D1D5DB45"/><rect x="1213.3458932284266" y="322.44963673409075" width="121.45415990613401" height="197.55036326590925" rx="8" fill="#D1D5DB38"/><rect x="1332.923197388649" y="157.89879790041596" width="96.29855963401496" height="362.10120209958404" rx="8" fill="#D1D5DB46"/><rect x="1449.9629039587453" y="181.774875652045" width="90.69883281830698" height="338.225124347955" rx="8" fill="#D1D5DB2e"/><rect x="1595.0534488493577" y="297.46337074786425" width="106.14360178820789" height="222.53662925213575" rx="8" fill="#D1D5DB30"/>
          <circle cx="1250.7074635475874" cy="535.738817579113" r="3.2009104212746022" fill="#FFFFFF9f"/><circle cx="439.7241599857807" cy="212.3072123620659" r="2.792149564810097" fill="#FFFFFFca"/><circle cx="39.271922037005424" cy="726.4797570649534" r="2.4760016120970247" fill="#FFFFFF93"/><circle cx="1340.7539550215006" cy="664.90507889539" r="2.263928778283298" fill="#FFFFFFc8"/><circle cx="944.6661479771137" cy="360.7717146165669" r="2.7617198437452313" fill="#FFFFFFa0"/><circle cx="27.538667619228363" cy="635.0178751163185" r="1.0843474062159657" fill="#FFFFFF9c"/><circle cx="175.84869675338268" cy="382.8520758077502" r="2.7694835692644117" fill="#FFFFFFa4"/><circle cx="1062.4402284622192" cy="324.3136806646362" r="2.813584449328482" fill="#FFFFFFbc"/><circle cx="579.9841787666082" cy="62.155685923062265" r="1.4998864814639092" fill="#FFFFFF8f"/><circle cx="754.9367655068636" cy="461.5386544726789" r="2.254197300411761" fill="#FFFFFFb0"/><circle cx="1007.5540874153376" cy="120.16392862424254" r="2.7974429104477165" fill="#FFFFFFb2"/><circle cx="1568.1247219443321" cy="52.11238644551486" r="3.299044162780046" fill="#FFFFFFb0"/><circle cx="323.24518896639347" cy="316.5622030617669" r="3.028471123240888" fill="#FFFFFFb5"/><circle cx="816.705697402358" cy="180.37754979450256" r="2.5198153572157027" fill="#FFFFFFb9"/><circle cx="79.41643632948399" cy="446.22640307061374" r="2.466131974756718" fill="#FFFFFFc4"/><circle cx="400.9658634662628" cy="273.2573205605149" r="1.6817491352558136" fill="#FFFFFFbe"/><circle cx="103.10403369367123" cy="705.8799331309274" r="1.8867843264713882" fill="#FFFFFF9c"/><circle cx="538.306349888444" cy="381.0818222584203" r="2.455270735919475" fill="#FFFFFFb2"/><circle cx="943.8005480915308" cy="595.0082756113261" r="2.702229069173336" fill="#FFFFFFc6"/><circle cx="19.609294086694717" cy="486.8598996894434" r="3.1421684646978973" fill="#FFFFFF9a"/><circle cx="504.5635409653187" cy="404.678658535704" r="3.381814462505281" fill="#FFFFFF95"/><circle cx="1479.8915781080723" cy="290.2348733972758" r="1.868584856018424" fill="#FFFFFFc2"/><circle cx="321.99132330715656" cy="671.3158821919933" r="1.8977936310693622" fill="#FFFFFFc9"/><circle cx="1361.422798782587" cy="156.75963449757546" r="2.583845925331116" fill="#FFFFFFbb"/><circle cx="1161.545219272375" cy="36.00321093108505" r="1.1737235380336641" fill="#FFFFFFc3"/><circle cx="605.179526284337" cy="622.8278204100206" r="2.7850967794656754" fill="#FFFFFFaa"/><circle cx="925.478284060955" cy="560.793836787343" r="3.1132772162556646" fill="#FFFFFF8e"/><circle cx="1373.9988774061203" cy="258.7090614018962" r="1.4429051050916315" fill="#FFFFFFa0"/><circle cx="420.37070617079735" cy="607.9391216626391" r="1.336656122840941" fill="#FFFFFF9e"/><circle cx="311.28306202590466" cy="512.4928318429738" r="3.172145395353436" fill="#FFFFFFa0"/><circle cx="375.9398363530636" cy="642.1640305314213" r="1.630002762004733" fill="#FFFFFFaa"/><circle cx="772.9147519916296" cy="41.28856959287077" r="2.36025214381516" fill="#FFFFFFcc"/><circle cx="1078.6668598651886" cy="870.5899322871119" r="2.1169768445193764" fill="#FFFFFFc9"/><circle cx="428.3116430044174" cy="403.8407848449424" r="1.7207825558260081" fill="#FFFFFFbb"/><circle cx="425.3522228449583" cy="714.7367356577888" r="1.8174912279471753" fill="#FFFFFFc9"/><circle cx="67.50170588493347" cy="767.3401241423562" r="3.1140961315482856" fill="#FFFFFFa2"/><circle cx="1169.5612136274576" cy="291.9214319670573" r="2.3274217054247854" fill="#FFFFFFa8"/><circle cx="1378.3333882689476" cy="324.7984375571832" r="3.0634598966687916" fill="#FFFFFFbc"/><circle cx="288.9770157635212" cy="569.794746232219" r="1.520012038387358" fill="#FFFFFFbf"/><circle cx="510.7627037912607" cy="804.5707267010584" r="1.6493695197626947" fill="#FFFFFFcc"/><circle cx="432.0216692984104" cy="258.3173694089055" r="3.2529728258028627" fill="#FFFFFFaf"/><circle cx="401.038683578372" cy="96.86238407157362" r="1.5442487444728612" fill="#FFFFFFa2"/><circle cx="5.219109356403351" cy="469.96412279549986" r="3.1986121721565723" fill="#FFFFFF8f"/><circle cx="1234.0442601591349" cy="65.48005600925535" r="2.639498798549175" fill="#FFFFFFbf"/><circle cx="98.32885563373566" cy="84.289062442258" r="2.4343567095696925" fill="#FFFFFF8f"/><circle cx="339.11450132727623" cy="4.4556606793776155" r="2.077147681824863" fill="#FFFFFFad"/><circle cx="85.60133911669254" cy="171.79248437751085" r="2.2116042437031864" fill="#FFFFFFc0"/><circle cx="154.67246994376183" cy="300.7357908412814" r="2.448468487896025" fill="#FFFFFF97"/><circle cx="1412.3180095106363" cy="899.5323864044622" r="1.1632382325828075" fill="#FFFFFF95"/><circle cx="383.4351874887943" cy="752.021720004268" r="2.9101775880903005" fill="#FFFFFF8e"/><circle cx="492.94497296214104" cy="551.820020377636" r="2.4104561518877743" fill="#FFFFFFa5"/><circle cx="233.07922407984734" cy="166.28043986856937" r="2.6769527841359375" fill="#FFFFFFbd"/><circle cx="665.5766949057579" cy="407.27433236315846" r="1.5763579145073892" fill="#FFFFFF96"/><circle cx="1445.9928818047047" cy="499.1283809300512" r="1.7138494646176694" fill="#FFFFFFb3"/><circle cx="677.296245470643" cy="797.8470789268613" r="2.169206160120666" fill="#FFFFFFc1"/><circle cx="516.9187191873789" cy="44.074747315607965" r="2.6204419393092393" fill="#FFFFFFbb"/><circle cx="1555.7017486542463" cy="450.04834388382733" r="1.242509699612856" fill="#FFFFFF9d"/><circle cx="51.07296518981457" cy="4.6850924380123615" r="1.1234742933884263" fill="#FFFFFF8f"/><circle cx="1121.1757499724627" cy="32.82142351381481" r="1.3950360437855125" fill="#FFFFFFb3"/><circle cx="626.0751914232969" cy="879.6367494156584" r="1.1172358015552164" fill="#FFFFFF93"/>
        </g>
      

  <g opacity="0.92">
    
        <g transform="translate(250.40618740022182, 475.5665295291692)">
          <circle r="42.56134199148044" fill="#FACC15c7" stroke="#FDE68A99" stroke-width="4"/>
          <circle r="23.21527744989842" fill="none" stroke="#060b11e6" stroke-width="3"/>
        </g>
      
        <g transform="translate(662.0240510487929, 635.9030588064343)">
          <rect x="-33.61396305453964" y="-26.537339253583923" width="67.22792610907928" height="53.074678507167846" rx="7.076623800955713" fill="#FACC15c7" stroke="#FDE68A99" stroke-width="3"/>
          <path d="M-33.61396305453964 0 H33.61396305453964 M0 -26.537339253583923 V26.537339253583923" stroke="#060b11e6" stroke-width="3"/>
        </g>
      
        <g transform="translate(897.46592823416, 421.67512270621955)">
          <circle r="40.23543159139343" fill="#FACC15c7" stroke="#FDE68A99" stroke-width="4"/>
          <circle r="8.746832954650746" fill="#060b11e6"/>
          <path d="M0 -27.989865454882384 L0 27.989865454882384 M-27.989865454882384 0 L27.989865454882384 0" stroke="#060b11e6" stroke-width="4"/>
        </g>
      
        <g transform="translate(1305.1909904368222, 592.0880606211722)">
          <circle r="37.48605480479077" fill="#FACC15c7" stroke="#FDE68A99" stroke-width="4"/>
          <circle r="20.446938984431327" fill="none" stroke="#060b11e6" stroke-width="3"/>
        </g>
      
  </g>

  
    <g>
      <polyline points="0.0,624.4 160.0,587.9 320.0,557.0 480.0,527.1 640.0,504.6 800.0,482.3 960.0,447.7 1120.0,412.0 1280.0,394.3 1440.0,366.7 1600.0,352.7" fill="none" stroke="#FDE68Ae0" stroke-width="6" stroke-linecap="round" stroke-linejoin="round"/>
      <polygon points="0,900 0.0,624.4 160.0,587.9 320.0,557.0 480.0,527.1 640.0,504.6 800.0,482.3 960.0,447.7 1120.0,412.0 1280.0,394.3 1440.0,366.7 1600.0,352.7 1600,900" fill="#FACC151f"/>
    </g>
  

  <g opacity="0.09">
    <text x="70" y="784" font-family="Segoe UI, Arial, sans-serif" font-size="180" font-weight="700" fill="#FDE68A">
      0056.TW
    </text>
  </g>
  <g opacity="0.95">
    <text x="82" y="96" font-family="Segoe UI, Arial, sans-serif" font-size="28" font-weight="700" fill="#FDE68A">
      0056.TW
    </text>
    <text x="82" y="132" font-family="Segoe UI, Arial, sans-serif" font-size="18" font-weight="500" fill="#D1D5DBe6">
      元大高股息 · 穩收金庫
    </text>
  </g>
</svg>