<svg xmlns="http://www.w3.org/2000/svg" viewBox="0 0 1600 900" fill="none">
  <defs>
    <linearGradient id="bg" x1="0" y1="0" x2="0" y2="1">
      <stop offset="0%" stop-color="#0d1827"/>
      <stop offset="48%" stop-color="#28425e"/>
      <stop offset="100%" stop-color="#0a1118"/>
    </linearGradient>
    <radialGradient id="glow" cx="50%" cy="25%" r="65%">
      <stop offset="0%" stop-color="#FDE68A47"/>
      <stop offset="100%" stop-color="#FDE68A00"/>
    </radialGradient>
    <linearGradient id="fade" x1="0" y1="0" x2="1" y2="1">
      <stop offset="0%" stop-color="#FACC152e"/>
      <stop offset="100%" stop-color="#D1D5DB08"/>
    </linearGradient>
  </defs>

  <rect width="1600" height="900" fill="url(#bg)"/>
  <rect width="1600" height="900" fill="url(#glow)"/>
  <rect width="1600" height="900" fill="url(#fade)"/>

  
        <g>
          <rect x="2.606855906546116" y="327.4129476444796" width="79.80760981794447" height="192.58705235552043" rx="8" fill="#D1D5DB31"/><rect x="136.39767024479806" y="289.2751198634505" width="124.36906221788377" height="230.72488013654947" rx="8" fill="#D1D5DB35"/><rect x="260.5496667344123" y="214.50320763513446" width="115.72787201032043" height="305.49679236486554" rx="8" fill="#D1D5DB2f"/><rect x="394.17167898081243" y="320.3445240762085" width="78.86621948331594" height="199.65547592379153" rx="8" fill="#D1D5DB38"/><rect x="495.3368086516857" y="171.50918854866177" width="123.1718736467883" height="348.49081145133823" rx="8" fill="#D1D5DB2d"/><rect x="605.8147866139188" y="136.70206228271127" width="91.61427187267691" height="383.29793771728873" rx="8" fill="#D1D5DB37"/><rect x="743.8001079736277" y="321.13094876520336" width="77.36790337134153" height="198.86905123479664" rx="8" fill="#D1D5DB3f"/><rect x="857.587378738448" y="114.51919872313738" width="117.73237305693328" height="405.4808012768626" rx="8" fill="#D1D5DB47"/><rect x="990.4973558876663" y="259.030366926454" width="113.68398789316416" height="260.969633073546" rx="8" fill="#D1D5DB2a"/><rect x="1106.3526981482282" y="245.54256530478597" width="118.72277063317597" height="274.45743469521403" rx="8" fill="#D1D5DB3f"/><rect x="1209.0947328144684" y="309.07862921245396" width="97.03744267113507" height="210.92137078754604" rx="8" fill="#D1D5DB35"/><rect x="1327.0159416189417" y="326.07015346642584" width="117.03948779497296" height="193.92984653357416" rx="8" fill="#D1D5DB2c"/><rect x="1456.080103612505" y="172.65354903414845" width="85.67540143616498" height="347.34645096585155" rx="8" fill="#D1D5DB32"/><rect x="1594.9222107511014" y="165.47388832550496" width="78.19705634843558" height="354.52611167449504" rx="8" fill="#D1D5DB44"/>
          <circle cx="1319.754058495164" cy="687.1652840869501" r="2.824935818836093" fill="#FFFFFFc3"/><circle cx="944.307479634881" cy="248.12068697065115" r="1.5353756634518505" fill="#FFFFFFbd"/><circle cx="1004.8747275024652" cy="155.94330858439207" r="1.939937706105411" fill="#FFFFFFc5"/><circle cx="1515.070140361786" cy="776.0089742252603" r="1.1704666886478663" fill="#FFFFFFaa"/><circle cx="1579.1075810790062" cy="897.5085159530863" r="2.693405035696924" fill="#FFFFFFc6"/><circle cx="518.903099000454" cy="596.2962510064244" r="2.4836223160848023" fill="#FFFFFFaa"/><circle cx="1409.6487808972597" cy="655.4491781629622" r="3.0968002056702972" fill="#FFFFFFb9"/><circle cx="712.1057793498039" cy="84.71988618839532" r="1.410292203910649" fill="#FFFFFFc3"/><circle cx="1009.0902477502823" cy="29.175982112064958" r="2.82383807785809" fill="#FFFFFFaa"/><circle cx="1364.829833060503" cy="576.151359686628" r="2.216389421932399" fill="#FFFFFF8e"/><circle cx="88.72447870671749" cy="164.056202955544" r="1.9088129615411162" fill="#FFFFFFbd"/><circle cx="1065.305994823575" cy="396.97481780312955" r="3.2939750218763946" fill="#FFFFFFb8"/><circle cx="1222.3703309893608" cy="436.0950144007802" r="2.28717296756804" fill="#FFFFFFad"/><circle cx="8.66851806640625" cy="82.29552861303091" r="2.4726097721606495" fill="#FFFFFFaa"/><circle cx="1329.2656242847443" cy="214.54771079588681" r="2.7189168360084297" fill="#FFFFFF99"/><circle cx="175.69348849356174" cy="134.38802019227296" r="2.1356283253058788" fill="#FFFFFFa6"/><circle cx="18.872110545635223" cy="619.7523278882727" r="1.7330315746366978" fill="#FFFFFFca"/><circle cx="254.52941842377186" cy="37.82069378066808" r="2.7456609604880216" fill="#FFFFFFb2"/><circle cx="629.3362222611904" cy="21.678724279627204" r="2.594774996116757" fill="#FFFFFFc1"/><circle cx="1387.073851376772" cy="643.0541802663356" r="1.6964993285015226" fill="#FFFFFFb4"/><circle cx="128.9056159555912" cy="815.419901534915" r="2.3683940870687366" fill="#FFFFFFa5"/><circle cx="555.3719539195299" cy="824.6274142060429" r="2.8992307342588903" fill="#FFFFFFbb"/><circle cx="835.1695701479912" cy="148.86990264058113" r="2.4763209994882347" fill="#FFFFFFa1"/><circle cx="1346.8693733215332" cy="256.6910029621795" r="1.1665405046194792" fill="#FFFFFF9a"/><circle cx="692.149081453681" cy="526.6510563204065" r="1.4833462679758669" fill="#FFFFFFca"/><circle cx="247.70734012126923" cy="510.10764478705823" r="1.1318096742033958" fill="#FFFFFFbd"/><circle cx="1149.1232730448246" cy="673.2429376803339" r="2.6208132196217777" fill="#FFFFFFbc"/><circle cx="975.8699383586645" cy="701.5047299209982" r="2.0283668555319307" fill="#FFFFFF93"/><circle cx="1373.2563707977533" cy="690.5633933376521" r="1.4433031303808093" fill="#FFFFFFc0"/><circle cx="300.076075643301" cy="35.64556706696749" r="2.6642427466809746" fill="#FFFFFFa6"/><circle cx="386.91970743238926" cy="868.5455412603915" r="1.6080315792933106" fill="#FFFFFFc9"/><circle cx="947.1295278519392" cy="150.4796152934432" r="2.763372846134007" fill="#FFFFFF92"/><circle cx="1205.2290309220552" cy="48.778208275325596" r="1.3665743907913566" fill="#FFFFFFb8"/><circle cx="330.62089644372463" cy="63.52840969339013" r="1.2908803960308433" fill="#FFFFFF9f"/><circle cx="1154.6538807451725" cy="72.85523267928511" r="2.4249645138159392" fill="#FFFFFFc4"/><circle cx="617.5341706722975" cy="685.7851704116911" r="1.672144741564989" fill="#FFFFFFa8"/><circle cx="449.99995045363903" cy="405.3477382985875" r="2.9746089927852153" fill="#FFFFFF90"/><circle cx="1493.477337807417" cy="170.7292619626969" r="1.487860144674778" fill="#FFFFFFc0"/><circle cx="1072.9306194931269" cy="411.9662451557815" r="2.5509882926940914" fill="#FFFFFFb7"/><circle cx="910.4538649320602" cy="358.64950788673013" r="1.4472673553973436" fill="#FFFFFF90"/><circle cx="1238.241796195507" cy="251.30335993599147" r="2.535899577848613" fill="#FFFFFFc7"/><circle cx="271.931641548872" cy="738.3194459136575" r="3.0004142217338083" fill="#FFFFFFac"/><circle cx="359.92737524211407" cy="199.06118516810238" r="2.791998192109167" fill="#FFFFFFa9"/><circle cx="1140.633413940668" cy="823.0113375931978" r="2.5561783481389284" fill="#FFFFFF8e"/><circle cx="856.4522299915552" cy="142.13213785551488" r="3.1770475653931496" fill="#FFFFFFcb"/><circle cx="1454.8731092363596" cy="588.2155620027333" r="1.0868818573653698" fill="#FFFFFFba"/><circle cx="1308.019706234336" cy="529.4503686949611" r="1.212847090885043" fill="#FFFFFFc6"/><circle cx="1051.4926679432392" cy="695.2754493104294" r="1.705989265628159" fill="#FFFFFF9f"/><circle cx="381.12320974469185" cy="577.9500863514841" r="2.027789543569088" fill="#FFFFFF9a"/><circle cx="319.5888355374336" cy="292.83085463102907" r="3.2462132416665552" fill="#FFFFFFc8"/><circle cx="1013.9049801975489" cy="840.1953291613609" r="2.936211962625384" fill="#FFFFFFc1"/><circle cx="680.0542294979095" cy="234.75376130081713" r="2.106833112239838" fill="#FFFFFFa6"/><circle cx="1500.9574141353369" cy="421.5038174763322" r="1.6972490774467586" fill="#FFFFFFb4"/><circle cx="84.6854817122221" cy="400.67769829183817" r="3.2099541243165732" fill="#FFFFFFbb"/><circle cx="448.1560681015253" cy="809.7263267962262" r="1.6484288785606622" fill="#FFFFFFa6"/><circle cx="959.5347218215466" cy="350.5972769111395" r="1.0696521876379848" fill="#FFFFFF99"/><circle cx="777.5731064379215" cy="647.4852561950684" r="2.2440373156219717" fill="#FFFFFFb6"/><circle cx="652.2928275167942" cy="820.7580772927031" r="1.0546234101057053" fill="#FFFFFFb4"/><circle cx="60.60357615351677" cy="614.104072842747" r="1.4433069558814169" fill="#FFFFFF91"/><circle cx="180.23244254291058" cy="181.19639803189784" r="1.433613990060985" fill="#FFFFFFbf"/>
        </g>
      

  <g opacity="0.92">
    
        <g transform="translate(349.8011952266097, 441.691256063059)">
          <circle r="41.08410418042913" fill="#FACC15c7" stroke="#FDE68A99" stroke-width="4"/>
          <circle r="22.40951137114316" fill="none" stroke="#060b11e6" stroke-width="3"/>
        </g>
      
        <g transform="translate(589.3930972134694, 583.0512737249956)">
          <rect x="-17.208536034971477" y="-49.47454110054299" width="34.417072069942954" height="98.94908220108599" rx="6" fill="#FACC15c7" stroke="#FDE68A99" stroke-width="3"/>
          <rect x="-30.114938061200085" y="-58.07880911802874" width="60.22987612240017" height="12.906402026228607" rx="6" fill="#060b11e6"/>
          <rect x="-30.114938061200085" y="45.172407091800125" width="60.22987612240017" height="12.906402026228607" rx="6" fill="#060b11e6"/>
        </g>
      
        <g transform="translate(919.4211361790076, 445.4852241743356)">
          <path d="M0 -44.31534232157282 L31.65381594398059 -25.32305275518447 V10.551271981326863 Q31.65381594398059 35.87432473651134 0 48.53585111410357 Q-31.65381594398059 35.87432473651134 -31.65381594398059 10.551271981326863 V-25.32305275518447 Z" fill="#FACC15c7" stroke="#FDE68A99" stroke-width="3"/>
          <path d="M0 -18.992289566388354 V18.992289566388354" stroke="#060b11e6" stroke-width="3"/>
        </g>
      
        <g transform="translate(1304.8162163840607, 593.6948590399697)">
          <path d="M-44.63823856426403 10.145054219150916 Q-8.116043375320732 -34.493184345113114 42.60922772043384 -8.116043375320732" stroke="#FDE68A99" stroke-width="6" fill="none" stroke-linecap="round"/>
          <path d="M24.348130125962197 -16.232086750641464 L42.60922772043384 -8.116043375320732 L28.406151813622568 6.087032531490549" fill="#FACC15c7"/>
        </g>
      
  </g>

  
    <g>
      <polyline points="0.0,662.8 160.0,676.2 320.0,674.5 480.0,686.4 640.0,662.3 800.0,683.2 960.0,674.3 1120.0,683.1 1280.0,660.1 1440.0,683.0 1600.0,658.8" fill="none" stroke="#FDE68Ae0" stroke-width="6" stroke-linecap="round" stroke-linejoin="round"/>
      <polygon points="0,900 0.0,662.8 160.0,676.2 320.0,674.5 480.0,686.4 640.0,662.3 800.0,683.2 960.0,674.3 1120.0,683.1 1280.0,660.1 1440.0,683.0 1600.0,658.8 1600,900" fill="#FACC151f"/>
    </g>
  

  <g opacity="0.09">
    <text x="70" y="784" font-family="Segoe UI, Arial, sans-serif" font-size="180" font-weight="700" fill="#FDE68A">
      006208.TW
    </text>
  </g>
  <g opacity="0.95">
    <text x="82" y="96" font-family="Segoe UI, Arial, sans-serif" font-size="28" font-weight="700" fill="#FDE68A">
      006208.TW
    </text>
    <text x="82" y="132" font-family="Segoe UI, Arial, sans-serif" font-size="18" font-weight="500" fill="#D1D5DBe6">
      富邦台50 · 穩收金庫
    </text>
  </g>
</svg>