<svg xmlns="http://www.w3.org/2000/svg" viewBox="0 0 1600 900" fill="none">
  <defs>
    <linearGradient id="bg" x1="0" y1="0" x2="0" y2="1">
      <stop offset="0%" stop-color="#0d1827"/>
      <stop offset="48%" stop-color="#28425e"/>
      <stop offset="100%" stop-color="#0a1118"/>
    </linearGradient>
    <radialGradient id="glow" cx="50%" cy="25%" r="65%">
      <stop offset="0%" stop-color="#FDE68A47"/>
      <stop offset="100%" stop-color="#FDE68A00"/>
    </radialGradient>
    <linearGradient id="fade" x1="0" y1="0" x2="1" y2="1">
      <stop offset="0%" stop-color="#FACC152e"/>
      <stop offset="100%" stop-color="#D1D5DB08"/>
    </linearGradient>
  </defs>

  <rect width="1600" height="900" fill="url(#bg)"/>
  <rect width="1600" height="900" fill="url(#glow)"/>
  <rect width="1600" height="900" fill="url(#fade)"/>

  
        <g>
          <rect x="5.321696433238685" y="224.57306645344943" width="91.66333390399814" height="295.4269335465506" rx="8" fill="#D1D5DB35"/><rect x="151.61769541539252" y="247.91667001787573" width="89.14447602815926" height="272.08332998212427" rx="8" fill="#D1D5DB46"/><rect x="252.71764176618308" y="257.64081216417253" width="128.64523912314326" height="262.35918783582747" rx="8" fill="#D1D5DB36"/><rect x="384.73758063465357" y="298.362644771114" width="97.83091120421886" height="221.637355228886" rx="8" fill="#D1D5DB41"/><rect x="501.0836146110669" y="195.9871055651456" width="78.44825606327504" height="324.0128944348544" rx="8" fill="#D1D5DB34"/><rect x="618.3852307861671" y="276.69914070516825" width="108.845080351457" height="243.30085929483175" rx="8" fill="#D1D5DB3e"/><rect x="730.8731047064066" y="307.5487368227914" width="95.7130240323022" height="212.4512631772086" rx="8" fill="#D1D5DB38"/><rect x="874.6159923188388" y="357.6595470495522" width="106.4489234238863" height="162.3404529504478" rx="8" fill="#D1D5DB3d"/><rect x="988.0328745776787" y="183.78691728692502" width="77.18917965423316" height="336.213082713075" rx="8" fill="#D1D5DB47"/><rect x="1082.4569640588015" y="188.83849653881043" width="125.77407690696418" height="331.16150346118957" rx="8" fill="#D1D5DB3e"/><rect x="1229.8122037416324" y="274.3177779112011" width="108.65201797802001" height="245.68222208879888" rx="8" fill="#D1D5DB3e"/><rect x="1342.0450713336468" y="359.52900832053274" width="87.63786871917546" height="160.47099167946726" rx="8" fill="#D1D5DB3f"/><rect x="1456.886039125733" y="332.42767326533794" width="116.97586757130921" height="187.57232673466206" rx="8" fill="#D1D5DB31"/><rect x="1590.953892286867" y="286.92941239103675" width="114.58074809983373" height="233.07058760896325" rx="8" fill="#D1D5DB38"/>
          <circle cx="602.962251380086" cy="720.3700403217226" r="1.5270500425249338" fill="#FFFFFFc2"/><circle cx="71.45172022283077" cy="866.1473932676017" r="1.0933195032179355" fill="#FFFFFFb3"/><circle cx="1413.5873220860958" cy="510.89216410182416" r="2.9242538383230565" fill="#FFFFFF9a"/><circle cx="953.9313532412052" cy="614.5074718398973" r="1.4748939065262676" fill="#FFFFFFc6"/><circle cx="717.3980418592691" cy="164.1549319261685" r="3.383758772909641" fill="#FFFFFFa5"/><circle cx="1056.3226699829102" cy="604.1984645649791" r="1.288424208946526" fill="#FFFFFFad"/><circle cx="974.6108315885067" cy="288.8715057168156" r="2.2842634508386253" fill="#FFFFFFc0"/><circle cx="301.4651007950306" cy="883.9725212194026" r="1.6557958444580434" fill="#FFFFFFaf"/><circle cx="1177.8586070984602" cy="30.59228779748082" r="2.209105724096298" fill="#FFFFFFb1"/><circle cx="1104.0845301002264" cy="154.52482192777097" r="1.4769927049055696" fill="#FFFFFF9b"/><circle cx="1088.8357803225517" cy="730.6087119039148" r="1.74700135178864" fill="#FFFFFF95"/><circle cx="1246.082903072238" cy="604.6054135076702" r="3.21510279327631" fill="#FFFFFFba"/><circle cx="431.09732046723366" cy="723.129459656775" r="1.3390600873157381" fill="#FFFFFF90"/><circle cx="1265.1485987007618" cy="66.78181544411927" r="1.745615783520043" fill="#FFFFFF8e"/><circle cx="870.7186453044415" cy="639.6546486066654" r="2.6217654066160323" fill="#FFFFFFb9"/><circle cx="259.5628868788481" cy="233.67325959261507" r="2.570689858868718" fill="#FFFFFFb7"/><circle cx="1460.1418640464544" cy="78.06989417877048" r="1.1650999845936894" fill="#FFFFFFa1"/><circle cx="1094.5726808160543" cy="558.2513331435621" r="2.9201789190992713" fill="#FFFFFFc4"/><circle cx="162.71335184574127" cy="384.5377653837204" r="2.7831438552588224" fill="#FFFFFFb4"/><circle cx="1450.5958434194326" cy="93.7959079630673" r="1.879016638547182" fill="#FFFFFFad"/><circle cx="187.0995383709669" cy="37.20253868959844" r="1.3361999209970237" fill="#FFFFFFc6"/><circle cx="1146.2188575416803" cy="555.3544608643278" r="1.2844281489029528" fill="#FFFFFF8e"/><circle cx="356.3319429755211" cy="504.88402051851153" r="2.4154462151229383" fill="#FFFFFF95"/><circle cx="518.9390257000923" cy="738.0024270387366" r="1.5519986471161245" fill="#FFFFFF8e"/><circle cx="1084.3070320785046" cy="728.4984332509339" r="1.0089804576709867" fill="#FFFFFFcb"/><circle cx="1339.0543464571238" cy="119.51766586862504" r="1.228016491048038" fill="#FFFFFFa2"/><circle cx="1071.4053742587566" cy="801.4682004461065" r="2.9083078648895024" fill="#FFFFFFa3"/><circle cx="238.2472913712263" cy="836.227173381485" r="3.080094299837947" fill="#FFFFFFc7"/><circle cx="925.0955875962973" cy="91.94589201360941" r="2.1020797109231353" fill="#FFFFFFc9"/><circle cx="1020.078206807375" cy="306.9170980481431" r="2.040637963451445" fill="#FFFFFFb4"/><circle cx="178.62096838653088" cy="637.0210433145985" r="2.1658781154081224" fill="#FFFFFFbe"/><circle cx="52.14957818388939" cy="584.7234346205369" r="2.1016285192221402" fill="#FFFFFF97"/><circle cx="1346.2843481451273" cy="22.304126992821693" r="1.44784691426903" fill="#FFFFFFb3"/><circle cx="1490.45991897583" cy="743.8562736148015" r="3.3880977500230074" fill="#FFFFFFc8"/><circle cx="1160.2271687239408" cy="540.1632020249963" r="1.5844829889014362" fill="#FFFFFFc7"/><circle cx="782.8598421067" cy="238.6821439024061" r="3.2495179729536177" fill="#FFFFFF98"/><circle cx="132.75552168488503" cy="434.0204135281965" r="2.4917682390660048" fill="#FFFFFF9b"/><circle cx="669.4371931254864" cy="79.32902912143618" r="1.1614130133762957" fill="#FFFFFF99"/><circle cx="183.5285071283579" cy="417.08417613990605" r="1.9422668984159825" fill="#FFFFFF9b"/><circle cx="1377.7307342737913" cy="379.7192322090268" r="3.115898777730763" fill="#FFFFFF8d"/><circle cx="426.50770507752895" cy="346.2091471301392" r="2.0858977237716316" fill="#FFFFFFad"/><circle cx="1277.5774262845516" cy="500.9714625310153" r="1.4251122273504735" fill="#FFFFFF9c"/><circle cx="424.4258102029562" cy="392.071779537946" r="1.748340943083167" fill="#FFFFFF9f"/><circle cx="15.325519815087318" cy="475.7452048128471" r="2.868519938364625" fill="#FFFFFFa5"/><circle cx="438.63115049898624" cy="179.57031447440386" r="3.183322961628437" fill="#FFFFFFc4"/><circle cx="1018.3131668716669" cy="27.447777008637786" r="2.8104409512132404" fill="#FFFFFF96"/><circle cx="195.96067517995834" cy="7.904685172252357" r="2.2566250655800104" fill="#FFFFFFb9"/><circle cx="987.694513052702" cy="784.2177877435461" r="2.3964672449976208" fill="#FFFFFFbd"/><circle cx="977.3412067443132" cy="437.69991646986455" r="2.270650050416589" fill="#FFFFFFb1"/><circle cx="1319.6170184761286" cy="185.4270758572966" r="2.5905843121930956" fill="#FFFFFF93"/><circle cx="192.6155235618353" cy="882.8770209336653" r="2.2306110987439753" fill="#FFFFFFa9"/><circle cx="1139.3503487110138" cy="407.5448237126693" r="2.0736218286678194" fill="#FFFFFF92"/><circle cx="428.53762842714787" cy="366.5825513424352" r="3.072160591557622" fill="#FFFFFFb8"/><circle cx="548.1588777154684" cy="340.982619789429" r="1.0831040620803833" fill="#FFFFFFcb"/><circle cx="1093.0119816213846" cy="73.75584847759455" r="3.248020691238344" fill="#FFFFFFb3"/><circle cx="683.1402227282524" cy="384.43653273861855" r="2.3637093000113962" fill="#FFFFFF9a"/><circle cx="661.1002378165722" cy="258.82031796500087" r="1.8253762932494282" fill="#FFFFFFb5"/><circle cx="1516.143647953868" cy="199.5222883298993" r="2.289194977097213" fill="#FFFFFF9c"/><circle cx="1082.016322389245" cy="112.69842688925564" r="2.3946347553282976" fill="#FFFFFF93"/><circle cx="1107.2449862957" cy="517.5869058351964" r="3.047589467652142" fill="#FFFFFFc6"/>
        </g>
      

  <g opacity="0.92">
    
        <g transform="translate(277.131262794137, 469.5407699374482)">
          <circle r="40.20923777686432" fill="#FACC15c7" stroke="#FDE68A99" stroke-width="4"/>
          <circle r="21.932311514653264" fill="none" stroke="#060b11e6" stroke-width="3"/>
        </g>
      
        <g transform="translate(623.182287258096, 637.7282465668395)">
          <circle r="34.800903148101646" fill="#FACC15c7" stroke="#FDE68A99" stroke-width="3"/>
          <path d="M-14.653011851832272 -27.474397222185505 V27.474397222185505" stroke="#060b11e6" stroke-width="2"/><path d="M0 -27.474397222185505 V27.474397222185505" stroke="#060b11e6" stroke-width="2"/><path d="M14.653011851832272 -27.474397222185505 V27.474397222185505" stroke="#060b11e6" stroke-width="2"/>
          <path d="M-27.474397222185505 -14.653011851832272 H27.474397222185505" stroke="#060b11e6" stroke-width="2"/><path d="M-27.474397222185505 0 H27.474397222185505" stroke="#060b11e6" stroke-width="2"/><path d="M-27.474397222185505 14.653011851832272 H27.474397222185505" stroke="#060b11e6" stroke-width="2"/>
        </g>
      
        <g transform="translate(926.2466202815995, 465.29595093335956)">
          <rect x="-41.171056673731655" y="-32.503465795051305" width="82.34211334746331" height="65.00693159010261" rx="8.667590878680349" fill="#FACC15c7" stroke="#FDE68A99" stroke-width="3"/>
          <path d="M-41.171056673731655 0 H41.171056673731655 M0 -32.503465795051305 V32.503465795051305" stroke="#060b11e6" stroke-width="3"/>
        </g>
      
        <g transform="translate(1244.9714162759483, 626.1129670264199)">
          <path d="M0 -36.043388134874405 L25.745277239196003 -20.5962217913568 V8.581759079732 Q25.745277239196003 29.177980871088806 0 39.476091766767205 Q-25.745277239196003 29.177980871088806 -25.745277239196003 8.581759079732 V-20.5962217913568 Z" fill="#FACC15c7" stroke="#FDE68A99" stroke-width="3"/>
          <path d="M0 -15.447166343517601 V15.447166343517601" stroke="#060b11e6" stroke-width="3"/>
        </g>
      
  </g>

  
    <g>
      <polyline points="0.0,619.7 160.0,605.9 320.0,584.5 480.0,549.4 640.0,520.0 800.0,505.9 960.0,470.8 1120.0,442.7 1280.0,408.0 1440.0,384.9 1600.0,365.0" fill="none" stroke="#FDE68Ae0" stroke-width="6" stroke-linecap="round" stroke-linejoin="round"/>
      <polygon points="0,900 0.0,619.7 160.0,605.9 320.0,584.5 480.0,549.4 640.0,520.0 800.0,505.9 960.0,470.8 1120.0,442.7 1280.0,408.0 1440.0,384.9 1600.0,365.0 1600,900" fill="#FACC151f"/>
    </g>
  

  <g opacity="0.09">
    <text x="70" y="784" font-family="Segoe UI, Arial, sans-serif" font-size="180" font-weight="700" fill="#FDE68A">
      00878.TW
    </text>
  </g>
  <g opacity="0.95">
    <text x="82" y="96" font-family="Segoe UI, Arial, sans-serif" font-size="28" font-weight="700" fill="#FDE68A">
      00878.TW
    </text>
    <text x="82" y="132" font-family="Segoe UI, Arial, sans-serif" font-size="18" font-weight="500" fill="#D1D5DBe6">
      國泰永續高股息 · 穩收金庫
    </text>
  </g>
</svg>