<svg xmlns="http://www.w3.org/2000/svg" viewBox="0 0 1600 900" fill="none">
  <defs>
    <linearGradient id="bg" x1="0" y1="0" x2="0" y2="1">
      <stop offset="0%" stop-color="#0d1827"/>
      <stop offset="48%" stop-color="#28425e"/>
      <stop offset="100%" stop-color="#0a1118"/>
    </linearGradient>
    <radialGradient id="glow" cx="50%" cy="25%" r="65%">
      <stop offset="0%" stop-color="#FDE68A47"/>
      <stop offset="100%" stop-color="#FDE68A00"/>
    </radialGradient>
    <linearGradient id="fade" x1="0" y1="0" x2="1" y2="1">
      <stop offset="0%" stop-color="#FACC152e"/>
      <stop offset="100%" stop-color="#D1D5DB08"/>
    </linearGradient>
  </defs>

  <rect width="1600" height="900" fill="url(#bg)"/>
  <rect width="1600" height="900" fill="url(#glow)"/>
  <rect width="1600" height="900" fill="url(#fade)"/>

  
        <g>
          <rect x="23.229724156670272" y="183.06611503940076" width="92.53628433682024" height="336.93388496059924" rx="8" fill="#D1D5DB30"/><rect x="132.74860000703484" y="116.25012179836631" width="89.46505995001644" height="403.7498782016337" rx="8" fill="#D1D5DB2a"/><rect x="265.07579142507166" y="147.38997002132237" width="108.68540754076093" height="372.61002997867763" rx="8" fill="#D1D5DB32"/><rect x="390.99926692340523" y="150.3695953125134" width="81.90133897587657" height="369.6304046874866" rx="8" fill="#D1D5DB46"/><rect x="512.987295543775" y="192.96358945779502" width="94.83060175552964" height="327.036410542205" rx="8" fill="#D1D5DB34"/><rect x="627.3354400601238" y="318.3934064442292" width="121.92091294564307" height="201.60659355577081" rx="8" fill="#D1D5DB40"/><rect x="731.5107083357871" y="309.13426503539085" width="88.444825229235" height="210.86573496460915" rx="8" fill="#D1D5DB3f"/><rect x="853.620975824073" y="175.49594370648265" width="83.13946730457246" height="344.50405629351735" rx="8" fill="#D1D5DB2c"/><rect x="975.56061376445" y="268.9707448799163" width="91.18886779528111" height="251.0292551200837" rx="8" fill="#D1D5DB42"/><rect x="1104.3116888925433" y="346.8651582393795" width="93.66957985330373" height="173.13484176062047" rx="8" fill="#D1D5DB46"/><rect x="1235.8547092303634" y="170.46057659201324" width="118.89170984737575" height="349.53942340798676" rx="8" fill="#D1D5DB42"/><rect x="1341.771052041091" y="156.04266247246414" width="96.42480605747551" height="363.95733752753586" rx="8" fill="#D1D5DB39"/><rect x="1473.1512475982308" y="267.01235512271523" width="94.79514182079583" height="252.98764487728477" rx="8" fill="#D1D5DB47"/><rect x="1563.6626669503748" y="212.1905385144055" width="120.47989366576076" height="307.8094614855945" rx="8" fill="#D1D5DB2b"/>
          <circle cx="233.17349255084991" cy="561.6756561677903" r="2.8081044767051937" fill="#FFFFFF91"/><circle cx="98.0155672878027" cy="172.43020702153444" r="2.1742482610046863" fill="#FFFFFF9a"/><circle cx="1109.9517237395048" cy="690.2599981985986" r="1.9687526166439056" fill="#FFFFFFbc"/><circle cx="1300.3539804369211" cy="496.39839213341475" r="1.4923513907939197" fill="#FFFFFF97"/><circle cx="128.64629924297333" cy="8.561403304338455" r="1.2363508017733693" fill="#FFFFFFa1"/><circle cx="40.84747172892094" cy="185.69143814966083" r="2.608903931081295" fill="#FFFFFFc8"/><circle cx="248.7694215029478" cy="570.9741118596867" r="1.0989801343530416" fill="#FFFFFFc9"/><circle cx="480.0991356372833" cy="716.736201569438" r="1.7418984591960907" fill="#FFFFFFb9"/><circle cx="782.0609826594591" cy="873.9361915038899" r="2.9673077488318085" fill="#FFFFFFbd"/><circle cx="473.1791276484728" cy="706.8217491265386" r="2.814054842852056" fill="#FFFFFFb7"/><circle cx="521.6147299855947" cy="797.3871611757204" r="2.401108124293387" fill="#FFFFFFab"/><circle cx="225.42502880096436" cy="785.0365752121434" r="2.608501546084881" fill="#FFFFFFb6"/><circle cx="612.4284017831087" cy="575.8568495744839" r="2.9300729243084787" fill="#FFFFFF99"/><circle cx="274.9318152666092" cy="431.4351135632023" r="1.7596592711284758" fill="#FFFFFFba"/><circle cx="1406.629004701972" cy="849.9206077074632" r="1.1851606773212553" fill="#FFFFFFad"/><circle cx="1231.8827275186777" cy="505.9862332418561" r="1.6347605453804135" fill="#FFFFFF9e"/><circle cx="702.4884290993214" cy="790.4531148495153" r="3.312640513293445" fill="#FFFFFFb7"/><circle cx="1034.0988006442785" cy="635.9250124543905" r="1.759038178808987" fill="#FFFFFFbd"/><circle cx="1532.6808083802462" cy="491.2629396189004" r="2.283697705902159" fill="#FFFFFF95"/><circle cx="486.56560629606247" cy="249.25232310779393" r="3.0621317801997066" fill="#FFFFFFa9"/><circle cx="870.5707468092442" cy="320.363285089843" r="1.91785107832402" fill="#FFFFFFa5"/><circle cx="1347.0361668616533" cy="778.8172743050382" r="1.1014086863026022" fill="#FFFFFFaa"/><circle cx="768.5435686260462" cy="569.7001072112471" r="2.263859000056982" fill="#FFFFFF90"/><circle cx="1367.6563188433647" cy="0.43710891623049974" r="3.1642360381782053" fill="#FFFFFFa9"/><circle cx="1251.3311322778463" cy="213.0849909503013" r="1.4141478609293698" fill="#FFFFFFa7"/><circle cx="982.3135178536177" cy="810.0204326910898" r="2.4490263996645805" fill="#FFFFFFb2"/><circle cx="1271.1499821394682" cy="862.4772403389215" r="1.528760726377368" fill="#FFFFFFa9"/><circle cx="453.48858311772346" cy="261.04362385813147" r="2.117175380513072" fill="#FFFFFFb2"/><circle cx="1025.04622079432" cy="389.00389422196895" r="2.9362843459472057" fill="#FFFFFFad"/><circle cx="11.660587415099144" cy="327.6277338853106" r="3.1665426775813104" fill="#FFFFFFb1"/><circle cx="15.211286768317223" cy="358.872060617432" r="1.5386193795129657" fill="#FFFFFFb7"/><circle cx="848.8167867064476" cy="427.77819628827274" r="1.6768079033121466" fill="#FFFFFFad"/><circle cx="595.1023697853088" cy="503.6466150311753" r="2.4329519679769875" fill="#FFFFFFbd"/><circle cx="1096.7255659401417" cy="888.5619076201692" r="1.070732835121453" fill="#FFFFFF9c"/><circle cx="215.5117705464363" cy="804.4628275092691" r="2.822072350606322" fill="#FFFFFFa6"/><circle cx="1524.13438744843" cy="108.53443045634776" r="1.3572470558807255" fill="#FFFFFFb9"/><circle cx="429.1438065469265" cy="854.206346673891" r="1.129478707164526" fill="#FFFFFFb3"/><circle cx="258.2532621920109" cy="262.3902704799548" r="1.4422917537391187" fill="#FFFFFFae"/><circle cx="1017.7545998245478" cy="202.38873702473938" r="1.5811098707839846" fill="#FFFFFF91"/><circle cx="632.5636267662048" cy="716.3777207722887" r="1.7007167719304561" fill="#FFFFFFa3"/><circle cx="139.35879729688168" cy="139.8603571113199" r="2.3777183178812265" fill="#FFFFFFb2"/><circle cx="1172.1405386924744" cy="821.2453026557341" r="2.2225685408338904" fill="#FFFFFF8d"/><circle cx="917.1426866203547" cy="495.03263393417" r="3.360378268174827" fill="#FFFFFFb7"/><circle cx="269.0857447683811" cy="759.5281809568405" r="1.1223565755411982" fill="#FFFFFF91"/><circle cx="742.17893704772" cy="102.99573233351111" r="2.327912859804928" fill="#FFFFFF95"/><circle cx="1423.8293141126633" cy="713.8042086968198" r="1.1231035701930523" fill="#FFFFFFa5"/><circle cx="1593.764891847968" cy="535.4045835323632" r="3.345606533437967" fill="#FFFFFF9c"/><circle cx="1511.1610479652882" cy="711.8549135047942" r="1.0751351688057185" fill="#FFFFFFb5"/><circle cx="703.3703997731209" cy="160.49978910014033" r="2.4141775095835327" fill="#FFFFFFa4"/><circle cx="1442.1309053897858" cy="602.8456930769607" r="2.4459811313077804" fill="#FFFFFFad"/><circle cx="1450.9136009961367" cy="827.9418957419693" r="2.2705910703167316" fill="#FFFFFFb5"/><circle cx="877.4278428405523" cy="2.720074891112745" r="3.3883064582943914" fill="#FFFFFFb1"/><circle cx="440.9432966262102" cy="639.8491961415857" r="1.201363116875291" fill="#FFFFFFb5"/><circle cx="1279.1264928877354" cy="762.7304723951966" r="1.7895201414823532" fill="#FFFFFFbf"/><circle cx="1077.1513301879168" cy="532.6637265505269" r="3.265602397546172" fill="#FFFFFF99"/><circle cx="759.7245302051306" cy="775.8335259044543" r="2.6776108948513864" fill="#FFFFFFa4"/><circle cx="307.67999440431595" cy="498.3779235742986" r="2.386649488843977" fill="#FFFFFF8d"/><circle cx="141.3758274167776" cy="386.10635180957615" r="1.7668917113915086" fill="#FFFFFF9a"/><circle cx="932.4261292815208" cy="635.48740146216" r="1.3666103284806013" fill="#FFFFFF9b"/><circle cx="1562.530692666769" cy="31.258087721653283" r="3.07892267908901" fill="#FFFFFFa2"/>
        </g>
      

  <g opacity="0.92">
    
        <g transform="translate(345.08938575163484, 472.6187550416216)">
          <circle r="43.55099613286555" fill="#FACC15c7" stroke="#FDE68A99" stroke-width="4"/>
          <circle r="23.755088799744843" fill="none" stroke="#060b11e6" stroke-width="3"/>
        </g>
      
        <g transform="translate(622.3208554834127, 625.7966092601418)">
          <circle r="47.08695359002799" fill="#FACC15c7" stroke="#FDE68A99" stroke-width="4"/>
          <circle r="25.68379286728799" fill="none" stroke="#060b11e6" stroke-width="3"/>
        </g>
      
        <g transform="translate(892.4829364847392, 466.92015124484897)">
          <circle r="42.45324441393837" fill="#FACC15c7" stroke="#FDE68A99" stroke-width="4"/>
          <circle r="23.156315134875477" fill="none" stroke="#060b11e6" stroke-width="3"/>
        </g>
      
        <g transform="translate(1288.510504309088, 623.1225724192336)">
          <rect x="-17.5653884870559" y="-50.50049190028571" width="35.1307769741118" height="101.00098380057142" rx="6" fill="#FACC15c7" stroke="#FDE68A99" stroke-width="3"/>
          <rect x="-30.739429852347826" y="-59.28318614381366" width="61.47885970469565" height="13.174041365291922" rx="6" fill="#060b11e6"/>
          <rect x="-30.739429852347826" y="46.10914477852173" width="61.47885970469565" height="13.174041365291922" rx="6" fill="#060b11e6"/>
        </g>
      
  </g>

  
    <g>
      <polyline points="0.0,610.3 160.0,624.7 320.0,568.3 480.0,581.2 640.0,521.8 800.0,542.6 960.0,479.5 1120.0,486.8 1280.0,423.7 1440.0,435.4 1600.0,375.5" fill="none" stroke="#FDE68Ae0" stroke-width="6" stroke-linecap="round" stroke-linejoin="round"/>
      <polygon points="0,900 0.0,610.3 160.0,624.7 320.0,568.3 480.0,581.2 640.0,521.8 800.0,542.6 960.0,479.5 1120.0,486.8 1280.0,423.7 1440.0,435.4 1600.0,375.5 1600,900" fill="#FACC151f"/>
    </g>
  

  <g opacity="0.09">
    <text x="70" y="784" font-family="Segoe UI, Arial, sans-serif" font-size="180" font-weight="700" fill="#FDE68A">
      00919.TW
    </text>
  </g>
  <g opacity="0.95">
    <text x="82" y="96" font-family="Segoe UI, Arial, sans-serif" font-size="28" font-weight="700" fill="#FDE68A">
      00919.TW
    </text>
    <text x="82" y="132" font-family="Segoe UI, Arial, sans-serif" font-size="18" font-weight="500" fill="#D1D5DBe6">
      群益台灣精選高息 · 穩收金庫
    </text>
  </g>
</svg>