<svg xmlns="http://www.w3.org/2000/svg" viewBox="0 0 1600 900" fill="none">
  <defs>
    <linearGradient id="bg" x1="0" y1="0" x2="0" y2="1">
      <stop offset="0%" stop-color="#0d1827"/>
      <stop offset="48%" stop-color="#28425e"/>
      <stop offset="100%" stop-color="#0a1118"/>
    </linearGradient>
    <radialGradient id="glow" cx="50%" cy="25%" r="65%">
      <stop offset="0%" stop-color="#FDE68A47"/>
      <stop offset="100%" stop-color="#FDE68A00"/>
    </radialGradient>
    <linearGradient id="fade" x1="0" y1="0" x2="1" y2="1">
      <stop offset="0%" stop-color="#FACC152e"/>
      <stop offset="100%" stop-color="#D1D5DB08"/>
    </linearGradient>
  </defs>

  <rect width="1600" height="900" fill="url(#bg)"/>
  <rect width="1600" height="900" fill="url(#glow)"/>
  <rect width="1600" height="900" fill="url(#fade)"/>

  
        <g>
          <rect x="25.11821131501347" y="231.76360499113798" width="120.54411618504673" height="288.236395008862" rx="8" fill="#D1D5DB3a"/><rect x="140.07906374987215" y="353.0315682897344" width="106.24240150209516" height="166.96843171026558" rx="8" fill="#D1D5DB37"/><rect x="270.1869091708213" y="222.22316656261683" width="84.02861758135259" height="297.7768334373832" rx="8" fill="#D1D5DB2c"/><rect x="381.6312780473381" y="268.019409077242" width="93.52480404544622" height="251.98059092275798" rx="8" fill="#D1D5DB42"/><rect x="499.5914184618741" y="291.7817853298038" width="119.94045798666775" height="228.21821467019618" rx="8" fill="#D1D5DB3c"/><rect x="634.9584876028821" y="181.6276588384062" width="111.4060123078525" height="338.3723411615938" rx="8" fill="#D1D5DB47"/><rect x="735.6111167762429" y="156.5036248555407" width="99.84762420877814" height="363.4963751444593" rx="8" fill="#D1D5DB39"/><rect x="857.4804488886148" y="312.53728717565536" width="88.49337940104306" height="207.46271282434464" rx="8" fill="#D1D5DB43"/><rect x="979.0176758738235" y="270.2931295381859" width="103.75157331116498" height="249.7068704618141" rx="8" fill="#D1D5DB36"/><rect x="1112.994809593074" y="265.08410507347435" width="104.52194979880005" height="254.91589492652565" rx="8" fill="#D1D5DB44"/><rect x="1209.591762506403" y="167.16045052278787" width="76.57806924544275" height="352.83954947721213" rx="8" fill="#D1D5DB3a"/><rect x="1348.9230114463717" y="351.4611850865185" width="117.54239916335791" height="168.53881491348147" rx="8" fill="#D1D5DB39"/><rect x="1471.8120989575982" y="350.55756827350706" width="104.85170125961304" height="169.44243172649294" rx="8" fill="#D1D5DB32"/><rect x="1593.379023771733" y="274.14381878916174" width="90.64472967293113" height="245.85618121083826" rx="8" fill="#D1D5DB2e"/>
          <circle cx="1359.4440933316946" cy="721.8032407807186" r="1.3123411370441318" fill="#FFFFFF95"/><circle cx="480.77815510332584" cy="29.837112477980554" r="3.386071736179292" fill="#FFFFFF99"/><circle cx="1564.1267266124487" cy="722.6905406685546" r="2.449730729870498" fill="#FFFFFFaa"/><circle cx="445.82385905086994" cy="805.0191143061966" r="2.7601115325465795" fill="#FFFFFFbc"/><circle cx="658.3274811506271" cy="73.60224612057209" r="3.181329880282283" fill="#FFFFFFc8"/><circle cx="1095.318377763033" cy="328.0498802661896" r="1.4329001067206264" fill="#FFFFFFa5"/><circle cx="42.71070547401905" cy="413.0092412000522" r="2.296330645494163" fill="#FFFFFFa5"/><circle cx="1334.8671533167362" cy="835.1340370019898" r="2.2118805123493077" fill="#FFFFFF8f"/><circle cx="1234.69134606421" cy="859.8634886322543" r="2.989735890552401" fill="#FFFFFFc9"/><circle cx="1514.667496085167" cy="615.3070903150365" r="1.3540589464828372" fill="#FFFFFFab"/><circle cx="41.1421213299036" cy="505.58396915439516" r="1.7065353605896234" fill="#FFFFFFaa"/><circle cx="1480.3658425807953" cy="102.13556257076561" r="2.1300082620233294" fill="#FFFFFF95"/><circle cx="79.84876483678818" cy="857.513629202731" r="1.0000145465135575" fill="#FFFFFFb2"/><circle cx="1271.8837030231953" cy="110.80512364860624" r="1.7650184074416755" fill="#FFFFFF8f"/><circle cx="417.9741397500038" cy="286.3362346077338" r="1.7936446139588953" fill="#FFFFFFa0"/><circle cx="278.96024249494076" cy="333.22058643680066" r="2.873445212841034" fill="#FFFFFFa3"/><circle cx="623.1381110846996" cy="596.0935047129169" r="3.11966260317713" fill="#FFFFFFcb"/><circle cx="1012.1392089873552" cy="667.4211766105145" r="1.7927434073761104" fill="#FFFFFFc9"/><circle cx="1561.6192784160376" cy="241.0367022268474" r="1.9845041880384087" fill="#FFFFFFc4"/><circle cx="829.0869753807783" cy="507.00493559706956" r="2.5294308518990873" fill="#FFFFFFb9"/><circle cx="1118.5654655098915" cy="714.4232767866924" r="1.4760603176429867" fill="#FFFFFFa6"/><circle cx="1162.0831232517958" cy="355.0205333624035" r="1.3009980438277124" fill="#FFFFFFcb"/><circle cx="336.70005537569523" cy="373.2426992850378" r="1.2222820091992617" fill="#FFFFFFcc"/><circle cx="981.2862996011972" cy="230.41421512607485" r="3.0106482807546855" fill="#FFFFFFc2"/><circle cx="991.5115375071764" cy="106.68225951958448" r="3.0875980611890554" fill="#FFFFFF9a"/><circle cx="1026.0405030101538" cy="318.89627224300057" r="2.0914568718522784" fill="#FFFFFFb4"/><circle cx="1081.9110210984945" cy="426.4887356199324" r="1.9011331578716635" fill="#FFFFFFc3"/><circle cx="1293.1656636297703" cy="478.2908722059801" r="1.724411496333778" fill="#FFFFFFa7"/><circle cx="357.47748985886574" cy="107.7403362840414" r="3.3937035389244556" fill="#FFFFFFb3"/><circle cx="225.97853131592274" cy="80.34712106455117" r="2.2597366157919168" fill="#FFFFFFbe"/><circle cx="278.65673899650574" cy="301.9722164841369" r="2.4475049886852505" fill="#FFFFFF8e"/><circle cx="1536.1949376761913" cy="665.8559171715751" r="3.2561665868386624" fill="#FFFFFFa8"/><circle cx="354.7634117305279" cy="809.806177415885" r="1.8129946324974298" fill="#FFFFFFaa"/><circle cx="1474.4496505707502" cy="876.8356041284278" r="1.2006265956908464" fill="#FFFFFF8d"/><circle cx="1480.6373745203018" cy="486.52018911670893" r="2.80772691052407" fill="#FFFFFFb0"/><circle cx="191.24214947223663" cy="559.5828208839521" r="1.5624068642035125" fill="#FFFFFF9b"/><circle cx="1488.3199695497751" cy="867.0335448347032" r="1.3434838714078068" fill="#FFFFFFbd"/><circle cx="347.7205716073513" cy="739.8692606482655" r="2.5480394206941126" fill="#FFFFFFa8"/><circle cx="1234.4605054706335" cy="862.7284547779709" r="3.2764780912548304" fill="#FFFFFFc0"/><circle cx="659.0526212006807" cy="785.2127695223317" r="1.3043909577652812" fill="#FFFFFFc7"/><circle cx="185.09140349924564" cy="332.82023111823946" r="1.1168202999979258" fill="#FFFFFFc9"/><circle cx="973.482433333993" cy="587.0100768981501" r="1.74225561209023" fill="#FFFFFFcb"/><circle cx="1238.1878234446049" cy="341.1587434820831" r="1.6892386557534338" fill="#FFFFFFc2"/><circle cx="1481.1411712318659" cy="751.4602037379518" r="2.5328070858493446" fill="#FFFFFFbf"/><circle cx="1328.7361286580563" cy="639.8619156796485" r="1.865957123786211" fill="#FFFFFFc8"/><circle cx="390.71794003248215" cy="534.4239884521812" r="2.1181804327294227" fill="#FFFFFFac"/><circle cx="421.35418243706226" cy="738.6409036349505" r="2.1508142517879607" fill="#FFFFFFc6"/><circle cx="215.51292054355145" cy="88.95457999315113" r="1.869409044086933" fill="#FFFFFF91"/><circle cx="1547.7482993155718" cy="595.6081365700811" r="2.2980395216494798" fill="#FFFFFF99"/><circle cx="1484.6714686602354" cy="612.5772664323449" r="2.966720318235457" fill="#FFFFFFca"/><circle cx="27.196674048900604" cy="210.38539493456483" r="2.6885214695706963" fill="#FFFFFFb1"/><circle cx="70.93222513794899" cy="628.4245359711349" r="1.4172585796564818" fill="#FFFFFFbc"/><circle cx="83.90194065868855" cy="517.252056975849" r="1.5142247779294848" fill="#FFFFFFc1"/><circle cx="570.6657562404871" cy="243.35143938660622" r="1.369653432071209" fill="#FFFFFFc0"/><circle cx="19.031203910708427" cy="422.62244594749063" r="1.5816153051331638" fill="#FFFFFF8d"/><circle cx="1083.2667287439108" cy="788.2139960769564" r="1.024070148728788" fill="#FFFFFFa3"/><circle cx="856.9725420325994" cy="579.7953128814697" r="1.6271033370867372" fill="#FFFFFFc5"/><circle cx="105.16272820532322" cy="116.53337117750198" r="2.393102359585464" fill="#FFFFFFa7"/><circle cx="783.3646692335606" cy="152.44379192590714" r="1.8606549693271517" fill="#FFFFFFc3"/><circle cx="1016.673256456852" cy="115.23936793673784" r="3.347026390954852" fill="#FFFFFFa7"/>
        </g>
      

  <g opacity="0.92">
    
        <g transform="translate(347.2903166199103, 422.086048386991)">
          <circle r="41.698281451500954" fill="#FACC15c7" stroke="#FDE68A99" stroke-width="4"/>
          <circle r="22.744517155364154" fill="none" stroke="#060b11e6" stroke-width="3"/>
        </g>
      
        <g transform="translate(599.9914072267711, 594.7206610906869)">
          <rect x="-33.94274520726874" y="-26.79690411100164" width="67.88549041453749" height="53.59380822200328" rx="7.145841096267104" fill="#FACC15c7" stroke="#FDE68A99" stroke-width="3"/>
          <path d="M-33.94274520726874 0 H33.94274520726874 M0 -26.79690411100164 V26.79690411100164" stroke="#060b11e6" stroke-width="3"/>
        </g>
      
        <g transform="translate(915.9487826609984, 478.7539144931361)">
          <path d="M0 -45.49249506139196 L32.494639329565686 -25.99571146365255 V10.831546443188564 Q32.494639329565686 36.82725790684112 0 49.82511363866739 Q-32.494639329565686 36.82725790684112 -32.494639329565686 10.831546443188564 V-25.99571146365255 Z" fill="#FACC15c7" stroke="#FDE68A99" stroke-width="3"/>
          <path d="M0 -19.496783597739412 V19.496783597739412" stroke="#060b11e6" stroke-width="3"/>
        </g>
      
        <g transform="translate(1299.8600883083418, 583.5447477409616)">
          <path d="M-38.582581941634416 8.768768623098731 Q-7.015014898478985 -29.813813318535686 36.82882821701467 -7.015014898478985" stroke="#FDE68A99" stroke-width="6" fill="none" stroke-linecap="round"/>
          <path d="M21.045044695436953 -14.03002979695797 L36.82882821701467 -7.015014898478985 L24.55255214467645 5.261261173859238" fill="#FACC15c7"/>
        </g>
      
  </g>

  
    <g>
      <polyline points="0.0,618.8 160.0,606.5 320.0,569.4 480.0,548.2 640.0,531.8 800.0,512.2 960.0,491.6 1120.0,457.3 1280.0,430.2 1440.0,393.3 1600.0,356.5" fill="none" stroke="#FDE68Ae0" stroke-width="6" stroke-linecap="round" stroke-linejoin="round"/>
      <polygon points="0,900 0.0,618.8 160.0,606.5 320.0,569.4 480.0,548.2 640.0,531.8 800.0,512.2 960.0,491.6 1120.0,457.3 1280.0,430.2 1440.0,393.3 1600.0,356.5 1600,900" fill="#FACC151f"/>
    </g>
  

  <g opacity="0.09">
    <text x="70" y="784" font-family="Segoe UI, Arial, sans-serif" font-size="180" font-weight="700" fill="#FDE68A">
      00929.TW
    </text>
  </g>
  <g opacity="0.95">
    <text x="82" y="96" font-family="Segoe UI, Arial, sans-serif" font-size="28" font-weight="700" fill="#FDE68A">
      00929.TW
    </text>
    <text x="82" y="132" font-family="Segoe UI, Arial, sans-serif" font-size="18" font-weight="500" fill="#D1D5DBe6">
      復華科技優息 · 穩收金庫
    </text>
  </g>
</svg>