<svg xmlns="http://www.w3.org/2000/svg" viewBox="0 0 1600 900" fill="none">
  <defs>
    <linearGradient id="bg" x1="0" y1="0" x2="0" y2="1">
      <stop offset="0%" stop-color="#041a30"/>
      <stop offset="48%" stop-color="#0a3760"/>
      <stop offset="100%" stop-color="#07111f"/>
    </linearGradient>
    <radialGradient id="glow" cx="50%" cy="25%" r="65%">
      <stop offset="0%" stop-color="#8CF8FF47"/>
      <stop offset="100%" stop-color="#8CF8FF00"/>
    </radialGradient>
    <linearGradient id="fade" x1="0" y1="0" x2="1" y2="1">
      <stop offset="0%" stop-color="#00F2FF2e"/>
      <stop offset="100%" stop-color="#89C2FF08"/>
    </linearGradient>
  </defs>

  <rect width="1600" height="900" fill="url(#bg)"/>
  <rect width="1600" height="900" fill="url(#glow)"/>
  <rect width="1600" height="900" fill="url(#fade)"/>

  
        <g opacity="0.95">
          <path d="M-40 220 C240 80, 420 260, 720 170 S1200 80, 1640 210 L1640 0 L-40 0 Z" fill="#00F2FF2e"/>
          <path d="M-20 270 C210 170, 440 280, 690 210 S1160 140, 1620 260" stroke="#8CF8FF8c" stroke-width="8" fill="none" stroke-linecap="round"/>
          <path d="M-8.252295146230608 900 L111.74770485376939 355.4056522808969 L261.7477048537694 660.832958733663 L381.7477048537694 900 Z" fill="#89C2FF44"/><path d="M222.31170628219843 900 L342.31170628219843 339.21518471091986 L492.31170628219843 728.3306943671778 L612.3117062821984 900 Z" fill="#89C2FF3e"/><path d="M459.7847297368571 900 L579.7847297368571 396.1705077253282 L729.7847297368571 693.0353193730116 L849.7847297368571 900 Z" fill="#89C2FF31"/><path d="M689.5331217884086 900 L809.5331217884086 316.5725596714765 L959.5331217884086 670.0455126771703 L1079.5331217884086 900 Z" fill="#89C2FF44"/><path d="M903.5307082952932 900 L1023.5307082952932 384.813860245049 L1173.5307082952932 643.7295266380534 L1293.5307082952932 900 Z" fill="#89C2FF2f"/><path d="M1126.0575735312887 900 L1246.0575735312887 388.49606967531145 L1396.0575735312887 668.0882519297302 L1516.0575735312887 900 Z" fill="#89C2FF38"/><path d="M1343.7142571434379 900 L1463.7142571434379 352.76598614640534 L1613.7142571434379 699.2351592006162 L1733.7142571434379 900 Z" fill="#89C2FF39"/>
          <rect x="713.8548845797777" y="480.4104715306312" width="48.36961302254349" height="2" fill="#00F2FF2e"/><rect x="717.7636670693755" y="395.5743738729507" width="85.84669376304373" height="2" fill="#00F2FF2e"/><rect x="1138.5839597508311" y="360.09524716529995" width="56.28658233489841" height="2" fill="#00F2FF2e"/><rect x="813.585554137826" y="296.3668788317591" width="86.08034729771316" height="2" fill="#00F2FF2e"/><rect x="811.7702126316726" y="583.2988780224696" width="96.8750433861278" height="2" fill="#00F2FF2e"/><rect x="1167.0801751874387" y="290.8631408866495" width="80.79183972254395" height="2" fill="#00F2FF2e"/><rect x="1286.3835351355374" y="678.8042073976249" width="42.865230998024344" height="2" fill="#00F2FF2e"/><rect x="314.0814733877778" y="638.9786421461031" width="61.55375543097034" height="2" fill="#00F2FF2e"/><rect x="849.8266953416169" y="303.7377758556977" width="40.9029041887261" height="2" fill="#00F2FF2e"/><rect x="732.2414492443204" y="669.889158103615" width="85.24705341598019" height="2" fill="#00F2FF2e"/><rect x="1559.8871726728976" y="418.5158714838326" width="65.51819088216871" height="2" fill="#00F2FF2e"/><rect x="1254.9231608770788" y="646.408591424115" width="88.97747518308461" height="2" fill="#00F2FF2e"/><rect x="1034.037531837821" y="421.00510800722986" width="32.89460134273395" height="2" fill="#00F2FF2e"/><rect x="1386.8341090716422" y="593.5274616489187" width="103.03763177059591" height="2" fill="#00F2FF2e"/><rect x="721.5189322829247" y="698.1011626077816" width="36.33139387285337" height="2" fill="#00F2FF2e"/><rect x="674.2751573957503" y="686.6212209640071" width="84.33670289628208" height="2" fill="#00F2FF2e"/>
        </g>
      

  <g opacity="0.92">
    
        <g transform="translate(342.0082619879395, 470.2319552516565)">
          <circle r="38.49820534110069" fill="#00F2FFc7" stroke="#8CF8FF99" stroke-width="3"/>
          <path d="M-16.209770669937136 -30.393320006132125 V30.393320006132125" stroke="#03101de6" stroke-width="2"/><path d="M0 -30.393320006132125 V30.393320006132125" stroke="#03101de6" stroke-width="2"/><path d="M16.209770669937136 -30.393320006132125 V30.393320006132125" stroke="#03101de6" stroke-width="2"/>
          <path d="M-30.393320006132125 -16.209770669937136 H30.393320006132125" stroke="#03101de6" stroke-width="2"/><path d="M-30.393320006132125 0 H30.393320006132125" stroke="#03101de6" stroke-width="2"/><path d="M-30.393320006132125 16.209770669937136 H30.393320006132125" stroke="#03101de6" stroke-width="2"/>
        </g>
      
        <g transform="translate(626.4296378754079, 593.7601493718103)">
          <rect x="-44.549384294077754" y="-44.549384294077754" width="89.09876858815551" height="89.09876858815551" rx="14.255802974104881" fill="#00F2FFc7" stroke="#8CF8FF99" stroke-width="3"/>
          <rect x="-19.60172908939421" y="-19.60172908939421" width="39.20345817878842" height="39.20345817878842" rx="6.2369138011708865" fill="#03101de6"/>
          <rect x="-37.42148280702531" y="-57.023211896419525" width="7.127901487052441" height="14.255802974104881" fill="#8CF8FF99"/>
              <rect x="-37.42148280702531" y="42.767408922314644" width="7.127901487052441" height="14.255802974104881" fill="#8CF8FF99"/><rect x="-12.473827602341768" y="-57.023211896419525" width="7.127901487052441" height="14.255802974104881" fill="#8CF8FF99"/>
              <rect x="-12.473827602341768" y="42.767408922314644" width="7.127901487052441" height="14.255802974104881" fill="#8CF8FF99"/><rect x="12.473827602341778" y="-57.023211896419525" width="7.127901487052441" height="14.255802974104881" fill="#8CF8FF99"/>
              <rect x="12.473827602341778" y="42.767408922314644" width="7.127901487052441" height="14.255802974104881" fill="#8CF8FF99"/><rect x="37.42148280702533" y="-57.023211896419525" width="7.127901487052441" height="14.255802974104881" fill="#8CF8FF99"/>
              <rect x="37.42148280702533" y="42.767408922314644" width="7.127901487052441" height="14.255802974104881" fill="#8CF8FF99"/>
        </g>
      
        <g transform="translate(948.7683995719999, 476.51736913248897)">
          <path d="M0 49.773730166330935 V-45.44557971708476" stroke="#8CF8FF99" stroke-width="5" stroke-linecap="round"/>
          <path d="M0 -21.640752246230843 L-23.804827470853926 6.492225673869252 M0 -21.640752246230843 L23.804827470853926 6.492225673869252 M0 -4.328150449246168 L-30.29705314472318 19.476677021607756 M0 -4.328150449246168 L30.29705314472318 19.476677021607756" stroke="#00F2FFc7" stroke-width="4" stroke-linecap="round"/>
          <circle cx="0" cy="-32.46112836934626" r="8.656300898492336" fill="#00F2FFc7"/>
        </g>
      
        <g transform="translate(1226.486814711243, 599.0130311483517)">
          <path d="M-30.375943225584926 -19.527392073590306 L19.527392073590306 -34.71536368638277 V34.71536368638277 L-30.375943225584926 19.527392073590306 Z" fill="#00F2FFc7" stroke="#8CF8FF99" stroke-width="3"/>
          <path d="M28.206232995186003 -21.697102303989233 Q47.73362506877631 0 28.206232995186003 21.697102303989233" fill="none" stroke="#8CF8FF99" stroke-width="3"/>
        </g>
      
  </g>

  
    <g>
      <polyline points="0.0,624.5 160.0,593.2 320.0,574.0 480.0,536.5 640.0,498.7 800.0,468.5 960.0,444.8 1120.0,408.6 1280.0,384.0 1440.0,352.5 1600.0,318.9" fill="none" stroke="#8CF8FFe0" stroke-width="6" stroke-linecap="round" stroke-linejoin="round"/>
      <polygon points="0,900 0.0,624.5 160.0,593.2 320.0,574.0 480.0,536.5 640.0,498.7 800.0,468.5 960.0,444.8 1120.0,408.6 1280.0,384.0 1440.0,352.5 1600.0,318.9 1600,900" fill="#00F2FF1f"/>
    </g>
  

  <g opacity="0.09">
    <text x="70" y="784" font-family="Segoe UI, Arial, sans-serif" font-size="180" font-weight="700" fill="#8CF8FF">
      2303.TW
    </text>
  </g>
  <g opacity="0.95">
    <text x="82" y="96" font-family="Segoe UI, Arial, sans-serif" font-size="28" font-weight="700" fill="#8CF8FF">
      2303.TW
    </text>
    <text x="82" y="132" font-family="Segoe UI, Arial, sans-serif" font-size="18" font-weight="500" fill="#89C2FFe6">
      聯電 · 數位冰原
    </text>
  </g>
</svg>