<svg xmlns="http://www.w3.org/2000/svg" viewBox="0 0 1600 900" fill="none">
  <defs>
    <linearGradient id="bg" x1="0" y1="0" x2="0" y2="1">
      <stop offset="0%" stop-color="#071b12"/>
      <stop offset="48%" stop-color="#134e38"/>
      <stop offset="100%" stop-color="#08120d"/>
    </linearGradient>
    <radialGradient id="glow" cx="50%" cy="25%" r="65%">
      <stop offset="0%" stop-color="#BBF7D047"/>
      <stop offset="100%" stop-color="#BBF7D000"/>
    </radialGradient>
    <linearGradient id="fade" x1="0" y1="0" x2="1" y2="1">
      <stop offset="0%" stop-color="#4ADE802e"/>
      <stop offset="100%" stop-color="#DCFCE708"/>
    </linearGradient>
  </defs>

  <rect width="1600" height="900" fill="url(#bg)"/>
  <rect width="1600" height="900" fill="url(#glow)"/>
  <rect width="1600" height="900" fill="url(#fade)"/>

  
        <g>
          <path d="M-91.11738078296185 900 L68.88261921703815 253.6567795369774 L208.88261921703815 452.9971317364834 L348.88261921703815 900 Z" fill="#DCFCE71f"/><path d="M168.86753898113966 900 L328.86753898113966 249.29819301702082 L468.86753898113966 434.48892699787393 L608.8675389811397 900 Z" fill="#DCFCE733"/><path d="M475.5311173480004 900 L635.5311173480004 256.31674172356725 L775.5311173480004 430.93353441450745 L915.5311173480004 900 Z" fill="#DCFCE71f"/><path d="M752.0265018660575 900 L912.0265018660575 354.57319809123874 L1052.0265018660575 505.5254808976315 L1192.0265018660575 900 Z" fill="#DCFCE728"/><path d="M1017.9150423314422 900 L1177.9150423314422 306.84992557391524 L1317.9150423314422 451.3539071031846 L1457.9150423314422 900 Z" fill="#DCFCE733"/><path d="M1315.2196434233338 900 L1475.2196434233338 297.3561347834766 L1615.2196434233338 453.2082917634398 L1755.2196434233338 900 Z" fill="#DCFCE722"/>
          <path d="M988.9366936869919 550.290398793295 V434.290398793295 M988.9366936869919 434.290398793295 L950.9366936869919 470.290398793295 M988.9366936869919 434.290398793295 L1026.936693686992 470.290398793295" stroke="#4ADE8042" stroke-width="4" stroke-linecap="round"/><path d="M386.90063351765275 408.0427808733657 V292.0427808733657 M386.90063351765275 292.0427808733657 L348.90063351765275 328.0427808733657 M386.90063351765275 292.0427808733657 L424.90063351765275 328.0427808733657" stroke="#4ADE8042" stroke-width="4" stroke-linecap="round"/><path d="M996.9293430726975 400.90057626832277 V284.90057626832277 M996.9293430726975 284.90057626832277 L958.9293430726975 320.90057626832277 M996.9293430726975 284.90057626832277 L1034.9293430726975 320.90057626832277" stroke="#4ADE8042" stroke-width="4" stroke-linecap="round"/><path d="M779.9249074235559 455.5289886239916 V339.5289886239916 M779.9249074235559 339.5289886239916 L741.9249074235559 375.5289886239916 M779.9249074235559 339.5289886239916 L817.9249074235559 375.5289886239916" stroke="#4ADE8042" stroke-width="4" stroke-linecap="round"/><path d="M1301.9084567856044 497.36510143149644 V381.36510143149644 M1301.9084567856044 381.36510143149644 L1263.9084567856044 417.36510143149644 M1301.9084567856044 381.36510143149644 L1339.9084567856044 417.36510143149644" stroke="#4ADE8042" stroke-width="4" stroke-linecap="round"/><path d="M604.4569144630805 361.5585106238723 V245.55851062387228 M604.4569144630805 245.55851062387228 L566.4569144630805 281.5585106238723 M604.4569144630805 245.55851062387228 L642.4569144630805 281.5585106238723" stroke="#4ADE8042" stroke-width="4" stroke-linecap="round"/><path d="M777.3711239406839 396.2027117656544 V280.2027117656544 M777.3711239406839 280.2027117656544 L739.3711239406839 316.2027117656544 M777.3711239406839 280.2027117656544 L815.3711239406839 316.2027117656544" stroke="#4ADE8042" stroke-width="4" stroke-linecap="round"/>
        </g>
      

  <g opacity="0.92">
    
        <g transform="translate(276.7642508726567, 420.7533488748595)">
          <path d="M0 45.652329992083835 V-3.9697678253985944" stroke="#BBF7D099" stroke-width="4" stroke-linecap="round"/>
          <circle cx="0" cy="-7.939535650797189" r="7.939535650797189" fill="#4ADE80c7"/>
          <path d="M0 -7.939535650797189 L-33.743026515888054 -21.833723039692266 M0 -7.939535650797189 L23.818606952391566 -33.743026515888054 M0 -7.939535650797189 L11.909303476195783 21.833723039692266" stroke="#4ADE80c7" stroke-width="4" stroke-linecap="round"/>
        </g>
      
        <g transform="translate(627.1396865649149, 598.8402152620256)">
          <circle r="30.897285159677267" fill="#4ADE80c7" stroke="#BBF7D099" stroke-width="3"/>
        </g>
      
        <g transform="translate(931.8247650843114, 473.1159132672474)">
          <rect x="-33.51825554158539" y="-19.716620906814935" width="67.03651108317078" height="39.43324181362987" rx="6" fill="#4ADE80c7" stroke="#BBF7D099" stroke-width="3"/>
          <path d="M-17.74495881613344 23.659945088177917 L0 43.37656599499285 L17.74495881613344 23.659945088177917" stroke="#BBF7D099" stroke-width="3" fill="none" stroke-linecap="round"/>
          <path d="M-21.688282997496426 -1.9716620906814932 H21.688282997496426 M-9.858310453407467 -19.716620906814935 V19.716620906814935 M9.858310453407467 -19.716620906814935 V19.716620906814935" stroke="#04110ae6" stroke-width="2"/>
        </g>
      
        <g transform="translate(1223.211722113192, 590.3971425816417)">
          <path d="M-29.34822462582961 -18.86671583089046 L18.86671583089046 -33.540828143805264 V33.540828143805264 L-29.34822462582961 18.86671583089046 Z" fill="#4ADE80c7" stroke="#BBF7D099" stroke-width="3"/>
          <path d="M27.251922866841777 -20.96301758987829 Q46.11863869773224 0 27.251922866841777 20.96301758987829" fill="none" stroke="#BBF7D099" stroke-width="3"/>
        </g>
      
  </g>

  
    <g>
      <polyline points="0.0,619.8 160.0,595.8 320.0,574.7 480.0,559.7 640.0,544.1 800.0,529.3 960.0,515.9 1120.0,478.6 1280.0,464.6 1440.0,444.8 1600.0,411.3" fill="none" stroke="#BBF7D0e0" stroke-width="6" stroke-linecap="round" stroke-linejoin="round"/>
      <polygon points="0,900 0.0,619.8 160.0,595.8 320.0,574.7 480.0,559.7 640.0,544.1 800.0,529.3 960.0,515.9 1120.0,478.6 1280.0,464.6 1440.0,444.8 1600.0,411.3 1600,900" fill="#4ADE801f"/>
    </g>
  

  <g opacity="0.09">
    <text x="70" y="784" font-family="Segoe UI, Arial, sans-serif" font-size="180" font-weight="700" fill="#BBF7D0">
      2308.TW
    </text>
  </g>
  <g opacity="0.95">
    <text x="82" y="96" font-family="Segoe UI, Arial, sans-serif" font-size="28" font-weight="700" fill="#BBF7D0">
      2308.TW
    </text>
    <text x="82" y="132" font-family="Segoe UI, Arial, sans-serif" font-size="18" font-weight="500" fill="#DCFCE7e6">
      台達電 · 綠能山脈
    </text>
  </g>
</svg>