<svg xmlns="http://www.w3.org/2000/svg" viewBox="0 0 1600 900" fill="none">
  <defs>
    <linearGradient id="bg" x1="0" y1="0" x2="0" y2="1">
      <stop offset="0%" stop-color="#1d232a"/>
      <stop offset="48%" stop-color="#3d4651"/>
      <stop offset="100%" stop-color="#161b20"/>
    </linearGradient>
    <radialGradient id="glow" cx="50%" cy="25%" r="65%">
      <stop offset="0%" stop-color="#FDBA7447"/>
      <stop offset="100%" stop-color="#FDBA7400"/>
    </radialGradient>
    <linearGradient id="fade" x1="0" y1="0" x2="1" y2="1">
      <stop offset="0%" stop-color="#F973162e"/>
      <stop offset="100%" stop-color="#9CA3AF08"/>
    </linearGradient>
  </defs>

  <rect width="1600" height="900" fill="url(#bg)"/>
  <rect width="1600" height="900" fill="url(#glow)"/>
  <rect width="1600" height="900" fill="url(#fade)"/>

  
        <g>
          
              <rect x="48.91084802802652" y="381.82456591166556" width="92" height="238.17543408833444" rx="6" fill="#9CA3AF29"/>
              <line x1="58.91084802802652" y1="381.82456591166556" x2="128.91084802802652" y2="241.82456591166556" stroke="#F9731657" stroke-width="5"/>
              <line x1="128.91084802802652" y1="241.82456591166556" x2="174.91084802802652" y2="241.82456591166556" stroke="#F9731657" stroke-width="5"/>
            
              <rect x="193.1052595609799" y="253.8455446017906" width="92" height="366.1544553982094" rx="6" fill="#9CA3AF29"/>
              <line x1="203.1052595609799" y1="253.8455446017906" x2="273.1052595609799" y2="113.8455446017906" stroke="#F9731657" stroke-width="5"/>
              <line x1="273.1052595609799" y1="113.8455446017906" x2="319.1052595609799" y2="113.8455446017906" stroke="#F9731657" stroke-width="5"/>
            
              <rect x="340.4898776859045" y="287.97443608753383" width="92" height="332.02556391246617" rx="6" fill="#9CA3AF29"/>
              <line x1="350.4898776859045" y1="287.97443608753383" x2="420.4898776859045" y2="147.97443608753383" stroke="#F9731657" stroke-width="5"/>
              <line x1="420.4898776859045" y1="147.97443608753383" x2="466.4898776859045" y2="147.97443608753383" stroke="#F9731657" stroke-width="5"/>
            
              <rect x="490.31592037994415" y="290.35037241410464" width="92" height="329.64962758589536" rx="6" fill="#9CA3AF29"/>
              <line x1="500.31592037994415" y1="290.35037241410464" x2="570.3159203799441" y2="150.35037241410464" stroke="#F9731657" stroke-width="5"/>
              <line x1="570.3159203799441" y1="150.35037241410464" x2="616.3159203799441" y2="150.35037241410464" stroke="#F9731657" stroke-width="5"/>
            
              <rect x="634.5261088991538" y="369.37209016177803" width="92" height="250.62790983822197" rx="6" fill="#9CA3AF29"/>
              <line x1="644.5261088991538" y1="369.37209016177803" x2="714.5261088991538" y2="229.37209016177803" stroke="#F9731657" stroke-width="5"/>
              <line x1="714.5261088991538" y1="229.37209016177803" x2="760.5261088991538" y2="229.37209016177803" stroke="#F9731657" stroke-width="5"/>
            
              <rect x="790.296910344623" y="311.2302811210975" width="92" height="308.7697188789025" rx="6" fill="#9CA3AF29"/>
              <line x1="800.296910344623" y1="311.2302811210975" x2="870.296910344623" y2="171.2302811210975" stroke="#F9731657" stroke-width="5"/>
              <line x1="870.296910344623" y1="171.2302811210975" x2="916.296910344623" y2="171.2302811210975" stroke="#F9731657" stroke-width="5"/>
            
              <rect x="946.0975483851507" y="304.1344766365364" width="92" height="315.8655233634636" rx="6" fill="#9CA3AF29"/>
              <line x1="956.0975483851507" y1="304.1344766365364" x2="1026.0975483851507" y2="164.13447663653642" stroke="#F9731657" stroke-width="5"/>
              <line x1="1026.0975483851507" y1="164.13447663653642" x2="1072.0975483851507" y2="164.13447663653642" stroke="#F9731657" stroke-width="5"/>
            
              <rect x="1096.1242294916883" y="333.77882935572416" width="92" height="286.22117064427584" rx="6" fill="#9CA3AF29"/>
              <line x1="1106.1242294916883" y1="333.77882935572416" x2="1176.1242294916883" y2="193.77882935572416" stroke="#F9731657" stroke-width="5"/>
              <line x1="1176.1242294916883" y1="193.77882935572416" x2="1222.1242294916883" y2="193.77882935572416" stroke="#F9731657" stroke-width="5"/>
            
              <rect x="1233.3882675832137" y="373.029708834365" width="92" height="246.970291165635" rx="6" fill="#9CA3AF29"/>
              <line x1="1243.3882675832137" y1="373.029708834365" x2="1313.3882675832137" y2="233.029708834365" stroke="#F9731657" stroke-width="5"/>
              <line x1="1313.3882675832137" y1="233.029708834365" x2="1359.3882675832137" y2="233.029708834365" stroke="#F9731657" stroke-width="5"/>
            
              <rect x="1382.2659302921966" y="306.0251372307539" width="92" height="313.9748627692461" rx="6" fill="#9CA3AF29"/>
              <line x1="1392.2659302921966" y1="306.0251372307539" x2="1462.2659302921966" y2="166.0251372307539" stroke="#F9731657" stroke-width="5"/>
              <line x1="1462.2659302921966" y1="166.0251372307539" x2="1508.2659302921966" y2="166.0251372307539" stroke="#F9731657" stroke-width="5"/>
            
          <ellipse cx="401.3267872855067" cy="221.62946444004774" rx="131.01736784912646" ry="42.491885267198086" fill="#FFFFFF0f"/><ellipse cx="1050.086276885122" cy="256.87569476664066" rx="145.5315095745027" ry="34.59839929267764" fill="#FFFFFF0f"/><ellipse cx="1295.3087490051985" cy="188.9325049892068" rx="137.82282220199704" ry="35.18308277055621" fill="#FFFFFF0f"/><ellipse cx="450.6606884300709" cy="301.2488164007664" rx="103.326978078112" ry="34.10165424272418" fill="#FFFFFF0f"/><ellipse cx="305.7487145997584" cy="194.70134936273098" rx="144.23187215812504" ry="44.32591246441007" fill="#FFFFFF0f"/><ellipse cx="575.3085695207119" cy="298.2732357084751" rx="123.10975547879934" ry="30.47427025809884" fill="#FFFFFF0f"/>
        </g>
      

  <g opacity="0.92">
    
        <g transform="translate(255.43567528948188, 478.59900256153196)">
          <path d="M-39.7213412885461 32.15537151929922 V-15.131939538493754 L-7.565969769246877 3.7829848846234384 V-15.131939538493754 L22.697909307740627 3.7829848846234384 V-28.372386634675784 H39.7213412885461 V32.15537151929922 Z" fill="#F97316c7" stroke="#FDBA7499" stroke-width="3"/>
        </g>
      
        <g transform="translate(633.4924274636433, 632.6053169509396)">
          <path d="M-36.13124607649632 -12.752204497586936 H36.13124607649632 M-23.379041578909384 12.752204497586936 H23.379041578909384" stroke="#FDBA7499" stroke-width="6" stroke-linecap="round"/>
          <circle cx="-42.50734832528979" cy="-12.752204497586936" r="8.501469665057957" fill="#F97316c7"/>
          <circle cx="42.50734832528979" cy="-12.752204497586936" r="8.501469665057957" fill="#F97316c7"/>
        </g>
      
        <g transform="translate(964.9902703333646, 470.7875857874751)">
          <rect x="-49.53623013920151" y="-23.691240501357242" width="99.07246027840301" height="47.382481002714485" rx="8" fill="#F97316c7" stroke="#FDBA7499" stroke-width="3"/>
          <path d="M-21.53749136487022 -19.3837422283832 V19.3837422283832 M0 -19.3837422283832 V19.3837422283832 M21.53749136487022 -19.3837422283832 V19.3837422283832" stroke="#111317e6" stroke-width="3"/>
        </g>
      
        <g transform="translate(1211.6263691708446, 625.4893764527515)">
          <path d="M-45.84685807521455 37.114123203745116 V-17.465469742938875 L-8.732734871469438 4.366367435734719 V-17.465469742938875 L26.198204614408315 4.366367435734719 V-32.74775576801039 H45.84685807521455 V37.114123203745116 Z" fill="#F97316c7" stroke="#FDBA7499" stroke-width="3"/>
        </g>
      
  </g>

  
    <g>
      <polyline points="0.0,615.0 160.0,633.8 320.0,666.6 480.0,629.0 640.0,662.8 800.0,694.0 960.0,659.1 1120.0,677.3 1280.0,703.7 1440.0,682.3 1600.0,708.5" fill="none" stroke="#FDBA74e0" stroke-width="6" stroke-linecap="round" stroke-linejoin="round"/>
      <polygon points="0,900 0.0,615.0 160.0,633.8 320.0,666.6 480.0,629.0 640.0,662.8 800.0,694.0 960.0,659.1 1120.0,677.3 1280.0,703.7 1440.0,682.3 1600.0,708.5 1600,900" fill="#F973161f"/>
    </g>
  

  <g opacity="0.09">
    <text x="70" y="784" font-family="Segoe UI, Arial, sans-serif" font-size="180" font-weight="700" fill="#FDBA74">
      2317.TW
    </text>
  </g>
  <g opacity="0.95">
    <text x="82" y="96" font-family="Segoe UI, Arial, sans-serif" font-size="28" font-weight="700" fill="#FDBA74">
      2317.TW
    </text>
    <text x="82" y="132" font-family="Segoe UI, Arial, sans-serif" font-size="18" font-weight="500" fill="#9CA3AFe6">
      Hon Hai · 鋼鐵峽谷
    </text>
  </g>
</svg>