<svg xmlns="http://www.w3.org/2000/svg" viewBox="0 0 1600 900" fill="none">
  <defs>
    <linearGradient id="bg" x1="0" y1="0" x2="0" y2="1">
      <stop offset="0%" stop-color="#041a30"/>
      <stop offset="48%" stop-color="#0a3760"/>
      <stop offset="100%" stop-color="#07111f"/>
    </linearGradient>
    <radialGradient id="glow" cx="50%" cy="25%" r="65%">
      <stop offset="0%" stop-color="#8CF8FF47"/>
      <stop offset="100%" stop-color="#8CF8FF00"/>
    </radialGradient>
    <linearGradient id="fade" x1="0" y1="0" x2="1" y2="1">
      <stop offset="0%" stop-color="#00F2FF2e"/>
      <stop offset="100%" stop-color="#89C2FF08"/>
    </linearGradient>
  </defs>

  <rect width="1600" height="900" fill="url(#bg)"/>
  <rect width="1600" height="900" fill="url(#glow)"/>
  <rect width="1600" height="900" fill="url(#fade)"/>

  
        <g opacity="0.95">
          <path d="M-40 220 C240 80, 420 260, 720 170 S1200 80, 1640 210 L1640 0 L-40 0 Z" fill="#00F2FF2e"/>
          <path d="M-20 270 C210 170, 440 280, 690 210 S1160 140, 1620 260" stroke="#8CF8FF8c" stroke-width="8" fill="none" stroke-linecap="round"/>
          <path d="M14.649034671019763 900 L134.64903467101976 407.6687433756888 L284.64903467101976 643.055837713182 L404.64903467101976 900 Z" fill="#89C2FF2b"/><path d="M234.55814893823117 900 L354.55814893823117 348.45114704221487 L504.55814893823117 637.6192523352802 L624.5581489382312 900 Z" fill="#89C2FF43"/><path d="M439.218134554103 900 L559.218134554103 381.774427453056 L709.218134554103 658.6806250689551 L829.218134554103 900 Z" fill="#89C2FF29"/><path d="M658.6893097939901 900 L778.6893097939901 304.3340880610049 L928.6893097939901 643.022281578742 L1048.68930979399 900 Z" fill="#89C2FF41"/><path d="M872.332304508891 900 L992.332304508891 311.00756912492216 L1142.332304508891 672.3194892005995 L1262.332304508891 900 Z" fill="#89C2FF3b"/><path d="M1112.5329186860472 900 L1232.5329186860472 334.5631347130984 L1382.5329186860472 635.4427381139249 L1502.5329186860472 900 Z" fill="#89C2FF41"/><path d="M1326.8791022943333 900 L1446.8791022943333 339.660508884117 L1596.8791022943333 672.1106224879622 L1716.8791022943333 900 Z" fill="#89C2FF2b"/>
          <rect x="171.7414185963571" y="470.65049989614636" width="82.4916015919298" height="2" fill="#00F2FF2e"/><rect x="684.0372818522155" y="494.01046033483" width="100.38042622432113" height="2" fill="#00F2FF2e"/><rect x="203.6273437179625" y="306.28822254016995" width="36.10932710394263" height="2" fill="#00F2FF2e"/><rect x="1181.4190155640244" y="359.01466528419405" width="86.47369574336335" height="2" fill="#00F2FF2e"/><rect x="1097.216267902404" y="557.8984967712313" width="76.16176242986694" height="2" fill="#00F2FF2e"/><rect x="59.99629832804203" y="688.9873032597825" width="121.22817294020206" height="2" fill="#00F2FF2e"/><rect x="437.39899314939976" y="654.3611140595749" width="96.12709370721132" height="2" fill="#00F2FF2e"/><rect x="793.0287219025195" y="354.89811566192657" width="58.32424449548125" height="2" fill="#00F2FF2e"/><rect x="724.0954870916903" y="647.9475564835593" width="70.19702469976619" height="2" fill="#00F2FF2e"/><rect x="1144.2629070207477" y="480.4392019007355" width="97.7434803666547" height="2" fill="#00F2FF2e"/><rect x="1457.8294616565108" y="459.0074124839157" width="71.50724296271801" height="2" fill="#00F2FF2e"/><rect x="846.2674266844988" y="444.230136917904" width="87.84453383693472" height="2" fill="#00F2FF2e"/><rect x="1161.7410681769252" y="631.9615049660206" width="74.17176641337574" height="2" fill="#00F2FF2e"/><rect x="1323.1549667939544" y="594.6589042060077" width="52.98134408937767" height="2" fill="#00F2FF2e"/><rect x="1217.3824108392" y="384.99381211586297" width="98.11980231711641" height="2" fill="#00F2FF2e"/><rect x="993.2640017196536" y="528.4356532152742" width="120.23602971388027" height="2" fill="#00F2FF2e"/>
        </g>
      

  <g opacity="0.92">
    
        <g transform="translate(329.2212047148496, 430.98458983004093)">
          <circle r="32.6925886243768" fill="#00F2FFc7" stroke="#8CF8FF99" stroke-width="3"/>
          <path d="M-13.765300473421812 -25.8099383876659 V25.8099383876659" stroke="#03101de6" stroke-width="2"/><path d="M0 -25.8099383876659 V25.8099383876659" stroke="#03101de6" stroke-width="2"/><path d="M13.765300473421812 -25.8099383876659 V25.8099383876659" stroke="#03101de6" stroke-width="2"/>
          <path d="M-25.8099383876659 -13.765300473421812 H25.8099383876659" stroke="#03101de6" stroke-width="2"/><path d="M-25.8099383876659 0 H25.8099383876659" stroke="#03101de6" stroke-width="2"/><path d="M-25.8099383876659 13.765300473421812 H25.8099383876659" stroke="#03101de6" stroke-width="2"/>
        </g>
      
        <g transform="translate(585.0788097176701, 618.5230835620314)">
          <rect x="-47.437708182958886" y="-47.437708182958886" width="94.87541636591777" height="94.87541636591777" rx="15.180066618546844" fill="#00F2FFc7" stroke="#8CF8FF99" stroke-width="3"/>
          <rect x="-20.87259160050191" y="-20.87259160050191" width="41.74518320100382" height="41.74518320100382" rx="6.641279145614245" fill="#03101de6"/>
          <rect x="-39.84767487368546" y="-60.720266474187376" width="7.590033309273422" height="15.180066618546844" fill="#8CF8FF99"/>
              <rect x="-39.84767487368546" y="45.54019985564053" width="7.590033309273422" height="15.180066618546844" fill="#8CF8FF99"/><rect x="-13.282558291228483" y="-60.720266474187376" width="7.590033309273422" height="15.180066618546844" fill="#8CF8FF99"/>
              <rect x="-13.282558291228483" y="45.54019985564053" width="7.590033309273422" height="15.180066618546844" fill="#8CF8FF99"/><rect x="13.282558291228497" y="-60.720266474187376" width="7.590033309273422" height="15.180066618546844" fill="#8CF8FF99"/>
              <rect x="13.282558291228497" y="45.54019985564053" width="7.590033309273422" height="15.180066618546844" fill="#8CF8FF99"/><rect x="39.84767487368548" y="-60.720266474187376" width="7.590033309273422" height="15.180066618546844" fill="#8CF8FF99"/>
              <rect x="39.84767487368548" y="45.54019985564053" width="7.590033309273422" height="15.180066618546844" fill="#8CF8FF99"/>
        </g>
      
        <g transform="translate(970.6904540164396, 430.21224482450634)">
          <path d="M0 47.90108342664316 V-43.73577182432636" stroke="#8CF8FF99" stroke-width="5" stroke-linecap="round"/>
          <path d="M0 -20.826558011583984 L-22.909213812742383 6.247967403475195 M0 -20.826558011583984 L22.909213812742383 6.247967403475195 M0 -4.165311602316796 L-29.15718121621758 18.743902210425585 M0 -4.165311602316796 L29.15718121621758 18.743902210425585" stroke="#00F2FFc7" stroke-width="4" stroke-linecap="round"/>
          <circle cx="0" cy="-31.239837017375976" r="8.330623204633593" fill="#00F2FFc7"/>
        </g>
      
        <g transform="translate(1214.3229069095105, 614.3289954960346)">
          <path d="M-28.56403796752915 -18.36259583626874 L18.36259583626874 -32.64461482003331 V32.64461482003331 L-28.56403796752915 18.36259583626874 Z" fill="#00F2FFc7" stroke="#8CF8FF99" stroke-width="3"/>
          <path d="M26.523749541277066 -20.40288426252082 Q44.8863453775458 0 26.523749541277066 20.40288426252082" fill="none" stroke="#8CF8FF99" stroke-width="3"/>
        </g>
      
  </g>

  
    <g>
      <polyline points="0.0,623.8 160.0,588.5 320.0,557.7 480.0,540.5 640.0,520.0 800.0,486.1 960.0,461.7 1120.0,429.7 1280.0,401.1 1440.0,371.5 1600.0,346.0" fill="none" stroke="#8CF8FFe0" stroke-width="6" stroke-linecap="round" stroke-linejoin="round"/>
      <polygon points="0,900 0.0,623.8 160.0,588.5 320.0,557.7 480.0,540.5 640.0,520.0 800.0,486.1 960.0,461.7 1120.0,429.7 1280.0,401.1 1440.0,371.5 1600.0,346.0 1600,900" fill="#00F2FF1f"/>
    </g>
  

  <g opacity="0.09">
    <text x="70" y="784" font-family="Segoe UI, Arial, sans-serif" font-size="180" font-weight="700" fill="#8CF8FF">
      2330.TW
    </text>
  </g>
  <g opacity="0.95">
    <text x="82" y="96" font-family="Segoe UI, Arial, sans-serif" font-size="28" font-weight="700" fill="#8CF8FF">
      2330.TW
    </text>
    <text x="82" y="132" font-family="Segoe UI, Arial, sans-serif" font-size="18" font-weight="500" fill="#89C2FFe6">
      TSMC · 數位冰原
    </text>
  </g>
</svg>