<svg xmlns="http://www.w3.org/2000/svg" viewBox="0 0 1600 900" fill="none">
  <defs>
    <linearGradient id="bg" x1="0" y1="0" x2="0" y2="1">
      <stop offset="0%" stop-color="#08142a"/>
      <stop offset="48%" stop-color="#14406b"/>
      <stop offset="100%" stop-color="#0b1b33"/>
    </linearGradient>
    <radialGradient id="glow" cx="50%" cy="25%" r="65%">
      <stop offset="0%" stop-color="#CFFAFE47"/>
      <stop offset="100%" stop-color="#CFFAFE00"/>
    </radialGradient>
    <linearGradient id="fade" x1="0" y1="0" x2="1" y2="1">
      <stop offset="0%" stop-color="#7DD3FC2e"/>
      <stop offset="100%" stop-color="#E0F2FE08"/>
    </linearGradient>
  </defs>

  <rect width="1600" height="900" fill="url(#bg)"/>
  <rect width="1600" height="900" fill="url(#glow)"/>
  <rect width="1600" height="900" fill="url(#fade)"/>

  
        <g>
          
              <ellipse cx="646.0740192560479" cy="171.64836996234953" rx="155.00759486667812" ry="53.54807822667062" fill="#CFFAFE2b"/>
              <ellipse cx="547.4328225227073" cy="185.7399694956839" rx="98.64119673334062" ry="36.63815878666937" fill="#E0F2FE24"/>
              <ellipse cx="744.7152159893885" cy="191.37660930901765" rx="112.732796266675" ry="39.456478693336244" fill="#E0F2FE1c"/>
            
              <ellipse cx="637.678232928738" cy="153.10692188329995" rx="195.624766189605" ry="67.57946468368172" fill="#CFFAFE2b"/>
              <ellipse cx="513.1897453535348" cy="170.8909915369004" rx="124.48848757520318" ry="46.23858109936118" fill="#E0F2FE24"/>
              <ellipse cx="762.1667205039412" cy="178.0046193983406" rx="142.27255722880363" ry="49.79539503008127" fill="#E0F2FE1c"/>
            
              <ellipse cx="1016.5060876775533" cy="234.81354164890945" rx="212.92931950744241" ry="73.5574012843892" fill="#CFFAFE2b"/>
              <ellipse cx="881.0056116273627" cy="254.1707525132224" rx="135.50047605019063" ry="50.32874824721366" fill="#E0F2FE24"/>
              <ellipse cx="1152.006563727744" cy="261.9136368589476" rx="154.85768691450357" ry="54.20019042007625" fill="#E0F2FE1c"/>
            
              <ellipse cx="244.0551508963108" cy="356.6597843263298" rx="155.68101555854085" ry="53.78071446567775" fill="#CFFAFE2b"/>
              <ellipse cx="144.98541372269392" cy="370.8126039225608" rx="99.0697371736169" ry="36.79733095020056" fill="#E0F2FE24"/>
              <ellipse cx="343.1248880699277" cy="376.4737317610532" rx="113.22255676984788" ry="39.62789486944676" fill="#E0F2FE1c"/>
            
              <ellipse cx="734.955593906343" cy="204.24783136695623" rx="132.18373158946633" ry="45.66347091272473" fill="#CFFAFE2b"/>
              <ellipse cx="650.8386738039553" cy="216.2645342387259" rx="84.11692010238767" ry="31.243427466601133" fill="#E0F2FE24"/>
              <ellipse cx="819.0725140087306" cy="221.07121538743377" rx="96.13362297415733" ry="33.64676804095507" fill="#E0F2FE1c"/>
            
              <ellipse cx="1014.9676693137735" cy="186.04754362255335" rx="158.06431638728827" ry="54.60403657015413" fill="#CFFAFE2b"/>
              <ellipse cx="914.3812861582264" cy="200.41702693048865" rx="100.58638315554708" ry="37.36065660063178" fill="#E0F2FE24"/>
              <ellipse cx="1115.5540524693206" cy="206.16482025366275" rx="114.95586646348238" ry="40.23455326221883" fill="#E0F2FE1c"/>
            
              <ellipse cx="288.35535338614136" cy="230.103601468727" rx="120.10846791602671" ry="41.492016189172865" fill="#CFFAFE2b"/>
              <ellipse cx="211.92269198503345" cy="241.0225530974567" rx="76.43266140110791" ry="28.389274234697222" fill="#E0F2FE24"/>
              <ellipse cx="364.78801478724927" cy="245.39013374894859" rx="87.35161302983761" ry="30.57306456044316" fill="#E0F2FE1c"/>
            
              <ellipse cx="547.9144235048443" cy="354.6790437027812" rx="195.83500014897436" ry="67.65209096055477" fill="#CFFAFE2b"/>
              <ellipse cx="423.2921506827697" cy="372.48222553450614" rx="124.62227282207459" ry="46.288272762484844" fill="#E0F2FE24"/>
              <ellipse cx="672.5366963269189" cy="379.60349826719613" rx="142.42545465379953" ry="49.84890912882984" fill="#E0F2FE1c"/>
            
              <ellipse cx="849.3035605223849" cy="221.68488564901054" rx="167.39327665232125" ry="57.82676829807461" fill="#CFFAFE2b"/>
              <ellipse cx="742.7805662890896" cy="236.902456253767" rx="106.52299423329534" ry="39.56568357236684" fill="#E0F2FE24"/>
              <ellipse cx="955.8265547556803" cy="242.98948449566961" rx="121.74056483805181" ry="42.60919769331814" fill="#E0F2FE1c"/>
            
          <rect x="678.8727357238531" y="414.8575478605926" width="30.942050890997052" height="30.942050890997052" rx="8" fill="#7DD3FC1c" stroke="#CFFAFE2e"/><rect x="968.8396874442697" y="520.1030087377876" width="78.09877428412437" height="78.09877428412437" rx="8" fill="#7DD3FC1c" stroke="#CFFAFE2e"/><rect x="438.30703005194664" y="368.9822828769684" width="59.24221714679152" height="59.24221714679152" rx="8" fill="#7DD3FC1c" stroke="#CFFAFE2e"/><rect x="1134.5186587423086" y="310.7441231049597" width="56.0624432163313" height="56.0624432163313" rx="8" fill="#7DD3FC1c" stroke="#CFFAFE2e"/><rect x="1370.0599073246121" y="235.70887614041567" width="46.025372247211635" height="46.025372247211635" rx="8" fill="#7DD3FC1c" stroke="#CFFAFE2e"/><rect x="1058.4980838932097" y="283.8283147290349" width="32.235251955688" height="32.235251955688" rx="8" fill="#7DD3FC1c" stroke="#CFFAFE2e"/><rect x="838.5098792240024" y="427.1962979901582" width="76.9005252206698" height="76.9005252206698" rx="8" fill="#7DD3FC1c" stroke="#CFFAFE2e"/><rect x="675.830553099513" y="261.3284712191671" width="41.920798297040164" height="41.920798297040164" rx="8" fill="#7DD3FC1c" stroke="#CFFAFE2e"/><rect x="154.80732845142484" y="360.8815032057464" width="77.49666490778327" height="77.49666490778327" rx="8" fill="#7DD3FC1c" stroke="#CFFAFE2e"/><rect x="1093.0316448025405" y="360.6131627783179" width="62.953197739087045" height="62.953197739087045" rx="8" fill="#7DD3FC1c" stroke="#CFFAFE2e"/><rect x="725.3788417577744" y="290.0880293175578" width="54.37710908893496" height="54.37710908893496" rx="8" fill="#7DD3FC1c" stroke="#CFFAFE2e"/><rect x="122.53451449796557" y="300.9056635107845" width="69.51374633423984" height="69.51374633423984" rx="8" fill="#7DD3FC1c" stroke="#CFFAFE2e"/><rect x="1121.2913050502539" y="434.0225251298398" width="66.81228387821466" height="66.81228387821466" rx="8" fill="#7DD3FC1c" stroke="#CFFAFE2e"/><rect x="360.0758582726121" y="393.5759152378887" width="42.760652743279934" height="42.760652743279934" rx="8" fill="#7DD3FC1c" stroke="#CFFAFE2e"/><rect x="1049.334960449487" y="357.9943921137601" width="51.36658292450011" height="51.36658292450011" rx="8" fill="#7DD3FC1c" stroke="#CFFAFE2e"/>
        </g>
      

  <g opacity="0.92">
    
        <g transform="translate(263.10391812585294, 452.4621195998043)">
          <rect x="-27.273105913549664" y="-42.614227989921346" width="54.54621182709933" height="85.22845597984269" rx="6.818276478387416" fill="#7DD3FCc7" stroke="#CFFAFE99" stroke-width="3"/>
          <rect x="-18.75026031556539" y="-27.273105913549664" width="37.50052063113078" height="9.375130157782696" rx="4" fill="#06111fe6"/>
          <rect x="-18.75026031556539" y="-5.1137073587905615" width="37.50052063113078" height="9.375130157782696" rx="4" fill="#06111fe6"/>
          <rect x="-18.75026031556539" y="17.04569119596854" width="37.50052063113078" height="9.375130157782696" rx="4" fill="#06111fe6"/>
        </g>
      
        <g transform="translate(655.0545952096581, 599.9002730473876)">
          <rect x="-32.16737083731219" y="-32.16737083731219" width="64.33474167462438" height="64.33474167462438" rx="9.46099142273888" fill="#7DD3FCc7" stroke="#CFFAFE99" stroke-width="3"/>
          <path d="M-17.029784560929983 0 H17.029784560929983 M0 -17.029784560929983 V17.029784560929983" stroke="#06111fe6" stroke-width="3"/>
        </g>
      
        <g transform="translate(928.9117792947218, 433.6511145438999)">
          <rect x="-32.57912161136046" y="-32.57912161136046" width="65.15824322272093" height="65.15824322272093" rx="9.582094591576606" fill="#7DD3FCc7" stroke="#CFFAFE99" stroke-width="3"/>
          <path d="M-17.24777026483789 0 H17.24777026483789 M0 -17.24777026483789 V17.24777026483789" stroke="#06111fe6" stroke-width="3"/>
        </g>
      
        <g transform="translate(1242.3054352775216, 594.7479798225686)">
          <rect x="-31.37107072999701" y="-31.37107072999701" width="62.74214145999402" height="62.74214145999402" rx="9.22678550882265" fill="#7DD3FCc7" stroke="#CFFAFE99" stroke-width="3"/>
          <path d="M-16.608213915880768 0 H16.608213915880768 M0 -16.608213915880768 V16.608213915880768" stroke="#06111fe6" stroke-width="3"/>
        </g>
      
  </g>

  
    <g>
      <polyline points="0.0,637.9 160.0,622.7 320.0,604.4 480.0,567.4 640.0,550.1 800.0,525.0 960.0,496.7 1120.0,469.4 1280.0,450.6 1440.0,436.7 1600.0,424.5" fill="none" stroke="#CFFAFEe0" stroke-width="6" stroke-linecap="round" stroke-linejoin="round"/>
      <polygon points="0,900 0.0,637.9 160.0,622.7 320.0,604.4 480.0,567.4 640.0,550.1 800.0,525.0 960.0,496.7 1120.0,469.4 1280.0,450.6 1440.0,436.7 1600.0,424.5 1600,900" fill="#7DD3FC1f"/>
    </g>
  

  <g opacity="0.09">
    <text x="70" y="784" font-family="Segoe UI, Arial, sans-serif" font-size="180" font-weight="700" fill="#CFFAFE">
      2382.TW
    </text>
  </g>
  <g opacity="0.95">
    <text x="82" y="96" font-family="Segoe UI, Arial, sans-serif" font-size="28" font-weight="700" fill="#CFFAFE">
      2382.TW
    </text>
    <text x="82" y="132" font-family="Segoe UI, Arial, sans-serif" font-size="18" font-weight="500" fill="#E0F2FEe6">
      Quanta · 雲端之巔
    </text>
  </g>
</svg>