<svg xmlns="http://www.w3.org/2000/svg" viewBox="0 0 1600 900" fill="none">
  <defs>
    <linearGradient id="bg" x1="0" y1="0" x2="0" y2="1">
      <stop offset="0%" stop-color="#1d232a"/>
      <stop offset="48%" stop-color="#3d4651"/>
      <stop offset="100%" stop-color="#161b20"/>
    </linearGradient>
    <radialGradient id="glow" cx="50%" cy="25%" r="65%">
      <stop offset="0%" stop-color="#FDBA7447"/>
      <stop offset="100%" stop-color="#FDBA7400"/>
    </radialGradient>
    <linearGradient id="fade" x1="0" y1="0" x2="1" y2="1">
      <stop offset="0%" stop-color="#F973162e"/>
      <stop offset="100%" stop-color="#9CA3AF08"/>
    </linearGradient>
  </defs>

  <rect width="1600" height="900" fill="url(#bg)"/>
  <rect width="1600" height="900" fill="url(#glow)"/>
  <rect width="1600" height="900" fill="url(#fade)"/>

  
        <g>
          
              <rect x="41.02511449716985" y="335.44757960829884" width="92" height="284.55242039170116" rx="6" fill="#9CA3AF29"/>
              <line x1="51.02511449716985" y1="335.44757960829884" x2="121.02511449716985" y2="195.44757960829884" stroke="#F9731657" stroke-width="5"/>
              <line x1="121.02511449716985" y1="195.44757960829884" x2="167.02511449716985" y2="195.44757960829884" stroke="#F9731657" stroke-width="5"/>
            
              <rect x="182.15941205155104" y="326.415451890789" width="92" height="293.584548109211" rx="6" fill="#9CA3AF29"/>
              <line x1="192.15941205155104" y1="326.415451890789" x2="262.15941205155104" y2="186.41545189078897" stroke="#F9731657" stroke-width="5"/>
              <line x1="262.15941205155104" y1="186.41545189078897" x2="308.15941205155104" y2="186.41545189078897" stroke="#F9731657" stroke-width="5"/>
            
              <rect x="330.71878648363054" y="349.4652237696573" width="92" height="270.5347762303427" rx="6" fill="#9CA3AF29"/>
              <line x1="340.71878648363054" y1="349.4652237696573" x2="410.71878648363054" y2="209.4652237696573" stroke="#F9731657" stroke-width="5"/>
              <line x1="410.71878648363054" y1="209.4652237696573" x2="456.71878648363054" y2="209.4652237696573" stroke="#F9731657" stroke-width="5"/>
            
              <rect x="493.89129790477455" y="278.90232145320624" width="92" height="341.09767854679376" rx="6" fill="#9CA3AF29"/>
              <line x1="503.89129790477455" y1="278.90232145320624" x2="573.8912979047745" y2="138.90232145320624" stroke="#F9731657" stroke-width="5"/>
              <line x1="573.8912979047745" y1="138.90232145320624" x2="619.8912979047745" y2="138.90232145320624" stroke="#F9731657" stroke-width="5"/>
            
              <rect x="632.2717564180493" y="279.43557834252715" width="92" height="340.56442165747285" rx="6" fill="#9CA3AF29"/>
              <line x1="642.2717564180493" y1="279.43557834252715" x2="712.2717564180493" y2="139.43557834252715" stroke="#F9731657" stroke-width="5"/>
              <line x1="712.2717564180493" y1="139.43557834252715" x2="758.2717564180493" y2="139.43557834252715" stroke="#F9731657" stroke-width="5"/>
            
              <rect x="792.2736418806016" y="235.23652819916606" width="92" height="384.76347180083394" rx="6" fill="#9CA3AF29"/>
              <line x1="802.2736418806016" y1="235.23652819916606" x2="872.2736418806016" y2="95.23652819916606" stroke="#F9731657" stroke-width="5"/>
              <line x1="872.2736418806016" y1="95.23652819916606" x2="918.2736418806016" y2="95.23652819916606" stroke="#F9731657" stroke-width="5"/>
            
              <rect x="941.9044504966587" y="322.32596068643034" width="92" height="297.67403931356966" rx="6" fill="#9CA3AF29"/>
              <line x1="951.9044504966587" y1="322.32596068643034" x2="1021.9044504966587" y2="182.32596068643034" stroke="#F9731657" stroke-width="5"/>
              <line x1="1021.9044504966587" y1="182.32596068643034" x2="1067.9044504966587" y2="182.32596068643034" stroke="#F9731657" stroke-width="5"/>
            
              <rect x="1093.5336285550147" y="341.1183867510408" width="92" height="278.8816132489592" rx="6" fill="#9CA3AF29"/>
              <line x1="1103.5336285550147" y1="341.1183867510408" x2="1173.5336285550147" y2="201.11838675104082" stroke="#F9731657" stroke-width="5"/>
              <line x1="1173.5336285550147" y1="201.11838675104082" x2="1219.5336285550147" y2="201.11838675104082" stroke="#F9731657" stroke-width="5"/>
            
              <rect x="1246.4234578656033" y="368.5848765261471" width="92" height="251.41512347385287" rx="6" fill="#9CA3AF29"/>
              <line x1="1256.4234578656033" y1="368.5848765261471" x2="1326.4234578656033" y2="228.58487652614713" stroke="#F9731657" stroke-width="5"/>
              <line x1="1326.4234578656033" y1="228.58487652614713" x2="1372.4234578656033" y2="228.58487652614713" stroke="#F9731657" stroke-width="5"/>
            
              <rect x="1394.2613156419247" y="286.40887225978076" width="92" height="333.59112774021924" rx="6" fill="#9CA3AF29"/>
              <line x1="1404.2613156419247" y1="286.40887225978076" x2="1474.2613156419247" y2="146.40887225978076" stroke="#F9731657" stroke-width="5"/>
              <line x1="1474.2613156419247" y1="146.40887225978076" x2="1520.2613156419247" y2="146.40887225978076" stroke="#F9731657" stroke-width="5"/>
            
          <ellipse cx="568.1362448260188" cy="228.6011739820242" rx="133.60299318563193" ry="39.00633991882205" fill="#FFFFFF0f"/><ellipse cx="898.7146435305476" cy="236.16441067308187" rx="147.28924054652452" ry="43.267612244933844" fill="#FFFFFF0f"/><ellipse cx="388.8901809230447" cy="245.33938810229301" rx="129.12827956024557" ry="44.67791434004903" fill="#FFFFFF0f"/><ellipse cx="1015.1632935740054" cy="244.85497515648603" rx="113.24239656329155" ry="44.609733376652" fill="#FFFFFF0f"/><ellipse cx="511.33702006191015" cy="200.82155529409647" rx="95.77668921556324" ry="30.62632066011429" fill="#FFFFFF0f"/><ellipse cx="353.45661621540785" cy="319.8100834339857" rx="147.66005833167583" ry="32.46924473717809" fill="#FFFFFF0f"/>
        </g>
      

  <g opacity="0.92">
    
        <g transform="translate(256.26069612335414, 422.43199882563204)">
          <path d="M-35.51391059900634 28.74935619919561 V-13.529108799621463 L-6.764554399810732 3.382277199905366 V-13.529108799621463 L20.293663199432192 3.382277199905366 V-25.367078999290243 H35.51391059900634 V28.74935619919561 Z" fill="#F97316c7" stroke="#FDBA7499" stroke-width="3"/>
        </g>
      
        <g transform="translate(571.2752552283928, 636.9810584327206)">
          <path d="M-35.83867581385188 -12.648944404888898 H35.83867581385188 M-23.18973140896298 12.648944404888898 H23.18973140896298" stroke="#FDBA7499" stroke-width="6" stroke-linecap="round"/>
          <circle cx="-42.16314801629633" cy="-12.648944404888898" r="8.432629603259265" fill="#F97316c7"/>
          <circle cx="42.16314801629633" cy="-12.648944404888898" r="8.432629603259265" fill="#F97316c7"/>
        </g>
      
        <g transform="translate(891.3118005357683, 432.7452467288822)">
          <path d="M-28.919566325843338 -18.591149780899286 L18.591149780899286 -33.05093294382095 V33.05093294382095 L-28.919566325843338 18.591149780899286 Z" fill="#F97316c7" stroke="#FDBA7499" stroke-width="3"/>
          <path d="M26.853883016854525 -20.656833089888096 Q45.44503279775381 0 26.853883016854525 20.656833089888096" fill="none" stroke="#FDBA7499" stroke-width="3"/>
        </g>
      
        <g transform="translate(1223.4272473864257, 634.2250651866198)">
          <rect x="-34.83012533430011" y="-34.83012533430011" width="69.66025066860021" height="69.66025066860021" rx="10.244154510088265" fill="#F97316c7" stroke="#FDBA7499" stroke-width="3"/>
          <path d="M-18.439478118158878 0 H18.439478118158878 M0 -18.439478118158878 V18.439478118158878" stroke="#111317e6" stroke-width="3"/>
        </g>
      
  </g>

  
    <g>
      <polyline points="0.0,630.6 160.0,652.8 320.0,680.7 480.0,653.3 640.0,677.0 800.0,695.0 960.0,673.2 1120.0,695.4 1280.0,716.4 1440.0,691.4 1600.0,718.8" fill="none" stroke="#FDBA74e0" stroke-width="6" stroke-linecap="round" stroke-linejoin="round"/>
      <polygon points="0,900 0.0,630.6 160.0,652.8 320.0,680.7 480.0,653.3 640.0,677.0 800.0,695.0 960.0,673.2 1120.0,695.4 1280.0,716.4 1440.0,691.4 1600.0,718.8 1600,900" fill="#F973161f"/>
    </g>
  

  <g opacity="0.09">
    <text x="70" y="784" font-family="Segoe UI, Arial, sans-serif" font-size="180" font-weight="700" fill="#FDBA74">
      2395.TW
    </text>
  </g>
  <g opacity="0.95">
    <text x="82" y="96" font-family="Segoe UI, Arial, sans-serif" font-size="28" font-weight="700" fill="#FDBA74">
      2395.TW
    </text>
    <text x="82" y="132" font-family="Segoe UI, Arial, sans-serif" font-size="18" font-weight="500" fill="#9CA3AFe6">
      研華 · 鋼鐵峽谷
    </text>
  </g>
</svg>