<svg xmlns="http://www.w3.org/2000/svg" viewBox="0 0 1600 900" fill="none">
  <defs>
    <linearGradient id="bg" x1="0" y1="0" x2="0" y2="1">
      <stop offset="0%" stop-color="#08142a"/>
      <stop offset="48%" stop-color="#14406b"/>
      <stop offset="100%" stop-color="#0b1b33"/>
    </linearGradient>
    <radialGradient id="glow" cx="50%" cy="25%" r="65%">
      <stop offset="0%" stop-color="#CFFAFE47"/>
      <stop offset="100%" stop-color="#CFFAFE00"/>
    </radialGradient>
    <linearGradient id="fade" x1="0" y1="0" x2="1" y2="1">
      <stop offset="0%" stop-color="#7DD3FC2e"/>
      <stop offset="100%" stop-color="#E0F2FE08"/>
    </linearGradient>
  </defs>

  <rect width="1600" height="900" fill="url(#bg)"/>
  <rect width="1600" height="900" fill="url(#glow)"/>
  <rect width="1600" height="900" fill="url(#fade)"/>

  
        <g>
          
              <ellipse cx="439.7763608722016" cy="146.2096869945526" rx="216.77678538113832" ry="74.8865258589387" fill="#CFFAFE2b"/>
              <ellipse cx="301.82749744784087" cy="165.916667483747" rx="137.94886342436075" ry="51.23814927190542" fill="#E0F2FE24"/>
              <ellipse cx="577.7252242965624" cy="173.79945967942476" rx="157.65584391355515" ry="55.1795453697443" fill="#E0F2FE1c"/>
            
              <ellipse cx="1047.7430226607248" cy="149.89571544341743" rx="122.78787241596729" ry="42.4176286527887" fill="#CFFAFE2b"/>
              <ellipse cx="969.6052856687456" cy="161.05824929941446" rx="78.13773699197918" ry="29.022588025592267" fill="#E0F2FE24"/>
              <ellipse cx="1125.880759652704" cy="165.52326284181328" rx="89.30027084797621" ry="31.25509479679167" fill="#E0F2FE1c"/>
            
              <ellipse cx="740.4791908711195" cy="315.1076058112085" rx="204.84359280671924" ry="70.7641502423212" fill="#CFFAFE2b"/>
              <ellipse cx="610.1241772668436" cy="333.7297506118193" rx="130.35501360427588" ry="48.417576481588185" fill="#E0F2FE24"/>
              <ellipse cx="870.8342044753954" cy="341.17860853206366" rx="148.97715840488672" ry="52.14200544171035" fill="#E0F2FE1c"/>
            
              <ellipse cx="191.63935819175094" cy="151.8543130159378" rx="177.40993572305888" ry="61.287068704329435" fill="#CFFAFE2b"/>
              <ellipse cx="78.7421263679862" cy="167.98248899076134" rx="112.89723182376474" ry="41.93325753454119" fill="#E0F2FE24"/>
              <ellipse cx="304.5365900155157" cy="174.43375938069076" rx="129.02540779858828" ry="45.1588927295059" fill="#E0F2FE1c"/>
            
              <ellipse cx="828.7310909852386" cy="377.39715887233615" rx="171.18577543273568" ry="59.136904240399595" fill="#CFFAFE2b"/>
              <ellipse cx="719.794688437134" cy="392.95950209349394" rx="108.93640254810452" ry="40.46209237501025" fill="#E0F2FE24"/>
              <ellipse cx="937.6674935333431" cy="399.1844393819571" rx="124.49874576926231" ry="43.574561019241806" fill="#E0F2FE1c"/>
            
              <ellipse cx="1141.3493587262928" cy="334.9937166366726" rx="196.17750750575215" ry="67.77041168380529" fill="#CFFAFE2b"/>
              <ellipse cx="1016.5091266771778" cy="352.8280355008319" rx="124.840232049115" ry="46.36922904681415" fill="#E0F2FE24"/>
              <ellipse cx="1266.1895907754079" cy="359.9617630464956" rx="142.6745509132743" ry="49.936092819646" fill="#E0F2FE1c"/>
            
              <ellipse cx="716.1667090700939" cy="318.2115495298058" rx="145.02763256710026" ry="50.10045488681645" fill="#CFFAFE2b"/>
              <ellipse cx="623.8763974364847" cy="331.3958797631785" rx="92.29031163360925" ry="34.27925860676915" fill="#E0F2FE24"/>
              <ellipse cx="808.4570207037032" cy="336.66961185652764" rx="105.474641866982" ry="36.9161246534437" fill="#E0F2FE1c"/>
            
              <ellipse cx="678.5909607354552" cy="212.90437291376293" rx="184.92100801877677" ry="63.88180277012288" fill="#CFFAFE2b"/>
              <ellipse cx="560.9139556325972" cy="229.71537364274263" rx="117.67700510285795" ry="43.708601895347236" fill="#E0F2FE24"/>
              <ellipse cx="796.2679658383131" cy="236.4397739343345" rx="134.48800583183765" ry="47.070802041143175" fill="#E0F2FE1c"/>
            
              <ellipse cx="421.2120543513447" cy="296.81167592294514" rx="186.5369322374463" ry="64.44003113657236" fill="#CFFAFE2b"/>
              <ellipse cx="302.50673383660614" cy="313.7695788536221" rx="118.70532051473856" ry="44.09054761976004" fill="#E0F2FE24"/>
              <ellipse cx="539.9173748660833" cy="320.55274002589283" rx="135.6632234454155" ry="47.48212820589543" fill="#E0F2FE1c"/>
            
          <rect x="1168.5943353548646" y="349.40674926154315" width="59.79527555592358" height="59.79527555592358" rx="8" fill="#7DD3FC1c" stroke="#CFFAFE2e"/><rect x="819.6378004923463" y="464.84331123530865" width="60.416301225312054" height="60.416301225312054" rx="8" fill="#7DD3FC1c" stroke="#CFFAFE2e"/><rect x="1297.0262894965708" y="367.4274857714772" width="61.86581071652472" height="61.86581071652472" rx="8" fill="#7DD3FC1c" stroke="#CFFAFE2e"/><rect x="1360.5562841519713" y="498.58438685536385" width="42.918705807067454" height="42.918705807067454" rx="8" fill="#7DD3FC1c" stroke="#CFFAFE2e"/><rect x="602.4669090472162" y="498.4222991205752" width="75.54112747497857" height="75.54112747497857" rx="8" fill="#7DD3FC1c" stroke="#CFFAFE2e"/><rect x="456.3044479675591" y="202.35150854103267" width="59.158578912727535" height="59.158578912727535" rx="8" fill="#7DD3FC1c" stroke="#CFFAFE2e"/><rect x="812.4348249845207" y="443.87178698554635" width="29.53424434363842" height="29.53424434363842" rx="8" fill="#7DD3FC1c" stroke="#CFFAFE2e"/><rect x="99.11322709172964" y="366.1261885147542" width="48.26186417322606" height="48.26186417322606" rx="8" fill="#7DD3FC1c" stroke="#CFFAFE2e"/><rect x="911.9789593853056" y="298.13986806198955" width="54.309624975547194" height="54.309624975547194" rx="8" fill="#7DD3FC1c" stroke="#CFFAFE2e"/><rect x="1272.5439394265413" y="387.08256230689585" width="86.95985873416066" height="86.95985873416066" rx="8" fill="#7DD3FC1c" stroke="#CFFAFE2e"/><rect x="321.93208765238523" y="421.2459535803646" width="51.48595212213695" height="51.48595212213695" rx="8" fill="#7DD3FC1c" stroke="#CFFAFE2e"/><rect x="1003.4475134685636" y="382.33409924432635" width="77.13122416939586" height="77.13122416939586" rx="8" fill="#7DD3FC1c" stroke="#CFFAFE2e"/><rect x="108.36453335359693" y="334.553111596033" width="28.371956410817802" height="28.371956410817802" rx="8" fill="#7DD3FC1c" stroke="#CFFAFE2e"/><rect x="1167.5920403376222" y="391.7905391007662" width="34.02584455627948" height="34.02584455627948" rx="8" fill="#7DD3FC1c" stroke="#CFFAFE2e"/><rect x="893.1083423085511" y="318.6066817957908" width="42.95909952558577" height="42.95909952558577" rx="8" fill="#7DD3FC1c" stroke="#CFFAFE2e"/>
        </g>
      

  <g opacity="0.92">
    
        <g transform="translate(306.10125246457756, 420.5467255739495)">
          <rect x="-54.401023904792964" y="-54.401023904792964" width="108.80204780958593" height="108.80204780958593" rx="17.40832764953375" fill="#7DD3FCc7" stroke="#CFFAFE99" stroke-width="3"/>
          <rect x="-23.936450518108906" y="-23.936450518108906" width="47.87290103621781" height="47.87290103621781" rx="7.616143346671016" fill="#06111fe6"/>
          <rect x="-45.69686008002609" y="-69.633310598135" width="8.704163824766875" height="17.40832764953375" fill="#CFFAFE99"/>
              <rect x="-45.69686008002609" y="52.224982948601244" width="8.704163824766875" height="17.40832764953375" fill="#CFFAFE99"/><rect x="-15.23228669334203" y="-69.633310598135" width="8.704163824766875" height="17.40832764953375" fill="#CFFAFE99"/>
              <rect x="-15.23228669334203" y="52.224982948601244" width="8.704163824766875" height="17.40832764953375" fill="#CFFAFE99"/><rect x="15.232286693342033" y="-69.633310598135" width="8.704163824766875" height="17.40832764953375" fill="#CFFAFE99"/>
              <rect x="15.232286693342033" y="52.224982948601244" width="8.704163824766875" height="17.40832764953375" fill="#CFFAFE99"/><rect x="45.69686008002609" y="-69.633310598135" width="8.704163824766875" height="17.40832764953375" fill="#CFFAFE99"/>
              <rect x="45.69686008002609" y="52.224982948601244" width="8.704163824766875" height="17.40832764953375" fill="#CFFAFE99"/>
        </g>
      
        <g transform="translate(573.5188305424526, 616.0600558808073)">
          <path d="M-23.919232544749978 -15.376649493053556 L15.376649493053556 -27.336265765428543 V27.336265765428543 L-23.919232544749978 15.376649493053556 Z" fill="#7DD3FCc7" stroke="#CFFAFE99" stroke-width="3"/>
          <path d="M22.210715934410693 -17.08516610339284 Q37.58736542746425 0 22.210715934410693 17.08516610339284" fill="none" stroke="#CFFAFE99" stroke-width="3"/>
        </g>
      
        <g transform="translate(941.3990821084008, 435.67210850771517)">
          <ellipse rx="45.97652884284965" ry="26.27230219591409" fill="none" stroke="#CFFAFE99" stroke-width="5"/>
          <ellipse rx="21.893585163261744" ry="10.946792581630872" fill="none" stroke="#7DD3FCc7" stroke-width="3"/>
        </g>
      
        <g transform="translate(1229.1154925851151, 597.27751347702)">
          <rect x="-31.62063528775238" y="-31.62063528775238" width="63.24127057550476" height="63.24127057550476" rx="9.300186849338933" fill="#7DD3FCc7" stroke="#CFFAFE99" stroke-width="3"/>
          <path d="M-16.74033632881008 0 H16.74033632881008 M0 -16.74033632881008 V16.74033632881008" stroke="#06111fe6" stroke-width="3"/>
        </g>
      
  </g>

  
    <g>
      <polyline points="0.0,587.7 160.0,604.6 320.0,548.6 480.0,556.0 640.0,496.9 800.0,512.2 960.0,450.7 1120.0,464.8 1280.0,409.5 1440.0,425.2 1600.0,367.9" fill="none" stroke="#CFFAFEe0" stroke-width="6" stroke-linecap="round" stroke-linejoin="round"/>
      <polygon points="0,900 0.0,587.7 160.0,604.6 320.0,548.6 480.0,556.0 640.0,496.9 800.0,512.2 960.0,450.7 1120.0,464.8 1280.0,409.5 1440.0,425.2 1600.0,367.9 1600,900" fill="#7DD3FC1f"/>
    </g>
  

  <g opacity="0.09">
    <text x="70" y="784" font-family="Segoe UI, Arial, sans-serif" font-size="180" font-weight="700" fill="#CFFAFE">
      2454.TW
    </text>
  </g>
  <g opacity="0.95">
    <text x="82" y="96" font-family="Segoe UI, Arial, sans-serif" font-size="28" font-weight="700" fill="#CFFAFE">
      2454.TW
    </text>
    <text x="82" y="132" font-family="Segoe UI, Arial, sans-serif" font-size="18" font-weight="500" fill="#E0F2FEe6">
      MediaTek · 雲端之巔
    </text>
  </g>
</svg>