<svg xmlns="http://www.w3.org/2000/svg" viewBox="0 0 1600 900" fill="none">
  <defs>
    <linearGradient id="bg" x1="0" y1="0" x2="0" y2="1">
      <stop offset="0%" stop-color="#041a30"/>
      <stop offset="48%" stop-color="#0a3760"/>
      <stop offset="100%" stop-color="#07111f"/>
    </linearGradient>
    <radialGradient id="glow" cx="50%" cy="25%" r="65%">
      <stop offset="0%" stop-color="#8CF8FF47"/>
      <stop offset="100%" stop-color="#8CF8FF00"/>
    </radialGradient>
    <linearGradient id="fade" x1="0" y1="0" x2="1" y2="1">
      <stop offset="0%" stop-color="#00F2FF2e"/>
      <stop offset="100%" stop-color="#89C2FF08"/>
    </linearGradient>
  </defs>

  <rect width="1600" height="900" fill="url(#bg)"/>
  <rect width="1600" height="900" fill="url(#glow)"/>
  <rect width="1600" height="900" fill="url(#fade)"/>

  
        <g opacity="0.95">
          <path d="M-40 220 C240 80, 420 260, 720 170 S1200 80, 1640 210 L1640 0 L-40 0 Z" fill="#00F2FF2e"/>
          <path d="M-20 270 C210 170, 440 280, 690 210 S1160 140, 1620 260" stroke="#8CF8FF8c" stroke-width="8" fill="none" stroke-linecap="round"/>
          <path d="M19.044980378821492 900 L139.0449803788215 315.28823596425354 L289.0449803788215 712.3779149213806 L409.0449803788215 900 Z" fill="#89C2FF30"/><path d="M210.92305008787662 900 L330.9230500878766 366.3869714923203 L480.9230500878766 719.9762833258137 L600.9230500878766 900 Z" fill="#89C2FF3b"/><path d="M446.8496182397939 900 L566.8496182397939 329.1600565519184 L716.8496182397939 711.5754067152739 L836.8496182397939 900 Z" fill="#89C2FF3f"/><path d="M641.9564397749491 900 L761.9564397749491 400.3397015389055 L911.9564397749491 666.8945699417964 L1031.956439774949 900 Z" fill="#89C2FF33"/><path d="M883.3079930301756 900 L1003.3079930301756 414.65807201340795 L1153.3079930301756 648.9557289006189 L1273.3079930301756 900 Z" fill="#89C2FF2a"/><path d="M1092.7196068875492 900 L1212.7196068875492 387.44463982991874 L1362.7196068875492 634.2941856430843 L1482.7196068875492 900 Z" fill="#89C2FF2d"/><path d="M1324.9127119779587 900 L1444.9127119779587 391.3558443915099 L1594.9127119779587 697.4571099691093 L1714.9127119779587 900 Z" fill="#89C2FF44"/>
          <rect x="1025.5364935658872" y="433.7518478464335" width="64.48608938418329" height="2" fill="#00F2FF2e"/><rect x="1222.0562871731818" y="394.7445593262091" width="32.29188611544669" height="2" fill="#00F2FF2e"/><rect x="69.04066305607557" y="626.6081534931436" width="72.91068494133651" height="2" fill="#00F2FF2e"/><rect x="850.7886612974107" y="607.5163030065596" width="118.79541240213439" height="2" fill="#00F2FF2e"/><rect x="1000.9697058796883" y="680.8493281388655" width="64.13343403069302" height="2" fill="#00F2FF2e"/><rect x="578.6113207414746" y="314.67477432917804" width="60.77328189322725" height="2" fill="#00F2FF2e"/><rect x="198.06101391091943" y="568.7788375467062" width="98.65725321741775" height="2" fill="#00F2FF2e"/><rect x="333.9042504504323" y="619.4946939824149" width="54.57999862311408" height="2" fill="#00F2FF2e"/><rect x="879.4268896989524" y="332.27889095433056" width="60.354256136808544" height="2" fill="#00F2FF2e"/><rect x="1278.8169762678444" y="512.4760392121971" width="58.45213291281834" height="2" fill="#00F2FF2e"/><rect x="1427.5383309088647" y="668.9642337104306" width="44.34755328623578" height="2" fill="#00F2FF2e"/><rect x="1553.2020959444344" y="295.34182890318334" width="74.59130558231845" height="2" fill="#00F2FF2e"/><rect x="541.2548378668725" y="470.4431055439636" width="81.42591435275972" height="2" fill="#00F2FF2e"/><rect x="1020.3886638209224" y="443.2273325882852" width="62.817614372354" height="2" fill="#00F2FF2e"/><rect x="944.8620080947876" y="426.10099028330296" width="91.2688158317469" height="2" fill="#00F2FF2e"/><rect x="1397.3614137247205" y="544.6026399591938" width="59.45940746506676" height="2" fill="#00F2FF2e"/>
        </g>
      

  <g opacity="0.92">
    
        <g transform="translate(337.9559580469504, 431.49184573441744)">
          <circle r="33.23198939011432" fill="#00F2FFc7" stroke="#8CF8FF99" stroke-width="3"/>
          <path d="M-13.992416585311293 -26.235781097458673 V26.235781097458673" stroke="#03101de6" stroke-width="2"/><path d="M0 -26.235781097458673 V26.235781097458673" stroke="#03101de6" stroke-width="2"/><path d="M13.992416585311293 -26.235781097458673 V26.235781097458673" stroke="#03101de6" stroke-width="2"/>
          <path d="M-26.235781097458673 -13.992416585311293 H26.235781097458673" stroke="#03101de6" stroke-width="2"/><path d="M-26.235781097458673 0 H26.235781097458673" stroke="#03101de6" stroke-width="2"/><path d="M-26.235781097458673 13.992416585311293 H26.235781097458673" stroke="#03101de6" stroke-width="2"/>
        </g>
      
        <g transform="translate(584.9374334840104, 616.2361678667367)">
          <rect x="-54.20197975845076" y="-54.20197975845076" width="108.40395951690152" height="108.40395951690152" rx="17.344633522704243" fill="#00F2FFc7" stroke="#8CF8FF99" stroke-width="3"/>
          <rect x="-23.848871093718333" y="-23.848871093718333" width="47.69774218743667" height="47.69774218743667" rx="7.588277166183107" fill="#03101de6"/>
          <rect x="-45.52966299709864" y="-69.37853409081697" width="8.672316761352121" height="17.344633522704243" fill="#8CF8FF99"/>
              <rect x="-45.52966299709864" y="52.03390056811273" width="8.672316761352121" height="17.344633522704243" fill="#8CF8FF99"/><rect x="-15.176554332366212" y="-69.37853409081697" width="8.672316761352121" height="17.344633522704243" fill="#8CF8FF99"/>
              <rect x="-15.176554332366212" y="52.03390056811273" width="8.672316761352121" height="17.344633522704243" fill="#8CF8FF99"/><rect x="15.176554332366216" y="-69.37853409081697" width="8.672316761352121" height="17.344633522704243" fill="#8CF8FF99"/>
              <rect x="15.176554332366216" y="52.03390056811273" width="8.672316761352121" height="17.344633522704243" fill="#8CF8FF99"/><rect x="45.52966299709864" y="-69.37853409081697" width="8.672316761352121" height="17.344633522704243" fill="#8CF8FF99"/>
              <rect x="45.52966299709864" y="52.03390056811273" width="8.672316761352121" height="17.344633522704243" fill="#8CF8FF99"/>
        </g>
      
        <g transform="translate(982.2486762050539, 478.50207639858127)">
          <path d="M0 47.771347089232876 V-43.61731690756045" stroke="#8CF8FF99" stroke-width="5" stroke-linecap="round"/>
          <path d="M0 -20.770150908362123 L-22.84716599919833 6.231045272508636 M0 -20.770150908362123 L22.84716599919833 6.231045272508636 M0 -4.154030181672424 L-29.078211271706973 18.693135817525906 M0 -4.154030181672424 L29.078211271706973 18.693135817525906" stroke="#00F2FFc7" stroke-width="4" stroke-linecap="round"/>
          <circle cx="0" cy="-31.15522636254318" r="8.308060363344849" fill="#00F2FFc7"/>
        </g>
      
        <g transform="translate(1248.1405336782336, 623.9734085835516)">
          <rect x="-28.279251893460753" y="-44.18633108353242" width="56.558503786921506" height="88.37266216706485" rx="7.069812973365188" fill="#00F2FFc7" stroke="#8CF8FF99" stroke-width="3"/>
          <rect x="-19.441985676754268" y="-28.279251893460753" width="38.883971353508535" height="9.720992838377134" rx="4" fill="#03101de6"/>
          <rect x="-19.441985676754268" y="-5.30235973002389" width="38.883971353508535" height="9.720992838377134" rx="4" fill="#03101de6"/>
          <rect x="-19.441985676754268" y="17.67453243341297" width="38.883971353508535" height="9.720992838377134" rx="4" fill="#03101de6"/>
        </g>
      
  </g>

  
    <g>
      <polyline points="0.0,595.9 160.0,614.4 320.0,556.2 480.0,569.3 640.0,505.7 800.0,534.1 960.0,471.5 1120.0,487.3 1280.0,425.8 1440.0,452.4 1600.0,391.1" fill="none" stroke="#8CF8FFe0" stroke-width="6" stroke-linecap="round" stroke-linejoin="round"/>
      <polygon points="0,900 0.0,595.9 160.0,614.4 320.0,556.2 480.0,569.3 640.0,505.7 800.0,534.1 960.0,471.5 1120.0,487.3 1280.0,425.8 1440.0,452.4 1600.0,391.1 1600,900" fill="#00F2FF1f"/>
    </g>
  

  <g opacity="0.09">
    <text x="70" y="784" font-family="Segoe UI, Arial, sans-serif" font-size="180" font-weight="700" fill="#8CF8FF">
      3711.TW
    </text>
  </g>
  <g opacity="0.95">
    <text x="82" y="96" font-family="Segoe UI, Arial, sans-serif" font-size="28" font-weight="700" fill="#8CF8FF">
      3711.TW
    </text>
    <text x="82" y="132" font-family="Segoe UI, Arial, sans-serif" font-size="18" font-weight="500" fill="#89C2FFe6">
      日月光 · 數位冰原
    </text>
  </g>
</svg>