<svg xmlns="http://www.w3.org/2000/svg" viewBox="0 0 1600 900" fill="none">
  <defs>
    <linearGradient id="bg" x1="0" y1="0" x2="0" y2="1">
      <stop offset="0%" stop-color="#17071f"/>
      <stop offset="48%" stop-color="#4c1d95"/>
      <stop offset="100%" stop-color="#130619"/>
    </linearGradient>
    <radialGradient id="glow" cx="50%" cy="25%" r="65%">
      <stop offset="0%" stop-color="#FDA4FF47"/>
      <stop offset="100%" stop-color="#FDA4FF00"/>
    </radialGradient>
    <linearGradient id="fade" x1="0" y1="0" x2="1" y2="1">
      <stop offset="0%" stop-color="#FF00FF2e"/>
      <stop offset="100%" stop-color="#C4B5FD08"/>
    </linearGradient>
  </defs>

  <rect width="1600" height="900" fill="url(#bg)"/>
  <rect width="1600" height="900" fill="url(#glow)"/>
  <rect width="1600" height="900" fill="url(#fade)"/>

  
        <g>
          <rect x="622.3066877573729" y="171.03473274968565" width="164.94991815183312" height="16.192436897195876" rx="5" fill="#C4B5FD22"/><rect x="619.7023272514343" y="585.9988433402032" width="195.25028457399458" height="20.66898356936872" rx="5" fill="#FF00FF25"/><rect x="1099.655345827341" y="381.9790872838348" width="237.60860003065318" height="12.55632690479979" rx="5" fill="#C4B5FD21"/><rect x="759.7035054117441" y="454.47653674986213" width="120.39667984470725" height="19.640357044991106" rx="5" fill="#C4B5FD21"/><rect x="376.0091345757246" y="397.01492179650813" width="245.62357778660953" height="22.57083578966558" rx="5" fill="#FF00FF2e"/><rect x="385.0731998682022" y="110.86752420291305" width="368.8827288057655" height="11.23048311052844" rx="5" fill="#FF00FF27"/><rect x="187.61016353964806" y="240.7362521952018" width="241.2983177881688" height="10.615824291482568" rx="5" fill="#C4B5FD31"/><rect x="1560.8844749629498" y="490.34592105075717" width="314.4715122273192" height="20.27824324928224" rx="5" fill="#FF00FF21"/><rect x="214.56552483141422" y="278.8394014677033" width="144.46195331867784" height="24.27748257946223" rx="5" fill="#FF00FF29"/><rect x="1194.5993579924107" y="340.81959494855255" width="139.4244073331356" height="10.821539459284395" rx="5" fill="#C4B5FD28"/><rect x="711.2722489982843" y="103.33244354464114" width="160.84454615600407" height="8.541795605327934" rx="5" fill="#C4B5FD2b"/><rect x="1011.3228846341372" y="286.66084414348006" width="175.59425518848002" height="21.943968904670328" rx="5" fill="#C4B5FD24"/><rect x="1393.1570626795292" y="374.6653030719608" width="235.993886096403" height="18.189053079113364" rx="5" fill="#FF00FF33"/><rect x="1236.0039453953505" y="161.4958884054795" width="299.3924168869853" height="18.58989272080362" rx="5" fill="#C4B5FD25"/><rect x="737.2468914836645" y="579.5197488367558" width="226.70259149279445" height="18.27004669699818" rx="5" fill="#FF00FF2f"/><rect x="631.9191165268421" y="204.08987489994615" width="203.8027378777042" height="17.26325144711882" rx="5" fill="#C4B5FD1f"/>
          <rect x="816.2891580164433" y="378.6118472367525" width="31.58642084337771" height="31.58642084337771" fill="#FDA4FF1f"/><rect x="674.8694609059021" y="457.5478930026293" width="59.917705161497" height="59.917705161497" fill="#FDA4FF1f"/><rect x="352.41274456493556" y="427.4050974845886" width="48.98284425958991" height="48.98284425958991" fill="#FDA4FF1f"/><rect x="534.4961382960901" y="306.7943128198385" width="37.88454760797322" height="37.88454760797322" fill="#FDA4FF1f"/><rect x="345.1374537590891" y="321.09052516520023" width="23.871344095095992" height="23.871344095095992" fill="#FDA4FF1f"/><rect x="650.8552561793476" y="350.0176119059324" width="27.220267578959465" height="27.220267578959465" fill="#FDA4FF1f"/><rect x="339.31229970417917" y="411.975541934371" width="47.7508304733783" height="47.7508304733783" fill="#FDA4FF1f"/><rect x="376.19455461390316" y="468.4927708655596" width="57.02866024337709" height="57.02866024337709" fill="#FDA4FF1f"/><rect x="176.27461060415953" y="213.08310627937317" width="24.14212903007865" height="24.14212903007865" fill="#FDA4FF1f"/><rect x="1207.2651118645445" y="315.34221798181534" width="24.737792434170842" height="24.737792434170842" fill="#FDA4FF1f"/><rect x="319.0769474208355" y="437.2761034220457" width="49.204427571967244" height="49.204427571967244" fill="#FDA4FF1f"/>
        </g>
      

  <g opacity="0.92">
    
        <g transform="translate(285.6181066483259, 430.9959963010624)">
          <rect x="-44.4847905773297" y="-32.88006260063499" width="88.9695811546594" height="54.15539722457529" rx="15.472970635592938" fill="#FF00FFc7" stroke="#FDA4FF99" stroke-width="3"/>
          <path d="M-7.736485317796469 21.27533462394029 L-19.341213294491173 46.41891190677881 L5.802363988347351 27.077698612287644" fill="#FF00FFc7" stroke="#FDA4FF99" stroke-width="3"/>
        </g>
      
        <g transform="translate(606.7782407673076, 581.4085283130407)">
          <rect x="-37.38155472578481" y="-18.690777362892405" width="74.76310945156962" height="37.38155472578481" rx="13.593292627558112" fill="#FF00FFc7" stroke="#FDA4FF99" stroke-width="3"/>
          <path d="M-15.292454206002876 0 H-3.398323156889528 M-9.345388681446202 -5.947065524556675 V5.947065524556675" stroke="#0a020fe6" stroke-width="3"/>
          <circle cx="13.593292627558112" cy="-4.247903946111911" r="3.398323156889528" fill="#0a020fe6"/>
          <circle cx="20.389938941337167" cy="4.247903946111911" r="3.398323156889528" fill="#0a020fe6"/>
        </g>
      
        <g transform="translate(937.8599427035078, 438.52644719649106)">
          <ellipse rx="40.18372056291439" ry="22.962126035951076" fill="none" stroke="#FDA4FF99" stroke-width="5"/>
          <ellipse rx="19.13510502995923" ry="9.567552514979615" fill="none" stroke="#FF00FFc7" stroke-width="3"/>
        </g>
      
        <g transform="translate(1210.5927106365561, 601.3432117272168)">
          <path d="M0 38.80286912290379 V-35.428706590477375" stroke="#FDA4FF99" stroke-width="5" stroke-linecap="round"/>
          <path d="M0 -16.870812662132085 L-18.557893928345294 5.061243798639625 M0 -16.870812662132085 L18.557893928345294 5.061243798639625 M0 -3.374162532426417 L-23.61913772698492 15.183731395918876 M0 -3.374162532426417 L23.61913772698492 15.183731395918876" stroke="#FF00FFc7" stroke-width="4" stroke-linecap="round"/>
          <circle cx="0" cy="-25.306218993198126" r="6.748325064852834" fill="#FF00FFc7"/>
        </g>
      
  </g>

  
    <g>
      <polyline points="0.0,555.2 160.0,671.0 320.0,555.3 480.0,618.7 640.0,516.3 800.0,583.7 960.0,517.4 1120.0,600.0 1280.0,544.7 1440.0,662.9 1600.0,565.0" fill="none" stroke="#FDA4FFe0" stroke-width="6" stroke-linecap="round" stroke-linejoin="round"/>
      <polygon points="0,900 0.0,555.2 160.0,671.0 320.0,555.3 480.0,618.7 640.0,516.3 800.0,583.7 960.0,517.4 1120.0,600.0 1280.0,544.7 1440.0,662.9 1600.0,565.0 1600,900" fill="#FF00FF1f"/>
    </g>
  

  <g opacity="0.09">
    <text x="70" y="784" font-family="Segoe UI, Arial, sans-serif" font-size="180" font-weight="700" fill="#FDA4FF">
      700.HK
    </text>
  </g>
  <g opacity="0.95">
    <text x="82" y="96" font-family="Segoe UI, Arial, sans-serif" font-size="28" font-weight="700" fill="#FDA4FF">
      700.HK
    </text>
    <text x="82" y="132" font-family="Segoe UI, Arial, sans-serif" font-size="18" font-weight="500" fill="#C4B5FDe6">
      Tencent · 霓虹傳媒
    </text>
  </g>
</svg>