<svg xmlns="http://www.w3.org/2000/svg" viewBox="0 0 1600 900" fill="none">
  <defs>
    <linearGradient id="bg" x1="0" y1="0" x2="0" y2="1">
      <stop offset="0%" stop-color="#08142a"/>
      <stop offset="48%" stop-color="#14406b"/>
      <stop offset="100%" stop-color="#0b1b33"/>
    </linearGradient>
    <radialGradient id="glow" cx="50%" cy="25%" r="65%">
      <stop offset="0%" stop-color="#CFFAFE47"/>
      <stop offset="100%" stop-color="#CFFAFE00"/>
    </radialGradient>
    <linearGradient id="fade" x1="0" y1="0" x2="1" y2="1">
      <stop offset="0%" stop-color="#7DD3FC2e"/>
      <stop offset="100%" stop-color="#E0F2FE08"/>
    </linearGradient>
  </defs>

  <rect width="1600" height="900" fill="url(#bg)"/>
  <rect width="1600" height="900" fill="url(#glow)"/>
  <rect width="1600" height="900" fill="url(#fade)"/>

  
        <g>
          
              <ellipse cx="824.7077251318842" cy="228.8956085126847" rx="199.46572943869978" ry="68.90634289700537" fill="#CFFAFE2b"/>
              <ellipse cx="697.774988216348" cy="247.0288566434756" rx="126.93273691553622" ry="47.14644514005631" fill="#E0F2FE24"/>
              <ellipse cx="951.6404620474204" cy="254.28215589579196" rx="145.0659850463271" ry="50.77309476621449" fill="#E0F2FE1c"/>
            
              <ellipse cx="735.0536042125896" cy="122.13498646393418" rx="131.736317332834" ry="45.50890962406993" fill="#CFFAFE2b"/>
              <ellipse cx="651.2214022735134" cy="134.11101531237364" rx="83.83220193907619" ry="31.137675005942583" fill="#E0F2FE24"/>
              <ellipse cx="818.8858061516657" cy="138.90142685174942" rx="95.80823078751564" ry="33.532880775630474" fill="#E0F2FE1c"/>
            
              <ellipse cx="614.8777616489679" cy="129.82373372651637" rx="216.63846028316766" ry="74.83874082509428" fill="#CFFAFE2b"/>
              <ellipse cx="477.0169232869521" cy="149.51813920680434" rx="137.86083836201578" ry="51.205454248748715" fill="#E0F2FE24"/>
              <ellipse cx="752.7386000109836" cy="157.39590139891953" rx="157.55524384230375" ry="55.144335344806315" fill="#E0F2FE1c"/>
            
              <ellipse cx="402.57584173232317" cy="217.6702783163637" rx="219.2679820181802" ry="75.74712106082589" fill="#CFFAFE2b"/>
              <ellipse cx="263.0416713571176" cy="237.60373122710735" rx="139.53417037520558" ry="51.826977567933504" fill="#E0F2FE24"/>
              <ellipse cx="542.1100121075287" cy="245.5771123914048" rx="159.46762328594923" ry="55.81366815008223" fill="#E0F2FE1c"/>
            
              <ellipse cx="1255.2601910289377" cy="357.6957657467574" rx="218.18893339391798" ry="75.37435880880803" fill="#CFFAFE2b"/>
              <ellipse cx="1116.4126879600808" cy="377.53112332802266" rx="138.8475030688569" ry="51.571929711289705" fill="#E0F2FE24"/>
              <ellipse cx="1394.1076940977946" cy="385.46526636052874" rx="158.68286065012217" ry="55.53900122754276" fill="#E0F2FE1c"/>
            
              <ellipse cx="591.2388371117413" cy="246.81094587780535" rx="193.34566600155085" ry="66.79213916417211" fill="#CFFAFE2b"/>
              <ellipse cx="468.2006860198453" cy="264.38782460521907" rx="123.038151091896" ry="45.699884691275656" fill="#E0F2FE24"/>
              <ellipse cx="714.2769882036373" cy="271.41857609618455" rx="140.6150298193097" ry="49.2152604367584" fill="#E0F2FE1c"/>
            
              <ellipse cx="995.6853444501758" cy="190.963150030002" rx="208.1108799641952" ry="71.89284944217653" fill="#CFFAFE2b"/>
              <ellipse cx="863.2511481093243" cy="209.88232093583792" rx="132.43419634085149" ry="49.18984435517341" fill="#E0F2FE24"/>
              <ellipse cx="1128.1195407910272" cy="217.44998929817228" rx="151.3533672466874" ry="52.97367853634059" fill="#E0F2FE1c"/>
            
              <ellipse cx="1140.4953333595768" cy="160.29906381852925" rx="103.27625224273653" ry="35.67725077476353" fill="#CFFAFE2b"/>
              <ellipse cx="1074.7740819323808" cy="169.6878140224144" rx="65.72125142719597" ry="24.41075053010136" fill="#E0F2FE24"/>
              <ellipse cx="1206.2165847867727" cy="173.44331410396845" rx="75.1100016310811" ry="26.28850057087839" fill="#E0F2FE1c"/>
            
              <ellipse cx="508.43963130377233" cy="313.8427523430437" rx="206.7841871585697" ry="71.43453738205135" fill="#CFFAFE2b"/>
              <ellipse cx="376.84969402104616" cy="332.64131481200457" rx="131.58993728272617" ry="48.87626241929829" fill="#E0F2FE24"/>
              <ellipse cx="640.0295685864985" cy="340.1607397995889" rx="150.38849975168705" ry="52.63597491309047" fill="#E0F2FE1c"/>
            
          <rect x="95.55557109415531" y="485.0898892059922" width="55.16909687500447" height="55.16909687500447" rx="8" fill="#7DD3FC1c" stroke="#CFFAFE2e"/><rect x="1213.6280213482678" y="334.95399170555174" width="36.65816163364798" height="36.65816163364798" rx="8" fill="#7DD3FC1c" stroke="#CFFAFE2e"/><rect x="1073.608259037137" y="205.9517920203507" width="58.99140443839133" height="58.99140443839133" rx="8" fill="#7DD3FC1c" stroke="#CFFAFE2e"/><rect x="89.6055599860847" y="446.89415969885886" width="87.91134588140994" height="87.91134588140994" rx="8" fill="#7DD3FC1c" stroke="#CFFAFE2e"/><rect x="896.862650103867" y="471.5376098174602" width="43.859525124542415" height="43.859525124542415" rx="8" fill="#7DD3FC1c" stroke="#CFFAFE2e"/><rect x="653.3750991337001" y="305.2392138168216" width="73.22957081440836" height="73.22957081440836" rx="8" fill="#7DD3FC1c" stroke="#CFFAFE2e"/><rect x="136.08274893835187" y="452.87841502577066" width="57.29526614956558" height="57.29526614956558" rx="8" fill="#7DD3FC1c" stroke="#CFFAFE2e"/><rect x="843.1960265338421" y="513.2205423805863" width="50.471656426787376" height="50.471656426787376" rx="8" fill="#7DD3FC1c" stroke="#CFFAFE2e"/><rect x="1019.431688580662" y="236.66114105843008" width="84.10355003271252" height="84.10355003271252" rx="8" fill="#7DD3FC1c" stroke="#CFFAFE2e"/><rect x="146.5061608888209" y="332.9624264501035" width="45.50885312445462" height="45.50885312445462" rx="8" fill="#7DD3FC1c" stroke="#CFFAFE2e"/><rect x="396.4660252071917" y="373.7749745603651" width="61.22977428790182" height="61.22977428790182" rx="8" fill="#7DD3FC1c" stroke="#CFFAFE2e"/><rect x="357.54367034882307" y="215.08070280775428" width="40.950460305437446" height="40.950460305437446" rx="8" fill="#7DD3FC1c" stroke="#CFFAFE2e"/><rect x="1432.3499819636345" y="245.31136051751673" width="53.57871582452208" height="53.57871582452208" rx="8" fill="#7DD3FC1c" stroke="#CFFAFE2e"/><rect x="1337.8372104652226" y="296.40935433097184" width="40.74186492431909" height="40.74186492431909" rx="8" fill="#7DD3FC1c" stroke="#CFFAFE2e"/><rect x="299.9377072788775" y="312.46222055517137" width="45.17920516617596" height="45.17920516617596" rx="8" fill="#7DD3FC1c" stroke="#CFFAFE2e"/>
        </g>
      

  <g opacity="0.92">
    
        <g transform="translate(271.0551319876686, 429.61307315155864)">
          <path d="M-32.312468588585034 0 Q0 -20.407874898053706 32.312468588585034 0 Q0 20.407874898053706 -32.312468588585034 0 Z" fill="#7DD3FCc7" stroke="#CFFAFE99" stroke-width="3"/>
          <path d="M-11.90459369053133 0 H13.605249932035804" stroke="#06111fe6" stroke-width="3"/>
        </g>
      
        <g transform="translate(584.7386283380911, 599.6376752713695)">
          <ellipse rx="45.751053399145604" ry="26.14345908522606" fill="none" stroke="#CFFAFE99" stroke-width="5"/>
          <ellipse rx="21.78621590435505" ry="10.893107952177525" fill="none" stroke="#7DD3FCc7" stroke-width="3"/>
        </g>
      
        <g transform="translate(954.6200626390055, 465.0567357055843)">
          <rect x="-29.019184838104994" y="-29.019184838104994" width="58.03836967620999" height="58.03836967620999" rx="8.535054364148527" fill="#7DD3FCc7" stroke="#CFFAFE99" stroke-width="3"/>
          <path d="M-15.363097855467348 0 H15.363097855467348 M0 -15.363097855467348 V15.363097855467348" stroke="#06111fe6" stroke-width="3"/>
        </g>
      
        <g transform="translate(1240.2377531537786, 591.0865046223626)">
          <rect x="-35.003815596373755" y="-35.003815596373755" width="70.00763119274751" height="70.00763119274751" rx="10.295239881286399" fill="#7DD3FCc7" stroke="#CFFAFE99" stroke-width="3"/>
          <path d="M-18.531431786315515 0 H18.531431786315515 M0 -18.531431786315515 V18.531431786315515" stroke="#06111fe6" stroke-width="3"/>
        </g>
      
  </g>

  
    <g>
      <polyline points="0.0,648.1 160.0,632.0 320.0,594.8 480.0,572.2 640.0,546.6 800.0,520.7 960.0,489.6 1120.0,468.7 1280.0,445.7 1440.0,428.7 1600.0,404.1" fill="none" stroke="#CFFAFEe0" stroke-width="6" stroke-linecap="round" stroke-linejoin="round"/>
      <polygon points="0,900 0.0,648.1 160.0,632.0 320.0,594.8 480.0,572.2 640.0,546.6 800.0,520.7 960.0,489.6 1120.0,468.7 1280.0,445.7 1440.0,428.7 1600.0,404.1 1600,900" fill="#7DD3FC1f"/>
    </g>
  

  <g opacity="0.09">
    <text x="70" y="784" font-family="Segoe UI, Arial, sans-serif" font-size="180" font-weight="700" fill="#CFFAFE">
      AAPL
    </text>
  </g>
  <g opacity="0.95">
    <text x="82" y="96" font-family="Segoe UI, Arial, sans-serif" font-size="28" font-weight="700" fill="#CFFAFE">
      AAPL
    </text>
    <text x="82" y="132" font-family="Segoe UI, Arial, sans-serif" font-size="18" font-weight="500" fill="#E0F2FEe6">
      Apple · 雲端之巔
    </text>
  </g>
</svg>