<svg xmlns="http://www.w3.org/2000/svg" viewBox="0 0 1600 900" fill="none">
  <defs>
    <linearGradient id="bg" x1="0" y1="0" x2="0" y2="1">
      <stop offset="0%" stop-color="#1d232a"/>
      <stop offset="48%" stop-color="#3d4651"/>
      <stop offset="100%" stop-color="#161b20"/>
    </linearGradient>
    <radialGradient id="glow" cx="50%" cy="25%" r="65%">
      <stop offset="0%" stop-color="#FDBA7447"/>
      <stop offset="100%" stop-color="#FDBA7400"/>
    </radialGradient>
    <linearGradient id="fade" x1="0" y1="0" x2="1" y2="1">
      <stop offset="0%" stop-color="#F973162e"/>
      <stop offset="100%" stop-color="#9CA3AF08"/>
    </linearGradient>
  </defs>

  <rect width="1600" height="900" fill="url(#bg)"/>
  <rect width="1600" height="900" fill="url(#glow)"/>
  <rect width="1600" height="900" fill="url(#fade)"/>

  
        <g>
          
              <rect x="40.31763628125191" y="375.71861054748297" width="92" height="244.28138945251703" rx="6" fill="#9CA3AF29"/>
              <line x1="50.31763628125191" y1="375.71861054748297" x2="120.31763628125191" y2="235.71861054748297" stroke="#F9731657" stroke-width="5"/>
              <line x1="120.31763628125191" y1="235.71861054748297" x2="166.3176362812519" y2="235.71861054748297" stroke="#F9731657" stroke-width="5"/>
            
              <rect x="183.17930617835373" y="306.88903463538736" width="92" height="313.11096536461264" rx="6" fill="#9CA3AF29"/>
              <line x1="193.17930617835373" y1="306.88903463538736" x2="263.1793061783537" y2="166.88903463538736" stroke="#F9731657" stroke-width="5"/>
              <line x1="263.1793061783537" y1="166.88903463538736" x2="309.1793061783537" y2="166.88903463538736" stroke="#F9731657" stroke-width="5"/>
            
              <rect x="332.0134185627103" y="256.49390074424446" width="92" height="363.50609925575554" rx="6" fill="#9CA3AF29"/>
              <line x1="342.0134185627103" y1="256.49390074424446" x2="412.0134185627103" y2="116.49390074424446" stroke="#F9731657" stroke-width="5"/>
              <line x1="412.0134185627103" y1="116.49390074424446" x2="458.0134185627103" y2="116.49390074424446" stroke="#F9731657" stroke-width="5"/>
            
              <rect x="493.95744524896145" y="323.11634892597795" width="92" height="296.88365107402205" rx="6" fill="#9CA3AF29"/>
              <line x1="503.95744524896145" y1="323.11634892597795" x2="573.9574452489614" y2="183.11634892597795" stroke="#F9731657" stroke-width="5"/>
              <line x1="573.9574452489614" y1="183.11634892597795" x2="619.9574452489614" y2="183.11634892597795" stroke="#F9731657" stroke-width="5"/>
            
              <rect x="644.2148619890213" y="243.7323676701635" width="92" height="376.2676323298365" rx="6" fill="#9CA3AF29"/>
              <line x1="654.2148619890213" y1="243.7323676701635" x2="724.2148619890213" y2="103.73236767016351" stroke="#F9731657" stroke-width="5"/>
              <line x1="724.2148619890213" y1="103.73236767016351" x2="770.2148619890213" y2="103.73236767016351" stroke="#F9731657" stroke-width="5"/>
            
              <rect x="795.7155554043129" y="357.36975245177746" width="92" height="262.63024754822254" rx="6" fill="#9CA3AF29"/>
              <line x1="805.7155554043129" y1="357.36975245177746" x2="875.7155554043129" y2="217.36975245177746" stroke="#F9731657" stroke-width="5"/>
              <line x1="875.7155554043129" y1="217.36975245177746" x2="921.7155554043129" y2="217.36975245177746" stroke="#F9731657" stroke-width="5"/>
            
              <rect x="930.8956033177674" y="338.7810653913766" width="92" height="281.2189346086234" rx="6" fill="#9CA3AF29"/>
              <line x1="940.8956033177674" y1="338.7810653913766" x2="1010.8956033177674" y2="198.78106539137661" stroke="#F9731657" stroke-width="5"/>
              <line x1="1010.8956033177674" y1="198.78106539137661" x2="1056.8956033177674" y2="198.78106539137661" stroke="#F9731657" stroke-width="5"/>
            
              <rect x="1083.9671102305874" y="362.74993357248604" width="92" height="257.25006642751396" rx="6" fill="#9CA3AF29"/>
              <line x1="1093.9671102305874" y1="362.74993357248604" x2="1163.9671102305874" y2="222.74993357248604" stroke="#F9731657" stroke-width="5"/>
              <line x1="1163.9671102305874" y1="222.74993357248604" x2="1209.9671102305874" y2="222.74993357248604" stroke="#F9731657" stroke-width="5"/>
            
              <rect x="1237.7192690223455" y="324.4342441111803" width="92" height="295.5657558888197" rx="6" fill="#9CA3AF29"/>
              <line x1="1247.7192690223455" y1="324.4342441111803" x2="1317.7192690223455" y2="184.4342441111803" stroke="#F9731657" stroke-width="5"/>
              <line x1="1317.7192690223455" y1="184.4342441111803" x2="1363.7192690223455" y2="184.4342441111803" stroke="#F9731657" stroke-width="5"/>
            
              <rect x="1386.14672484342" y="297.7285360591486" width="92" height="322.2714639408514" rx="6" fill="#9CA3AF29"/>
              <line x1="1396.14672484342" y1="297.7285360591486" x2="1466.14672484342" y2="157.7285360591486" stroke="#F9731657" stroke-width="5"/>
              <line x1="1466.14672484342" y1="157.7285360591486" x2="1512.14672484342" y2="157.7285360591486" stroke="#F9731657" stroke-width="5"/>
            
          <ellipse cx="929.0187243372202" cy="301.61514695733786" rx="126.49475826881826" ry="42.19357843697071" fill="#FFFFFF0f"/><ellipse cx="541.0768948495388" cy="181.1611270532012" rx="140.08846131619066" ry="35.93120797723532" fill="#FFFFFF0f"/><ellipse cx="898.2992903329432" cy="187.5101799145341" rx="101.06123863253742" ry="34.72362296283245" fill="#FFFFFF0f"/><ellipse cx="328.2481323927641" cy="284.04115069657564" rx="147.17618056107312" ry="33.345017183572054" fill="#FFFFFF0f"/><ellipse cx="1203.681966662407" cy="259.998073913157" rx="139.6465649222955" ry="39.97148701176047" fill="#FFFFFF0f"/><ellipse cx="1014.6091201342642" cy="272.0763197913766" rx="146.0995322931558" ry="41.07382147759199" fill="#FFFFFF0f"/>
        </g>
      

  <g opacity="0.92">
    
        <g transform="translate(329.76294581312686, 460.27311159297824)">
          <path d="M-40.717421170799064 32.96172190017067 V-15.511398541256785 L-7.7556992706283925 3.8778496353141962 V-15.511398541256785 L23.267097811885176 3.8778496353141962 V-29.08387226485647 H40.717421170799064 V32.96172190017067 Z" fill="#F97316c7" stroke="#FDBA7499" stroke-width="3"/>
        </g>
      
        <g transform="translate(631.4315987564623, 628.7731852941215)">
          <rect x="-49.475282351253554" y="-49.475282351253554" width="98.95056470250711" height="98.95056470250711" rx="15.832090352401138" fill="#F97316c7" stroke="#FDBA7499" stroke-width="3"/>
          <rect x="-21.769124234551565" y="-21.769124234551565" width="43.53824846910313" height="43.53824846910313" rx="6.926539529175498" fill="#111317e6"/>
          <rect x="-41.559237175052985" y="-63.328361409604554" width="7.916045176200569" height="15.832090352401138" fill="#FDBA7499"/>
              <rect x="-41.559237175052985" y="47.49627105720341" width="7.916045176200569" height="15.832090352401138" fill="#FDBA7499"/><rect x="-13.853079058350993" y="-63.328361409604554" width="7.916045176200569" height="15.832090352401138" fill="#FDBA7499"/>
              <rect x="-13.853079058350993" y="47.49627105720341" width="7.916045176200569" height="15.832090352401138" fill="#FDBA7499"/><rect x="13.853079058351" y="-63.328361409604554" width="7.916045176200569" height="15.832090352401138" fill="#FDBA7499"/>
              <rect x="13.853079058351" y="47.49627105720341" width="7.916045176200569" height="15.832090352401138" fill="#FDBA7499"/><rect x="41.559237175052985" y="-63.328361409604554" width="7.916045176200569" height="15.832090352401138" fill="#FDBA7499"/>
              <rect x="41.559237175052985" y="47.49627105720341" width="7.916045176200569" height="15.832090352401138" fill="#FDBA7499"/>
        </g>
      
        <g transform="translate(939.3381595239043, 437.3485588096082)">
          <path d="M-43.97392846184783 35.597942088162526 V-16.7519727473706 L-8.3759863736853 4.18799318684265 V-16.7519727473706 L25.1279591210559 4.18799318684265 V-31.409948901319876 H43.97392846184783 V35.597942088162526 Z" fill="#F97316c7" stroke="#FDBA7499" stroke-width="3"/>
        </g>
      
        <g transform="translate(1300.6472224509344, 621.942306603305)">
          <path d="M0 45.77453827224672 V-41.79414363987744" stroke="#FDBA7499" stroke-width="5" stroke-linecap="round"/>
          <path d="M0 -19.9019731618464 L-21.89217047803104 5.97059194855392 M0 -19.9019731618464 L21.89217047803104 5.97059194855392 M0 -3.98039463236928 L-27.86276242658496 17.911775845661758 M0 -3.98039463236928 L27.86276242658496 17.911775845661758" stroke="#F97316c7" stroke-width="4" stroke-linecap="round"/>
          <circle cx="0" cy="-29.8529597427696" r="7.96078926473856" fill="#F97316c7"/>
        </g>
      
  </g>

  
    <g>
      <polyline points="0.0,627.7 160.0,665.6 320.0,687.5 480.0,665.7 640.0,685.5 800.0,709.4 960.0,679.2 1120.0,711.1 1280.0,742.8 1440.0,708.5 1600.0,741.1" fill="none" stroke="#FDBA74e0" stroke-width="6" stroke-linecap="round" stroke-linejoin="round"/>
      <polygon points="0,900 0.0,627.7 160.0,665.6 320.0,687.5 480.0,665.7 640.0,685.5 800.0,709.4 960.0,679.2 1120.0,711.1 1280.0,742.8 1440.0,708.5 1600.0,741.1 1600,900" fill="#F973161f"/>
    </g>
  

  <g opacity="0.09">
    <text x="70" y="784" font-family="Segoe UI, Arial, sans-serif" font-size="180" font-weight="700" fill="#FDBA74">
      AMAT
    </text>
  </g>
  <g opacity="0.95">
    <text x="82" y="96" font-family="Segoe UI, Arial, sans-serif" font-size="28" font-weight="700" fill="#FDBA74">
      AMAT
    </text>
    <text x="82" y="132" font-family="Segoe UI, Arial, sans-serif" font-size="18" font-weight="500" fill="#9CA3AFe6">
      Applied Materials · 鋼鐵峽谷
    </text>
  </g>
</svg>