<svg xmlns="http://www.w3.org/2000/svg" viewBox="0 0 1600 900" fill="none">
  <defs>
    <linearGradient id="bg" x1="0" y1="0" x2="0" y2="1">
      <stop offset="0%" stop-color="#041a30"/>
      <stop offset="48%" stop-color="#0a3760"/>
      <stop offset="100%" stop-color="#07111f"/>
    </linearGradient>
    <radialGradient id="glow" cx="50%" cy="25%" r="65%">
      <stop offset="0%" stop-color="#8CF8FF47"/>
      <stop offset="100%" stop-color="#8CF8FF00"/>
    </radialGradient>
    <linearGradient id="fade" x1="0" y1="0" x2="1" y2="1">
      <stop offset="0%" stop-color="#00F2FF2e"/>
      <stop offset="100%" stop-color="#89C2FF08"/>
    </linearGradient>
  </defs>

  <rect width="1600" height="900" fill="url(#bg)"/>
  <rect width="1600" height="900" fill="url(#glow)"/>
  <rect width="1600" height="900" fill="url(#fade)"/>

  
        <g opacity="0.95">
          <path d="M-40 220 C240 80, 420 260, 720 170 S1200 80, 1640 210 L1640 0 L-40 0 Z" fill="#00F2FF2e"/>
          <path d="M-20 270 C210 170, 440 280, 690 210 S1160 140, 1620 260" stroke="#8CF8FF8c" stroke-width="8" fill="none" stroke-linecap="round"/>
          <path d="M19.101042866241187 900 L139.1010428662412 330.605084951967 L289.1010428662412 658.8695485098287 L409.1010428662412 900 Z" fill="#89C2FF31"/><path d="M214.04209363972768 900 L334.0420936397277 386.2782549764961 L484.0420936397277 652.1125939162448 L604.0420936397277 900 Z" fill="#89C2FF32"/><path d="M460.0043057044968 900 L580.0043057044968 380.5228046234697 L730.0043057044968 652.4565635202453 L850.0043057044968 900 Z" fill="#89C2FF2f"/><path d="M649.1976447962224 900 L769.1976447962224 353.33059382624924 L919.1976447962224 687.3068338213488 L1039.1976447962224 900 Z" fill="#89C2FF2b"/><path d="M888.6639814381488 900 L1008.6639814381488 406.0414528660476 L1158.6639814381488 671.6854372480884 L1278.6639814381488 900 Z" fill="#89C2FF2c"/><path d="M1107.7644856018014 900 L1227.7644856018014 350.9295424260199 L1377.7644856018014 659.6458536526188 L1497.7644856018014 900 Z" fill="#89C2FF3f"/><path d="M1316.3053454249166 900 L1436.3053454249166 395.2643054444343 L1586.3053454249166 636.9949034135789 L1706.3053454249166 900 Z" fill="#89C2FF3d"/>
          <rect x="135.07799729704857" y="618.9792552031577" width="100.79169266438112" height="2" fill="#00F2FF2e"/><rect x="1344.7919613681734" y="351.4394340151921" width="36.465566978324205" height="2" fill="#00F2FF2e"/><rect x="826.441766731441" y="658.429366638884" width="82.11489122407511" height="2" fill="#00F2FF2e"/><rect x="1548.613925613463" y="392.3143852269277" width="93.06141899246722" height="2" fill="#00F2FF2e"/><rect x="341.8484438955784" y="365.4929592879489" width="82.50880310125649" height="2" fill="#00F2FF2e"/><rect x="226.29664415493608" y="417.64110525138676" width="91.6581484656781" height="2" fill="#00F2FF2e"/><rect x="1415.055749900639" y="525.4905451228842" width="64.80123683158308" height="2" fill="#00F2FF2e"/><rect x="1538.3036888763309" y="671.5637550549582" width="117.37511743372306" height="2" fill="#00F2FF2e"/><rect x="245.2531554736197" y="372.71187676116824" width="109.53711132798344" height="2" fill="#00F2FF2e"/><rect x="799.6933490782976" y="575.8855392597616" width="63.85266927583143" height="2" fill="#00F2FF2e"/><rect x="1520.646339058876" y="503.38097566738725" width="76.49584822170436" height="2" fill="#00F2FF2e"/><rect x="1376.380987353623" y="416.32581864017993" width="46.79116281494498" height="2" fill="#00F2FF2e"/><rect x="675.326700694859" y="488.10352948959917" width="73.88594670034945" height="2" fill="#00F2FF2e"/><rect x="573.4661350026727" y="687.6282564224675" width="80.15695659490302" height="2" fill="#00F2FF2e"/><rect x="79.58891874179244" y="638.677847199142" width="117.13870105613023" height="2" fill="#00F2FF2e"/><rect x="112.36883291974664" y="399.8061419604346" width="53.73121930100024" height="2" fill="#00F2FF2e"/>
        </g>
      

  <g opacity="0.92">
    
        <g transform="translate(310.1093934616074, 473.77710026688874)">
          <rect x="-42.8755573478993" y="-42.8755573478993" width="85.7511146957986" height="85.7511146957986" rx="13.720178351327776" fill="#00F2FFc7" stroke="#8CF8FF99" stroke-width="3"/>
          <rect x="-18.865245233075694" y="-18.865245233075694" width="37.73049046615139" height="37.73049046615139" rx="6.002578028705903" fill="#03101de6"/>
          <rect x="-36.015468172235416" y="-54.880713405311106" width="6.860089175663888" height="13.720178351327776" fill="#8CF8FF99"/>
              <rect x="-36.015468172235416" y="41.16053505398333" width="6.860089175663888" height="13.720178351327776" fill="#8CF8FF99"/><rect x="-12.005156057411803" y="-54.880713405311106" width="6.860089175663888" height="13.720178351327776" fill="#8CF8FF99"/>
              <rect x="-12.005156057411803" y="41.16053505398333" width="6.860089175663888" height="13.720178351327776" fill="#8CF8FF99"/><rect x="12.00515605741181" y="-54.880713405311106" width="6.860089175663888" height="13.720178351327776" fill="#8CF8FF99"/>
              <rect x="12.00515605741181" y="41.16053505398333" width="6.860089175663888" height="13.720178351327776" fill="#8CF8FF99"/><rect x="36.015468172235416" y="-54.880713405311106" width="6.860089175663888" height="13.720178351327776" fill="#8CF8FF99"/>
              <rect x="36.015468172235416" y="41.16053505398333" width="6.860089175663888" height="13.720178351327776" fill="#8CF8FF99"/>
        </g>
      
        <g transform="translate(625.0353288650513, 634.7840081388131)">
          <rect x="-29.52020759820938" y="-46.12532437220216" width="59.04041519641876" height="92.25064874440432" rx="7.380051899552345" fill="#00F2FFc7" stroke="#8CF8FF99" stroke-width="3"/>
          <rect x="-20.29514272376895" y="-29.52020759820938" width="40.5902854475379" height="10.147571361884475" rx="4" fill="#03101de6"/>
          <rect x="-20.29514272376895" y="-5.535038924664259" width="40.5902854475379" height="10.147571361884475" rx="4" fill="#03101de6"/>
          <rect x="-20.29514272376895" y="18.450129748880865" width="40.5902854475379" height="10.147571361884475" rx="4" fill="#03101de6"/>
        </g>
      
        <g transform="translate(974.725511725992, 469.72834709566087)">
          <ellipse rx="39.56735434334725" ry="22.609916767627" fill="none" stroke="#8CF8FF99" stroke-width="5"/>
          <ellipse rx="18.841597306355833" ry="9.420798653177917" fill="none" stroke="#00F2FFc7" stroke-width="3"/>
        </g>
      
        <g transform="translate(1250.118875913322, 613.2862797565758)">
          <circle r="38.36500921742991" fill="#00F2FFc7" stroke="#8CF8FF99" stroke-width="3"/>
          <circle r="15.346003686971962" fill="#03101de6"/>
          <path d="M0 -49.44823410246521 L0 49.44823410246521 M-49.44823410246521 0 L49.44823410246521 0" stroke="#8CF8FF99" stroke-width="3" stroke-linecap="round"/>
        </g>
      
  </g>

  
    <g>
      <polyline points="0.0,578.8 160.0,597.8 320.0,542.5 480.0,549.2 640.0,485.1 800.0,512.5 960.0,456.3 1120.0,466.5 1280.0,404.2 1440.0,430.5 1600.0,372.0" fill="none" stroke="#8CF8FFe0" stroke-width="6" stroke-linecap="round" stroke-linejoin="round"/>
      <polygon points="0,900 0.0,578.8 160.0,597.8 320.0,542.5 480.0,549.2 640.0,485.1 800.0,512.5 960.0,456.3 1120.0,466.5 1280.0,404.2 1440.0,430.5 1600.0,372.0 1600,900" fill="#00F2FF1f"/>
    </g>
  

  <g opacity="0.09">
    <text x="70" y="784" font-family="Segoe UI, Arial, sans-serif" font-size="180" font-weight="700" fill="#8CF8FF">
      AMD
    </text>
  </g>
  <g opacity="0.95">
    <text x="82" y="96" font-family="Segoe UI, Arial, sans-serif" font-size="28" font-weight="700" fill="#8CF8FF">
      AMD
    </text>
    <text x="82" y="132" font-family="Segoe UI, Arial, sans-serif" font-size="18" font-weight="500" fill="#89C2FFe6">
      AMD · 數位冰原
    </text>
  </g>
</svg>