<svg xmlns="http://www.w3.org/2000/svg" viewBox="0 0 1600 900" fill="none">
  <defs>
    <linearGradient id="bg" x1="0" y1="0" x2="0" y2="1">
      <stop offset="0%" stop-color="#041a30"/>
      <stop offset="48%" stop-color="#0a3760"/>
      <stop offset="100%" stop-color="#07111f"/>
    </linearGradient>
    <radialGradient id="glow" cx="50%" cy="25%" r="65%">
      <stop offset="0%" stop-color="#8CF8FF47"/>
      <stop offset="100%" stop-color="#8CF8FF00"/>
    </radialGradient>
    <linearGradient id="fade" x1="0" y1="0" x2="1" y2="1">
      <stop offset="0%" stop-color="#00F2FF2e"/>
      <stop offset="100%" stop-color="#89C2FF08"/>
    </linearGradient>
  </defs>

  <rect width="1600" height="900" fill="url(#bg)"/>
  <rect width="1600" height="900" fill="url(#glow)"/>
  <rect width="1600" height="900" fill="url(#fade)"/>

  
        <g opacity="0.95">
          <path d="M-40 220 C240 80, 420 260, 720 170 S1200 80, 1640 210 L1640 0 L-40 0 Z" fill="#00F2FF2e"/>
          <path d="M-20 270 C210 170, 440 280, 690 210 S1160 140, 1620 260" stroke="#8CF8FF8c" stroke-width="8" fill="none" stroke-linecap="round"/>
          <path d="M-2.5866153580136597 900 L117.41338464198634 388.3575482480228 L267.41338464198634 710.4383870447055 L387.41338464198634 900 Z" fill="#89C2FF42"/><path d="M248.1186947086826 900 L368.1186947086826 304.28814612329006 L518.1186947086826 677.1851472510025 L638.1186947086826 900 Z" fill="#89C2FF31"/><path d="M423.1524162972346 900 L543.1524162972346 309.0030442457646 L693.1524162972346 651.5801671147346 L813.1524162972346 900 Z" fill="#89C2FF32"/><path d="M653.4996081818826 900 L773.4996081818826 357.76656777597964 L923.4996081818826 682.35697820317 L1043.4996081818826 900 Z" fill="#89C2FF33"/><path d="M899.962276245933 900 L1019.962276245933 310.1955149229616 L1169.962276245933 647.7032981999218 L1289.962276245933 900 Z" fill="#89C2FF43"/><path d="M1128.8886488950811 900 L1248.8886488950811 304.17495341040194 L1398.8886488950811 728.9877027459443 L1518.8886488950811 900 Z" fill="#89C2FF42"/><path d="M1314.91032585036 900 L1434.91032585036 343.90964255668223 L1584.91032585036 645.6078899512067 L1704.91032585036 900 Z" fill="#89C2FF45"/>
          <rect x="555.28884107247" y="394.0615894366056" width="75.06466055102646" height="2" fill="#00F2FF2e"/><rect x="969.7354236990213" y="654.02714707423" width="108.75350652076304" height="2" fill="#00F2FF2e"/><rect x="725.5979712866247" y="695.6105370912701" width="105.34938755026087" height="2" fill="#00F2FF2e"/><rect x="1075.588812418282" y="382.44632383808494" width="120.66104936925694" height="2" fill="#00F2FF2e"/><rect x="1225.2685292251408" y="338.52788717020303" width="37.33846292179078" height="2" fill="#00F2FF2e"/><rect x="570.8240997232497" y="661.4671099325642" width="85.37657175725326" height="2" fill="#00F2FF2e"/><rect x="323.4858200326562" y="292.3147012759" width="75.58292296994478" height="2" fill="#00F2FF2e"/><rect x="804.3593440018594" y="434.7734256833792" width="99.99936671741307" height="2" fill="#00F2FF2e"/><rect x="991.8282731063664" y="670.492826695554" width="76.50032604392618" height="2" fill="#00F2FF2e"/><rect x="617.1348823048174" y="283.39667655993253" width="60.76562462653965" height="2" fill="#00F2FF2e"/><rect x="497.5015372224152" y="514.0992984734476" width="72.61891694786027" height="2" fill="#00F2FF2e"/><rect x="923.7521330080926" y="366.9104640185833" width="93.73496878240258" height="2" fill="#00F2FF2e"/><rect x="308.0688051879406" y="334.5326490420848" width="43.45284628961235" height="2" fill="#00F2FF2e"/><rect x="958.3997039869428" y="678.6321632331237" width="120.71403427096084" height="2" fill="#00F2FF2e"/><rect x="1097.5156171061099" y="325.5356194265187" width="120.8391017797403" height="2" fill="#00F2FF2e"/><rect x="1431.3968001306057" y="495.27695880737156" width="32.07604452315718" height="2" fill="#00F2FF2e"/>
        </g>
      

  <g opacity="0.92">
    
        <g transform="translate(313.44416646752506, 457.76859854813665)">
          <rect x="-45.9426890052855" y="-45.9426890052855" width="91.885378010571" height="91.885378010571" rx="14.701660481691361" fill="#00F2FFc7" stroke="#8CF8FF99" stroke-width="3"/>
          <rect x="-20.21478316232562" y="-20.21478316232562" width="40.42956632465124" height="40.42956632465124" rx="6.431976460739971" fill="#03101de6"/>
          <rect x="-38.59185876443982" y="-58.806641926765444" width="7.3508302408456805" height="14.701660481691361" fill="#8CF8FF99"/>
              <rect x="-38.59185876443982" y="44.10498144507408" width="7.3508302408456805" height="14.701660481691361" fill="#8CF8FF99"/><rect x="-12.863952921479935" y="-58.806641926765444" width="7.3508302408456805" height="14.701660481691361" fill="#8CF8FF99"/>
              <rect x="-12.863952921479935" y="44.10498144507408" width="7.3508302408456805" height="14.701660481691361" fill="#8CF8FF99"/><rect x="12.86395292147995" y="-58.806641926765444" width="7.3508302408456805" height="14.701660481691361" fill="#8CF8FF99"/>
              <rect x="12.86395292147995" y="44.10498144507408" width="7.3508302408456805" height="14.701660481691361" fill="#8CF8FF99"/><rect x="38.591858764439834" y="-58.806641926765444" width="7.3508302408456805" height="14.701660481691361" fill="#8CF8FF99"/>
              <rect x="38.591858764439834" y="44.10498144507408" width="7.3508302408456805" height="14.701660481691361" fill="#8CF8FF99"/>
        </g>
      
        <g transform="translate(577.3970529949293, 625.2735982416198)">
          <path d="M-25.34376728884876 -16.292421828545628 L16.292421828545628 -28.96430547297001 V28.96430547297001 L-25.34376728884876 16.292421828545628 Z" fill="#00F2FFc7" stroke="#8CF8FF99" stroke-width="3"/>
          <path d="M23.533498196788134 -18.102690920606257 Q39.825920025333765 0 23.533498196788134 18.102690920606257" fill="none" stroke="#8CF8FF99" stroke-width="3"/>
        </g>
      
        <g transform="translate(952.2410349082202, 477.8185283392668)">
          <circle r="28.016616111667826" fill="#00F2FFc7" stroke="#8CF8FF99" stroke-width="3"/>
        </g>
      
        <g transform="translate(1303.7723589362577, 606.4008106244728)">
          <rect x="-51.50599961052649" y="-51.50599961052649" width="103.01199922105297" height="103.01199922105297" rx="16.481919875368476" fill="#00F2FFc7" stroke="#8CF8FF99" stroke-width="3"/>
          <rect x="-22.662639828631654" y="-22.662639828631654" width="45.32527965726331" height="45.32527965726331" rx="7.210839945473709" fill="#03101de6"/>
          <rect x="-43.26503967284225" y="-65.9276795014739" width="8.240959937684238" height="16.481919875368476" fill="#8CF8FF99"/>
              <rect x="-43.26503967284225" y="49.44575962610543" width="8.240959937684238" height="16.481919875368476" fill="#8CF8FF99"/><rect x="-14.421679890947413" y="-65.9276795014739" width="8.240959937684238" height="16.481919875368476" fill="#8CF8FF99"/>
              <rect x="-14.421679890947413" y="49.44575962610543" width="8.240959937684238" height="16.481919875368476" fill="#8CF8FF99"/><rect x="14.421679890947424" y="-65.9276795014739" width="8.240959937684238" height="16.481919875368476" fill="#8CF8FF99"/>
              <rect x="14.421679890947424" y="49.44575962610543" width="8.240959937684238" height="16.481919875368476" fill="#8CF8FF99"/><rect x="43.26503967284226" y="-65.9276795014739" width="8.240959937684238" height="16.481919875368476" fill="#8CF8FF99"/>
              <rect x="43.26503967284226" y="49.44575962610543" width="8.240959937684238" height="16.481919875368476" fill="#8CF8FF99"/>
        </g>
      
  </g>

  
    <g>
      <polyline points="0.0,610.3 160.0,580.6 320.0,565.1 480.0,550.5 640.0,529.3 800.0,503.5 960.0,488.6 1120.0,460.7 1280.0,423.6 1440.0,392.6 1600.0,365.4" fill="none" stroke="#8CF8FFe0" stroke-width="6" stroke-linecap="round" stroke-linejoin="round"/>
      <polygon points="0,900 0.0,610.3 160.0,580.6 320.0,565.1 480.0,550.5 640.0,529.3 800.0,503.5 960.0,488.6 1120.0,460.7 1280.0,423.6 1440.0,392.6 1600.0,365.4 1600,900" fill="#00F2FF1f"/>
    </g>
  

  <g opacity="0.09">
    <text x="70" y="784" font-family="Segoe UI, Arial, sans-serif" font-size="180" font-weight="700" fill="#8CF8FF">
      AVGO
    </text>
  </g>
  <g opacity="0.95">
    <text x="82" y="96" font-family="Segoe UI, Arial, sans-serif" font-size="28" font-weight="700" fill="#8CF8FF">
      AVGO
    </text>
    <text x="82" y="132" font-family="Segoe UI, Arial, sans-serif" font-size="18" font-weight="500" fill="#89C2FFe6">
      Broadcom · 數位冰原
    </text>
  </g>
</svg>