<svg xmlns="http://www.w3.org/2000/svg" viewBox="0 0 1600 900" fill="none">
  <defs>
    <linearGradient id="bg" x1="0" y1="0" x2="0" y2="1">
      <stop offset="0%" stop-color="#071224"/>
      <stop offset="48%" stop-color="#10284a"/>
      <stop offset="100%" stop-color="#08111d"/>
    </linearGradient>
    <radialGradient id="glow" cx="50%" cy="25%" r="65%">
      <stop offset="0%" stop-color="#FFE99A47"/>
      <stop offset="100%" stop-color="#FFE99A00"/>
    </radialGradient>
    <linearGradient id="fade" x1="0" y1="0" x2="1" y2="1">
      <stop offset="0%" stop-color="#FFD7002e"/>
      <stop offset="100%" stop-color="#9DB4D808"/>
    </linearGradient>
  </defs>

  <rect width="1600" height="900" fill="url(#bg)"/>
  <rect width="1600" height="900" fill="url(#glow)"/>
  <rect width="1600" height="900" fill="url(#fade)"/>

  
        <g>
          <rect x="19.72165099158883" y="223.8644964667037" width="102.81857461668551" height="296.1355035332963" rx="8" fill="#9DB4D835"/><rect x="144.40665645897388" y="219.34342676773667" width="124.68114262912422" height="300.6565732322633" rx="8" fill="#9DB4D843"/><rect x="251.64271367993206" y="166.7477853083983" width="75.65199424047023" height="353.2522146916017" rx="8" fill="#9DB4D83f"/><rect x="379.22399128228426" y="183.33788115531206" width="111.34717031382024" height="336.66211884468794" rx="8" fill="#9DB4D832"/><rect x="488.3944284087047" y="309.3563487380743" width="106.53686332050711" height="210.6436512619257" rx="8" fill="#9DB4D846"/><rect x="609.0824840962887" y="252.64166686683893" width="121.21430790517479" height="267.35833313316107" rx="8" fill="#9DB4D837"/><rect x="737.7694293167442" y="266.1364117823541" width="120.55926211643964" height="253.86358821764588" rx="8" fill="#9DB4D832"/><rect x="870.6464874800295" y="353.6607850063592" width="99.49364883825183" height="166.33921499364078" rx="8" fill="#9DB4D82c"/><rect x="968.8597705420107" y="176.15655982401222" width="79.78729392867535" height="343.8434401759878" rx="8" fill="#9DB4D82a"/><rect x="1109.0170942358673" y="199.69526972156018" width="91.70101857744157" height="320.3047302784398" rx="8" fill="#9DB4D836"/><rect x="1216.2339458093047" y="308.3622902818024" width="99.84530365094543" height="211.63770971819758" rx="8" fill="#9DB4D83c"/><rect x="1329.9962869249284" y="117.35767907928675" width="122.377560720779" height="402.64232092071325" rx="8" fill="#9DB4D834"/><rect x="1460.6381679140031" y="354.4137376639992" width="106.84249655343592" height="165.5862623360008" rx="8" fill="#9DB4D837"/><rect x="1570.8565959865227" y="317.46346241794527" width="94.47181786876172" height="202.53653758205473" rx="8" fill="#9DB4D835"/>
          <circle cx="619.264642894268" cy="346.93593503907323" r="1.8097686816006897" fill="#FFFFFFc7"/><circle cx="1418.1195992976427" cy="23.997258231975138" r="1.3289677567780018" fill="#FFFFFFa1"/><circle cx="399.70642924308777" cy="826.5395922353491" r="1.6923861341550945" fill="#FFFFFFa1"/><circle cx="367.42360070347786" cy="670.1578344684094" r="1.2108789931982755" fill="#FFFFFF96"/><circle cx="1470.7894388586283" cy="412.5341758830473" r="1.1566351676359772" fill="#FFFFFFa7"/><circle cx="654.155719652772" cy="166.21590110007674" r="2.332327221520245" fill="#FFFFFFaa"/><circle cx="542.0221950858831" cy="387.2724140994251" r="1.9575214570388197" fill="#FFFFFFa4"/><circle cx="272.3242986947298" cy="627.9777239542454" r="1.3714720441028476" fill="#FFFFFFa2"/><circle cx="842.9102037101984" cy="781.0551039408892" r="1.6966041397303342" fill="#FFFFFFb2"/><circle cx="795.9105473011732" cy="402.8408059850335" r="2.920337728783488" fill="#FFFFFFab"/><circle cx="1162.7000786364079" cy="228.61649931874126" r="1.1351761600002646" fill="#FFFFFFb9"/><circle cx="1208.7050963193178" cy="414.04973964672536" r="1.3491107888519764" fill="#FFFFFFab"/><circle cx="658.4413535892963" cy="48.9083377411589" r="3.2920155955478547" fill="#FFFFFFae"/><circle cx="5.615739524364471" cy="195.63838534522802" r="1.711341474018991" fill="#FFFFFFa4"/><circle cx="975.0598154962063" cy="53.82206712383777" r="1.3205749593675136" fill="#FFFFFF94"/><circle cx="1122.3022155463696" cy="79.15817743632942" r="2.528720301762223" fill="#FFFFFFa8"/><circle cx="409.2047844082117" cy="309.69071318395436" r="2.2576165458187463" fill="#FFFFFFa4"/><circle cx="1461.8536572903395" cy="191.15013792179525" r="3.275024083070457" fill="#FFFFFF9b"/><circle cx="1499.4347874075174" cy="402.524723787792" r="2.655628902837634" fill="#FFFFFF99"/><circle cx="251.913208886981" cy="50.090548605658114" r="1.2524454528465867" fill="#FFFFFFbf"/><circle cx="1579.2007725685835" cy="153.84203020948917" r="1.1031273877248169" fill="#FFFFFFc3"/><circle cx="347.8073738515377" cy="1.121278409846127" r="3.1148986088111994" fill="#FFFFFF9f"/><circle cx="22.680538147687912" cy="171.34924430865794" r="2.4960727436468004" fill="#FFFFFFab"/><circle cx="127.87908241152763" cy="661.9425733806565" r="2.257199860177934" fill="#FFFFFFa8"/><circle cx="1142.3080630600452" cy="692.8956430172548" r="1.2990410404279829" fill="#FFFFFFc3"/><circle cx="621.8406897038221" cy="182.03393791336566" r="1.1323424452915787" fill="#FFFFFFb6"/><circle cx="84.42575819790363" cy="164.25863513723016" r="1.067169682495296" fill="#FFFFFFc9"/><circle cx="550.2064310014248" cy="233.28447570092976" r="1.3979143239557743" fill="#FFFFFF8e"/><circle cx="706.192709878087" cy="611.4870245335624" r="1.4565003564581276" fill="#FFFFFFa4"/><circle cx="86.42922304570675" cy="72.45888013858348" r="2.2627394108101724" fill="#FFFFFFad"/><circle cx="1113.2706619799137" cy="873.8906459184363" r="2.7172769149765372" fill="#FFFFFFb5"/><circle cx="267.4737721681595" cy="579.1934706503525" r="2.10560110937804" fill="#FFFFFFc4"/><circle cx="1434.275307878852" cy="687.3627405613661" r="1.8923077905550598" fill="#FFFFFFcc"/><circle cx="984.1668132692575" cy="90.75106994714588" r="2.5510490542277693" fill="#FFFFFF94"/><circle cx="751.6484003514051" cy="398.26661807019264" r="1.949562530964613" fill="#FFFFFFc5"/><circle cx="713.6688333004713" cy="310.88625588454306" r="2.715688652172685" fill="#FFFFFFaf"/><circle cx="1139.3893603235483" cy="599.1704192245379" r="1.8344576746225356" fill="#FFFFFFa4"/><circle cx="1580.277869477868" cy="765.37034525536" r="2.7853254120796915" fill="#FFFFFFb0"/><circle cx="173.17269630730152" cy="493.6280323192477" r="2.4610421143472196" fill="#FFFFFF9f"/><circle cx="1312.8920815885067" cy="463.17818951793015" r="2.2869998874142765" fill="#FFFFFFb8"/><circle cx="1381.415006518364" cy="754.4262390816584" r="1.7824123434722423" fill="#FFFFFF8f"/><circle cx="285.33043302595615" cy="497.33145679347217" r="1.8685336425900458" fill="#FFFFFFb0"/><circle cx="1587.2655041515827" cy="243.31463444978" r="1.7464705711230635" fill="#FFFFFFc0"/><circle cx="1218.0230371654034" cy="210.84790981840342" r="2.66021011415869" fill="#FFFFFFb4"/><circle cx="1573.6625544726849" cy="649.9087596544996" r="1.0978766361251473" fill="#FFFFFFa2"/><circle cx="1582.7558387070894" cy="819.5399306947365" r="1.4396434215828777" fill="#FFFFFFbf"/><circle cx="551.3820596039295" cy="109.90289538167417" r="2.3760401429608464" fill="#FFFFFFcb"/><circle cx="683.2944862544537" cy="679.7142363153398" r="3.332397211715579" fill="#FFFFFFba"/><circle cx="536.5449011325836" cy="291.3352848496288" r="2.007283460535109" fill="#FFFFFFa0"/><circle cx="974.4739573448896" cy="0.4685896681621671" r="3.0052019989117977" fill="#FFFFFFc8"/><circle cx="1481.6449142992496" cy="120.27409574948251" r="1.33255853112787" fill="#FFFFFFa6"/><circle cx="540.212444961071" cy="708.790362928994" r="1.9153468763455748" fill="#FFFFFFba"/><circle cx="834.3307539820671" cy="376.8487249966711" r="2.300741779617965" fill="#FFFFFF8d"/><circle cx="305.38487657904625" cy="490.0823546340689" r="2.267484454810619" fill="#FFFFFFa9"/><circle cx="558.2388259470463" cy="495.44142563827336" r="1.8616154666990041" fill="#FFFFFF8e"/><circle cx="293.35739240050316" cy="671.3376219151542" r="1.2568107798695565" fill="#FFFFFFa7"/><circle cx="1374.629932641983" cy="150.06870590150356" r="1.3203208670020103" fill="#FFFFFFba"/><circle cx="227.9130581766367" cy="280.13771641999483" r="2.6389919806271793" fill="#FFFFFF92"/><circle cx="248.2724852859974" cy="700.2185124205425" r="1.117709411494434" fill="#FFFFFFa7"/><circle cx="255.9183906763792" cy="258.3708704682067" r="1.0722460251301527" fill="#FFFFFFbf"/>
        </g>
      

  <g opacity="0.92">
    
        <g transform="translate(307.64319251757115, 466.5008079819381)">
          <circle r="37.371805158592764" fill="#FFD700c7" stroke="#FFE99A99" stroke-width="4"/>
          <circle r="20.384620995596052" fill="none" stroke="#030913e6" stroke-width="3"/>
        </g>
      
        <g transform="translate(619.0242337808013, 580.6207563448697)">
          <rect x="-17.038391919136046" y="-48.98537676751614" width="34.07678383827209" height="97.97075353503227" rx="6" fill="#FFD700c7" stroke="#FFE99A99" stroke-width="3"/>
          <rect x="-29.817185858488084" y="-57.50457272708417" width="59.63437171697617" height="12.778793939352035" rx="6" fill="#030913e6"/>
          <rect x="-29.817185858488084" y="44.725778787732125" width="59.63437171697617" height="12.778793939352035" rx="6" fill="#030913e6"/>
        </g>
      
        <g transform="translate(965.6804544245824, 472.79189731925726)">
          <path d="M0 -41.05787048843689 L29.327050348883493 -23.461640279106796 V9.775683449627833 Q29.327050348883493 33.23732372873463 0 44.968143868288024 Q-29.327050348883493 33.23732372873463 -29.327050348883493 9.775683449627833 V-23.461640279106796 Z" fill="#FFD700c7" stroke="#FFE99A99" stroke-width="3"/>
          <path d="M0 -17.596230209330095 V17.596230209330095" stroke="#030913e6" stroke-width="3"/>
        </g>
      
        <g transform="translate(1232.3413808038458, 639.7045114682987)">
          <path d="M-46.068397867809985 10.470090424502269 Q-8.376072339601816 -35.59830744330772 43.97437978290952 -8.376072339601816" stroke="#FFE99A99" stroke-width="6" fill="none" stroke-linecap="round"/>
          <path d="M25.128217018805444 -16.75214467920363 L43.97437978290952 -8.376072339601816 L29.316253188606353 6.282054254701361" fill="#FFD700c7"/>
        </g>
      
  </g>

  
    <g>
      <polyline points="0.0,644.2 160.0,648.5 320.0,653.6 480.0,675.6 640.0,658.9 800.0,680.1 960.0,656.6 1120.0,676.1 1280.0,656.2 1440.0,637.4 1600.0,632.9" fill="none" stroke="#FFE99Ae0" stroke-width="6" stroke-linecap="round" stroke-linejoin="round"/>
      <polygon points="0,900 0.0,644.2 160.0,648.5 320.0,653.6 480.0,675.6 640.0,658.9 800.0,680.1 960.0,656.6 1120.0,676.1 1280.0,656.2 1440.0,637.4 1600.0,632.9 1600,900" fill="#FFD7001f"/>
    </g>
  

  <g opacity="0.09">
    <text x="70" y="784" font-family="Segoe UI, Arial, sans-serif" font-size="180" font-weight="700" fill="#FFE99A">
      BAC
    </text>
  </g>
  <g opacity="0.95">
    <text x="82" y="96" font-family="Segoe UI, Arial, sans-serif" font-size="28" font-weight="700" fill="#FFE99A">
      BAC
    </text>
    <text x="82" y="132" font-family="Segoe UI, Arial, sans-serif" font-size="18" font-weight="500" fill="#9DB4D8e6">
      Bank of America · 摩天雪都
    </text>
  </g>
</svg>