<svg xmlns="http://www.w3.org/2000/svg" viewBox="0 0 1600 900" fill="none">
  <defs>
    <linearGradient id="bg" x1="0" y1="0" x2="0" y2="1">
      <stop offset="0%" stop-color="#08142a"/>
      <stop offset="48%" stop-color="#14406b"/>
      <stop offset="100%" stop-color="#0b1b33"/>
    </linearGradient>
    <radialGradient id="glow" cx="50%" cy="25%" r="65%">
      <stop offset="0%" stop-color="#CFFAFE47"/>
      <stop offset="100%" stop-color="#CFFAFE00"/>
    </radialGradient>
    <linearGradient id="fade" x1="0" y1="0" x2="1" y2="1">
      <stop offset="0%" stop-color="#7DD3FC2e"/>
      <stop offset="100%" stop-color="#E0F2FE08"/>
    </linearGradient>
  </defs>

  <rect width="1600" height="900" fill="url(#bg)"/>
  <rect width="1600" height="900" fill="url(#glow)"/>
  <rect width="1600" height="900" fill="url(#fade)"/>

  
        <g>
          
              <ellipse cx="964.0441714553162" cy="217.4648362863809" rx="142.35036961827427" ry="49.17558223176747" fill="#CFFAFE2b"/>
              <ellipse cx="873.4575726073235" cy="230.40577897895128" rx="90.58659884799272" ry="33.64645100068301" fill="#E0F2FE24"/>
              <ellipse cx="1054.630770303309" cy="235.58215605597942" rx="103.5275415405631" ry="36.23463953919708" fill="#E0F2FE1c"/>
            
              <ellipse cx="714.59493172355" cy="376.0176548641175" rx="197.22803539969027" ry="68.133321319893" fill="#CFFAFE2b"/>
              <ellipse cx="589.0861819237471" cy="393.94747626408935" rx="125.5087497998029" ry="46.61753563992679" fill="#E0F2FE24"/>
              <ellipse cx="840.1036815233529" cy="401.11940482407806" rx="143.43857119977474" ry="50.203499919921164" fill="#E0F2FE1c"/>
            
              <ellipse cx="376.0065559716895" cy="379.9352124799043" rx="148.81892781797796" ry="51.410175064392384" fill="#CFFAFE2b"/>
              <ellipse cx="281.30360190570354" cy="393.4642059179023" rx="94.70295406598598" ry="35.17538293879479" fill="#E0F2FE24"/>
              <ellipse cx="470.7095100376755" cy="398.8758032931015" rx="108.23194750398397" ry="37.88118162639439" fill="#E0F2FE1c"/>
            
              <ellipse cx="1357.582509596832" cy="203.064371291548" rx="160.88168114610016" ry="55.577308032289146" fill="#CFFAFE2b"/>
              <ellipse cx="1255.2032579584047" cy="217.6899786684662" rx="102.37925163842738" ry="38.026579179987316" fill="#E0F2FE24"/>
              <ellipse cx="1459.9617612352595" cy="223.54022161923348" rx="117.00485901534557" ry="40.95170065537095" fill="#E0F2FE1c"/>
            
              <ellipse cx="464.62068394292146" cy="375.221792710945" rx="156.92945137619972" ry="54.21199229359627" fill="#CFFAFE2b"/>
              <ellipse cx="364.75648761261255" cy="389.4881064724177" rx="99.86419633030891" ry="37.092415779829025" fill="#E0F2FE24"/>
              <ellipse cx="564.4848802732304" cy="395.1946319770068" rx="114.13051009178162" ry="39.945678532123566" fill="#E0F2FE1c"/>
            
              <ellipse cx="901.11143915914" cy="191.08514594845474" rx="135.56151471380144" ry="46.830341446585955" fill="#CFFAFE2b"/>
              <ellipse cx="814.8450207049027" cy="203.40892001334578" rx="86.26641845423728" ry="32.0418125687167" fill="#E0F2FE24"/>
              <ellipse cx="987.3778576133773" cy="208.3384296393022" rx="98.59019251912832" ry="34.506567381694914" fill="#E0F2FE1c"/>
            
              <ellipse cx="1221.8494136910886" cy="288.14641271717846" rx="131.74313476216048" ry="45.51126473601908" fill="#CFFAFE2b"/>
              <ellipse cx="1138.0128733878955" cy="300.1230613319203" rx="83.83654030319303" ry="31.139286398328842" fill="#E0F2FE24"/>
              <ellipse cx="1305.6859539942816" cy="304.91372077781705" rx="95.8131889179349" ry="33.53461612127722" fill="#E0F2FE1c"/>
            
              <ellipse cx="742.1427830960602" cy="183.14807734452188" rx="211.7180720148608" ry="73.13897033240646" fill="#CFFAFE2b"/>
              <ellipse cx="607.4131009047851" cy="202.39517480041832" rx="134.72968219127506" ry="50.04245338533074" fill="#E0F2FE24"/>
              <ellipse cx="876.8724652873352" cy="210.0940137827769" rx="153.9767796471715" ry="53.89187287651003" fill="#E0F2FE1c"/>
            
              <ellipse cx="625.0176505604759" cy="303.7643563840538" rx="151.0140479216352" ry="52.168489282019436" fill="#CFFAFE2b"/>
              <ellipse cx="528.9178018830717" cy="317.4929061951116" rx="96.09984867740422" ry="35.69422950875014" fill="#E0F2FE24"/>
              <ellipse cx="721.1174992378801" cy="322.98432611953467" rx="109.82839848846197" ry="38.43993947096169" fill="#E0F2FE1c"/>
            
          <rect x="174.66462908312678" y="460.967009421438" width="30.725064400583506" height="30.725064400583506" rx="8" fill="#7DD3FC1c" stroke="#CFFAFE2e"/><rect x="1146.3268934004009" y="502.6922385767102" width="65.99435355700552" height="65.99435355700552" rx="8" fill="#7DD3FC1c" stroke="#CFFAFE2e"/><rect x="924.4117196649313" y="344.5857088919729" width="86.6504054069519" height="86.6504054069519" rx="8" fill="#7DD3FC1c" stroke="#CFFAFE2e"/><rect x="913.1126450188458" y="434.7036003600806" width="69.4590178290382" height="69.4590178290382" rx="8" fill="#7DD3FC1c" stroke="#CFFAFE2e"/><rect x="789.2097897641361" y="182.97890482470393" width="49.03980539832264" height="49.03980539832264" rx="8" fill="#7DD3FC1c" stroke="#CFFAFE2e"/><rect x="351.61205848678946" y="458.80989596247673" width="32.16157896630466" height="32.16157896630466" rx="8" fill="#7DD3FC1c" stroke="#CFFAFE2e"/><rect x="1100.2767087519169" y="516.9045457337052" width="36.98664341773838" height="36.98664341773838" rx="8" fill="#7DD3FC1c" stroke="#CFFAFE2e"/><rect x="358.521956987679" y="188.50973464548588" width="71.16121747717261" height="71.16121747717261" rx="8" fill="#7DD3FC1c" stroke="#CFFAFE2e"/><rect x="848.4844022616744" y="524.4057091977447" width="44.29944825079292" height="44.29944825079292" rx="8" fill="#7DD3FC1c" stroke="#CFFAFE2e"/><rect x="337.8485459648073" y="353.05904689244926" width="87.60871948860586" height="87.60871948860586" rx="8" fill="#7DD3FC1c" stroke="#CFFAFE2e"/><rect x="318.6658668331802" y="448.6193896457553" width="58.912742372602224" height="58.912742372602224" rx="8" fill="#7DD3FC1c" stroke="#CFFAFE2e"/><rect x="1307.2936102561653" y="374.21016599051654" width="62.27904661744833" height="62.27904661744833" rx="8" fill="#7DD3FC1c" stroke="#CFFAFE2e"/><rect x="931.1810447089374" y="450.05342858843505" width="41.93358002882451" height="41.93358002882451" rx="8" fill="#7DD3FC1c" stroke="#CFFAFE2e"/><rect x="740.1698504947126" y="282.20662182196975" width="53.65257656853646" height="53.65257656853646" rx="8" fill="#7DD3FC1c" stroke="#CFFAFE2e"/><rect x="384.3664655648172" y="309.7675629891455" width="78.0828356621787" height="78.0828356621787" rx="8" fill="#7DD3FC1c" stroke="#CFFAFE2e"/>
        </g>
      

  <g opacity="0.92">
    
        <g transform="translate(286.3986028591171, 425.2807976352051)">
          <circle r="28.768740734132006" fill="#7DD3FCc7" stroke="#CFFAFE99" stroke-width="3"/>
        </g>
      
        <g transform="translate(641.5449876151979, 590.8127980865538)">
          <ellipse rx="45.35325974760577" ry="25.916148427203296" fill="none" stroke="#CFFAFE99" stroke-width="5"/>
          <ellipse rx="21.59679035600275" ry="10.798395178001375" fill="none" stroke="#7DD3FCc7" stroke-width="3"/>
        </g>
      
        <g transform="translate(984.4001966854557, 439.5198215637356)">
          <rect x="-32.863935086447746" y="-32.863935086447746" width="65.72787017289549" height="65.72787017289549" rx="9.665863260719926" fill="#7DD3FCc7" stroke="#CFFAFE99" stroke-width="3"/>
          <path d="M-17.398553869295863 0 H17.398553869295863 M0 -17.398553869295863 V17.398553869295863" stroke="#06111fe6" stroke-width="3"/>
        </g>
      
        <g transform="translate(1281.9253109302372, 590.7501237746328)">
          <rect x="-37.08547983992845" y="-37.08547983992845" width="74.1709596798569" height="74.1709596798569" rx="10.907494070567191" fill="#7DD3FCc7" stroke="#CFFAFE99" stroke-width="3"/>
          <path d="M-19.633489327020943 0 H19.633489327020943 M0 -19.633489327020943 V19.633489327020943" stroke="#06111fe6" stroke-width="3"/>
        </g>
      
  </g>

  
    <g>
      <polyline points="0.0,666.5 160.0,654.7 320.0,633.1 480.0,616.1 640.0,604.5 800.0,592.5 960.0,600.5 1120.0,586.5 1280.0,596.9 1440.0,601.3 1600.0,606.7" fill="none" stroke="#CFFAFEe0" stroke-width="6" stroke-linecap="round" stroke-linejoin="round"/>
      <polygon points="0,900 0.0,666.5 160.0,654.7 320.0,633.1 480.0,616.1 640.0,604.5 800.0,592.5 960.0,600.5 1120.0,586.5 1280.0,596.9 1440.0,601.3 1600.0,606.7 1600,900" fill="#7DD3FC1f"/>
    </g>
  

  <g opacity="0.09">
    <text x="70" y="784" font-family="Segoe UI, Arial, sans-serif" font-size="180" font-weight="700" fill="#CFFAFE">
      BIDU
    </text>
  </g>
  <g opacity="0.95">
    <text x="82" y="96" font-family="Segoe UI, Arial, sans-serif" font-size="28" font-weight="700" fill="#CFFAFE">
      BIDU
    </text>
    <text x="82" y="132" font-family="Segoe UI, Arial, sans-serif" font-size="18" font-weight="500" fill="#E0F2FEe6">
      Baidu · 雲端之巔
    </text>
  </g>
</svg>