<svg xmlns="http://www.w3.org/2000/svg" viewBox="0 0 1600 900" fill="none">
  <defs>
    <linearGradient id="bg" x1="0" y1="0" x2="0" y2="1">
      <stop offset="0%" stop-color="#0d1827"/>
      <stop offset="48%" stop-color="#28425e"/>
      <stop offset="100%" stop-color="#0a1118"/>
    </linearGradient>
    <radialGradient id="glow" cx="50%" cy="25%" r="65%">
      <stop offset="0%" stop-color="#FDE68A47"/>
      <stop offset="100%" stop-color="#FDE68A00"/>
    </radialGradient>
    <linearGradient id="fade" x1="0" y1="0" x2="1" y2="1">
      <stop offset="0%" stop-color="#FACC152e"/>
      <stop offset="100%" stop-color="#D1D5DB08"/>
    </linearGradient>
  </defs>

  <rect width="1600" height="900" fill="url(#bg)"/>
  <rect width="1600" height="900" fill="url(#glow)"/>
  <rect width="1600" height="900" fill="url(#fade)"/>

  
        <g>
          <rect x="23.355810234323144" y="100.75408819131553" width="117.92132730595767" height="419.24591180868447" rx="8" fill="#D1D5DB37"/><rect x="144.1778708109632" y="142.2222750959918" width="109.20261648017913" height="377.7777249040082" rx="8" fill="#D1D5DB44"/><rect x="273.7113680681214" y="272.5306955585256" width="110.18598828930408" height="247.46930444147438" rx="8" fill="#D1D5DB46"/><rect x="388.8983548041433" y="189.65535477735102" width="103.02351118531078" height="330.344645222649" rx="8" fill="#D1D5DB2f"/><rect x="503.5912349782884" y="104.26041726022959" width="75.69095806218684" height="415.7395827397704" rx="8" fill="#D1D5DB3d"/><rect x="634.2620168784633" y="222.60056709405035" width="74.7584159579128" height="297.39943290594965" rx="8" fill="#D1D5DB41"/><rect x="745.0027775466442" y="281.0473737400025" width="89.04399913735688" height="238.9526262599975" rx="8" fill="#D1D5DB43"/><rect x="863.9599643368274" y="154.41883666440845" width="86.63597731851041" height="365.58116333559155" rx="8" fill="#D1D5DB3b"/><rect x="969.524459335953" y="246.54430892318487" width="73.3125416841358" height="273.4556910768151" rx="8" fill="#D1D5DB2e"/><rect x="1097.1719767134637" y="108.7302867276594" width="128.3379592653364" height="411.2697132723406" rx="8" fill="#D1D5DB47"/><rect x="1203.1262754891068" y="158.06461160536855" width="79.53354459255934" height="361.93538839463145" rx="8" fill="#D1D5DB2e"/><rect x="1346.026147088036" y="242.7366922236979" width="107.09928293246776" height="277.2633077763021" rx="8" fill="#D1D5DB39"/><rect x="1474.1403345102444" y="122.78372553177178" width="101.82623225729913" height="397.2162744682282" rx="8" fill="#D1D5DB29"/><rect x="1576.7304064370692" y="214.2394127137959" width="80.10788299143314" height="305.7605872862041" rx="8" fill="#D1D5DB43"/>
          <circle cx="1504.3801341205835" cy="532.8492536908016" r="3.0099330501630903" fill="#FFFFFF9b"/><circle cx="1320.2566254884005" cy="724.1134990705177" r="1.0921090077608824" fill="#FFFFFFb1"/><circle cx="1180.3184118121862" cy="180.46471970155835" r="1.1890008177608251" fill="#FFFFFFb3"/><circle cx="301.68175511062145" cy="801.0243342490867" r="1.3496877437457442" fill="#FFFFFFb1"/><circle cx="1193.8125986605883" cy="876.303742825985" r="1.0195848325267434" fill="#FFFFFFa2"/><circle cx="961.4348981529474" cy="535.5182077735662" r="2.0321047663688656" fill="#FFFFFFb7"/><circle cx="490.1528287678957" cy="718.1220572674647" r="2.337206542491913" fill="#FFFFFFc1"/><circle cx="381.88110515475273" cy="165.2645381167531" r="3.182572001777589" fill="#FFFFFF96"/><circle cx="1266.9674810022116" cy="3.113281703554094" r="1.8630662942305207" fill="#FFFFFFa1"/><circle cx="127.4068646132946" cy="479.14444918278605" r="3.1782210083678364" fill="#FFFFFFaf"/><circle cx="628.298270329833" cy="216.9037384679541" r="3.175924440100789" fill="#FFFFFF91"/><circle cx="1202.5812808424234" cy="230.05621565971524" r="2.5963790744543074" fill="#FFFFFFbb"/><circle cx="5.423709005117416" cy="223.11910407152027" r="2.1546909311786293" fill="#FFFFFF95"/><circle cx="1280.8633908629417" cy="365.852610161528" r="1.0949438618496061" fill="#FFFFFF9f"/><circle cx="46.34612426161766" cy="12.511791754513979" r="2.549771152064204" fill="#FFFFFFbd"/><circle cx="887.8132123500109" cy="511.6213146597147" r="2.543861581198871" fill="#FFFFFFb8"/><circle cx="281.8264439702034" cy="344.8168382048607" r="2.6592626003548503" fill="#FFFFFFc3"/><circle cx="532.6280396431684" cy="290.60388458892703" r="2.0258060393854977" fill="#FFFFFFb1"/><circle cx="140.42563326656818" cy="689.5765195833519" r="2.023333982005715" fill="#FFFFFF98"/><circle cx="1567.7100583910942" cy="694.4191075628623" r="1.500597856938839" fill="#FFFFFFb3"/><circle cx="940.9381836652756" cy="508.96182395517826" r="2.2471455611288547" fill="#FFFFFFbb"/><circle cx="1039.9144362658262" cy="483.39888739865273" r="1.8969929235056042" fill="#FFFFFFc7"/><circle cx="281.2931723892689" cy="785.7772544492036" r="3.2793514842167495" fill="#FFFFFF9c"/><circle cx="971.9877138733864" cy="334.68526324722916" r="2.7257524747401476" fill="#FFFFFF9d"/><circle cx="917.3970557749271" cy="121.34710990358144" r="3.110403038188815" fill="#FFFFFF9a"/><circle cx="597.8876005858183" cy="539.523983001709" r="1.0291131185367703" fill="#FFFFFF94"/><circle cx="778.7210430949926" cy="218.57444224879146" r="2.910329308360815" fill="#FFFFFFae"/><circle cx="162.642977014184" cy="807.1645797695965" r="1.9297210099175572" fill="#FFFFFFb1"/><circle cx="1183.0086931586266" cy="179.03212211094797" r="2.1844098187983034" fill="#FFFFFFb7"/><circle cx="1322.9568060487509" cy="479.3893040623516" r="2.7979811476543546" fill="#FFFFFF8d"/><circle cx="514.7887885570526" cy="763.3591834455729" r="3.123988020606339" fill="#FFFFFFb4"/><circle cx="424.797260761261" cy="527.8508484363556" r="2.5355763889849188" fill="#FFFFFF99"/><circle cx="1402.8426241129637" cy="656.1007653130218" r="1.5778521541506052" fill="#FFFFFF95"/><circle cx="154.48200963437557" cy="26.68722679372877" r="2.2440253071486946" fill="#FFFFFF92"/><circle cx="1065.9674353897572" cy="435.9183100517839" r="1.7405246429145336" fill="#FFFFFFb7"/><circle cx="165.7282169908285" cy="184.45395743474364" r="2.7510068556293845" fill="#FFFFFFac"/><circle cx="514.9865973740816" cy="279.31851299945265" r="2.2595238411799072" fill="#FFFFFFa4"/><circle cx="1399.0824274718761" cy="129.4355530058965" r="1.4586380619555712" fill="#FFFFFFbc"/><circle cx="1238.2269468158484" cy="207.68520128913224" r="2.588317316956818" fill="#FFFFFFcc"/><circle cx="567.8029704838991" cy="89.49058845173568" r="1.34621603153646" fill="#FFFFFF8f"/><circle cx="1266.172656044364" cy="163.04137408733368" r="2.5979618772864344" fill="#FFFFFFc7"/><circle cx="1004.5092269778252" cy="387.53629045095295" r="3.0042209642007944" fill="#FFFFFF8f"/><circle cx="115.19077233970165" cy="222.6510001346469" r="2.664435723796487" fill="#FFFFFFa2"/><circle cx="1096.0172608494759" cy="304.6596537111327" r="3.170899696461856" fill="#FFFFFFa5"/><circle cx="1156.756391376257" cy="584.6969184698537" r="1.3887666864320636" fill="#FFFFFFc4"/><circle cx="802.40185149014" cy="596.9206516630948" r="2.0596170553937556" fill="#FFFFFFc4"/><circle cx="170.08734233677387" cy="159.9331014091149" r="3.359318149648607" fill="#FFFFFFc8"/><circle cx="690.0954693555832" cy="757.0703489938751" r="1.5013560593128203" fill="#FFFFFF9f"/><circle cx="780.6855726987123" cy="544.7455105371773" r="1.3123140931129456" fill="#FFFFFFb9"/><circle cx="415.7628756016493" cy="160.36703714635223" r="1.0893153317272664" fill="#FFFFFFcc"/><circle cx="998.5767863690853" cy="433.88245473615825" r="1.7111837640404701" fill="#FFFFFFbb"/><circle cx="1568.788367137313" cy="439.85013007186353" r="3.2906618187204004" fill="#FFFFFFb9"/><circle cx="1593.5554139316082" cy="237.34034411609173" r="2.1605802714824676" fill="#FFFFFFb7"/><circle cx="539.8109674453735" cy="492.5506342202425" r="2.6847001258283854" fill="#FFFFFFbd"/><circle cx="1154.5173898339272" cy="291.853783512488" r="2.1564031198620794" fill="#FFFFFFac"/><circle cx="588.2446032017469" cy="684.7029820550233" r="2.6429904624819756" fill="#FFFFFFb2"/><circle cx="571.1693610996008" cy="537.5429245876148" r="1.0256229415535927" fill="#FFFFFF9a"/><circle cx="1040.9408017992973" cy="521.6085846768692" r="1.7741376750171183" fill="#FFFFFFa6"/><circle cx="120.45803256332874" cy="355.6557894218713" r="2.2653046866878865" fill="#FFFFFFb7"/><circle cx="1506.970726326108" cy="360.14488677028567" r="3.28858650252223" fill="#FFFFFFa8"/>
        </g>
      

  <g opacity="0.92">
    
        <g transform="translate(318.1325931567699, 458.86100705713034)">
          <circle r="48.18052943211049" fill="#FACC15c7" stroke="#FDE68A99" stroke-width="4"/>
          <circle r="26.280288781151175" fill="none" stroke="#060b11e6" stroke-width="3"/>
        </g>
      
        <g transform="translate(623.9223664673045, 588.0432719225064)">
          <rect x="-16.98626060180366" y="-48.835499230185526" width="33.97252120360732" height="97.67099846037105" rx="6" fill="#FACC15c7" stroke="#FDE68A99" stroke-width="3"/>
          <rect x="-29.72595605315641" y="-57.32862953108736" width="59.45191210631282" height="12.739695451352745" rx="6" fill="#060b11e6"/>
          <rect x="-29.72595605315641" y="44.58893407973461" width="59.45191210631282" height="12.739695451352745" rx="6" fill="#060b11e6"/>
        </g>
      
        <g transform="translate(928.942451030016, 474.78460791986436)">
          <path d="M0 -46.015981445554644 L32.868558175396174 -26.29484654031694 V10.956186058465391 Q32.868558175396174 37.25103259878233 0 50.3984558689408 Q-32.868558175396174 37.25103259878233 -32.868558175396174 10.956186058465391 V-26.29484654031694 Z" fill="#FACC15c7" stroke="#FDE68A99" stroke-width="3"/>
          <path d="M0 -19.721134905237705 V19.721134905237705" stroke="#060b11e6" stroke-width="3"/>
        </g>
      
        <g transform="translate(1273.8007682049647, 613.1828095205128)">
          <circle r="44.4010875881277" fill="#FACC15c7" stroke="#FDE68A99" stroke-width="4"/>
          <circle r="24.218775048069656" fill="none" stroke="#060b11e6" stroke-width="3"/>
        </g>
      
  </g>

  
    <g>
      <polyline points="0.0,638.6 160.0,630.4 320.0,619.0 480.0,639.6 640.0,656.3 800.0,673.1 960.0,674.5 1120.0,653.3 1280.0,633.5 1440.0,616.7 1600.0,599.9" fill="none" stroke="#FDE68Ae0" stroke-width="6" stroke-linecap="round" stroke-linejoin="round"/>
      <polygon points="0,900 0.0,638.6 160.0,630.4 320.0,619.0 480.0,639.6 640.0,656.3 800.0,673.1 960.0,674.5 1120.0,653.3 1280.0,633.5 1440.0,616.7 1600.0,599.9 1600,900" fill="#FACC151f"/>
    </g>
  

  <g opacity="0.09">
    <text x="70" y="784" font-family="Segoe UI, Arial, sans-serif" font-size="180" font-weight="700" fill="#FDE68A">
      BRK-B
    </text>
  </g>
  <g opacity="0.95">
    <text x="82" y="96" font-family="Segoe UI, Arial, sans-serif" font-size="28" font-weight="700" fill="#FDE68A">
      BRK-B
    </text>
    <text x="82" y="132" font-family="Segoe UI, Arial, sans-serif" font-size="18" font-weight="500" fill="#D1D5DBe6">
      Berkshire Hathaway B · 穩收金庫
    </text>
  </g>
</svg>