<svg xmlns="http://www.w3.org/2000/svg" viewBox="0 0 1600 900" fill="none">
  <defs>
    <linearGradient id="bg" x1="0" y1="0" x2="0" y2="1">
      <stop offset="0%" stop-color="#071b12"/>
      <stop offset="48%" stop-color="#134e38"/>
      <stop offset="100%" stop-color="#08120d"/>
    </linearGradient>
    <radialGradient id="glow" cx="50%" cy="25%" r="65%">
      <stop offset="0%" stop-color="#BBF7D047"/>
      <stop offset="100%" stop-color="#BBF7D000"/>
    </radialGradient>
    <linearGradient id="fade" x1="0" y1="0" x2="1" y2="1">
      <stop offset="0%" stop-color="#4ADE802e"/>
      <stop offset="100%" stop-color="#DCFCE708"/>
    </linearGradient>
  </defs>

  <rect width="1600" height="900" fill="url(#bg)"/>
  <rect width="1600" height="900" fill="url(#glow)"/>
  <rect width="1600" height="900" fill="url(#fade)"/>

  
        <g>
          <path d="M-106.34684942662716 900 L53.65315057337284 316.20797703042626 L193.65315057337284 483.6541549838148 L333.65315057337284 900 Z" fill="#DCFCE71f"/><path d="M161.88897849060595 900 L321.88897849060595 276.32984910160303 L461.88897849060595 439.5008391025476 L601.888978490606 900 Z" fill="#DCFCE728"/><path d="M468.90834198333323 900 L628.9083419833332 354.94626640342176 L768.9083419833332 492.7894651447423 L908.9083419833332 900 Z" fill="#DCFCE71f"/><path d="M739.9217516649514 900 L899.9217516649514 246.62814519368112 L1039.9217516649514 490.80109272385016 L1179.9217516649514 900 Z" fill="#DCFCE720"/><path d="M1017.2882432024926 900 L1177.2882432024926 248.79397893324494 L1317.2882432024926 474.4543907325715 L1457.2882432024926 900 Z" fill="#DCFCE722"/><path d="M1304.35253075324 900 L1464.35253075324 347.724895644933 L1604.35253075324 427.20543363830075 L1744.35253075324 900 Z" fill="#DCFCE725"/>
          <path d="M1171.689289547503 547.412205375731 V431.412205375731 M1171.689289547503 431.412205375731 L1133.689289547503 467.412205375731 M1171.689289547503 431.412205375731 L1209.689289547503 467.412205375731" stroke="#4ADE8042" stroke-width="4" stroke-linecap="round"/><path d="M1396.95239468012 285.5070865759626 V169.5070865759626 M1396.95239468012 169.5070865759626 L1358.95239468012 205.5070865759626 M1396.95239468012 169.5070865759626 L1434.95239468012 205.5070865759626" stroke="#4ADE8042" stroke-width="4" stroke-linecap="round"/><path d="M803.4430967457592 542.8748107329011 V426.8748107329011 M803.4430967457592 426.8748107329011 L765.4430967457592 462.8748107329011 M803.4430967457592 426.8748107329011 L841.4430967457592 462.8748107329011" stroke="#4ADE8042" stroke-width="4" stroke-linecap="round"/><path d="M867.9257553443313 543.6733033088967 V427.6733033088967 M867.9257553443313 427.6733033088967 L829.9257553443313 463.6733033088967 M867.9257553443313 427.6733033088967 L905.9257553443313 463.6733033088967" stroke="#4ADE8042" stroke-width="4" stroke-linecap="round"/><path d="M403.8031412428245 420.26483649853617 V304.26483649853617 M403.8031412428245 304.26483649853617 L365.8031412428245 340.26483649853617 M403.8031412428245 304.26483649853617 L441.8031412428245 340.26483649853617" stroke="#4ADE8042" stroke-width="4" stroke-linecap="round"/><path d="M588.5202547814697 363.2600575732067 V247.26005757320672 M588.5202547814697 247.26005757320672 L550.5202547814697 283.2600575732067 M588.5202547814697 247.26005757320672 L626.5202547814697 283.2600575732067" stroke="#4ADE8042" stroke-width="4" stroke-linecap="round"/><path d="M443.8165286043659 469.66840320266783 V353.66840320266783 M443.8165286043659 353.66840320266783 L405.8165286043659 389.66840320266783 M443.8165286043659 353.66840320266783 L481.8165286043659 389.66840320266783" stroke="#4ADE8042" stroke-width="4" stroke-linecap="round"/>
        </g>
      

  <g opacity="0.92">
    
        <g transform="translate(289.1290399711579, 426.6664045024663)">
          <path d="M0 -40.414430405460294 L-26.942953603640202 36.5654370335117 H26.942953603640202 Z" fill="#4ADE80c7" stroke="#BBF7D099" stroke-width="3"/>
          <path d="M-17.320470173768697 3.8489933719486 H17.320470173768697 M-9.622483429871501 -13.471476801820101 H9.622483429871501" stroke="#04110ae6" stroke-width="3"/>
        </g>
      
        <g transform="translate(663.2453056098893, 600.2203220222145)">
          <path d="M-24.93982511267066 -16.03274471528828 L16.03274471528828 -28.50265727162361 V28.50265727162361 L-24.93982511267066 16.03274471528828 Z" fill="#4ADE80c7" stroke="#BBF7D099" stroke-width="3"/>
          <path d="M23.158409033194186 -17.814160794764756 Q39.19115374848246 0 23.158409033194186 17.814160794764756" fill="none" stroke="#BBF7D099" stroke-width="3"/>
        </g>
      
        <g transform="translate(939.4534878758714, 431.7879334045574)">
          <path d="M0 40.507048651287334 V-3.522352056633681" stroke="#BBF7D099" stroke-width="4" stroke-linecap="round"/>
          <circle cx="0" cy="-7.044704113267362" r="7.044704113267362" fill="#4ADE80c7"/>
          <path d="M0 -7.044704113267362 L-29.93999248138629 -19.372936311485248 M0 -7.044704113267362 L21.134112339802087 -29.93999248138629 M0 -7.044704113267362 L10.567056169901043 19.372936311485248" stroke="#4ADE80c7" stroke-width="4" stroke-linecap="round"/>
        </g>
      
        <g transform="translate(1238.7687588250265, 619.0341369435191)">
          <path d="M-39.73295828861185 12.547249985877423 L-20.912083309795708 -18.820874978816136 H23.003291640775277 L39.73295828861185 12.547249985877423 Z" fill="#4ADE80c7" stroke="#BBF7D099" stroke-width="3"/>
        </g>
      
  </g>

  
    <g>
      <polyline points="0.0,648.6 160.0,650.1 320.0,669.6 480.0,659.7 640.0,680.9 800.0,670.6 960.0,689.9 1120.0,666.6 1280.0,679.3 1440.0,656.4 1600.0,654.1" fill="none" stroke="#BBF7D0e0" stroke-width="6" stroke-linecap="round" stroke-linejoin="round"/>
      <polygon points="0,900 0.0,648.6 160.0,650.1 320.0,669.6 480.0,659.7 640.0,680.9 800.0,670.6 960.0,689.9 1120.0,666.6 1280.0,679.3 1440.0,656.4 1600.0,654.1 1600,900" fill="#4ADE801f"/>
    </g>
  

  <g opacity="0.09">
    <text x="70" y="784" font-family="Segoe UI, Arial, sans-serif" font-size="180" font-weight="700" fill="#BBF7D0">
      COP
    </text>
  </g>
  <g opacity="0.95">
    <text x="82" y="96" font-family="Segoe UI, Arial, sans-serif" font-size="28" font-weight="700" fill="#BBF7D0">
      COP
    </text>
    <text x="82" y="132" font-family="Segoe UI, Arial, sans-serif" font-size="18" font-weight="500" fill="#DCFCE7e6">
      ConocoPhillips · 綠能山脈
    </text>
  </g>
</svg>