<svg xmlns="http://www.w3.org/2000/svg" viewBox="0 0 1600 900" fill="none">
  <defs>
    <linearGradient id="bg" x1="0" y1="0" x2="0" y2="1">
      <stop offset="0%" stop-color="#08142a"/>
      <stop offset="48%" stop-color="#14406b"/>
      <stop offset="100%" stop-color="#0b1b33"/>
    </linearGradient>
    <radialGradient id="glow" cx="50%" cy="25%" r="65%">
      <stop offset="0%" stop-color="#CFFAFE47"/>
      <stop offset="100%" stop-color="#CFFAFE00"/>
    </radialGradient>
    <linearGradient id="fade" x1="0" y1="0" x2="1" y2="1">
      <stop offset="0%" stop-color="#7DD3FC2e"/>
      <stop offset="100%" stop-color="#E0F2FE08"/>
    </linearGradient>
  </defs>

  <rect width="1600" height="900" fill="url(#bg)"/>
  <rect width="1600" height="900" fill="url(#glow)"/>
  <rect width="1600" height="900" fill="url(#fade)"/>

  
        <g>
          
              <ellipse cx="111.17843190673739" cy="261.0865016281605" rx="145.88720977399498" ry="50.39739974010735" fill="#CFFAFE2b"/>
              <ellipse cx="18.341116596013308" cy="274.3489752439782" rx="92.83731531072408" ry="34.482431401126085" fill="#E0F2FE24"/>
              <ellipse cx="204.01574721746147" cy="279.6539646903053" rx="106.0997889265418" ry="37.13492612428963" fill="#E0F2FE1c"/>
            
              <ellipse cx="1283.3868245920166" cy="265.48826246522367" rx="124.60845907591285" ry="43.0465585898608" fill="#CFFAFE2b"/>
              <ellipse cx="1204.0905324527994" cy="276.81630419939756" rx="79.29629213921726" ry="29.452908508852126" fill="#E0F2FE24"/>
              <ellipse cx="1362.683116731234" cy="281.3475208930671" rx="90.62433387339115" ry="31.718516855686907" fill="#E0F2FE1c"/>
            
              <ellipse cx="1231.2700787186623" cy="281.4547580014914" rx="104.52375040762128" ry="36.10820468626917" fill="#CFFAFE2b"/>
              <ellipse cx="1164.7549648229033" cy="290.956917129457" rx="66.51511389575899" ry="24.705613732710482" fill="#E0F2FE24"/>
              <ellipse cx="1297.7851926144212" cy="294.7577807806432" rx="76.01727302372456" ry="26.6060455583036" fill="#E0F2FE1c"/>
            
              <ellipse cx="515.0630349526182" cy="123.29832276329398" rx="157.33243477065116" ry="54.35120473895222" fill="#CFFAFE2b"/>
              <ellipse cx="414.942394644022" cy="137.60127137880772" rx="100.1206403085962" ry="37.18766640033573" fill="#E0F2FE24"/>
              <ellipse cx="615.1836752612144" cy="143.32245082501322" rx="114.42358892410994" ry="40.04825612343848" fill="#E0F2FE1c"/>
            
              <ellipse cx="1242.1057743905112" cy="288.1434035580605" rx="169.33184909913692" ry="58.496456961520025" fill="#CFFAFE2b"/>
              <ellipse cx="1134.349143145606" cy="303.5372080216184" rx="107.75663124490531" ry="40.02389160525054" fill="#E0F2FE24"/>
              <ellipse cx="1349.8624056354165" cy="309.6947298070416" rx="123.1504357084632" ry="43.102652497962126" fill="#E0F2FE1c"/>
            
              <ellipse cx="1058.9712652936578" cy="127.90124951861799" rx="120.11477304622531" ry="41.49419432505965" fill="#CFFAFE2b"/>
              <ellipse cx="982.534591536969" cy="138.8207743410021" rx="76.43667375668883" ry="28.39076453819871" fill="#E0F2FE24"/>
              <ellipse cx="1135.4079390503466" cy="143.18858426995575" rx="87.35619857907295" ry="30.574669502675533" fill="#E0F2FE1c"/>
            
              <ellipse cx="621.5043857507408" cy="294.99452454037964" rx="136.21332147810608" ry="47.05551105607301" fill="#CFFAFE2b"/>
              <ellipse cx="534.8231811737642" cy="307.377553765662" rx="86.6812045769766" ry="32.19587598573417" fill="#E0F2FE24"/>
              <ellipse cx="708.1855903277174" cy="312.33076545577495" rx="99.06423380225897" ry="34.67248183079064" fill="#E0F2FE1c"/>
            
              <ellipse cx="524.0196533733979" cy="399.53678611665964" rx="100.19181275460869" ry="34.611717133410274" fill="#CFFAFE2b"/>
              <ellipse cx="460.26122707501054" cy="408.645132730715" rx="63.75842629838735" ry="23.681701196543873" fill="#E0F2FE24"/>
              <ellipse cx="587.7780796717852" cy="412.2884713763371" rx="72.86677291244268" ry="25.50337051935494" fill="#E0F2FE1c"/>
            
              <ellipse cx="738.0809671618044" cy="321.9771925918758" rx="164.47712771967053" ry="56.81937139406801" fill="#CFFAFE2b"/>
              <ellipse cx="633.4137040674686" cy="336.9296587482095" rx="104.6672630943358" ry="38.87641200646758" fill="#E0F2FE24"/>
              <ellipse cx="842.7482302561402" cy="342.9106452107429" rx="119.61972925066948" ry="41.86690523773432" fill="#E0F2FE1c"/>
            
          <rect x="1339.549191184342" y="470.69890652783215" width="55.26474168244749" height="55.26474168244749" rx="8" fill="#7DD3FC1c" stroke="#CFFAFE2e"/><rect x="1099.885059017688" y="211.5033210348338" width="46.34021221846342" height="46.34021221846342" rx="8" fill="#7DD3FC1c" stroke="#CFFAFE2e"/><rect x="399.4729913212359" y="304.9237447138876" width="76.92971746157855" height="76.92971746157855" rx="8" fill="#7DD3FC1c" stroke="#CFFAFE2e"/><rect x="998.3696154132485" y="248.002898003906" width="55.05761427991092" height="55.05761427991092" rx="8" fill="#7DD3FC1c" stroke="#CFFAFE2e"/><rect x="625.8248912170529" y="409.2798635363579" width="82.4618573738262" height="82.4618573738262" rx="8" fill="#7DD3FC1c" stroke="#CFFAFE2e"/><rect x="500.79117262735963" y="185.03519932739437" width="71.36328939069062" height="71.36328939069062" rx="8" fill="#7DD3FC1c" stroke="#CFFAFE2e"/><rect x="646.9632351584733" y="393.85781842283905" width="55.06310389563441" height="55.06310389563441" rx="8" fill="#7DD3FC1c" stroke="#CFFAFE2e"/><rect x="1114.131482243538" y="421.4907560311258" width="48.558386822231114" height="48.558386822231114" rx="8" fill="#7DD3FC1c" stroke="#CFFAFE2e"/><rect x="148.9098507910967" y="427.14827731251717" width="61.03366843145341" height="61.03366843145341" rx="8" fill="#7DD3FC1c" stroke="#CFFAFE2e"/><rect x="691.3999032042921" y="347.4778334517032" width="30.463458399288356" height="30.463458399288356" rx="8" fill="#7DD3FC1c" stroke="#CFFAFE2e"/><rect x="478.5876118950546" y="254.03603248298168" width="44.18670697323978" height="44.18670697323978" rx="8" fill="#7DD3FC1c" stroke="#CFFAFE2e"/><rect x="1003.3912476710975" y="320.7908770162612" width="36.56534412596375" height="36.56534412596375" rx="8" fill="#7DD3FC1c" stroke="#CFFAFE2e"/><rect x="448.58461532741785" y="294.3701445776969" width="86.74818354845047" height="86.74818354845047" rx="8" fill="#7DD3FC1c" stroke="#CFFAFE2e"/><rect x="518.0363854393363" y="209.42384243942797" width="65.06572056282312" height="65.06572056282312" rx="8" fill="#7DD3FC1c" stroke="#CFFAFE2e"/><rect x="794.0633836388588" y="506.67647507973015" width="28.408014939166605" height="28.408014939166605" rx="8" fill="#7DD3FC1c" stroke="#CFFAFE2e"/>
        </g>
      

  <g opacity="0.92">
    
        <g transform="translate(349.6369837783277, 449.8947553848848)">
          <rect x="-32.779594091260805" y="-32.779594091260805" width="65.55918818252161" height="65.55918818252161" rx="9.641057085664944" fill="#7DD3FCc7" stroke="#CFFAFE99" stroke-width="3"/>
          <path d="M-17.353902754196895 0 H17.353902754196895 M0 -17.353902754196895 V17.353902754196895" stroke="#06111fe6" stroke-width="3"/>
        </g>
      
        <g transform="translate(634.6959104342386, 602.2582163196057)">
          <rect x="-28.821288092425096" y="-28.821288092425096" width="57.64257618485019" height="57.64257618485019" rx="8.476849438948557" fill="#7DD3FCc7" stroke="#CFFAFE99" stroke-width="3"/>
          <path d="M-15.258328990107401 0 H15.258328990107401 M0 -15.258328990107401 V15.258328990107401" stroke="#06111fe6" stroke-width="3"/>
        </g>
      
        <g transform="translate(952.6397722167894, 462.7781333355233)">
          <ellipse rx="43.11666349433362" ry="24.638093425333498" fill="none" stroke="#CFFAFE99" stroke-width="5"/>
          <ellipse rx="20.53174452111125" ry="10.265872260555625" fill="none" stroke="#7DD3FCc7" stroke-width="3"/>
        </g>
      
        <g transform="translate(1284.0860587917268, 587.640350763686)">
          <circle r="40.9543149957899" fill="#7DD3FCc7" stroke="#CFFAFE99" stroke-width="3"/>
          <circle r="16.38172599831596" fill="#06111fe6"/>
          <path d="M0 -52.7855615501292 L0 52.7855615501292 M-52.7855615501292 0 L52.7855615501292 0" stroke="#CFFAFE99" stroke-width="3" stroke-linecap="round"/>
        </g>
      
  </g>

  
    <g>
      <polyline points="0.0,629.1 160.0,592.2 320.0,556.7 480.0,521.5 640.0,502.2 800.0,474.0 960.0,443.9 1120.0,411.3 1280.0,379.1 1440.0,362.7 1600.0,340.4" fill="none" stroke="#CFFAFEe0" stroke-width="6" stroke-linecap="round" stroke-linejoin="round"/>
      <polygon points="0,900 0.0,629.1 160.0,592.2 320.0,556.7 480.0,521.5 640.0,502.2 800.0,474.0 960.0,443.9 1120.0,411.3 1280.0,379.1 1440.0,362.7 1600.0,340.4 1600,900" fill="#7DD3FC1f"/>
    </g>
  

  <g opacity="0.09">
    <text x="70" y="784" font-family="Segoe UI, Arial, sans-serif" font-size="180" font-weight="700" fill="#CFFAFE">
      CRM
    </text>
  </g>
  <g opacity="0.95">
    <text x="82" y="96" font-family="Segoe UI, Arial, sans-serif" font-size="28" font-weight="700" fill="#CFFAFE">
      CRM
    </text>
    <text x="82" y="132" font-family="Segoe UI, Arial, sans-serif" font-size="18" font-weight="500" fill="#E0F2FEe6">
      Salesforce · 雲端之巔
    </text>
  </g>
</svg>