<svg xmlns="http://www.w3.org/2000/svg" viewBox="0 0 1600 900" fill="none">
  <defs>
    <linearGradient id="bg" x1="0" y1="0" x2="0" y2="1">
      <stop offset="0%" stop-color="#071b12"/>
      <stop offset="48%" stop-color="#134e38"/>
      <stop offset="100%" stop-color="#08120d"/>
    </linearGradient>
    <radialGradient id="glow" cx="50%" cy="25%" r="65%">
      <stop offset="0%" stop-color="#BBF7D047"/>
      <stop offset="100%" stop-color="#BBF7D000"/>
    </radialGradient>
    <linearGradient id="fade" x1="0" y1="0" x2="1" y2="1">
      <stop offset="0%" stop-color="#4ADE802e"/>
      <stop offset="100%" stop-color="#DCFCE708"/>
    </linearGradient>
  </defs>

  <rect width="1600" height="900" fill="url(#bg)"/>
  <rect width="1600" height="900" fill="url(#glow)"/>
  <rect width="1600" height="900" fill="url(#fade)"/>

  
        <g>
          <path d="M-103.74265488237143 900 L56.257345117628574 241.07442839071155 L196.25734511762857 481.8924806686118 L336.2573451176286 900 Z" fill="#DCFCE730"/><path d="M181.61346903070807 900 L341.6134690307081 343.2281795796007 L481.6134690307081 477.1701349038631 L621.6134690307081 900 Z" fill="#DCFCE72d"/><path d="M469.7654733620584 900 L629.7654733620584 353.9433048851788 L769.7654733620584 442.7334465854801 L909.7654733620584 900 Z" fill="#DCFCE729"/><path d="M736.0748066846281 900 L896.0748066846281 267.686974927783 L1036.0748066846281 496.99280294124037 L1176.0748066846281 900 Z" fill="#DCFCE727"/><path d="M1005.1092357560992 900 L1165.1092357560992 277.71367345936596 L1305.1092357560992 453.8259030156769 L1445.1092357560992 900 Z" fill="#DCFCE726"/><path d="M1298.3445748873055 900 L1458.3445748873055 251.03175326250494 L1598.3445748873055 424.3433414166793 L1738.3445748873055 900 Z" fill="#DCFCE722"/>
          <path d="M1466.3989773066714 483.3929473813623 V367.3929473813623 M1466.3989773066714 367.3929473813623 L1428.3989773066714 403.3929473813623 M1466.3989773066714 367.3929473813623 L1504.3989773066714 403.3929473813623" stroke="#4ADE8042" stroke-width="4" stroke-linecap="round"/><path d="M1048.017281028442 317.08120117429644 V201.08120117429644 M1048.017281028442 201.08120117429644 L1010.0172810284421 237.08120117429644 M1048.017281028442 201.08120117429644 L1086.017281028442 237.08120117429644" stroke="#4ADE8042" stroke-width="4" stroke-linecap="round"/><path d="M321.91519256681204 541.0328124230728 V425.03281242307276 M321.91519256681204 425.03281242307276 L283.91519256681204 461.03281242307276 M321.91519256681204 425.03281242307276 L359.91519256681204 461.03281242307276" stroke="#4ADE8042" stroke-width="4" stroke-linecap="round"/><path d="M310.3508761106059 305.1254869485274 V189.1254869485274 M310.3508761106059 189.1254869485274 L272.3508761106059 225.1254869485274 M310.3508761106059 189.1254869485274 L348.3508761106059 225.1254869485274" stroke="#4ADE8042" stroke-width="4" stroke-linecap="round"/><path d="M1144.2672306345776 538.7920002965257 V422.79200029652566 M1144.2672306345776 422.79200029652566 L1106.2672306345776 458.79200029652566 M1144.2672306345776 422.79200029652566 L1182.2672306345776 458.79200029652566" stroke="#4ADE8042" stroke-width="4" stroke-linecap="round"/><path d="M640.7570833154023 389.1977577516809 V273.1977577516809 M640.7570833154023 273.1977577516809 L602.7570833154023 309.1977577516809 M640.7570833154023 273.1977577516809 L678.7570833154023 309.1977577516809" stroke="#4ADE8042" stroke-width="4" stroke-linecap="round"/><path d="M1434.8909574607387 434.0081947669387 V318.0081947669387 M1434.8909574607387 318.0081947669387 L1396.8909574607387 354.0081947669387 M1434.8909574607387 318.0081947669387 L1472.8909574607387 354.0081947669387" stroke="#4ADE8042" stroke-width="4" stroke-linecap="round"/>
        </g>
      

  <g opacity="0.92">
    
        <g transform="translate(301.97608440648764, 431.6638660384342)">
          <path d="M0 -37.789071905203166 L-25.19271460346878 34.190112676136195 H25.19271460346878 Z" fill="#4ADE80c7" stroke="#BBF7D099" stroke-width="3"/>
          <path d="M-16.195316530801357 3.598959229066968 H16.195316530801357 M-8.997398072667421 -12.59635730173439 H8.997398072667421" stroke="#04110ae6" stroke-width="3"/>
        </g>
      
        <g transform="translate(641.7142592417076, 616.7972594499588)">
          <path d="M0 46.61200589224696 V-4.053217903673649" stroke="#BBF7D099" stroke-width="4" stroke-linecap="round"/>
          <circle cx="0" cy="-8.106435807347298" r="8.106435807347298" fill="#4ADE80c7"/>
          <path d="M0 -8.106435807347298 L-34.45235218122602 -22.292698470205067 M0 -8.106435807347298 L24.31930742204189 -34.45235218122602 M0 -8.106435807347298 L12.159653711020946 22.292698470205067" stroke="#4ADE80c7" stroke-width="4" stroke-linecap="round"/>
        </g>
      
        <g transform="translate(906.0949098877609, 458.9887891570106)">
          <path d="M-26.257245262023066 -16.879657668443397 L16.879657668443397 -30.008280299454928 V30.008280299454928 L-26.257245262023066 16.879657668443397 Z" fill="#4ADE80c7" stroke="#BBF7D099" stroke-width="3"/>
          <path d="M24.38172774330713 -18.75517518715933 Q41.261385411750524 0 24.38172774330713 18.75517518715933" fill="none" stroke="#BBF7D099" stroke-width="3"/>
        </g>
      
        <g transform="translate(1271.3205078057945, 617.3384332703426)">
          <path d="M-37.42012219576165 11.816880693398415 L-19.694801155664027 -17.725321040097622 H21.66428127123043 L37.42012219576165 11.816880693398415 Z" fill="#4ADE80c7" stroke="#BBF7D099" stroke-width="3"/>
        </g>
      
  </g>

  
    <g>
      <polyline points="0.0,650.6 160.0,615.7 320.0,600.0 480.0,564.6 640.0,539.4 800.0,526.1 960.0,490.2 1120.0,460.8 1280.0,437.8 1440.0,413.9 1600.0,379.5" fill="none" stroke="#BBF7D0e0" stroke-width="6" stroke-linecap="round" stroke-linejoin="round"/>
      <polygon points="0,900 0.0,650.6 160.0,615.7 320.0,600.0 480.0,564.6 640.0,539.4 800.0,526.1 960.0,490.2 1120.0,460.8 1280.0,437.8 1440.0,413.9 1600.0,379.5 1600,900" fill="#4ADE801f"/>
    </g>
  

  <g opacity="0.09">
    <text x="70" y="784" font-family="Segoe UI, Arial, sans-serif" font-size="180" font-weight="700" fill="#BBF7D0">
      CVX
    </text>
  </g>
  <g opacity="0.95">
    <text x="82" y="96" font-family="Segoe UI, Arial, sans-serif" font-size="28" font-weight="700" fill="#BBF7D0">
      CVX
    </text>
    <text x="82" y="132" font-family="Segoe UI, Arial, sans-serif" font-size="18" font-weight="500" fill="#DCFCE7e6">
      Chevron · 綠能山脈
    </text>
  </g>
</svg>