<svg xmlns="http://www.w3.org/2000/svg" viewBox="0 0 1600 900" fill="none">
  <defs>
    <linearGradient id="bg" x1="0" y1="0" x2="0" y2="1">
      <stop offset="0%" stop-color="#071b12"/>
      <stop offset="48%" stop-color="#134e38"/>
      <stop offset="100%" stop-color="#08120d"/>
    </linearGradient>
    <radialGradient id="glow" cx="50%" cy="25%" r="65%">
      <stop offset="0%" stop-color="#BBF7D047"/>
      <stop offset="100%" stop-color="#BBF7D000"/>
    </radialGradient>
    <linearGradient id="fade" x1="0" y1="0" x2="1" y2="1">
      <stop offset="0%" stop-color="#4ADE802e"/>
      <stop offset="100%" stop-color="#DCFCE708"/>
    </linearGradient>
  </defs>

  <rect width="1600" height="900" fill="url(#bg)"/>
  <rect width="1600" height="900" fill="url(#glow)"/>
  <rect width="1600" height="900" fill="url(#fade)"/>

  
        <g>
          <path d="M-117.17026655562222 900 L42.82973344437778 272.795669445768 L182.82973344437778 432.54442860139534 L322.8297334443778 900 Z" fill="#DCFCE71f"/><path d="M160.32982709817588 900 L320.3298270981759 326.21285162866116 L460.3298270981759 507.12820392334834 L600.3298270981759 900 Z" fill="#DCFCE72b"/><path d="M451.16406419314444 900 L611.1640641931444 280.514009334147 L751.1640641931444 498.5785578726791 L891.1640641931444 900 Z" fill="#DCFCE729"/><path d="M730.0746733881533 900 L890.0746733881533 335.65731044858694 L1030.0746733881533 476.00994212552905 L1170.0746733881533 900 Z" fill="#DCFCE72b"/><path d="M1018.6469968594611 900 L1178.646996859461 356.9735157676041 L1318.646996859461 489.2191437003203 L1458.646996859461 900 Z" fill="#DCFCE72b"/><path d="M1301.0776471719146 900 L1461.0776471719146 290.66902136430144 L1601.0776471719146 485.2891001198441 L1741.0776471719146 900 Z" fill="#DCFCE72e"/>
          <path d="M111.12583610694855 438.3226766064763 V322.3226766064763 M111.12583610694855 322.3226766064763 L73.12583610694855 358.3226766064763 M111.12583610694855 322.3226766064763 L149.12583610694855 358.3226766064763" stroke="#4ADE8042" stroke-width="4" stroke-linecap="round"/><path d="M1195.0395734189078 530.235062520951 V414.23506252095103 M1195.0395734189078 414.23506252095103 L1157.0395734189078 450.23506252095103 M1195.0395734189078 414.23506252095103 L1233.0395734189078 450.23506252095103" stroke="#4ADE8042" stroke-width="4" stroke-linecap="round"/><path d="M507.87421945948154 342.8943860158324 V226.89438601583242 M507.87421945948154 226.89438601583242 L469.87421945948154 262.8943860158324 M507.87421945948154 226.89438601583242 L545.8742194594815 262.8943860158324" stroke="#4ADE8042" stroke-width="4" stroke-linecap="round"/><path d="M1058.8763890368864 536.4770753821358 V420.4770753821358 M1058.8763890368864 420.4770753821358 L1020.8763890368864 456.4770753821358 M1058.8763890368864 420.4770753821358 L1096.8763890368864 456.4770753821358" stroke="#4ADE8042" stroke-width="4" stroke-linecap="round"/><path d="M576.2088274909183 340.1509272214025 V224.15092722140253 M576.2088274909183 224.15092722140253 L538.2088274909183 260.1509272214025 M576.2088274909183 224.15092722140253 L614.2088274909183 260.1509272214025" stroke="#4ADE8042" stroke-width="4" stroke-linecap="round"/><path d="M1015.8220562897623 325.99095665384084 V209.99095665384084 M1015.8220562897623 209.99095665384084 L977.8220562897623 245.99095665384084 M1015.8220562897623 209.99095665384084 L1053.8220562897623 245.99095665384084" stroke="#4ADE8042" stroke-width="4" stroke-linecap="round"/><path d="M656.2021759198979 465.1167745515704 V349.1167745515704 M656.2021759198979 349.1167745515704 L618.2021759198979 385.1167745515704 M656.2021759198979 349.1167745515704 L694.2021759198979 385.1167745515704" stroke="#4ADE8042" stroke-width="4" stroke-linecap="round"/>
        </g>
      

  <g opacity="0.92">
    
        <g transform="translate(265.89549109339714, 436.9852172350511)">
          <rect x="-35.4376001404319" y="-20.84564714143053" width="70.8752002808638" height="41.69129428286106" rx="6" fill="#4ADE80c7" stroke="#BBF7D099" stroke-width="3"/>
          <path d="M-18.761082427287473 25.01477656971663 L0 45.860423711147156 L18.761082427287473 25.01477656971663" stroke="#BBF7D099" stroke-width="3" fill="none" stroke-linecap="round"/>
          <path d="M-22.930211855573578 -2.0845647141430526 H22.930211855573578 M-10.422823570715265 -20.84564714143053 V20.84564714143053 M10.422823570715265 -20.84564714143053 V20.84564714143053" stroke="#04110ae6" stroke-width="2"/>
        </g>
      
        <g transform="translate(589.0338516142219, 619.869664888829)">
          <circle r="31.565760710276663" fill="#4ADE80c7" stroke="#BBF7D099" stroke-width="3"/>
        </g>
      
        <g transform="translate(947.8408594010398, 456.4023753348738)">
          <path d="M0 38.663364668628205 V-3.3620317103154957" stroke="#BBF7D099" stroke-width="4" stroke-linecap="round"/>
          <circle cx="0" cy="-6.7240634206309915" r="6.7240634206309915" fill="#4ADE80c7"/>
          <path d="M0 -6.7240634206309915 L-28.577269537681715 -18.491174406735226 M0 -6.7240634206309915 L20.172190261892975 -28.577269537681715 M0 -6.7240634206309915 L10.086095130946488 18.491174406735226" stroke="#4ADE80c7" stroke-width="4" stroke-linecap="round"/>
        </g>
      
        <g transform="translate(1265.8461494743824, 580.9844876499847)">
          <path d="M-30.386699013393375 -19.534306508610026 L19.534306508610026 -34.727656015306714 V34.727656015306714 L-30.386699013393375 19.534306508610026 Z" fill="#4ADE80c7" stroke="#BBF7D099" stroke-width="3"/>
          <path d="M28.216220512436703 -21.704785009566695 Q47.75052702104673 0 28.216220512436703 21.704785009566695" fill="none" stroke="#BBF7D099" stroke-width="3"/>
        </g>
      
  </g>

  
    <g>
      <polyline points="0.0,634.8 160.0,610.8 320.0,590.3 480.0,557.4 640.0,539.3 800.0,511.1 960.0,482.2 1120.0,455.6 1280.0,440.4 1440.0,426.8 1600.0,403.4" fill="none" stroke="#BBF7D0e0" stroke-width="6" stroke-linecap="round" stroke-linejoin="round"/>
      <polygon points="0,900 0.0,634.8 160.0,610.8 320.0,590.3 480.0,557.4 640.0,539.3 800.0,511.1 960.0,482.2 1120.0,455.6 1280.0,440.4 1440.0,426.8 1600.0,403.4 1600,900" fill="#4ADE801f"/>
    </g>
  

  <g opacity="0.09">
    <text x="70" y="784" font-family="Segoe UI, Arial, sans-serif" font-size="180" font-weight="700" fill="#BBF7D0">
      ENPH
    </text>
  </g>
  <g opacity="0.95">
    <text x="82" y="96" font-family="Segoe UI, Arial, sans-serif" font-size="28" font-weight="700" fill="#BBF7D0">
      ENPH
    </text>
    <text x="82" y="132" font-family="Segoe UI, Arial, sans-serif" font-size="18" font-weight="500" fill="#DCFCE7e6">
      Enphase · 綠能山脈
    </text>
  </g>
</svg>