<svg xmlns="http://www.w3.org/2000/svg" viewBox="0 0 1600 900" fill="none">
  <defs>
    <linearGradient id="bg" x1="0" y1="0" x2="0" y2="1">
      <stop offset="0%" stop-color="#0d1827"/>
      <stop offset="48%" stop-color="#28425e"/>
      <stop offset="100%" stop-color="#0a1118"/>
    </linearGradient>
    <radialGradient id="glow" cx="50%" cy="25%" r="65%">
      <stop offset="0%" stop-color="#FDE68A47"/>
      <stop offset="100%" stop-color="#FDE68A00"/>
    </radialGradient>
    <linearGradient id="fade" x1="0" y1="0" x2="1" y2="1">
      <stop offset="0%" stop-color="#FACC152e"/>
      <stop offset="100%" stop-color="#D1D5DB08"/>
    </linearGradient>
  </defs>

  <rect width="1600" height="900" fill="url(#bg)"/>
  <rect width="1600" height="900" fill="url(#glow)"/>
  <rect width="1600" height="900" fill="url(#fade)"/>

  
        <g>
          <rect x="1.413200207054615" y="299.02512351982296" width="95.3047837736085" height="220.97487648017704" rx="8" fill="#D1D5DB3a"/><rect x="125.90887085348368" y="285.4358799615875" width="108.93918015062809" height="234.5641200384125" rx="8" fill="#D1D5DB2e"/><rect x="245.88214890193194" y="217.7667064173147" width="71.0306549910456" height="302.2332935826853" rx="8" fill="#D1D5DB35"/><rect x="393.77509268559515" y="128.56514928862453" width="113.75823048874736" height="391.4348507113755" rx="8" fill="#D1D5DB3d"/><rect x="513.1096597881988" y="158.01307782065123" width="78.05494074709713" height="361.98692217934877" rx="8" fill="#D1D5DB45"/><rect x="617.8123622881249" y="163.16333318129182" width="71.54708653688431" height="356.8366668187082" rx="8" fill="#D1D5DB3e"/><rect x="731.7667929036543" y="211.03994264267385" width="104.86635813489556" height="308.96005735732615" rx="8" fill="#D1D5DB47"/><rect x="862.9783598911017" y="219.68251456972212" width="104.31876525748521" height="300.3174854302779" rx="8" fill="#D1D5DB46"/><rect x="966.4328972054645" y="252.66279161907732" width="87.10744636598974" height="267.3372083809227" rx="8" fill="#D1D5DB2d"/><rect x="1113.147940727882" y="262.31016241479665" width="120.596200437285" height="257.68983758520335" rx="8" fill="#D1D5DB29"/><rect x="1215.9783523874357" y="271.7559573985636" width="127.41528915707022" height="248.24404260143638" rx="8" fill="#D1D5DB3b"/><rect x="1323.5587530769408" y="229.08500514924526" width="74.30021071340889" height="290.91499485075474" rx="8" fill="#D1D5DB2c"/><rect x="1441.5767381200567" y="170.9692064486444" width="89.26552628632635" height="349.0307935513556" rx="8" fill="#D1D5DB30"/><rect x="1567.7784208450466" y="231.8875713320449" width="85.26254058349878" height="288.1124286679551" rx="8" fill="#D1D5DB2f"/>
          <circle cx="553.7921156734228" cy="823.6942883580923" r="1.7628775760531425" fill="#FFFFFFac"/><circle cx="955.1505081355572" cy="304.46749376133084" r="3.105298999510705" fill="#FFFFFFb0"/><circle cx="477.06796638667583" cy="715.3383245458826" r="1.3960519924759864" fill="#FFFFFFc3"/><circle cx="603.1041819602251" cy="357.17258679214865" r="2.9323809886351224" fill="#FFFFFFa9"/><circle cx="347.2338154911995" cy="331.42323796637356" r="2.9801342237740753" fill="#FFFFFFc8"/><circle cx="668.7758311629295" cy="84.5017917919904" r="1.6204540956765414" fill="#FFFFFF97"/><circle cx="1317.4661792814732" cy="152.90185874328017" r="2.7432829603552817" fill="#FFFFFF8d"/><circle cx="283.7033722549677" cy="353.2942994730547" r="1.859191928245127" fill="#FFFFFFc8"/><circle cx="545.0069345533848" cy="567.353007523343" r="2.7214297903701663" fill="#FFFFFF9d"/><circle cx="458.8944673538208" cy="711.143131298013" r="1.823902810551226" fill="#FFFFFF9a"/><circle cx="840.9281514585018" cy="81.5962151158601" r="1.8007876673713326" fill="#FFFFFFbc"/><circle cx="273.904861882329" cy="345.51341354381293" r="1.2943765291944147" fill="#FFFFFFba"/><circle cx="109.24101285636425" cy="869.2000363022089" r="2.1780123144388197" fill="#FFFFFF98"/><circle cx="1196.743680909276" cy="191.38230197131634" r="2.842066458053887" fill="#FFFFFF8f"/><circle cx="395.7715529948473" cy="328.33114739041775" r="1.3361131297424436" fill="#FFFFFFc3"/><circle cx="299.92323257029057" cy="36.71900744084269" r="3.0286312555894255" fill="#FFFFFFa9"/><circle cx="1065.3638165444136" cy="386.3938119029626" r="1.33110306058079" fill="#FFFFFFba"/><circle cx="1349.431323632598" cy="514.4122704863548" r="2.6681729981675746" fill="#FFFFFF96"/><circle cx="1481.99249394238" cy="264.8240654496476" r="1.7652142718434334" fill="#FFFFFFb9"/><circle cx="546.8921456485987" cy="875.996111263521" r="1.4967535300180317" fill="#FFFFFF9b"/><circle cx="978.3568605780602" cy="377.0850558998063" r="2.6566208854317663" fill="#FFFFFFb2"/><circle cx="1082.6788488775492" cy="653.586100274697" r="1.951519419811666" fill="#FFFFFFbc"/><circle cx="1201.8862087279558" cy="654.0088688023388" r="3.170062444359064" fill="#FFFFFF93"/><circle cx="464.7842951118946" cy="222.22153865732253" r="1.3906308513134717" fill="#FFFFFFbb"/><circle cx="1497.890580818057" cy="739.5480359438807" r="1.4633407471701503" fill="#FFFFFFa9"/><circle cx="61.01699359714985" cy="131.0720403911546" r="2.811313465423882" fill="#FFFFFFad"/><circle cx="409.3968663364649" cy="649.0709349978715" r="2.366063143499195" fill="#FFFFFFa5"/><circle cx="1113.9915276318789" cy="790.2744348859414" r="1.5423379046842456" fill="#FFFFFF9f"/><circle cx="1182.3367066681385" cy="771.9167989678681" r="1.8837921513244509" fill="#FFFFFF9d"/><circle cx="996.3631302118301" cy="750.565518764779" r="1.9373906128108502" fill="#FFFFFF9c"/><circle cx="1423.1266792863607" cy="899.693044857122" r="2.318334295228124" fill="#FFFFFFa5"/><circle cx="351.3739846646786" cy="749.3167191278189" r="2.6225210748612877" fill="#FFFFFF8d"/><circle cx="744.4610111415386" cy="310.113939573057" r="2.865728546120226" fill="#FFFFFFbe"/><circle cx="1179.0431335568428" cy="386.3294956739992" r="1.6637534148991109" fill="#FFFFFF9f"/><circle cx="423.86642172932625" cy="722.0585078699514" r="3.194092718698084" fill="#FFFFFFab"/><circle cx="1325.7492993026972" cy="106.9847263628617" r="1.2091711156070233" fill="#FFFFFFab"/><circle cx="60.486575961112976" cy="394.69398523215204" r="2.7396436922252176" fill="#FFFFFFb3"/><circle cx="592.7136797457933" cy="741.6646833764389" r="2.472002255171537" fill="#FFFFFFa0"/><circle cx="1447.3354753106833" cy="707.2998189367354" r="1.1657591737806796" fill="#FFFFFF9b"/><circle cx="1098.100733757019" cy="411.21050196234137" r="3.2961994258686897" fill="#FFFFFFb8"/><circle cx="433.9775327593088" cy="530.7575199985877" r="2.9582321157678964" fill="#FFFFFFb7"/><circle cx="1155.7079568505287" cy="342.71146275568753" r="1.8177522756159306" fill="#FFFFFFab"/><circle cx="818.2724609971046" cy="526.5880095306784" r="1.0733839366585016" fill="#FFFFFFc1"/><circle cx="852.4978756904602" cy="356.61259037442505" r="1.7971224538981914" fill="#FFFFFFa0"/><circle cx="257.1670576930046" cy="405.89777030982077" r="2.89726506061852" fill="#FFFFFFae"/><circle cx="30.72352595627308" cy="614.6551351994276" r="3.3914297671988605" fill="#FFFFFF8e"/><circle cx="321.6385703533888" cy="97.1925851656124" r="1.52510739620775" fill="#FFFFFFbb"/><circle cx="1110.0541952997446" cy="3.125793789513409" r="2.0835252713412045" fill="#FFFFFFb4"/><circle cx="195.18428556621075" cy="334.29966720286757" r="1.5537733843550086" fill="#FFFFFF9c"/><circle cx="575.3426849842072" cy="72.27597003802657" r="2.8212582370266315" fill="#FFFFFFbe"/><circle cx="561.4939708262682" cy="300.3038460155949" r="2.760744806565344" fill="#FFFFFFc9"/><circle cx="610.2604057639837" cy="146.70803777407855" r="2.14496237244457" fill="#FFFFFFb3"/><circle cx="447.3042234778404" cy="714.2092599766329" r="2.7594285314902662" fill="#FFFFFFba"/><circle cx="28.214585036039352" cy="664.9231655756012" r="2.106285750493407" fill="#FFFFFFc3"/><circle cx="53.81408855319023" cy="283.4700367413461" r="1.9478035299107432" fill="#FFFFFFbe"/><circle cx="1505.6195948272943" cy="31.65707637090236" r="2.8204810837283727" fill="#FFFFFFc2"/><circle cx="68.90704594552517" cy="276.4968368690461" r="2.6270161235705016" fill="#FFFFFFb4"/><circle cx="1534.154898300767" cy="698.3477835310623" r="2.602989996038377" fill="#FFFFFF8e"/><circle cx="1478.1228188425303" cy="584.2720425222069" r="2.7843101082369683" fill="#FFFFFF9f"/><circle cx="1075.4037983715534" cy="46.50418180972338" r="1.1025932705029846" fill="#FFFFFFaa"/>
        </g>
      

  <g opacity="0.92">
    
        <g transform="translate(265.54575718473643, 420.5465788487345)">
          <circle r="45.21241562535986" fill="#FACC15c7" stroke="#FDE68A99" stroke-width="4"/>
          <circle r="24.66131761383265" fill="none" stroke="#060b11e6" stroke-width="3"/>
        </g>
      
        <g transform="translate(588.0554684251547, 611.7818603198975)">
          <path d="M-41.64763468321413 13.15188463680446 L-21.919807728007438 -19.72782695520669 H24.111788500808178 L41.64763468321413 13.15188463680446 Z" fill="#FACC15c7" stroke="#FDE68A99" stroke-width="3"/>
        </g>
      
        <g transform="translate(940.2774745691568, 433.34009673446417)">
          <path d="M0 -45.50351262439973 L32.50250901742838 -26.002007213942704 V10.83416967247613 Q32.50250901742838 36.83617688641883 0 49.83718049339019 Q-32.50250901742838 36.83617688641883 -32.50250901742838 10.83416967247613 V-26.002007213942704 Z" fill="#FACC15c7" stroke="#FDE68A99" stroke-width="3"/>
          <path d="M0 -19.50150541045703 V19.50150541045703" stroke="#060b11e6" stroke-width="3"/>
        </g>
      
        <g transform="translate(1241.1013916740194, 639.1045397846028)">
          <path d="M-37.27199406897649 8.470907742949203 Q-6.776726194359362 -28.801086326027292 35.57781252038665 -6.776726194359362" stroke="#FDE68A99" stroke-width="6" fill="none" stroke-linecap="round"/>
          <path d="M20.330178583078087 -13.553452388718725 L35.57781252038665 -6.776726194359362 L23.71854168025777 5.082544645769522" fill="#FACC15c7"/>
        </g>
      
  </g>

  
    <g>
      <polyline points="0.0,677.0 160.0,665.3 320.0,654.3 480.0,655.5 640.0,647.1 800.0,648.6 960.0,643.4 1120.0,662.8 1280.0,685.1 1440.0,693.5 1600.0,688.7" fill="none" stroke="#FDE68Ae0" stroke-width="6" stroke-linecap="round" stroke-linejoin="round"/>
      <polygon points="0,900 0.0,677.0 160.0,665.3 320.0,654.3 480.0,655.5 640.0,647.1 800.0,648.6 960.0,643.4 1120.0,662.8 1280.0,685.1 1440.0,693.5 1600.0,688.7 1600,900" fill="#FACC151f"/>
    </g>
  

  <g opacity="0.09">
    <text x="70" y="784" font-family="Segoe UI, Arial, sans-serif" font-size="180" font-weight="700" fill="#FDE68A">
      GLD
    </text>
  </g>
  <g opacity="0.95">
    <text x="82" y="96" font-family="Segoe UI, Arial, sans-serif" font-size="28" font-weight="700" fill="#FDE68A">
      GLD
    </text>
    <text x="82" y="132" font-family="Segoe UI, Arial, sans-serif" font-size="18" font-weight="500" fill="#D1D5DBe6">
      Gold ETF · 穩收金庫
    </text>
  </g>
</svg>