<svg xmlns="http://www.w3.org/2000/svg" viewBox="0 0 1600 900" fill="none">
  <defs>
    <linearGradient id="bg" x1="0" y1="0" x2="0" y2="1">
      <stop offset="0%" stop-color="#08142a"/>
      <stop offset="48%" stop-color="#14406b"/>
      <stop offset="100%" stop-color="#0b1b33"/>
    </linearGradient>
    <radialGradient id="glow" cx="50%" cy="25%" r="65%">
      <stop offset="0%" stop-color="#CFFAFE47"/>
      <stop offset="100%" stop-color="#CFFAFE00"/>
    </radialGradient>
    <linearGradient id="fade" x1="0" y1="0" x2="1" y2="1">
      <stop offset="0%" stop-color="#7DD3FC2e"/>
      <stop offset="100%" stop-color="#E0F2FE08"/>
    </linearGradient>
  </defs>

  <rect width="1600" height="900" fill="url(#bg)"/>
  <rect width="1600" height="900" fill="url(#glow)"/>
  <rect width="1600" height="900" fill="url(#fade)"/>

  
        <g>
          
              <ellipse cx="731.5429853601381" cy="333.6470861826092" rx="177.63928121514618" ry="61.366297147050496" fill="#CFFAFE2b"/>
              <ellipse cx="618.4998064050451" cy="349.7961117476225" rx="113.04317895509303" ry="41.98746646903455" fill="#E0F2FE24"/>
              <ellipse cx="844.5861643152311" cy="356.25572197362783" rx="129.19220452010632" ry="45.217271582037206" fill="#E0F2FE1c"/>
            
              <ellipse cx="866.8039971822873" cy="260.8262275531888" rx="148.3886124091223" ry="51.26152065042407" fill="#CFFAFE2b"/>
              <ellipse cx="772.374880194664" cy="274.31610140856355" rx="94.42911698762327" ry="35.07367202397436" fill="#E0F2FE24"/>
              <ellipse cx="961.2331141699106" cy="279.71205095071343" rx="107.91899084299803" ry="37.771646795049314" fill="#E0F2FE1c"/>
            
              <ellipse cx="834.1066451137885" cy="137.8306533768773" rx="151.08277354575694" ry="52.192230861261486" fill="#CFFAFE2b"/>
              <ellipse cx="737.9630619483069" cy="151.56545097194612" rx="96.14358316548169" ry="35.710473747178916" fill="#E0F2FE24"/>
              <ellipse cx="930.2502282792702" cy="157.05937000997363" rx="109.8783807605505" ry="38.45743326619267" fill="#E0F2FE1c"/>
            
              <ellipse cx="83.39678458403796" cy="323.96618503145874" rx="178.59824565146118" ry="61.69757577050478" fill="#CFFAFE2b"/>
              <ellipse cx="-30.256644466891885" cy="340.20238918159157" rx="113.65342905092984" ry="42.21413079034537" fill="#E0F2FE24"/>
              <ellipse cx="197.0502136349678" cy="346.6968708416447" rx="129.88963320106268" ry="45.46137162037194" fill="#E0F2FE1c"/>
            
              <ellipse cx="189.21912532299757" cy="126.34836284443736" rx="134.47610465530306" ry="46.4553816081956" fill="#CFFAFE2b"/>
              <ellipse cx="103.64342236053199" cy="138.57346326764673" rx="85.57570296246558" ry="31.78526110034436" fill="#E0F2FE24"/>
              <ellipse cx="274.79482828546315" cy="143.46350343693047" rx="97.80080338567495" ry="34.23028118498623" fill="#E0F2FE1c"/>
            
              <ellipse cx="1152.893410739489" cy="323.22184196673334" rx="124.06812886614354" ry="42.859899062849586" fill="#CFFAFE2b"/>
              <ellipse cx="1073.9409650973976" cy="334.5007627727464" rx="78.95244564209133" ry="29.325194095633925" fill="#E0F2FE24"/>
              <ellipse cx="1231.8458563815802" cy="339.0123310951516" rx="90.23136644810438" ry="31.580978256836538" fill="#E0F2FE1c"/>
            
              <ellipse cx="1383.4894449356943" cy="218.65534693934023" rx="178.81068730074915" ry="61.77096470389516" fill="#CFFAFE2b"/>
              <ellipse cx="1269.7008257443085" cy="234.91086396668106" rx="113.78861919138582" ry="42.26434427108616" fill="#E0F2FE24"/>
              <ellipse cx="1497.2780641270801" cy="241.4130707776174" rx="130.04413621872663" ry="45.51544767655433" fill="#E0F2FE1c"/>
            
              <ellipse cx="797.7303347596899" cy="154.90548783913255" rx="160.88662314694375" ry="55.579015268944204" fill="#CFFAFE2b"/>
              <ellipse cx="695.3479382116348" cy="169.5315444888547" rx="102.38239654805511" ry="38.02774728927761" fill="#E0F2FE24"/>
              <ellipse cx="900.112731307745" cy="175.38196714874357" rx="117.00845319777727" ry="40.952958619222045" fill="#E0F2FE1c"/>
            
              <ellipse cx="959.3598207319155" cy="236.47172398865223" rx="101.86156237311663" ry="35.18853972889483" fill="#CFFAFE2b"/>
              <ellipse cx="894.5388264944777" cy="245.73186602257192" rx="64.82099423743784" ry="24.076369288191202" fill="#E0F2FE24"/>
              <ellipse cx="1024.1808149693534" cy="249.4359228361398" rx="74.08113627135754" ry="25.92839769497514" fill="#E0F2FE1c"/>
            
          <rect x="829.7460184060037" y="311.67261166498065" width="56.680588360875845" height="56.680588360875845" rx="8" fill="#7DD3FC1c" stroke="#CFFAFE2e"/><rect x="708.0957307294011" y="466.98115897364914" width="70.6383593166247" height="70.6383593166247" rx="8" fill="#7DD3FC1c" stroke="#CFFAFE2e"/><rect x="1050.3048264235258" y="392.86507721059024" width="81.79246510565281" height="81.79246510565281" rx="8" fill="#7DD3FC1c" stroke="#CFFAFE2e"/><rect x="276.4218492805958" y="379.265355495736" width="48.626090709120035" height="48.626090709120035" rx="8" fill="#7DD3FC1c" stroke="#CFFAFE2e"/><rect x="682.4758189171553" y="472.9889415483922" width="51.50046014878899" height="51.50046014878899" rx="8" fill="#7DD3FC1c" stroke="#CFFAFE2e"/><rect x="529.4309476949275" y="501.7476872727275" width="85.58472815621644" height="85.58472815621644" rx="8" fill="#7DD3FC1c" stroke="#CFFAFE2e"/><rect x="354.301535487175" y="507.78893107548356" width="65.27160826791078" height="65.27160826791078" rx="8" fill="#7DD3FC1c" stroke="#CFFAFE2e"/><rect x="430.6564471125603" y="408.8205598015338" width="37.27592446561903" height="37.27592446561903" rx="8" fill="#7DD3FC1c" stroke="#CFFAFE2e"/><rect x="839.9821403063834" y="260.4383349791169" width="45.481027846224606" height="45.481027846224606" rx="8" fill="#7DD3FC1c" stroke="#CFFAFE2e"/><rect x="1058.9683422259986" y="192.23070948384702" width="82.32489607017487" height="82.32489607017487" rx="8" fill="#7DD3FC1c" stroke="#CFFAFE2e"/><rect x="694.2214183695614" y="379.34971172362566" width="29.79690334945917" height="29.79690334945917" rx="8" fill="#7DD3FC1c" stroke="#CFFAFE2e"/><rect x="1201.818227507174" y="397.07672907970846" width="78.19400218967348" height="78.19400218967348" rx="8" fill="#7DD3FC1c" stroke="#CFFAFE2e"/><rect x="156.4690511673689" y="465.48690921626985" width="31.52785870898515" height="31.52785870898515" rx="8" fill="#7DD3FC1c" stroke="#CFFAFE2e"/><rect x="571.6242395527661" y="309.5629814360291" width="66.602908491157" height="66.602908491157" rx="8" fill="#7DD3FC1c" stroke="#CFFAFE2e"/><rect x="847.6487203873694" y="266.8709788750857" width="47.75238720420748" height="47.75238720420748" rx="8" fill="#7DD3FC1c" stroke="#CFFAFE2e"/>
        </g>
      

  <g opacity="0.92">
    
        <g transform="translate(281.2415027990937, 444.31914910208434)">
          <ellipse rx="37.0129886664357" ry="21.150279237963257" fill="none" stroke="#CFFAFE99" stroke-width="5"/>
          <ellipse rx="17.625232698302717" ry="8.812616349151359" fill="none" stroke="#7DD3FCc7" stroke-width="3"/>
        </g>
      
        <g transform="translate(614.9469283223152, 623.0799115775153)">
          <circle r="28.596626802859827" fill="#7DD3FCc7" stroke="#CFFAFE99" stroke-width="3"/>
        </g>
      
        <g transform="translate(922.4535897001624, 464.68581130262464)">
          <rect x="-34.756132429288705" y="-34.756132429288705" width="69.51226485857741" height="69.51226485857741" rx="10.222391890967266" fill="#7DD3FCc7" stroke="#CFFAFE99" stroke-width="3"/>
          <path d="M-18.400305403741076 0 H18.400305403741076 M0 -18.400305403741076 V18.400305403741076" stroke="#06111fe6" stroke-width="3"/>
        </g>
      
        <g transform="translate(1266.9489548215643, 591.5574839711189)">
          <rect x="-31.333894344558942" y="-31.333894344558942" width="62.667788689117884" height="62.667788689117884" rx="9.215851277811453" fill="#7DD3FCc7" stroke="#CFFAFE99" stroke-width="3"/>
          <path d="M-16.588532300060614 0 H16.588532300060614 M0 -16.588532300060614 V16.588532300060614" stroke="#06111fe6" stroke-width="3"/>
        </g>
      
  </g>

  
    <g>
      <polyline points="0.0,624.8 160.0,635.0 320.0,629.9 480.0,650.0 640.0,660.2 800.0,666.8 960.0,690.3 1120.0,701.3 1280.0,691.2 1440.0,678.1 1600.0,695.6" fill="none" stroke="#CFFAFEe0" stroke-width="6" stroke-linecap="round" stroke-linejoin="round"/>
      <polygon points="0,900 0.0,624.8 160.0,635.0 320.0,629.9 480.0,650.0 640.0,660.2 800.0,666.8 960.0,690.3 1120.0,701.3 1280.0,691.2 1440.0,678.1 1600.0,695.6 1600,900" fill="#7DD3FC1f"/>
    </g>
  

  <g opacity="0.09">
    <text x="70" y="784" font-family="Segoe UI, Arial, sans-serif" font-size="180" font-weight="700" fill="#CFFAFE">
      GOOGL
    </text>
  </g>
  <g opacity="0.95">
    <text x="82" y="96" font-family="Segoe UI, Arial, sans-serif" font-size="28" font-weight="700" fill="#CFFAFE">
      GOOGL
    </text>
    <text x="82" y="132" font-family="Segoe UI, Arial, sans-serif" font-size="18" font-weight="500" fill="#E0F2FEe6">
      Alphabet · 雲端之巔
    </text>
  </g>
</svg>