<svg xmlns="http://www.w3.org/2000/svg" viewBox="0 0 1600 900" fill="none">
  <defs>
    <linearGradient id="bg" x1="0" y1="0" x2="0" y2="1">
      <stop offset="0%" stop-color="#071224"/>
      <stop offset="48%" stop-color="#10284a"/>
      <stop offset="100%" stop-color="#08111d"/>
    </linearGradient>
    <radialGradient id="glow" cx="50%" cy="25%" r="65%">
      <stop offset="0%" stop-color="#FFE99A47"/>
      <stop offset="100%" stop-color="#FFE99A00"/>
    </radialGradient>
    <linearGradient id="fade" x1="0" y1="0" x2="1" y2="1">
      <stop offset="0%" stop-color="#FFD7002e"/>
      <stop offset="100%" stop-color="#9DB4D808"/>
    </linearGradient>
  </defs>

  <rect width="1600" height="900" fill="url(#bg)"/>
  <rect width="1600" height="900" fill="url(#glow)"/>
  <rect width="1600" height="900" fill="url(#fade)"/>

  
        <g>
          <rect x="27.917472694069147" y="238.65175402257591" width="122.63114750385284" height="281.3482459774241" rx="8" fill="#9DB4D83d"/><rect x="133.5677967555821" y="276.9269359158352" width="80.21580906119198" height="243.0730640841648" rx="8" fill="#9DB4D82c"/><rect x="243.3850108506158" y="285.364142539911" width="88.70539482217282" height="234.63585746008903" rx="8" fill="#9DB4D83c"/><rect x="394.980464248918" y="238.96941154729575" width="76.02766436524689" height="281.03058845270425" rx="8" fill="#9DB4D847"/><rect x="480.5123936533928" y="303.26556185260415" width="74.59383154753596" height="216.73443814739585" rx="8" fill="#9DB4D82a"/><rect x="602.8115231562406" y="124.14877702947706" width="97.67731689382344" height="395.85122297052294" rx="8" fill="#9DB4D834"/><rect x="734.2644237605855" y="261.22598436661065" width="76.45972209516913" height="258.77401563338935" rx="8" fill="#9DB4D829"/><rect x="841.9338938137516" y="198.86453294660896" width="75.64569584093988" height="321.13546705339104" rx="8" fill="#9DB4D82a"/><rect x="980.2858848301694" y="218.4592960588634" width="77.09501930978149" height="301.5407039411366" rx="8" fill="#9DB4D838"/><rect x="1101.2659835508093" y="148.43604739755392" width="100.82540889270604" height="371.5639526024461" rx="8" fill="#9DB4D82c"/><rect x="1206.162057235837" y="218.4475250216201" width="104.08639589324594" height="301.5524749783799" rx="8" fill="#9DB4D82c"/><rect x="1342.5008213929832" y="256.6844349866733" width="85.52548309322447" height="263.3155650133267" rx="8" fill="#9DB4D830"/><rect x="1440.754541940987" y="279.23234852962196" width="84.54080165363848" height="240.76765147037804" rx="8" fill="#9DB4D840"/><rect x="1588.9873858038336" y="126.0292150452733" width="111.9281345512718" height="393.9707849547267" rx="8" fill="#9DB4D83a"/>
          <circle cx="444.7059117257595" cy="324.44058225955814" r="2.775653992220759" fill="#FFFFFF90"/><circle cx="1360.8248874545097" cy="766.1052818410099" r="2.305359329842031" fill="#FFFFFF91"/><circle cx="1300.8049473166466" cy="571.4738681679592" r="1.3952536810189486" fill="#FFFFFF92"/><circle cx="702.8013121336699" cy="119.69374660402536" r="2.687638913281262" fill="#FFFFFF8f"/><circle cx="933.6567007005215" cy="432.9468872398138" r="3.3332428596913815" fill="#FFFFFF99"/><circle cx="1389.6812345832586" cy="877.1604102104902" r="1.0973931808024644" fill="#FFFFFFc1"/><circle cx="628.1371001154184" cy="519.002469512634" r="3.046880458667874" fill="#FFFFFFae"/><circle cx="1409.4406634569168" cy="382.68158244900405" r="2.1588944561779497" fill="#FFFFFF8f"/><circle cx="989.3871553242207" cy="460.1518778130412" r="3.1298838892951606" fill="#FFFFFF8e"/><circle cx="191.43098406493664" cy="147.66040490940213" r="2.1578347902745008" fill="#FFFFFFaf"/><circle cx="1486.6527311503887" cy="627.0348792895675" r="2.6132000297307965" fill="#FFFFFFa9"/><circle cx="1172.9190852493048" cy="794.4957928732038" r="2.8099981117993593" fill="#FFFFFFcb"/><circle cx="1048.9250097423792" cy="18.863981030881405" r="2.4579272281378506" fill="#FFFFFF95"/><circle cx="858.1220988184214" cy="405.70518581662327" r="1.766575446538627" fill="#FFFFFFbc"/><circle cx="1523.264703527093" cy="264.00368500035256" r="1.1338020162656903" fill="#FFFFFFa2"/><circle cx="918.9206153154373" cy="424.98471897561103" r="1.6335868794471025" fill="#FFFFFF91"/><circle cx="1239.122510328889" cy="774.0226513473317" r="2.684471050091088" fill="#FFFFFFad"/><circle cx="1260.4497391730547" cy="897.7190796285868" r="3.0078666232526303" fill="#FFFFFF8d"/><circle cx="208.1081297248602" cy="368.08578427881" r="2.7816825062036514" fill="#FFFFFFa9"/><circle cx="1049.6157921850681" cy="771.7858118237928" r="3.108740857057273" fill="#FFFFFFcb"/><circle cx="951.0985970497131" cy="247.66393024474382" r="2.6455402391031386" fill="#FFFFFFbe"/><circle cx="1231.5940078347921" cy="874.5134320110083" r="2.8735226633027198" fill="#FFFFFFbc"/><circle cx="1182.86951482296" cy="720.7777941366658" r="3.17704915124923" fill="#FFFFFFb5"/><circle cx="375.737976282835" cy="572.546792216599" r="2.506004731170833" fill="#FFFFFFa6"/><circle cx="610.8814399689436" cy="547.3554989788681" r="1.49186494871974" fill="#FFFFFFc8"/><circle cx="1140.6652703881264" cy="230.94028285704553" r="2.4233360374346375" fill="#FFFFFF90"/><circle cx="1277.1667022258043" cy="346.2026769295335" r="1.424833638034761" fill="#FFFFFFc3"/><circle cx="1232.0111215114594" cy="306.7462050821632" r="2.8886949535459276" fill="#FFFFFFae"/><circle cx="1019.7949465364218" cy="276.9203855423257" r="1.9457829441875218" fill="#FFFFFFbf"/><circle cx="662.4050941318274" cy="761.4984246203676" r="1.9516541806980967" fill="#FFFFFFbf"/><circle cx="152.1296713501215" cy="274.9636579072103" r="2.8118768790736794" fill="#FFFFFFc9"/><circle cx="496.20751962065697" cy="728.7571790395305" r="3.03958432264626" fill="#FFFFFFbe"/><circle cx="228.72031517326832" cy="318.3699819725007" r="2.267437866516411" fill="#FFFFFFa8"/><circle cx="321.93505577743053" cy="562.6582067459822" r="2.1652521403506397" fill="#FFFFFFbc"/><circle cx="203.47626246511936" cy="822.0986841246486" r="1.9198542978614568" fill="#FFFFFF9e"/><circle cx="695.6339679658413" cy="860.448103537783" r="3.198260215483606" fill="#FFFFFFa3"/><circle cx="634.4933465123177" cy="151.71901483554393" r="1.6871436862275004" fill="#FFFFFF90"/><circle cx="259.9383782595396" cy="200.02459650859237" r="2.595633228681981" fill="#FFFFFF94"/><circle cx="675.0741109251976" cy="368.52563470602036" r="2.8904274297878145" fill="#FFFFFFbd"/><circle cx="1130.7081770151854" cy="63.50471887271851" r="1.929873219691217" fill="#FFFFFFb7"/><circle cx="109.65495519340038" cy="182.1062680799514" r="2.2825668189674615" fill="#FFFFFFad"/><circle cx="929.8676863312721" cy="526.366455713287" r="2.888360734656453" fill="#FFFFFFa8"/><circle cx="585.8887851238251" cy="2.244853461161256" r="1.8671598318964242" fill="#FFFFFF95"/><circle cx="132.07365907728672" cy="116.10207888297737" r="2.7962042992934584" fill="#FFFFFF9a"/><circle cx="1384.6867516636848" cy="172.48943480663002" r="2.5064371272921564" fill="#FFFFFFb9"/><circle cx="754.5552615076303" cy="324.9090038705617" r="3.139758285321295" fill="#FFFFFF97"/><circle cx="735.2826613932848" cy="291.42677939962596" r="1.1996424093842506" fill="#FFFFFF97"/><circle cx="46.42176516354084" cy="664.2230553785339" r="1.0188583254814148" fill="#FFFFFFbc"/><circle cx="1311.3040901720524" cy="375.1736873527989" r="2.3387214088812467" fill="#FFFFFF8f"/><circle cx="1409.8518550395966" cy="235.43234006501734" r="1.5636335289105774" fill="#FFFFFFb3"/><circle cx="809.2289753258228" cy="412.36277644056827" r="2.98748359773308" fill="#FFFFFFa6"/><circle cx="568.0597610771656" cy="192.77489001397043" r="2.800069703347981" fill="#FFFFFF94"/><circle cx="1583.0462362617254" cy="682.2675624629483" r="1.1168032970279456" fill="#FFFFFF8d"/><circle cx="41.70575886964798" cy="736.9653197005391" r="2.025723588839173" fill="#FFFFFFc2"/><circle cx="765.3197165578604" cy="205.87662064936012" r="1.2254847176373005" fill="#FFFFFF97"/><circle cx="427.3744583129883" cy="43.8476832350716" r="1.8332745354622602" fill="#FFFFFFa2"/><circle cx="393.59246119856834" cy="305.58115008752793" r="1.5010866990312932" fill="#FFFFFFb5"/><circle cx="657.6852295547724" cy="376.19472176302224" r="3.131870816089213" fill="#FFFFFFc6"/><circle cx="982.8291289508343" cy="626.3448078883812" r="3.0243776911869644" fill="#FFFFFF98"/><circle cx="1005.1111482083797" cy="885.2708545513451" r="2.3451982809230687" fill="#FFFFFFb7"/>
        </g>
      

  <g opacity="0.92">
    
        <g transform="translate(319.8147173272446, 463.13095159828663)">
          <circle r="40.88913001669571" fill="#FFD700c7" stroke="#FFE99A99" stroke-width="4"/>
          <circle r="22.303161827288566" fill="none" stroke="#030913e6" stroke-width="3"/>
        </g>
      
        <g transform="translate(645.5172504344955, 601.0796641977504)">
          <rect x="-16.754714279919863" y="-48.16980355476961" width="33.509428559839726" height="96.33960710953922" rx="6" fill="#FFD700c7" stroke="#FFE99A99" stroke-width="3"/>
          <rect x="-29.320749989859763" y="-56.54716069472954" width="58.641499979719526" height="12.566035709939896" rx="6" fill="#030913e6"/>
          <rect x="-29.320749989859763" y="43.98112498478964" width="58.641499979719526" height="12.566035709939896" rx="6" fill="#030913e6"/>
        </g>
      
        <g transform="translate(943.8229871308431, 458.23706646915525)">
          <circle r="38.993962517175824" fill="#FFD700c7" stroke="#FFE99A99" stroke-width="4"/>
          <circle r="21.26943410027772" fill="none" stroke="#030913e6" stroke-width="3"/>
        </g>
      
        <g transform="translate(1284.6467086486518, 590.2632199553773)">
          <circle r="41.43642344491556" fill="#FFD700c7" stroke="#FFE99A99" stroke-width="4"/>
          <circle r="9.007918140199036" fill="#030913e6"/>
          <path d="M0 -28.825338048636915 L0 28.825338048636915 M-28.825338048636915 0 L28.825338048636915 0" stroke="#030913e6" stroke-width="4"/>
        </g>
      
  </g>

  
    <g>
      <polyline points="0.0,609.6 160.0,594.1 320.0,563.7 480.0,547.6 640.0,526.8 800.0,513.6 960.0,496.4 1120.0,474.9 1280.0,458.4 1440.0,445.2 1600.0,432.3" fill="none" stroke="#FFE99Ae0" stroke-width="6" stroke-linecap="round" stroke-linejoin="round"/>
      <polygon points="0,900 0.0,609.6 160.0,594.1 320.0,563.7 480.0,547.6 640.0,526.8 800.0,513.6 960.0,496.4 1120.0,474.9 1280.0,458.4 1440.0,445.2 1600.0,432.3 1600,900" fill="#FFD7001f"/>
    </g>
  

  <g opacity="0.09">
    <text x="70" y="784" font-family="Segoe UI, Arial, sans-serif" font-size="180" font-weight="700" fill="#FFE99A">
      GS
    </text>
  </g>
  <g opacity="0.95">
    <text x="82" y="96" font-family="Segoe UI, Arial, sans-serif" font-size="28" font-weight="700" fill="#FFE99A">
      GS
    </text>
    <text x="82" y="132" font-family="Segoe UI, Arial, sans-serif" font-size="18" font-weight="500" fill="#9DB4D8e6">
      Goldman Sachs · 摩天雪都
    </text>
  </g>
</svg>