<svg xmlns="http://www.w3.org/2000/svg" viewBox="0 0 1600 900" fill="none">
  <defs>
    <linearGradient id="bg" x1="0" y1="0" x2="0" y2="1">
      <stop offset="0%" stop-color="#041a30"/>
      <stop offset="48%" stop-color="#0a3760"/>
      <stop offset="100%" stop-color="#07111f"/>
    </linearGradient>
    <radialGradient id="glow" cx="50%" cy="25%" r="65%">
      <stop offset="0%" stop-color="#8CF8FF47"/>
      <stop offset="100%" stop-color="#8CF8FF00"/>
    </radialGradient>
    <linearGradient id="fade" x1="0" y1="0" x2="1" y2="1">
      <stop offset="0%" stop-color="#00F2FF2e"/>
      <stop offset="100%" stop-color="#89C2FF08"/>
    </linearGradient>
  </defs>

  <rect width="1600" height="900" fill="url(#bg)"/>
  <rect width="1600" height="900" fill="url(#glow)"/>
  <rect width="1600" height="900" fill="url(#fade)"/>

  
        <g opacity="0.95">
          <path d="M-40 220 C240 80, 420 260, 720 170 S1200 80, 1640 210 L1640 0 L-40 0 Z" fill="#00F2FF2e"/>
          <path d="M-20 270 C210 170, 440 280, 690 210 S1160 140, 1620 260" stroke="#8CF8FF8c" stroke-width="8" fill="none" stroke-linecap="round"/>
          <path d="M8.666471422184259 900 L128.66647142218426 375.1566741988063 L278.66647142218426 697.856535827741 L398.66647142218426 900 Z" fill="#89C2FF41"/><path d="M249.79852264514193 900 L369.79852264514193 376.8677304312587 L519.7985226451419 723.6695159878582 L639.7985226451419 900 Z" fill="#89C2FF40"/><path d="M421.5199440764263 900 L541.5199440764263 410.1774687599391 L691.5199440764263 707.8185736155137 L811.5199440764263 900 Z" fill="#89C2FF2c"/><path d="M665.8868731092662 900 L785.8868731092662 349.95674732141197 L935.8868731092662 636.9485790794715 L1055.8868731092662 900 Z" fill="#89C2FF2a"/><path d="M904.2580549279228 900 L1024.2580549279228 383.7078311573714 L1174.2580549279228 707.5702788727358 L1294.2580549279228 900 Z" fill="#89C2FF36"/><path d="M1080.5237616831437 900 L1200.5237616831437 305.8036030177027 L1350.5237616831437 706.020543416962 L1470.5237616831437 900 Z" fill="#89C2FF33"/><path d="M1338.9538764255121 900 L1458.9538764255121 331.1097292229533 L1608.9538764255121 635.1701663760468 L1728.9538764255121 900 Z" fill="#89C2FF2f"/>
          <rect x="491.0337372124195" y="327.2375066112727" width="34.27716389577836" height="2" fill="#00F2FF2e"/><rect x="72.28975167497993" y="447.62948624324054" width="56.9537134100683" height="2" fill="#00F2FF2e"/><rect x="882.5297018885612" y="341.5873780241236" width="59.89262307109311" height="2" fill="#00F2FF2e"/><rect x="1152.5931950844824" y="310.08746253326535" width="32.37561026401818" height="2" fill="#00F2FF2e"/><rect x="949.3570475466549" y="635.1449463423342" width="64.36122997710481" height="2" fill="#00F2FF2e"/><rect x="391.9334927201271" y="309.45359194651246" width="102.44896878302097" height="2" fill="#00F2FF2e"/><rect x="852.0950572751462" y="366.18160826619714" width="97.43502999702469" height="2" fill="#00F2FF2e"/><rect x="522.2497626207769" y="452.9399311868474" width="115.7919077090919" height="2" fill="#00F2FF2e"/><rect x="254.93146412074566" y="373.9819140173495" width="85.48063415382057" height="2" fill="#00F2FF2e"/><rect x="1483.8097337633371" y="519.5313559053466" width="118.48573029087856" height="2" fill="#00F2FF2e"/><rect x="771.5713307633996" y="537.6329522859305" width="94.24375411868095" height="2" fill="#00F2FF2e"/><rect x="992.8848945535719" y="566.9854601705447" width="113.61590768489987" height="2" fill="#00F2FF2e"/><rect x="150.88824179023504" y="369.54800156876445" width="54.34988841228187" height="2" fill="#00F2FF2e"/><rect x="651.7552420683205" y="519.3301058234647" width="71.66577538754791" height="2" fill="#00F2FF2e"/><rect x="432.9512658715248" y="666.5099470270798" width="70.5380208468996" height="2" fill="#00F2FF2e"/><rect x="181.99642458930612" y="656.3286653440446" width="103.13483135821298" height="2" fill="#00F2FF2e"/>
        </g>
      

  <g opacity="0.92">
    
        <g transform="translate(323.70550110936165, 453.0777384666726)">
          <rect x="-49.26499179354869" y="-49.26499179354869" width="98.52998358709738" height="98.52998358709738" rx="15.764797373935581" fill="#00F2FFc7" stroke="#8CF8FF99" stroke-width="3"/>
          <rect x="-21.67659638916142" y="-21.67659638916142" width="43.35319277832284" height="43.35319277832284" rx="6.897098851096817" fill="#03101de6"/>
          <rect x="-41.3825931065809" y="-63.059189495742324" width="7.8823986869677904" height="15.764797373935581" fill="#8CF8FF99"/>
              <rect x="-41.3825931065809" y="47.29439212180674" width="7.8823986869677904" height="15.764797373935581" fill="#8CF8FF99"/><rect x="-13.794197702193632" y="-63.059189495742324" width="7.8823986869677904" height="15.764797373935581" fill="#8CF8FF99"/>
              <rect x="-13.794197702193632" y="47.29439212180674" width="7.8823986869677904" height="15.764797373935581" fill="#8CF8FF99"/><rect x="13.794197702193635" y="-63.059189495742324" width="7.8823986869677904" height="15.764797373935581" fill="#8CF8FF99"/>
              <rect x="13.794197702193635" y="47.29439212180674" width="7.8823986869677904" height="15.764797373935581" fill="#8CF8FF99"/><rect x="41.3825931065809" y="-63.059189495742324" width="7.8823986869677904" height="15.764797373935581" fill="#8CF8FF99"/>
              <rect x="41.3825931065809" y="47.29439212180674" width="7.8823986869677904" height="15.764797373935581" fill="#8CF8FF99"/>
        </g>
      
        <g transform="translate(651.1330581782386, 623.1769725913182)">
          <path d="M0 49.37951699630358 V-45.08564595314674" stroke="#8CF8FF99" stroke-width="5" stroke-linecap="round"/>
          <path d="M0 -21.469355215784162 L-23.61629073736258 6.440806564735248 M0 -21.469355215784162 L23.61629073736258 6.440806564735248 M0 -4.293871043156833 L-30.05709730209783 19.322419694205745 M0 -4.293871043156833 L30.05709730209783 19.322419694205745" stroke="#00F2FFc7" stroke-width="4" stroke-linecap="round"/>
          <circle cx="0" cy="-32.20403282367624" r="8.587742086313666" fill="#00F2FFc7"/>
        </g>
      
        <g transform="translate(938.3195661334321, 462.2143270634115)">
          <rect x="-33.490344043076036" y="-52.32866256730631" width="66.98068808615207" height="104.65732513461262" rx="8.372586010769009" fill="#00F2FFc7" stroke="#8CF8FF99" stroke-width="3"/>
          <rect x="-23.024611529614777" y="-33.490344043076036" width="46.049223059229554" height="11.512305764807389" rx="4" fill="#03101de6"/>
          <rect x="-23.024611529614777" y="-6.279439508076757" width="46.049223059229554" height="11.512305764807389" rx="4" fill="#03101de6"/>
          <rect x="-23.024611529614777" y="20.931465026922524" width="46.049223059229554" height="11.512305764807389" rx="4" fill="#03101de6"/>
        </g>
      
        <g transform="translate(1259.06902667135, 621.5818376187235)">
          <path d="M-28.381879149433228 -18.245493738921358 L18.245493738921358 -32.43643331363797 V32.43643331363797 L-28.381879149433228 18.245493738921358 Z" fill="#00F2FFc7" stroke="#8CF8FF99" stroke-width="3"/>
          <path d="M26.354602067330852 -20.272770821023734 Q44.60009580625221 0 26.354602067330852 20.272770821023734" fill="none" stroke="#8CF8FF99" stroke-width="3"/>
        </g>
      
  </g>

  
    <g>
      <polyline points="0.0,617.9 160.0,589.3 320.0,572.5 480.0,554.1 640.0,528.1 800.0,509.9 960.0,480.9 1120.0,461.1 1280.0,427.6 1440.0,403.5 1600.0,377.8" fill="none" stroke="#8CF8FFe0" stroke-width="6" stroke-linecap="round" stroke-linejoin="round"/>
      <polygon points="0,900 0.0,617.9 160.0,589.3 320.0,572.5 480.0,554.1 640.0,528.1 800.0,509.9 960.0,480.9 1120.0,461.1 1280.0,427.6 1440.0,403.5 1600.0,377.8 1600,900" fill="#00F2FF1f"/>
    </g>
  

  <g opacity="0.09">
    <text x="70" y="784" font-family="Segoe UI, Arial, sans-serif" font-size="180" font-weight="700" fill="#8CF8FF">
      INTC
    </text>
  </g>
  <g opacity="0.95">
    <text x="82" y="96" font-family="Segoe UI, Arial, sans-serif" font-size="28" font-weight="700" fill="#8CF8FF">
      INTC
    </text>
    <text x="82" y="132" font-family="Segoe UI, Arial, sans-serif" font-size="18" font-weight="500" fill="#89C2FFe6">
      Intel · 數位冰原
    </text>
  </g>
</svg>