<svg xmlns="http://www.w3.org/2000/svg" viewBox="0 0 1600 900" fill="none">
  <defs>
    <linearGradient id="bg" x1="0" y1="0" x2="0" y2="1">
      <stop offset="0%" stop-color="#071224"/>
      <stop offset="48%" stop-color="#10284a"/>
      <stop offset="100%" stop-color="#08111d"/>
    </linearGradient>
    <radialGradient id="glow" cx="50%" cy="25%" r="65%">
      <stop offset="0%" stop-color="#FFE99A47"/>
      <stop offset="100%" stop-color="#FFE99A00"/>
    </radialGradient>
    <linearGradient id="fade" x1="0" y1="0" x2="1" y2="1">
      <stop offset="0%" stop-color="#FFD7002e"/>
      <stop offset="100%" stop-color="#9DB4D808"/>
    </linearGradient>
  </defs>

  <rect width="1600" height="900" fill="url(#bg)"/>
  <rect width="1600" height="900" fill="url(#glow)"/>
  <rect width="1600" height="900" fill="url(#fade)"/>

  
        <g>
          <rect x="16.763385261408985" y="347.084783394821" width="126.31378460675478" height="172.915216605179" rx="8" fill="#9DB4D847"/><rect x="135.11191440280527" y="269.8747044475749" width="73.54573346674442" height="250.1252955524251" rx="8" fill="#9DB4D837"/><rect x="250.31412015203387" y="196.8656235607341" width="96.11820741090924" height="323.1343764392659" rx="8" fill="#9DB4D83c"/><rect x="392.1085627488792" y="144.51445121783763" width="71.58051039557904" height="375.48554878216237" rx="8" fill="#9DB4D82a"/><rect x="488.9128205962479" y="240.56345178280026" width="129.95768907479942" height="279.43654821719974" rx="8" fill="#9DB4D83f"/><rect x="628.6900448128581" y="277.3277248814702" width="97.88906156551093" height="242.6722751185298" rx="8" fill="#9DB4D839"/><rect x="729.2911864612252" y="158.41797354631126" width="100.1376148685813" height="361.58202645368874" rx="8" fill="#9DB4D83a"/><rect x="873.5447326982394" y="304.909391105175" width="111.78568762727082" height="215.09060889482498" rx="8" fill="#9DB4D82b"/><rect x="988.840260302648" y="224.3067606817931" width="99.6685142815113" height="295.6932393182069" rx="8" fill="#9DB4D844"/><rect x="1111.5676005687565" y="244.97040954884142" width="112.08257044665515" height="275.0295904511586" rx="8" fill="#9DB4D831"/><rect x="1235.021673683077" y="107.85178955644369" width="98.02860010880977" height="412.1482104435563" rx="8" fill="#9DB4D839"/><rect x="1344.9774673925713" y="260.1838515745476" width="78.78335836343467" height="259.8161484254524" rx="8" fill="#9DB4D837"/><rect x="1462.004569189623" y="243.95600767806172" width="119.70827442128211" height="276.0439923219383" rx="8" fill="#9DB4D844"/><rect x="1565.6743595441803" y="271.7570294905454" width="113.14073012210429" height="248.2429705094546" rx="8" fill="#9DB4D83d"/>
          <circle cx="1015.9854933619499" cy="84.41536221653223" r="2.985678068734705" fill="#FFFFFFba"/><circle cx="38.29229511320591" cy="315.253268298693" r="1.62241832036525" fill="#FFFFFF9a"/><circle cx="1081.8479157984257" cy="846.2294361088425" r="2.3331629710271953" fill="#FFFFFF96"/><circle cx="1057.3521271348" cy="866.2725229281932" r="3.215446879342198" fill="#FFFFFF90"/><circle cx="830.3441811352968" cy="360.7849653577432" r="1.6596640491858126" fill="#FFFFFFb9"/><circle cx="1364.056497439742" cy="280.16204342711717" r="1.1118667673319578" fill="#FFFFFF9e"/><circle cx="1143.8295748084784" cy="753.8359028985724" r="2.3378490824252367" fill="#FFFFFF9c"/><circle cx="548.6808829009533" cy="852.1227010991424" r="2.2955850981175896" fill="#FFFFFF9a"/><circle cx="1523.0825174599886" cy="397.4966030102223" r="1.4019880048930644" fill="#FFFFFFa3"/><circle cx="1424.7578904032707" cy="849.3356072343886" r="1.7371255123987792" fill="#FFFFFFb1"/><circle cx="245.31537145376205" cy="338.616894884035" r="1.422589866258204" fill="#FFFFFF9a"/><circle cx="39.28160071372986" cy="803.7115181330591" r="1.5658050118014217" fill="#FFFFFFc4"/><circle cx="1217.6172893494368" cy="412.05170662142336" r="2.2163191352039577" fill="#FFFFFFc6"/><circle cx="282.618360593915" cy="468.5589514207095" r="1.1984121002256871" fill="#FFFFFFc0"/><circle cx="392.2815393656492" cy="339.6596533013508" r="2.3186122061684724" fill="#FFFFFFae"/><circle cx="1325.5155060440302" cy="464.35400939080864" r="2.2240875294432043" fill="#FFFFFFc5"/><circle cx="27.581312507390976" cy="204.12793457508087" r="1.5107246963307261" fill="#FFFFFF9f"/><circle cx="109.68204662203789" cy="338.3505682926625" r="2.7230517394840716" fill="#FFFFFFb1"/><circle cx="946.815912052989" cy="240.2435059659183" r="2.8997084977105256" fill="#FFFFFFb5"/><circle cx="381.9915734231472" cy="698.4246983891353" r="1.737905286438763" fill="#FFFFFFbd"/><circle cx="832.6976634562016" cy="191.93059201352298" r="2.4574529375880956" fill="#FFFFFF91"/><circle cx="1233.5962563753128" cy="249.28157574031502" r="1.3872210260480642" fill="#FFFFFF90"/><circle cx="1124.568723142147" cy="828.3446076326072" r="1.1982339434325695" fill="#FFFFFFb3"/><circle cx="231.91835954785347" cy="254.0510728955269" r="2.841983764991164" fill="#FFFFFF9c"/><circle cx="745.8566799759865" cy="715.156967821531" r="2.725434857048094" fill="#FFFFFFaa"/><circle cx="1009.3354094773531" cy="640.4527185251936" r="1.139587201923132" fill="#FFFFFFb9"/><circle cx="235.86534708738327" cy="275.30592412222177" r="2.6653858348727226" fill="#FFFFFFbc"/><circle cx="380.4571472108364" cy="878.6437101429328" r="2.828372393548489" fill="#FFFFFFc0"/><circle cx="1562.5520169734955" cy="150.2776751294732" r="3.0671949911862613" fill="#FFFFFFb9"/><circle cx="473.536691814661" cy="877.8555023716763" r="1.5769836235791446" fill="#FFFFFFa0"/><circle cx="505.16796335577965" cy="811.8655640864745" r="2.9518312726169826" fill="#FFFFFF9b"/><circle cx="481.8743575364351" cy="144.2327544791624" r="3.3598443979397414" fill="#FFFFFF9d"/><circle cx="651.8990747630596" cy="349.0074564004317" r="2.8316596323624252" fill="#FFFFFFc9"/><circle cx="36.495865881443024" cy="68.95174286328256" r="2.0202173070982097" fill="#FFFFFFb1"/><circle cx="1013.837456330657" cy="212.8975277999416" r="1.0654803356155753" fill="#FFFFFF97"/><circle cx="338.43709751963615" cy="354.7662427648902" r="1.6768580991774797" fill="#FFFFFF91"/><circle cx="752.5493957102299" cy="596.1555337300524" r="2.8900208046659825" fill="#FFFFFFbe"/><circle cx="1309.784559533" cy="213.82579465862364" r="2.721400150284171" fill="#FFFFFFae"/><circle cx="1135.9666522592306" cy="203.6532298894599" r="2.5699580941349267" fill="#FFFFFFcb"/><circle cx="676.678678765893" cy="108.68369161617011" r="1.7435298837721347" fill="#FFFFFFc9"/><circle cx="14.209436625242233" cy="263.04091927595437" r="1.885118470713496" fill="#FFFFFF94"/><circle cx="997.7293327450752" cy="365.4814729001373" r="2.9399012511596085" fill="#FFFFFFcc"/><circle cx="1490.667974948883" cy="38.2535490905866" r="1.548872721940279" fill="#FFFFFF96"/><circle cx="877.6868544518948" cy="18.679486541077495" r="2.577585970796645" fill="#FFFFFF9e"/><circle cx="1488.2309343665838" cy="804.9445126438513" r="2.772422633320093" fill="#FFFFFFb5"/><circle cx="156.79864771664143" cy="185.0280802929774" r="2.358872870914638" fill="#FFFFFF99"/><circle cx="83.76825489103794" cy="330.92542060185224" r="2.235059709474444" fill="#FFFFFFcc"/><circle cx="936.7336638271809" cy="648.9151831017807" r="2.241268905997276" fill="#FFFFFFc1"/><circle cx="85.02208851277828" cy="194.50862486846745" r="2.001058886013925" fill="#FFFFFFc2"/><circle cx="1033.067625761032" cy="241.31549585144967" r="2.3368525613099336" fill="#FFFFFFc8"/><circle cx="873.0257384479046" cy="606.8622287828475" r="1.2965825019404291" fill="#FFFFFF8f"/><circle cx="1459.3626823276281" cy="495.42023472022265" r="1.8002206176519393" fill="#FFFFFF9b"/><circle cx="1520.1570764183998" cy="828.0640471028164" r="2.1742458850145336" fill="#FFFFFF92"/><circle cx="53.684115782380104" cy="95.29785406775773" r="1.0953481009230017" fill="#FFFFFFa7"/><circle cx="1245.7307260483503" cy="99.16765387170017" r="3.1184266189113257" fill="#FFFFFF8d"/><circle cx="513.9581922441721" cy="11.45674001891166" r="3.074432506971061" fill="#FFFFFFb5"/><circle cx="532.7584508806467" cy="184.75526422262192" r="3.3756793603301047" fill="#FFFFFF99"/><circle cx="942.2744635492563" cy="689.9768786737695" r="1.0684246947988867" fill="#FFFFFFc7"/><circle cx="1049.5704490691423" cy="130.80673618242145" r="2.0293116647750136" fill="#FFFFFF9a"/><circle cx="37.06763796508312" cy="705.1201477646828" r="2.263653840124607" fill="#FFFFFF90"/>
        </g>
      

  <g opacity="0.92">
    
        <g transform="translate(258.6758909514174, 438.6322831828147)">
          <circle r="48.005208064839245" fill="#FFD700c7" stroke="#FFE99A99" stroke-width="4"/>
          <circle r="26.18465894445777" fill="none" stroke="#030913e6" stroke-width="3"/>
        </g>
      
        <g transform="translate(595.6718049291521, 590.7598943635821)">
          <rect x="-14.273308572396637" y="-41.035762145640334" width="28.546617144793274" height="82.07152429128067" rx="6" fill="#FFD700c7" stroke="#FFE99A99" stroke-width="3"/>
          <rect x="-24.978290001694116" y="-48.17241643183865" width="49.95658000338823" height="10.704981429297476" rx="6" fill="#030913e6"/>
          <rect x="-24.978290001694116" y="37.467435002541166" width="49.95658000338823" height="10.704981429297476" rx="6" fill="#030913e6"/>
        </g>
      
        <g transform="translate(966.9368763780221, 421.505705290474)">
          <circle r="43.67865889716894" fill="#FFD700c7" stroke="#FFE99A99" stroke-width="4"/>
          <circle r="9.495360629819334" fill="#030913e6"/>
          <path d="M0 -30.385154015421868 L0 30.385154015421868 M-30.385154015421868 0 L30.385154015421868 0" stroke="#030913e6" stroke-width="4"/>
        </g>
      
        <g transform="translate(1249.4537626300007, 601.1479043727741)">
          <path d="M0 -43.63784935894422 L31.16989239924587 -24.935913919396697 V10.389964133081959 Q31.16989239924587 35.32587805247866 0 47.793835012177006 Q-31.16989239924587 35.32587805247866 -31.16989239924587 10.389964133081959 V-24.935913919396697 Z" fill="#FFD700c7" stroke="#FFE99A99" stroke-width="3"/>
          <path d="M0 -18.701935439547523 V18.701935439547523" stroke="#030913e6" stroke-width="3"/>
        </g>
      
  </g>

  
    <g>
      <polyline points="0.0,653.1 160.0,676.4 320.0,662.7 480.0,651.6 640.0,632.6 800.0,621.5 960.0,615.5 1120.0,613.2 1280.0,625.1 1440.0,622.0 1600.0,617.3" fill="none" stroke="#FFE99Ae0" stroke-width="6" stroke-linecap="round" stroke-linejoin="round"/>
      <polygon points="0,900 0.0,653.1 160.0,676.4 320.0,662.7 480.0,651.6 640.0,632.6 800.0,621.5 960.0,615.5 1120.0,613.2 1280.0,625.1 1440.0,622.0 1600.0,617.3 1600,900" fill="#FFD7001f"/>
    </g>
  

  <g opacity="0.09">
    <text x="70" y="784" font-family="Segoe UI, Arial, sans-serif" font-size="180" font-weight="700" fill="#FFE99A">
      JPM
    </text>
  </g>
  <g opacity="0.95">
    <text x="82" y="96" font-family="Segoe UI, Arial, sans-serif" font-size="28" font-weight="700" fill="#FFE99A">
      JPM
    </text>
    <text x="82" y="132" font-family="Segoe UI, Arial, sans-serif" font-size="18" font-weight="500" fill="#9DB4D8e6">
      JPMorgan · 摩天雪都
    </text>
  </g>
</svg>