<svg xmlns="http://www.w3.org/2000/svg" viewBox="0 0 1600 900" fill="none">
  <defs>
    <linearGradient id="bg" x1="0" y1="0" x2="0" y2="1">
      <stop offset="0%" stop-color="#0a1220"/>
      <stop offset="48%" stop-color="#2c3f56"/>
      <stop offset="100%" stop-color="#0a1118"/>
    </linearGradient>
    <radialGradient id="glow" cx="50%" cy="25%" r="65%">
      <stop offset="0%" stop-color="#E0F2FE47"/>
      <stop offset="100%" stop-color="#E0F2FE00"/>
    </radialGradient>
    <linearGradient id="fade" x1="0" y1="0" x2="1" y2="1">
      <stop offset="0%" stop-color="#93C5FD2e"/>
      <stop offset="100%" stop-color="#CBD5E108"/>
    </linearGradient>
  </defs>

  <rect width="1600" height="900" fill="url(#bg)"/>
  <rect width="1600" height="900" fill="url(#glow)"/>
  <rect width="1600" height="900" fill="url(#fade)"/>

  
        <g>
          <path d="M-40 140 L1640 20" stroke="#93C5FD24" stroke-width="4"/><path d="M-40 182 L1640 62" stroke="#93C5FD26" stroke-width="5"/><path d="M-40 224 L1640 104" stroke="#93C5FD29" stroke-width="6"/><path d="M-40 266 L1640 146" stroke="#93C5FD2b" stroke-width="4"/><path d="M-40 308 L1640 188" stroke="#93C5FD2e" stroke-width="5"/><path d="M-40 350 L1640 230" stroke="#93C5FD30" stroke-width="6"/><path d="M-40 392 L1640 272" stroke="#93C5FD33" stroke-width="4"/><path d="M-40 434 L1640 314" stroke="#93C5FD36" stroke-width="5"/><path d="M-40 476 L1640 356" stroke="#93C5FD38" stroke-width="6"/><path d="M-40 518 L1640 398" stroke="#93C5FD3b" stroke-width="4"/><path d="M-40 560 L1640 440" stroke="#93C5FD3d" stroke-width="5"/><path d="M-40 602 L1640 482" stroke="#93C5FD40" stroke-width="6"/>
          <path d="M0 540 Q800 400, 1600 540" stroke="#CBD5E129" stroke-width="3" fill="none"/><path d="M0 586 Q800 446, 1600 586" stroke="#CBD5E129" stroke-width="3" fill="none"/><path d="M0 632 Q800 492, 1600 632" stroke="#CBD5E129" stroke-width="3" fill="none"/><path d="M0 678 Q800 538, 1600 678" stroke="#CBD5E129" stroke-width="3" fill="none"/>
        </g>
      

  <g opacity="0.92">
    
        <g transform="translate(300.46714826021343, 428.3731889957562)">
          <path d="M-36.64049492067657 0 Q-5.785341303264722 -26.998259415235374 36.64049492067657 0 Q-5.785341303264722 26.998259415235374 -36.64049492067657 0 Z" fill="#93C5FDc7" stroke="#E0F2FE99" stroke-width="3"/>
          <circle cx="15.427576808705926" cy="0" r="7.713788404352963" fill="#060a10e6"/>
        </g>
      
        <g transform="translate(593.9468103507534, 615.9964530915022)">
          <ellipse rx="32.56470646066591" ry="15.425387270841746" fill="#93C5FDc7" stroke="#E0F2FE99" stroke-width="3"/>
          <path d="M-15.425387270841746 13.711455351859332 Q0 35.992570298630746 15.425387270841746 13.711455351859332" stroke="#E0F2FE99" stroke-width="4" fill="none"/>
        </g>
      
        <g transform="translate(945.5108655476943, 436.1975180078298)">
          <circle r="34.04533486571163" fill="#060a10e6" stroke="#E0F2FE99" stroke-width="4"/>
          <circle r="15.320400689570233" fill="#93C5FDc7"/>
        </g>
      
        <g transform="translate(1254.0652784658596, 611.0703009879217)">
          <path d="M-45.558389544487 10.354179441928864 Q-8.28334355354309 -35.204210102558136 43.48755365610123 -8.28334355354309" stroke="#E0F2FE99" stroke-width="6" fill="none" stroke-linecap="round"/>
          <path d="M24.850030660629272 -16.56668710708618 L43.48755365610123 -8.28334355354309 L28.99170243740082 6.212507665157318" fill="#93C5FDc7"/>
        </g>
      
  </g>

  
    <g>
      <polyline points="0.0,603.9 160.0,579.3 320.0,554.2 480.0,540.9 640.0,503.7 800.0,488.5 960.0,473.5 1120.0,452.3 1280.0,428.3 1440.0,408.9 1600.0,390.1" fill="none" stroke="#E0F2FEe0" stroke-width="6" stroke-linecap="round" stroke-linejoin="round"/>
      <polygon points="0,900 0.0,603.9 160.0,579.3 320.0,554.2 480.0,540.9 640.0,503.7 800.0,488.5 960.0,473.5 1120.0,452.3 1280.0,428.3 1440.0,408.9 1600.0,390.1 1600,900" fill="#93C5FD1f"/>
    </g>
  

  <g opacity="0.09">
    <text x="70" y="784" font-family="Segoe UI, Arial, sans-serif" font-size="180" font-weight="700" fill="#E0F2FE">
      LCID
    </text>
  </g>
  <g opacity="0.95">
    <text x="82" y="96" font-family="Segoe UI, Arial, sans-serif" font-size="28" font-weight="700" fill="#E0F2FE">
      LCID
    </text>
    <text x="82" y="132" font-family="Segoe UI, Arial, sans-serif" font-size="18" font-weight="500" fill="#CBD5E1e6">
      Lucid Motors · 未來交通
    </text>
  </g>
</svg>