<svg xmlns="http://www.w3.org/2000/svg" viewBox="0 0 1600 900" fill="none">
  <defs>
    <linearGradient id="bg" x1="0" y1="0" x2="0" y2="1">
      <stop offset="0%" stop-color="#1d232a"/>
      <stop offset="48%" stop-color="#3d4651"/>
      <stop offset="100%" stop-color="#161b20"/>
    </linearGradient>
    <radialGradient id="glow" cx="50%" cy="25%" r="65%">
      <stop offset="0%" stop-color="#FDBA7447"/>
      <stop offset="100%" stop-color="#FDBA7400"/>
    </radialGradient>
    <linearGradient id="fade" x1="0" y1="0" x2="1" y2="1">
      <stop offset="0%" stop-color="#F973162e"/>
      <stop offset="100%" stop-color="#9CA3AF08"/>
    </linearGradient>
  </defs>

  <rect width="1600" height="900" fill="url(#bg)"/>
  <rect width="1600" height="900" fill="url(#glow)"/>
  <rect width="1600" height="900" fill="url(#fade)"/>

  
        <g>
          
              <rect x="47.45523972902447" y="318.1549126841128" width="92" height="301.8450873158872" rx="6" fill="#9CA3AF29"/>
              <line x1="57.45523972902447" y1="318.1549126841128" x2="127.45523972902447" y2="178.1549126841128" stroke="#F9731657" stroke-width="5"/>
              <line x1="127.45523972902447" y1="178.1549126841128" x2="173.45523972902447" y2="178.1549126841128" stroke="#F9731657" stroke-width="5"/>
            
              <rect x="184.55278657842427" y="317.90656292811036" width="92" height="302.09343707188964" rx="6" fill="#9CA3AF29"/>
              <line x1="194.55278657842427" y1="317.90656292811036" x2="264.5527865784243" y2="177.90656292811036" stroke="#F9731657" stroke-width="5"/>
              <line x1="264.5527865784243" y1="177.90656292811036" x2="310.5527865784243" y2="177.90656292811036" stroke="#F9731657" stroke-width="5"/>
            
              <rect x="336.064170319587" y="242.29902354534715" width="92" height="377.70097645465285" rx="6" fill="#9CA3AF29"/>
              <line x1="346.064170319587" y1="242.29902354534715" x2="416.064170319587" y2="102.29902354534715" stroke="#F9731657" stroke-width="5"/>
              <line x1="416.064170319587" y1="102.29902354534715" x2="462.064170319587" y2="102.29902354534715" stroke="#F9731657" stroke-width="5"/>
            
              <rect x="483.41042569372803" y="231.90203046891838" width="92" height="388.0979695310816" rx="6" fill="#9CA3AF29"/>
              <line x1="493.41042569372803" y1="231.90203046891838" x2="563.410425693728" y2="91.90203046891838" stroke="#F9731657" stroke-width="5"/>
              <line x1="563.410425693728" y1="91.90203046891838" x2="609.410425693728" y2="91.90203046891838" stroke="#F9731657" stroke-width="5"/>
            
              <rect x="632.0824032556266" y="333.6739498702809" width="92" height="286.3260501297191" rx="6" fill="#9CA3AF29"/>
              <line x1="642.0824032556266" y1="333.6739498702809" x2="712.0824032556266" y2="193.67394987028092" stroke="#F9731657" stroke-width="5"/>
              <line x1="712.0824032556266" y1="193.67394987028092" x2="758.0824032556266" y2="193.67394987028092" stroke="#F9731657" stroke-width="5"/>
            
              <rect x="786.7492299946025" y="354.226053240709" width="92" height="265.773946759291" rx="6" fill="#9CA3AF29"/>
              <line x1="796.7492299946025" y1="354.226053240709" x2="866.7492299946025" y2="214.226053240709" stroke="#F9731657" stroke-width="5"/>
              <line x1="866.7492299946025" y1="214.226053240709" x2="912.7492299946025" y2="214.226053240709" stroke="#F9731657" stroke-width="5"/>
            
              <rect x="940.3144091833383" y="364.79754069354385" width="92" height="255.20245930645615" rx="6" fill="#9CA3AF29"/>
              <line x1="950.3144091833383" y1="364.79754069354385" x2="1020.3144091833383" y2="224.79754069354385" stroke="#F9731657" stroke-width="5"/>
              <line x1="1020.3144091833383" y1="224.79754069354385" x2="1066.3144091833383" y2="224.79754069354385" stroke="#F9731657" stroke-width="5"/>
            
              <rect x="1085.792957637459" y="355.5905062519014" width="92" height="264.4094937480986" rx="6" fill="#9CA3AF29"/>
              <line x1="1095.792957637459" y1="355.5905062519014" x2="1165.792957637459" y2="215.5905062519014" stroke="#F9731657" stroke-width="5"/>
              <line x1="1165.792957637459" y1="215.5905062519014" x2="1211.792957637459" y2="215.5905062519014" stroke="#F9731657" stroke-width="5"/>
            
              <rect x="1239.2383607383817" y="289.7383574862033" width="92" height="330.2616425137967" rx="6" fill="#9CA3AF29"/>
              <line x1="1249.2383607383817" y1="289.7383574862033" x2="1319.2383607383817" y2="149.7383574862033" stroke="#F9731657" stroke-width="5"/>
              <line x1="1319.2383607383817" y1="149.7383574862033" x2="1365.2383607383817" y2="149.7383574862033" stroke="#F9731657" stroke-width="5"/>
            
              <rect x="1380.2970639336854" y="311.8598701339215" width="92" height="308.1401298660785" rx="6" fill="#9CA3AF29"/>
              <line x1="1390.2970639336854" y1="311.8598701339215" x2="1460.2970639336854" y2="171.8598701339215" stroke="#F9731657" stroke-width="5"/>
              <line x1="1460.2970639336854" y1="171.8598701339215" x2="1506.2970639336854" y2="171.8598701339215" stroke="#F9731657" stroke-width="5"/>
            
          <ellipse cx="1021.1211830377579" cy="239.72587577998638" rx="113.76245650928468" ry="40.21510697901249" fill="#FFFFFF0f"/><ellipse cx="1208.1383080221713" cy="241.1087390780449" rx="91.72242797445506" ry="37.215751592069864" fill="#FFFFFF0f"/><ellipse cx="293.1370686739683" cy="224.29049249738455" rx="140.93801672570407" ry="34.57614569738507" fill="#FFFFFF0f"/><ellipse cx="999.1168141365051" cy="191.0630064085126" rx="137.76485237292945" ry="34.87945741787553" fill="#FFFFFF0f"/><ellipse cx="1074.1782791912556" cy="228.3849150314927" rx="91.95793985389173" ry="38.985969576984644" fill="#FFFFFF0f"/><ellipse cx="399.6689071878791" cy="226.62278033792973" rx="118.64485935308039" ry="39.87726051360369" fill="#FFFFFF0f"/>
        </g>
      

  <g opacity="0.92">
    
        <g transform="translate(252.1164423553273, 472.5068232882768)">
          <path d="M-43.974245993457735 35.598199137561025 V-16.752093711793425 L-8.376046855896712 4.188023427948356 V-16.752093711793425 L25.12814056769013 4.188023427948356 V-31.410175709612666 H43.974245993457735 V35.598199137561025 Z" fill="#F97316c7" stroke="#FDBA7499" stroke-width="3"/>
        </g>
      
        <g transform="translate(572.8846758184955, 634.956594821997)">
          <rect x="-54.488377559930086" y="-54.488377559930086" width="108.97675511986017" height="108.97675511986017" rx="17.43628081917763" fill="#F97316c7" stroke="#FDBA7499" stroke-width="3"/>
          <rect x="-23.97488612636924" y="-23.97488612636924" width="47.94977225273848" height="47.94977225273848" rx="7.628372858390213" fill="#111317e6"/>
          <rect x="-45.77023715034127" y="-69.74512327671052" width="8.718140409588814" height="17.43628081917763" fill="#FDBA7499"/>
              <rect x="-45.77023715034127" y="52.30884245753288" width="8.718140409588814" height="17.43628081917763" fill="#FDBA7499"/><rect x="-15.256745716780422" y="-69.74512327671052" width="8.718140409588814" height="17.43628081917763" fill="#FDBA7499"/>
              <rect x="-15.256745716780422" y="52.30884245753288" width="8.718140409588814" height="17.43628081917763" fill="#FDBA7499"/><rect x="15.25674571678043" y="-69.74512327671052" width="8.718140409588814" height="17.43628081917763" fill="#FDBA7499"/>
              <rect x="15.25674571678043" y="52.30884245753288" width="8.718140409588814" height="17.43628081917763" fill="#FDBA7499"/><rect x="45.77023715034127" y="-69.74512327671052" width="8.718140409588814" height="17.43628081917763" fill="#FDBA7499"/>
              <rect x="45.77023715034127" y="52.30884245753288" width="8.718140409588814" height="17.43628081917763" fill="#FDBA7499"/>
        </g>
      
        <g transform="translate(977.7167767845094, 452.64325444120914)">
          <path d="M-45.26090500420891 36.63978024150245 V-17.242249525412916 L-8.621124762706458 4.310562381353229 V-17.242249525412916 L25.863374288119374 4.310562381353229 V-32.32921786014922 H45.26090500420891 V36.63978024150245 Z" fill="#F97316c7" stroke="#FDBA7499" stroke-width="3"/>
        </g>
      
        <g transform="translate(1274.3938475754112, 617.5206832680851)">
          <path d="M-28.222694767564537 -18.143160922005773 L18.143160922005773 -32.25450830578804 V32.25450830578804 L-28.222694767564537 18.143160922005773 Z" fill="#F97316c7" stroke="#FDBA7499" stroke-width="3"/>
          <path d="M26.206787998452782 -20.159067691117528 Q44.34994892045856 0 26.206787998452782 20.159067691117528" fill="none" stroke="#FDBA7499" stroke-width="3"/>
        </g>
      
  </g>

  
    <g>
      <polyline points="0.0,644.4 160.0,672.2 320.0,694.8 480.0,660.1 640.0,685.9 800.0,711.7 960.0,695.5 1120.0,730.0 1280.0,748.1 1440.0,726.5 1600.0,757.2" fill="none" stroke="#FDBA74e0" stroke-width="6" stroke-linecap="round" stroke-linejoin="round"/>
      <polygon points="0,900 0.0,644.4 160.0,672.2 320.0,694.8 480.0,660.1 640.0,685.9 800.0,711.7 960.0,695.5 1120.0,730.0 1280.0,748.1 1440.0,726.5 1600.0,757.2 1600,900" fill="#F973161f"/>
    </g>
  

  <g opacity="0.09">
    <text x="70" y="784" font-family="Segoe UI, Arial, sans-serif" font-size="180" font-weight="700" fill="#FDBA74">
      LRCX
    </text>
  </g>
  <g opacity="0.95">
    <text x="82" y="96" font-family="Segoe UI, Arial, sans-serif" font-size="28" font-weight="700" fill="#FDBA74">
      LRCX
    </text>
    <text x="82" y="132" font-family="Segoe UI, Arial, sans-serif" font-size="18" font-weight="500" fill="#9CA3AFe6">
      Lam Research · 鋼鐵峽谷
    </text>
  </g>
</svg>