<svg xmlns="http://www.w3.org/2000/svg" viewBox="0 0 1600 900" fill="none">
  <defs>
    <linearGradient id="bg" x1="0" y1="0" x2="0" y2="1">
      <stop offset="0%" stop-color="#071224"/>
      <stop offset="48%" stop-color="#10284a"/>
      <stop offset="100%" stop-color="#08111d"/>
    </linearGradient>
    <radialGradient id="glow" cx="50%" cy="25%" r="65%">
      <stop offset="0%" stop-color="#FFE99A47"/>
      <stop offset="100%" stop-color="#FFE99A00"/>
    </radialGradient>
    <linearGradient id="fade" x1="0" y1="0" x2="1" y2="1">
      <stop offset="0%" stop-color="#FFD7002e"/>
      <stop offset="100%" stop-color="#9DB4D808"/>
    </linearGradient>
  </defs>

  <rect width="1600" height="900" fill="url(#bg)"/>
  <rect width="1600" height="900" fill="url(#glow)"/>
  <rect width="1600" height="900" fill="url(#fade)"/>

  
        <g>
          <rect x="32.90564364474267" y="109.97636882588267" width="75.83603795152158" height="410.0236311741173" rx="8" fill="#9DB4D839"/><rect x="142.58988239988685" y="302.48099555727094" width="77.88872035685927" height="217.51900444272906" rx="8" fill="#9DB4D82a"/><rect x="252.0907784057781" y="325.17632253468037" width="100.42832201346755" height="194.82367746531963" rx="8" fill="#9DB4D840"/><rect x="390.69698650203645" y="323.3716624137014" width="76.14757767412812" height="196.62833758629858" rx="8" fill="#9DB4D82a"/><rect x="481.24524880293757" y="197.44667356368154" width="119.05239100102335" height="322.55332643631846" rx="8" fill="#9DB4D844"/><rect x="631.1601524334401" y="341.45778313744813" width="72.6600634958595" height="178.54221686255187" rx="8" fill="#9DB4D82b"/><rect x="750.5470265680924" y="329.84840428922325" width="103.95332454703748" height="190.15159571077675" rx="8" fill="#9DB4D830"/><rect x="843.7999855494127" y="194.42487504333258" width="110.28754119295627" height="325.5751249566674" rx="8" fill="#9DB4D83b"/><rect x="993.8118202490732" y="212.51247169449925" width="112.57316730450839" height="307.48752830550075" rx="8" fill="#9DB4D835"/><rect x="1101.5597406914458" y="292.6565912598744" width="86.31054312456399" height="227.3434087401256" rx="8" fill="#9DB4D847"/><rect x="1232.0865255687386" y="116.34140731301159" width="109.96226323768497" height="403.6585926869884" rx="8" fill="#9DB4D830"/><rect x="1339.5659092543647" y="325.38735115900636" width="109.98842990491539" height="194.61264884099364" rx="8" fill="#9DB4D829"/><rect x="1442.756086279638" y="201.8194371042773" width="107.39326245617121" height="318.1805628957227" rx="8" fill="#9DB4D834"/><rect x="1563.7485040174797" y="281.4849361265078" width="90.39803873747587" height="238.51506387349218" rx="8" fill="#9DB4D839"/>
          <circle cx="1027.9940739274025" cy="711.849850625731" r="1.703953457251191" fill="#FFFFFFb2"/><circle cx="1545.6205375492573" cy="86.19246231392026" r="3.2947136122733354" fill="#FFFFFFa5"/><circle cx="1136.7174476385117" cy="636.2542575923726" r="1.5236860562115906" fill="#FFFFFFc2"/><circle cx="228.00704166293144" cy="597.989927069284" r="2.575040845014155" fill="#FFFFFFc8"/><circle cx="1480.2064761519432" cy="668.4170512715355" r="2.7410574365407228" fill="#FFFFFF9b"/><circle cx="233.06192718446255" cy="350.8066847221926" r="2.594372912310064" fill="#FFFFFFb4"/><circle cx="1500.1054912805557" cy="625.7126927375793" r="2.184650906920433" fill="#FFFFFFa8"/><circle cx="1569.2930310964584" cy="52.50508300960064" r="2.484573669359088" fill="#FFFFFF92"/><circle cx="526.194542273879" cy="76.58365366514772" r="2.482758189924061" fill="#FFFFFF92"/><circle cx="1123.4126847237349" cy="135.02758936956525" r="1.0394957825541495" fill="#FFFFFFa1"/><circle cx="761.3561455160379" cy="183.37462793570012" r="1.456180876865983" fill="#FFFFFFab"/><circle cx="1246.538432314992" cy="260.18588736187667" r="1.5645546285435556" fill="#FFFFFFbd"/><circle cx="320.5762628465891" cy="65.67392020951957" r="1.4440365441143512" fill="#FFFFFFa7"/><circle cx="785.6384620070457" cy="517.2340924618766" r="3.136199093423784" fill="#FFFFFFc1"/><circle cx="633.7047856301069" cy="99.42291278857738" r="2.2178508358076217" fill="#FFFFFFa4"/><circle cx="1100.0014532357454" cy="656.7849511513487" r="2.467955876328051" fill="#FFFFFFb4"/><circle cx="382.43661038577557" cy="92.571457545273" r="3.139044201374054" fill="#FFFFFFb1"/><circle cx="1154.5089196413755" cy="844.3590776994824" r="2.9679006583988663" fill="#FFFFFFc8"/><circle cx="219.89145539700985" cy="732.4967890279368" r="1.482318397425115" fill="#FFFFFFb5"/><circle cx="263.44366259872913" cy="325.4007045412436" r="2.677825174294412" fill="#FFFFFFbe"/><circle cx="1384.0113773941994" cy="735.6429464416578" r="2.3537580922245978" fill="#FFFFFFc8"/><circle cx="64.21390883624554" cy="326.1062424397096" r="2.2028270550072193" fill="#FFFFFFb9"/><circle cx="1395.322037115693" cy="588.8891365611926" r="1.6563149496912954" fill="#FFFFFFc0"/><circle cx="1461.1752480268478" cy="241.06930259149522" r="1.497404176928103" fill="#FFFFFFa0"/><circle cx="1097.9732185602188" cy="559.3831872101873" r="2.8125272035598754" fill="#FFFFFFa1"/><circle cx="1417.8855400532484" cy="143.96202466450632" r="3.193595406413078" fill="#FFFFFF99"/><circle cx="633.7725196033716" cy="493.4944499284029" r="2.4169249890372155" fill="#FFFFFF94"/><circle cx="546.2281808257103" cy="635.8092768117785" r="3.119472684338689" fill="#FFFFFF96"/><circle cx="1142.997794598341" cy="724.0878841839731" r="1.6706965632736681" fill="#FFFFFF8f"/><circle cx="1010.4671102017164" cy="126.82476828340441" r="1.5341618157923222" fill="#FFFFFF9b"/><circle cx="595.8763632923365" cy="520.2361601404846" r="3.091399782896042" fill="#FFFFFF99"/><circle cx="111.93546280264854" cy="879.7011806862429" r="1.3233080789446832" fill="#FFFFFFc0"/><circle cx="1019.109819829464" cy="289.5477392245084" r="1.9309046866372226" fill="#FFFFFFa9"/><circle cx="1502.912389114499" cy="170.26484040543437" r="1.9786893332377076" fill="#FFFFFFc4"/><circle cx="975.2493385225534" cy="547.2404801985249" r="2.8295971013605596" fill="#FFFFFFa6"/><circle cx="1157.5429797172546" cy="345.47462628688663" r="2.1899129785597324" fill="#FFFFFFa7"/><circle cx="1413.424652069807" cy="397.93936908245087" r="2.5407724156975746" fill="#FFFFFF94"/><circle cx="77.95041240751743" cy="203.83171413559467" r="2.191096155159175" fill="#FFFFFF9a"/><circle cx="1386.3573107868433" cy="258.1272447947413" r="2.9530137892812487" fill="#FFFFFFa8"/><circle cx="486.7867227643728" cy="162.81725917942822" r="1.1573683053255082" fill="#FFFFFFb7"/><circle cx="150.93507543206215" cy="348.1103174155578" r="2.440696907415986" fill="#FFFFFFb9"/><circle cx="1121.6243613511324" cy="848.5698820324615" r="3.288596935197711" fill="#FFFFFF98"/><circle cx="1089.3454041332006" cy="796.3208737084642" r="1.4017756158486008" fill="#FFFFFFcc"/><circle cx="1156.465869769454" cy="205.19772672560066" r="1.161010067909956" fill="#FFFFFF9a"/><circle cx="20.59195190668106" cy="393.08906241785735" r="1.4107419483363628" fill="#FFFFFFbe"/><circle cx="118.58038641512394" cy="720.8127420628443" r="2.81453009955585" fill="#FFFFFF98"/><circle cx="829.8568613827229" cy="471.4880743296817" r="2.6648981947451826" fill="#FFFFFF90"/><circle cx="647.837458178401" cy="108.70456527918577" r="2.2709291275590657" fill="#FFFFFFc5"/><circle cx="1259.3262981623411" cy="59.24922893755138" r="3.1355224419385195" fill="#FFFFFFa1"/><circle cx="349.28301982581615" cy="720.5430023605004" r="3.271017588675022" fill="#FFFFFFb0"/><circle cx="1263.389129191637" cy="576.903518778272" r="1.847411630488932" fill="#FFFFFF90"/><circle cx="179.08746786415577" cy="101.64024699479342" r="2.1468684094026687" fill="#FFFFFFb4"/><circle cx="851.2128204107285" cy="352.3353106342256" r="2.9723463114351034" fill="#FFFFFFac"/><circle cx="540.658425912261" cy="113.21496984455734" r="3.168057939596474" fill="#FFFFFFb1"/><circle cx="1564.4819013774395" cy="313.50293015129864" r="1.3304944053292274" fill="#FFFFFF8d"/><circle cx="91.43294915556908" cy="400.12567976955324" r="1.40216990057379" fill="#FFFFFFb7"/><circle cx="51.31539814174175" cy="757.9048399580643" r="1.2183420257642865" fill="#FFFFFFaf"/><circle cx="1554.6302147209644" cy="194.0214856294915" r="1.3885091837495565" fill="#FFFFFFca"/><circle cx="991.3331069052219" cy="467.36378862988204" r="2.626794252358377" fill="#FFFFFFb8"/><circle cx="369.7861898690462" cy="542.268120450899" r="2.02752875238657" fill="#FFFFFF99"/>
        </g>
      

  <g opacity="0.92">
    
        <g transform="translate(266.42669178545475, 428.05623786058277)">
          <circle r="41.144784080516544" fill="#FFD700c7" stroke="#FFE99A99" stroke-width="4"/>
          <circle r="22.442609498463572" fill="none" stroke="#030913e6" stroke-width="3"/>
        </g>
      
        <g transform="translate(637.7469104295596, 591.9255598820746)">
          <path d="M-25.41766097020358 -16.339924909416585 L16.339924909416585 -29.048755394518377 V29.048755394518377 L-25.41766097020358 16.339924909416585 Z" fill="#FFD700c7" stroke="#FFE99A99" stroke-width="3"/>
          <path d="M23.60211375804618 -18.155472121573986 Q39.94203866746277 0 23.60211375804618 18.155472121573986" fill="none" stroke="#FFE99A99" stroke-width="3"/>
        </g>
      
        <g transform="translate(977.9422449041158, 478.33714383188635)">
          <path d="M0 -45.19836686010472 L32.28454775721766 -25.82763820577413 V10.761515919072554 Q32.28454775721766 36.58915412484669 0 49.50297322773375 Q-32.28454775721766 36.58915412484669 -32.28454775721766 10.761515919072554 V-25.82763820577413 Z" fill="#FFD700c7" stroke="#FFE99A99" stroke-width="3"/>
          <path d="M0 -19.370728654330595 V19.370728654330595" stroke="#030913e6" stroke-width="3"/>
        </g>
      
        <g transform="translate(1211.4677749481052, 594.4518231134862)">
          <path d="M-38.71837419079617 8.79963049790822 Q-7.039704398326576 -29.91874369288795 36.95844809121452 -7.039704398326576" stroke="#FFE99A99" stroke-width="6" fill="none" stroke-linecap="round"/>
          <path d="M21.119113194979725 -14.079408796653151 L36.95844809121452 -7.039704398326576 L24.638965394143018 5.279778298744931" fill="#FFD700c7"/>
        </g>
      
  </g>

  
    <g>
      <polyline points="0.0,613.9 160.0,595.4 320.0,582.6 480.0,546.1 640.0,520.3 800.0,503.2 960.0,483.8 1120.0,460.7 1280.0,439.7 1440.0,413.7 1600.0,388.4" fill="none" stroke="#FFE99Ae0" stroke-width="6" stroke-linecap="round" stroke-linejoin="round"/>
      <polygon points="0,900 0.0,613.9 160.0,595.4 320.0,582.6 480.0,546.1 640.0,520.3 800.0,503.2 960.0,483.8 1120.0,460.7 1280.0,439.7 1440.0,413.7 1600.0,388.4 1600,900" fill="#FFD7001f"/>
    </g>
  

  <g opacity="0.09">
    <text x="70" y="784" font-family="Segoe UI, Arial, sans-serif" font-size="180" font-weight="700" fill="#FFE99A">
      MA
    </text>
  </g>
  <g opacity="0.95">
    <text x="82" y="96" font-family="Segoe UI, Arial, sans-serif" font-size="28" font-weight="700" fill="#FFE99A">
      MA
    </text>
    <text x="82" y="132" font-family="Segoe UI, Arial, sans-serif" font-size="18" font-weight="500" fill="#9DB4D8e6">
      Mastercard · 摩天雪都
    </text>
  </g>
</svg>