<svg xmlns="http://www.w3.org/2000/svg" viewBox="0 0 1600 900" fill="none">
  <defs>
    <linearGradient id="bg" x1="0" y1="0" x2="0" y2="1">
      <stop offset="0%" stop-color="#08142a"/>
      <stop offset="48%" stop-color="#14406b"/>
      <stop offset="100%" stop-color="#0b1b33"/>
    </linearGradient>
    <radialGradient id="glow" cx="50%" cy="25%" r="65%">
      <stop offset="0%" stop-color="#CFFAFE47"/>
      <stop offset="100%" stop-color="#CFFAFE00"/>
    </radialGradient>
    <linearGradient id="fade" x1="0" y1="0" x2="1" y2="1">
      <stop offset="0%" stop-color="#7DD3FC2e"/>
      <stop offset="100%" stop-color="#E0F2FE08"/>
    </linearGradient>
  </defs>

  <rect width="1600" height="900" fill="url(#bg)"/>
  <rect width="1600" height="900" fill="url(#glow)"/>
  <rect width="1600" height="900" fill="url(#fade)"/>

  
        <g>
          
              <ellipse cx="208.78198527731" cy="303.0846316181123" rx="176.3540166253224" ry="60.9222966523841" fill="#CFFAFE2b"/>
              <ellipse cx="96.55670197028667" cy="319.1168149476871" rx="112.22528330702335" ry="41.683676656894384" fill="#E0F2FE24"/>
              <ellipse cx="321.00726858433336" cy="325.529688279517" rx="128.2574666365981" ry="44.890113322809334" fill="#E0F2FE1c"/>
            
              <ellipse cx="145.06900949869305" cy="129.1395810805261" rx="168.67177338618788" ry="58.26843080613763" fill="#CFFAFE2b"/>
              <ellipse cx="37.73242643475531" cy="144.47337866108865" rx="107.33658306393774" ry="39.867873709462586" fill="#E0F2FE24"/>
              <ellipse cx="252.40559256263077" cy="150.60689769331367" rx="122.67038064450027" ry="42.9346332255751" fill="#E0F2FE1c"/>
            
              <ellipse cx="64.45403773337603" cy="155.71769820526242" rx="179.32426688447595" ry="61.948383105546235" fill="#CFFAFE2b"/>
              <ellipse cx="-49.6614048294723" cy="172.01990428566933" rx="114.11544256284833" ry="42.385735809057955" fill="#E0F2FE24"/>
              <ellipse cx="178.56948029622436" cy="178.54078671783208" rx="130.41764864325523" ry="45.64617702513933" fill="#E0F2FE1c"/>
            
              <ellipse cx="550.3785657696426" cy="183.2411091774702" rx="202.0823917556554" ry="69.81028078831733" fill="#CFFAFE2b"/>
              <ellipse cx="421.7806801069528" cy="201.6122357007116" rx="128.5978856626898" ry="47.764928960427646" fill="#E0F2FE24"/>
              <ellipse cx="678.9764514323324" cy="208.96068631000816" rx="146.9690121859312" ry="51.43915426507592" fill="#E0F2FE1c"/>
            
              <ellipse cx="496.6891589574516" cy="238.17966652102768" rx="204.20835992880166" ry="70.5447061572224" fill="#CFFAFE2b"/>
              <ellipse cx="366.7383844573051" cy="256.74406287819147" rx="129.9507745001465" ry="48.267430528625844" fill="#E0F2FE24"/>
              <ellipse cx="626.6399334575981" cy="264.169821421057" rx="148.5151708573103" ry="51.9803098000586" fill="#E0F2FE1c"/>
            
              <ellipse cx="1194.5349881239235" cy="373.4604569990188" rx="173.44325640704483" ry="59.91676130425185" fill="#CFFAFE2b"/>
              <ellipse cx="1084.162006773986" cy="389.2280257632956" rx="110.37298134993762" ry="40.99567878711969" fill="#E0F2FE24"/>
              <ellipse cx="1304.9079694738612" cy="395.5350532690063" rx="126.14055011421442" ry="44.14919253997505" fill="#E0F2FE1c"/>
            
              <ellipse cx="1191.8963260995224" cy="392.5070317927748" rx="105.71589574124665" ry="36.52003671061248" fill="#CFFAFE2b"/>
              <ellipse cx="1124.6225742641836" cy="402.11756776925176" rx="67.27375183533877" ry="24.987393538840116" fill="#E0F2FE24"/>
              <ellipse cx="1259.1700779348612" cy="405.9617821598425" rx="76.88428781181574" ry="26.909500734135513" fill="#E0F2FE1c"/>
            
              <ellipse cx="161.0493126930669" cy="284.34523357078433" rx="179.81425154209137" ry="62.11765053272247" fill="#CFFAFE2b"/>
              <ellipse cx="46.62206171173602" cy="300.69198371097445" rx="114.42725098133087" ry="42.50155036449433" fill="#E0F2FE24"/>
              <ellipse cx="275.47656367439777" cy="307.2306837670505" rx="130.774001121521" ry="45.77090039253235" fill="#E0F2FE1c"/>
            
              <ellipse cx="309.84968504402786" cy="135.3886118810624" rx="161.06086299847811" ry="55.63920721765607" fill="#CFFAFE2b"/>
              <ellipse cx="207.35640859045088" cy="150.03050851728767" rx="102.49327645357698" ry="38.068931254185735" fill="#E0F2FE24"/>
              <ellipse cx="412.34296149760485" cy="155.88726717177778" rx="117.13517308980227" ry="40.99731058143079" fill="#E0F2FE1c"/>
            
          <rect x="288.4781577438116" y="261.9007084425539" width="86.31481977831572" height="86.31481977831572" rx="8" fill="#7DD3FC1c" stroke="#CFFAFE2e"/><rect x="585.9297606907785" y="265.05119058303535" width="74.1374076642096" height="74.1374076642096" rx="8" fill="#7DD3FC1c" stroke="#CFFAFE2e"/><rect x="1059.288273025304" y="381.59084361977875" width="63.219687204808" height="63.219687204808" rx="8" fill="#7DD3FC1c" stroke="#CFFAFE2e"/><rect x="170.62520073726773" y="256.6734534688294" width="80.96948555391282" height="80.96948555391282" rx="8" fill="#7DD3FC1c" stroke="#CFFAFE2e"/><rect x="430.5350163951516" y="392.40052816458046" width="87.86687386408448" height="87.86687386408448" rx="8" fill="#7DD3FC1c" stroke="#CFFAFE2e"/><rect x="1338.4264204651117" y="298.09590741060674" width="49.93449276033789" height="49.93449276033789" rx="8" fill="#7DD3FC1c" stroke="#CFFAFE2e"/><rect x="1194.8981376364827" y="311.8505068309605" width="40.53063527867198" height="40.53063527867198" rx="8" fill="#7DD3FC1c" stroke="#CFFAFE2e"/><rect x="794.6925434283912" y="386.50035430677235" width="55.963426117785275" height="55.963426117785275" rx="8" fill="#7DD3FC1c" stroke="#CFFAFE2e"/><rect x="1403.2664781063795" y="346.3753048144281" width="57.769784533418715" height="57.769784533418715" rx="8" fill="#7DD3FC1c" stroke="#CFFAFE2e"/><rect x="202.8675127774477" y="269.6052996069193" width="46.891346380114555" height="46.891346380114555" rx="8" fill="#7DD3FC1c" stroke="#CFFAFE2e"/><rect x="920.6979360617697" y="402.0157666131854" width="28.367736974731088" height="28.367736974731088" rx="8" fill="#7DD3FC1c" stroke="#CFFAFE2e"/><rect x="553.7323457747698" y="337.04793252050877" width="59.836636113002896" height="59.836636113002896" rx="8" fill="#7DD3FC1c" stroke="#CFFAFE2e"/><rect x="1138.2759192958474" y="250.86701342836022" width="78.87366997264326" height="78.87366997264326" rx="8" fill="#7DD3FC1c" stroke="#CFFAFE2e"/><rect x="1341.4051411114633" y="386.20076161809266" width="35.922835974022746" height="35.922835974022746" rx="8" fill="#7DD3FC1c" stroke="#CFFAFE2e"/><rect x="126.86884438619018" y="525.9099984634668" width="64.88876323401928" height="64.88876323401928" rx="8" fill="#7DD3FC1c" stroke="#CFFAFE2e"/>
        </g>
      

  <g opacity="0.92">
    
        <g transform="translate(269.2855089670047, 456.5466988552362)">
          <rect x="-29.663861088538546" y="-29.663861088538546" width="59.32772217707709" height="59.32772217707709" rx="8.724665026040748" fill="#7DD3FCc7" stroke="#CFFAFE99" stroke-width="3"/>
          <path d="M-15.704397046873346 0 H15.704397046873346 M0 -15.704397046873346 V15.704397046873346" stroke="#06111fe6" stroke-width="3"/>
        </g>
      
        <g transform="translate(615.5427664099261, 618.6398365860805)">
          <rect x="-30.68617640499957" y="-30.68617640499957" width="61.37235280999914" height="61.37235280999914" rx="9.025346001470462" fill="#7DD3FCc7" stroke="#CFFAFE99" stroke-width="3"/>
          <path d="M-16.24562280264683 0 H16.24562280264683 M0 -16.24562280264683 V16.24562280264683" stroke="#06111fe6" stroke-width="3"/>
        </g>
      
        <g transform="translate(960.2265670755878, 455.664921537973)">
          <circle r="41.342058484372686" fill="#7DD3FCc7" stroke="#CFFAFE99" stroke-width="3"/>
          <circle r="16.536823393749074" fill="#06111fe6"/>
          <path d="M0 -53.28531982430257 L0 53.28531982430257 M-53.28531982430257 0 L53.28531982430257 0" stroke="#CFFAFE99" stroke-width="3" stroke-linecap="round"/>
        </g>
      
        <g transform="translate(1284.8374361777678, 629.7717365063727)">
          <path d="M-42.84624633274041 20.4029744441621 Q0 -34.685056555075576 42.84624633274041 20.4029744441621" stroke="#CFFAFE99" stroke-width="6" fill="none" stroke-linecap="round"/>
          <path d="M-30.60446166624315 20.4029744441621 V42.84624633274041 M30.60446166624315 20.4029744441621 V42.84624633274041" stroke="#7DD3FCc7" stroke-width="6" stroke-linecap="round"/>
        </g>
      
  </g>

  
    <g>
      <polyline points="0.0,640.8 160.0,626.2 320.0,602.4 480.0,567.8 640.0,530.5 800.0,516.1 960.0,481.6 1120.0,456.3 1280.0,419.8 1440.0,382.8 1600.0,370.1" fill="none" stroke="#CFFAFEe0" stroke-width="6" stroke-linecap="round" stroke-linejoin="round"/>
      <polygon points="0,900 0.0,640.8 160.0,626.2 320.0,602.4 480.0,567.8 640.0,530.5 800.0,516.1 960.0,481.6 1120.0,456.3 1280.0,419.8 1440.0,382.8 1600.0,370.1 1600,900" fill="#7DD3FC1f"/>
    </g>
  

  <g opacity="0.09">
    <text x="70" y="784" font-family="Segoe UI, Arial, sans-serif" font-size="180" font-weight="700" fill="#CFFAFE">
      MSFT
    </text>
  </g>
  <g opacity="0.95">
    <text x="82" y="96" font-family="Segoe UI, Arial, sans-serif" font-size="28" font-weight="700" fill="#CFFAFE">
      MSFT
    </text>
    <text x="82" y="132" font-family="Segoe UI, Arial, sans-serif" font-size="18" font-weight="500" fill="#E0F2FEe6">
      Microsoft · 雲端之巔
    </text>
  </g>
</svg>