<svg xmlns="http://www.w3.org/2000/svg" viewBox="0 0 1600 900" fill="none">
  <defs>
    <linearGradient id="bg" x1="0" y1="0" x2="0" y2="1">
      <stop offset="0%" stop-color="#041a30"/>
      <stop offset="48%" stop-color="#0a3760"/>
      <stop offset="100%" stop-color="#07111f"/>
    </linearGradient>
    <radialGradient id="glow" cx="50%" cy="25%" r="65%">
      <stop offset="0%" stop-color="#8CF8FF47"/>
      <stop offset="100%" stop-color="#8CF8FF00"/>
    </radialGradient>
    <linearGradient id="fade" x1="0" y1="0" x2="1" y2="1">
      <stop offset="0%" stop-color="#00F2FF2e"/>
      <stop offset="100%" stop-color="#89C2FF08"/>
    </linearGradient>
  </defs>

  <rect width="1600" height="900" fill="url(#bg)"/>
  <rect width="1600" height="900" fill="url(#glow)"/>
  <rect width="1600" height="900" fill="url(#fade)"/>

  
        <g opacity="0.95">
          <path d="M-40 220 C240 80, 420 260, 720 170 S1200 80, 1640 210 L1640 0 L-40 0 Z" fill="#00F2FF2e"/>
          <path d="M-20 270 C210 170, 440 280, 690 210 S1160 140, 1620 260" stroke="#8CF8FF8c" stroke-width="8" fill="none" stroke-linecap="round"/>
          <path d="M5.85588259389624 900 L125.85588259389624 340.96772683784366 L275.85588259389624 653.8667391706258 L395.85588259389624 900 Z" fill="#89C2FF46"/><path d="M238.07330400450155 900 L358.07330400450155 331.2211428489536 L508.07330400450155 681.9522830145434 L628.0733040045016 900 Z" fill="#89C2FF32"/><path d="M428.1464010872878 900 L548.1464010872878 346.55389906838536 L698.1464010872878 665.2772113168612 L818.1464010872878 900 Z" fill="#89C2FF29"/><path d="M673.2948450115509 900 L793.2948450115509 379.7066155727953 L943.2948450115509 718.7899318477139 L1063.294845011551 900 Z" fill="#89C2FF41"/><path d="M881.4815629413351 900 L1001.4815629413351 332.19886338338256 L1151.4815629413351 702.4667883245274 L1271.4815629413351 900 Z" fill="#89C2FF34"/><path d="M1123.1021582218818 900 L1243.1021582218818 314.596677320078 L1393.1021582218818 717.8859059885144 L1513.1021582218818 900 Z" fill="#89C2FF2b"/><path d="M1328.731602593325 900 L1448.731602593325 356.3802451081574 L1598.731602593325 701.0478003136814 L1718.731602593325 900 Z" fill="#89C2FF2c"/>
          <rect x="895.66720969975" y="343.70898159220815" width="121.5540069998242" height="2" fill="#00F2FF2e"/><rect x="1163.630294278264" y="512.9584902850911" width="52.72780031943694" height="2" fill="#00F2FF2e"/><rect x="1073.1239057332277" y="602.1980330953375" width="118.69891756493598" height="2" fill="#00F2FF2e"/><rect x="1341.278741452843" y="414.12842341698706" width="43.2066906853579" height="2" fill="#00F2FF2e"/><rect x="1498.1232138350606" y="559.3693206878379" width="33.518846263643354" height="2" fill="#00F2FF2e"/><rect x="979.6308529935777" y="561.1626819288358" width="114.13299709837884" height="2" fill="#00F2FF2e"/><rect x="115.77090229839087" y="318.12187699135393" width="47.12489564483985" height="2" fill="#00F2FF2e"/><rect x="81.44154034554958" y="620.9983965707943" width="102.655653628055" height="2" fill="#00F2FF2e"/><rect x="318.36296554654837" y="395.58686258737" width="73.36523881927133" height="2" fill="#00F2FF2e"/><rect x="1413.4362156130373" y="509.26301611587405" width="82.94492060597986" height="2" fill="#00F2FF2e"/><rect x="544.4856948405504" y="575.6574766431004" width="84.80819496605545" height="2" fill="#00F2FF2e"/><rect x="54.074196983128786" y="301.81125736795366" width="73.72805130016059" height="2" fill="#00F2FF2e"/><rect x="1431.48966062814" y="309.01086496189237" width="50.568324274383485" height="2" fill="#00F2FF2e"/><rect x="318.806817419827" y="628.2415840681642" width="50.83280196459964" height="2" fill="#00F2FF2e"/><rect x="1557.802297193557" y="547.0394010189921" width="82.1180684263818" height="2" fill="#00F2FF2e"/><rect x="984.0397755615413" y="562.0964548457414" width="76.46024853968993" height="2" fill="#00F2FF2e"/>
        </g>
      

  <g opacity="0.92">
    
        <g transform="translate(272.4650123156607, 449.80121633503586)">
          <rect x="-46.20181974233128" y="-46.20181974233128" width="92.40363948466256" height="92.40363948466256" rx="14.784582317546011" fill="#00F2FFc7" stroke="#8CF8FF99" stroke-width="3"/>
          <rect x="-20.328800686625765" y="-20.328800686625765" width="40.65760137325153" height="40.65760137325153" rx="6.46825476392638" fill="#03101de6"/>
          <rect x="-38.809528583558276" y="-59.138329270184045" width="7.392291158773006" height="14.784582317546011" fill="#8CF8FF99"/>
              <rect x="-38.809528583558276" y="44.353746952638026" width="7.392291158773006" height="14.784582317546011" fill="#8CF8FF99"/><rect x="-12.936509527852756" y="-59.138329270184045" width="7.392291158773006" height="14.784582317546011" fill="#8CF8FF99"/>
              <rect x="-12.936509527852756" y="44.353746952638026" width="7.392291158773006" height="14.784582317546011" fill="#8CF8FF99"/><rect x="12.936509527852763" y="-59.138329270184045" width="7.392291158773006" height="14.784582317546011" fill="#8CF8FF99"/>
              <rect x="12.936509527852763" y="44.353746952638026" width="7.392291158773006" height="14.784582317546011" fill="#8CF8FF99"/><rect x="38.809528583558276" y="-59.138329270184045" width="7.392291158773006" height="14.784582317546011" fill="#8CF8FF99"/>
              <rect x="38.809528583558276" y="44.353746952638026" width="7.392291158773006" height="14.784582317546011" fill="#8CF8FF99"/>
        </g>
      
        <g transform="translate(639.9876236729324, 595.806559487246)">
          <rect x="-36.73673582956195" y="-36.73673582956195" width="73.4734716591239" height="73.4734716591239" rx="10.804922302812338" fill="#00F2FFc7" stroke="#8CF8FF99" stroke-width="3"/>
          <path d="M-19.44886014506221 0 H19.44886014506221 M0 -19.44886014506221 V19.44886014506221" stroke="#03101de6" stroke-width="3"/>
        </g>
      
        <g transform="translate(940.6130559835583, 432.0126129174605)">
          <path d="M-29.988500109389427 -19.278321498893202 L19.278321498893202 -34.272571553587916 V34.272571553587916 L-29.988500109389427 19.278321498893202 Z" fill="#00F2FFc7" stroke="#8CF8FF99" stroke-width="3"/>
          <path d="M27.84646438729018 -21.420357220992447 Q47.12478588618338 0 27.84646438729018 21.420357220992447" fill="none" stroke="#8CF8FF99" stroke-width="3"/>
        </g>
      
        <g transform="translate(1211.0613606777042, 623.9892891747877)">
          <rect x="-27.78536896556616" y="-43.41463900869712" width="55.57073793113232" height="86.82927801739424" rx="6.94634224139154" fill="#00F2FFc7" stroke="#8CF8FF99" stroke-width="3"/>
          <rect x="-19.102441163826732" y="-27.78536896556616" width="38.204882327653465" height="9.551220581913366" rx="4" fill="#03101de6"/>
          <rect x="-19.102441163826732" y="-5.209756681043655" width="38.204882327653465" height="9.551220581913366" rx="4" fill="#03101de6"/>
          <rect x="-19.102441163826732" y="17.36585560347885" width="38.204882327653465" height="9.551220581913366" rx="4" fill="#03101de6"/>
        </g>
      
  </g>

  
    <g>
      <polyline points="0.0,576.5 160.0,606.7 320.0,547.4 480.0,568.1 640.0,505.4 800.0,517.0 960.0,457.5 1120.0,481.5 1280.0,421.2 1440.0,433.1 1600.0,373.7" fill="none" stroke="#8CF8FFe0" stroke-width="6" stroke-linecap="round" stroke-linejoin="round"/>
      <polygon points="0,900 0.0,576.5 160.0,606.7 320.0,547.4 480.0,568.1 640.0,505.4 800.0,517.0 960.0,457.5 1120.0,481.5 1280.0,421.2 1440.0,433.1 1600.0,373.7 1600,900" fill="#00F2FF1f"/>
    </g>
  

  <g opacity="0.09">
    <text x="70" y="784" font-family="Segoe UI, Arial, sans-serif" font-size="180" font-weight="700" fill="#8CF8FF">
      MU
    </text>
  </g>
  <g opacity="0.95">
    <text x="82" y="96" font-family="Segoe UI, Arial, sans-serif" font-size="28" font-weight="700" fill="#8CF8FF">
      MU
    </text>
    <text x="82" y="132" font-family="Segoe UI, Arial, sans-serif" font-size="18" font-weight="500" fill="#89C2FFe6">
      Micron · 數位冰原
    </text>
  </g>
</svg>