<svg xmlns="http://www.w3.org/2000/svg" viewBox="0 0 1600 900" fill="none">
  <defs>
    <linearGradient id="bg" x1="0" y1="0" x2="0" y2="1">
      <stop offset="0%" stop-color="#17071f"/>
      <stop offset="48%" stop-color="#4c1d95"/>
      <stop offset="100%" stop-color="#130619"/>
    </linearGradient>
    <radialGradient id="glow" cx="50%" cy="25%" r="65%">
      <stop offset="0%" stop-color="#FDA4FF47"/>
      <stop offset="100%" stop-color="#FDA4FF00"/>
    </radialGradient>
    <linearGradient id="fade" x1="0" y1="0" x2="1" y2="1">
      <stop offset="0%" stop-color="#FF00FF2e"/>
      <stop offset="100%" stop-color="#C4B5FD08"/>
    </linearGradient>
  </defs>

  <rect width="1600" height="900" fill="url(#bg)"/>
  <rect width="1600" height="900" fill="url(#glow)"/>
  <rect width="1600" height="900" fill="url(#fade)"/>

  
        <g>
          <rect x="1485.3509422391653" y="547.4644835665822" width="154.93839524220675" height="9.454593871254474" rx="5" fill="#FF00FF22"/><rect x="164.52141366899014" y="298.3967913640663" width="281.8810139223933" height="18.373962125275284" rx="5" fill="#FF00FF33"/><rect x="456.4284462481737" y="146.95349222514778" width="202.5683347415179" height="22.628040526993573" rx="5" fill="#C4B5FD2f"/><rect x="1197.7219369262457" y="179.62611318565905" width="319.612068394199" height="17.572517015505582" rx="5" fill="#FF00FF27"/><rect x="1322.1102837473154" y="187.41041192319244" width="257.2008936991915" height="12.555639412719756" rx="5" fill="#FF00FF22"/><rect x="1436.9736682623625" y="149.74195105955005" width="278.19793005939573" height="20.793481330852956" rx="5" fill="#FF00FF32"/><rect x="1452.472772449255" y="189.69013836234808" width="368.52133265230805" height="25.49203307274729" rx="5" fill="#C4B5FD28"/><rect x="1025.928820297122" y="204.16219430975616" width="336.73537200316787" height="13.156396753154695" rx="5" fill="#FF00FF26"/><rect x="296.7610854655504" y="375.84003529977053" width="200.98135178908706" height="18.117901902645826" rx="5" fill="#C4B5FD2b"/><rect x="365.68704061210155" y="375.6406675418839" width="199.7285775002092" height="22.698419072199613" rx="5" fill="#C4B5FD2e"/><rect x="516.9816587120295" y="183.44405075535178" width="304.48520133737475" height="11.059209459461272" rx="5" fill="#FF00FF2a"/><rect x="524.3573673069477" y="285.08965441491455" width="135.85509622003883" height="22.66201070835814" rx="5" fill="#C4B5FD23"/><rect x="1085.3859670460224" y="384.85308669973165" width="146.21021625585854" height="25.311317945364863" rx="5" fill="#C4B5FD1f"/><rect x="521.317857131362" y="414.30771144572645" width="352.1355255972594" height="15.118828432634473" rx="5" fill="#FF00FF30"/><rect x="837.2059982270002" y="378.09621720574796" width="256.03585212957114" height="13.034567181952298" rx="5" fill="#C4B5FD2f"/><rect x="1240.4602583497763" y="153.05629038251936" width="205.0330800190568" height="23.25808344921097" rx="5" fill="#C4B5FD2b"/>
          <rect x="611.5539807453752" y="461.28150686621666" width="31.267754398286343" height="31.267754398286343" fill="#FDA4FF1f"/><rect x="759.3091399595141" y="481.50125473737717" width="25.895726503804326" height="25.895726503804326" fill="#FDA4FF1f"/><rect x="368.08101686649024" y="424.6996798366308" width="39.32507421821356" height="39.32507421821356" fill="#FDA4FF1f"/><rect x="809.0650875959545" y="173.2041022926569" width="50.13814365491271" height="50.13814365491271" fill="#FDA4FF1f"/><rect x="999.8778160708025" y="193.3957153558731" width="47.86635532975197" height="47.86635532975197" fill="#FDA4FF1f"/><rect x="87.14382268954068" y="448.61985974013805" width="40.743312956765294" height="40.743312956765294" fill="#FDA4FF1f"/><rect x="1450.299407839775" y="310.4893206804991" width="54.60832938551903" height="54.60832938551903" fill="#FDA4FF1f"/><rect x="136.91414744127542" y="329.29314762353897" width="52.40826839581132" height="52.40826839581132" fill="#FDA4FF1f"/><rect x="339.14758971426636" y="417.28800259530544" width="22.079417910426855" height="22.079417910426855" fill="#FDA4FF1f"/><rect x="1380.9011107264087" y="304.5865420252085" width="37.056650863960385" height="37.056650863960385" fill="#FDA4FF1f"/><rect x="806.0196288209409" y="476.1187842488289" width="22.597222849726677" height="22.597222849726677" fill="#FDA4FF1f"/>
        </g>
      

  <g opacity="0.92">
    
        <g transform="translate(293.4691977221519, 434.430814278312)">
          <ellipse rx="41.65011122636497" ry="23.80006355792284" fill="none" stroke="#FDA4FF99" stroke-width="5"/>
          <ellipse rx="19.833386298269033" ry="9.916693149134517" fill="none" stroke="#FF00FFc7" stroke-width="3"/>
        </g>
      
        <g transform="translate(619.8130884952843, 586.2842424120754)">
          <circle r="31.749510732013732" fill="#FF00FFc7" stroke="#FDA4FF99" stroke-width="3"/>
        </g>
      
        <g transform="translate(984.0130864968523, 433.04092571139336)">
          <path d="M-41.74512556528673 0 Q0 -26.365342462286353 41.74512556528673 0 Q0 26.365342462286353 -41.74512556528673 0 Z" fill="#FF00FFc7" stroke="#FDA4FF99" stroke-width="3"/>
          <path d="M-15.379783103000374 0 H17.57689497485757" stroke="#0a020fe6" stroke-width="3"/>
        </g>
      
        <g transform="translate(1217.4413061374798, 625.0300031201914)">
          <rect x="-50.113133118320256" y="-37.040141870062804" width="100.22626623664051" height="61.00729249186814" rx="17.430654997676612" fill="#FF00FFc7" stroke="#FDA4FF99" stroke-width="3"/>
          <path d="M-8.715327498838306 23.96715062180534 L-21.788318747095765 52.29196499302983 L6.536495624128729 30.50364624593407" fill="#FF00FFc7" stroke="#FDA4FF99" stroke-width="3"/>
        </g>
      
  </g>

  
    <g>
      <polyline points="0.0,533.8 160.0,622.3 320.0,505.7 480.0,608.0 640.0,521.4 800.0,603.5 960.0,544.0 1120.0,616.5 1280.0,527.2 1440.0,609.6 1600.0,505.7" fill="none" stroke="#FDA4FFe0" stroke-width="6" stroke-linecap="round" stroke-linejoin="round"/>
      <polygon points="0,900 0.0,533.8 160.0,622.3 320.0,505.7 480.0,608.0 640.0,521.4 800.0,603.5 960.0,544.0 1120.0,616.5 1280.0,527.2 1440.0,609.6 1600.0,505.7 1600,900" fill="#FF00FF1f"/>
    </g>
  

  <g opacity="0.09">
    <text x="70" y="784" font-family="Segoe UI, Arial, sans-serif" font-size="180" font-weight="700" fill="#FDA4FF">
      NFLX
    </text>
  </g>
  <g opacity="0.95">
    <text x="82" y="96" font-family="Segoe UI, Arial, sans-serif" font-size="28" font-weight="700" fill="#FDA4FF">
      NFLX
    </text>
    <text x="82" y="132" font-family="Segoe UI, Arial, sans-serif" font-size="18" font-weight="500" fill="#C4B5FDe6">
      Netflix · 霓虹傳媒
    </text>
  </g>
</svg>