<svg xmlns="http://www.w3.org/2000/svg" viewBox="0 0 1600 900" fill="none">
  <defs>
    <linearGradient id="bg" x1="0" y1="0" x2="0" y2="1">
      <stop offset="0%" stop-color="#041a30"/>
      <stop offset="48%" stop-color="#0a3760"/>
      <stop offset="100%" stop-color="#07111f"/>
    </linearGradient>
    <radialGradient id="glow" cx="50%" cy="25%" r="65%">
      <stop offset="0%" stop-color="#8CF8FF47"/>
      <stop offset="100%" stop-color="#8CF8FF00"/>
    </radialGradient>
    <linearGradient id="fade" x1="0" y1="0" x2="1" y2="1">
      <stop offset="0%" stop-color="#00F2FF2e"/>
      <stop offset="100%" stop-color="#89C2FF08"/>
    </linearGradient>
  </defs>

  <rect width="1600" height="900" fill="url(#bg)"/>
  <rect width="1600" height="900" fill="url(#glow)"/>
  <rect width="1600" height="900" fill="url(#fade)"/>

  
        <g opacity="0.95">
          <path d="M-40 220 C240 80, 420 260, 720 170 S1200 80, 1640 210 L1640 0 L-40 0 Z" fill="#00F2FF2e"/>
          <path d="M-20 270 C210 170, 440 280, 690 210 S1160 140, 1620 260" stroke="#8CF8FF8c" stroke-width="8" fill="none" stroke-linecap="round"/>
          <path d="M0.2891313820146024 900 L120.2891313820146 394.407659182325 L270.2891313820146 670.8171619754285 L390.2891313820146 900 Z" fill="#89C2FF29"/><path d="M201.9143459154293 900 L321.9143459154293 380.07218850776553 L471.9143459154293 632.4923112243414 L591.9143459154293 900 Z" fill="#89C2FF37"/><path d="M430.81885744351894 900 L550.8188574435189 413.07081528939307 L700.8188574435189 682.6795647572726 L820.8188574435189 900 Z" fill="#89C2FF2d"/><path d="M688.4369304496795 900 L808.4369304496795 367.41588422097266 L958.4369304496795 661.9404136389494 L1078.4369304496795 900 Z" fill="#89C2FF3f"/><path d="M879.5486442418769 900 L999.5486442418769 363.5194171126932 L1149.548644241877 678.875875165686 L1269.548644241877 900 Z" fill="#89C2FF33"/><path d="M1127.9152879328467 900 L1247.9152879328467 406.68593226000667 L1397.9152879328467 699.0104850800708 L1517.9152879328467 900 Z" fill="#89C2FF42"/><path d="M1319.6472480078228 900 L1439.6472480078228 382.99522357061505 L1589.6472480078228 652.5895989686251 L1709.6472480078228 900 Z" fill="#89C2FF2b"/>
          <rect x="1298.414344638586" y="570.387786286883" width="54.718492997810245" height="2" fill="#00F2FF2e"/><rect x="381.9256759993732" y="412.6826499775052" width="90.32790036685765" height="2" fill="#00F2FF2e"/><rect x="404.85502829775214" y="665.8571954630315" width="77.05441449815407" height="2" fill="#00F2FF2e"/><rect x="637.9641505144536" y="495.6913913646713" width="81.88467776915058" height="2" fill="#00F2FF2e"/><rect x="1414.9894501455128" y="477.64267382677644" width="90.70921024121344" height="2" fill="#00F2FF2e"/><rect x="126.38000728562474" y="427.8327285964042" width="70.85717957979068" height="2" fill="#00F2FF2e"/><rect x="1020.68997470662" y="308.55137197766453" width="37.35385025199503" height="2" fill="#00F2FF2e"/><rect x="722.6703536137938" y="351.44337832927704" width="60.29851606162265" height="2" fill="#00F2FF2e"/><rect x="1434.904252141714" y="405.25106742978096" width="46.61790577508509" height="2" fill="#00F2FF2e"/><rect x="674.5042675547302" y="539.6622119657695" width="91.01963962009177" height="2" fill="#00F2FF2e"/><rect x="242.56477877497673" y="511.9606162747368" width="33.37382368557155" height="2" fill="#00F2FF2e"/><rect x="1047.4672304652631" y="447.8818186884746" width="57.06260684225708" height="2" fill="#00F2FF2e"/><rect x="661.7850230447948" y="581.5703134471551" width="42.27759391348809" height="2" fill="#00F2FF2e"/><rect x="779.0927114896476" y="659.1139279445633" width="100.44223408494145" height="2" fill="#00F2FF2e"/><rect x="896.3608955591917" y="349.8468833928928" width="95.24088614899665" height="2" fill="#00F2FF2e"/><rect x="1231.399950850755" y="314.9980692239478" width="52.97494098590687" height="2" fill="#00F2FF2e"/>
        </g>
      

  <g opacity="0.92">
    
        <g transform="translate(313.41836620122194, 432.81493111979216)">
          <rect x="-52.3802766983863" y="-52.3802766983863" width="104.7605533967726" height="104.7605533967726" rx="16.761688543483615" fill="#00F2FFc7" stroke="#8CF8FF99" stroke-width="3"/>
          <rect x="-23.04732174728997" y="-23.04732174728997" width="46.09464349457994" height="46.09464349457994" rx="7.333238737774082" fill="#03101de6"/>
          <rect x="-43.99943242664449" y="-67.04675417393446" width="8.380844271741807" height="16.761688543483615" fill="#8CF8FF99"/>
              <rect x="-43.99943242664449" y="50.285065630450845" width="8.380844271741807" height="16.761688543483615" fill="#8CF8FF99"/><rect x="-14.66647747554816" y="-67.04675417393446" width="8.380844271741807" height="16.761688543483615" fill="#8CF8FF99"/>
              <rect x="-14.66647747554816" y="50.285065630450845" width="8.380844271741807" height="16.761688543483615" fill="#8CF8FF99"/><rect x="14.66647747554817" y="-67.04675417393446" width="8.380844271741807" height="16.761688543483615" fill="#8CF8FF99"/>
              <rect x="14.66647747554817" y="50.285065630450845" width="8.380844271741807" height="16.761688543483615" fill="#8CF8FF99"/><rect x="43.9994324266445" y="-67.04675417393446" width="8.380844271741807" height="16.761688543483615" fill="#8CF8FF99"/>
              <rect x="43.9994324266445" y="50.285065630450845" width="8.380844271741807" height="16.761688543483615" fill="#8CF8FF99"/>
        </g>
      
        <g transform="translate(667.4852921441197, 612.7435097564012)">
          <circle r="47.56600752433297" fill="#00F2FFc7" stroke="#8CF8FF99" stroke-width="3"/>
          <circle r="19.026403009733183" fill="#03101de6"/>
          <path d="M0 -61.30729858691804 L0 61.30729858691804 M-61.30729858691804 0 L61.30729858691804 0" stroke="#8CF8FF99" stroke-width="3" stroke-linecap="round"/>
        </g>
      
        <g transform="translate(951.6126229753718, 439.20057085342705)">
          <rect x="-31.064146263152363" y="-48.537728536175564" width="62.128292526304726" height="97.07545707235113" rx="7.766036565788091" fill="#00F2FFc7" stroke="#8CF8FF99" stroke-width="3"/>
          <rect x="-21.356600555917247" y="-31.064146263152363" width="42.71320111183449" height="10.678300277958623" rx="4" fill="#03101de6"/>
          <rect x="-21.356600555917247" y="-5.824527424341068" width="42.71320111183449" height="10.678300277958623" rx="4" fill="#03101de6"/>
          <rect x="-21.356600555917247" y="19.415091414470226" width="42.71320111183449" height="10.678300277958623" rx="4" fill="#03101de6"/>
        </g>
      
        <g transform="translate(1288.973632492125, 611.512460950762)">
          <path d="M0 48.960199085529894 V-44.70279046939686" stroke="#8CF8FF99" stroke-width="5" stroke-linecap="round"/>
          <path d="M0 -21.28704308066517 L-23.41574738873169 6.386112924199551 M0 -21.28704308066517 L23.41574738873169 6.386112924199551 M0 -4.257408616133034 L-29.801860312931243 19.158338772598654 M0 -4.257408616133034 L29.801860312931243 19.158338772598654" stroke="#00F2FFc7" stroke-width="4" stroke-linecap="round"/>
          <circle cx="0" cy="-31.930564620997757" r="8.514817232266068" fill="#00F2FFc7"/>
        </g>
      
  </g>

  
    <g>
      <polyline points="0.0,631.8 160.0,586.3 320.0,555.8 480.0,494.1 640.0,439.8 800.0,377.2 960.0,329.8 1120.0,310.0 1280.0,310.0 1440.0,310.0 1600.0,310.0" fill="none" stroke="#8CF8FFe0" stroke-width="6" stroke-linecap="round" stroke-linejoin="round"/>
      <polygon points="0,900 0.0,631.8 160.0,586.3 320.0,555.8 480.0,494.1 640.0,439.8 800.0,377.2 960.0,329.8 1120.0,310.0 1280.0,310.0 1440.0,310.0 1600.0,310.0 1600,900" fill="#00F2FF1f"/>
    </g>
  

  <g opacity="0.09">
    <text x="70" y="784" font-family="Segoe UI, Arial, sans-serif" font-size="180" font-weight="700" fill="#8CF8FF">
      NVDA
    </text>
  </g>
  <g opacity="0.95">
    <text x="82" y="96" font-family="Segoe UI, Arial, sans-serif" font-size="28" font-weight="700" fill="#8CF8FF">
      NVDA
    </text>
    <text x="82" y="132" font-family="Segoe UI, Arial, sans-serif" font-size="18" font-weight="500" fill="#89C2FFe6">
      NVIDIA · 數位冰原
    </text>
  </g>
</svg>