<svg xmlns="http://www.w3.org/2000/svg" viewBox="0 0 1600 900" fill="none">
  <defs>
    <linearGradient id="bg" x1="0" y1="0" x2="0" y2="1">
      <stop offset="0%" stop-color="#08142a"/>
      <stop offset="48%" stop-color="#14406b"/>
      <stop offset="100%" stop-color="#0b1b33"/>
    </linearGradient>
    <radialGradient id="glow" cx="50%" cy="25%" r="65%">
      <stop offset="0%" stop-color="#CFFAFE47"/>
      <stop offset="100%" stop-color="#CFFAFE00"/>
    </radialGradient>
    <linearGradient id="fade" x1="0" y1="0" x2="1" y2="1">
      <stop offset="0%" stop-color="#7DD3FC2e"/>
      <stop offset="100%" stop-color="#E0F2FE08"/>
    </linearGradient>
  </defs>

  <rect width="1600" height="900" fill="url(#bg)"/>
  <rect width="1600" height="900" fill="url(#glow)"/>
  <rect width="1600" height="900" fill="url(#fade)"/>

  
        <g>
          
              <ellipse cx="1387.879917039536" cy="129.70206774771214" rx="195.03027333971113" ry="67.37409442644567" fill="#CFFAFE2b"/>
              <ellipse cx="1263.7697430960834" cy="147.43209259677678" rx="124.11017394345254" ry="46.098064607568084" fill="#E0F2FE24"/>
              <ellipse cx="1511.9900909829885" cy="154.52410253640264" rx="141.84019879251719" ry="49.64406957738101" fill="#E0F2FE1c"/>
            
              <ellipse cx="353.7829027371481" cy="163.0763917323202" rx="112.60818402096629" ry="38.90100902542472" fill="#CFFAFE2b"/>
              <ellipse cx="282.12314926926047" cy="173.31349937058985" rx="71.65975346788764" ry="26.616479859501123" fill="#E0F2FE24"/>
              <ellipse cx="425.44265620503575" cy="177.40834242589773" rx="81.8968611061573" ry="28.663901387155054" fill="#E0F2FE1c"/>
            
              <ellipse cx="82.5855559296906" cy="282.06258395686746" rx="214.21248142421246" ry="74.00067540109157" fill="#CFFAFE2b"/>
              <ellipse cx="-53.731477703899145" cy="301.53644590452313" rx="136.31703363358974" ry="50.63204106390476" fill="#E0F2FE24"/>
              <ellipse cx="218.90258956328034" cy="309.3259906835854" rx="155.79089558124542" ry="54.5268134534359" fill="#E0F2FE1c"/>
            
              <ellipse cx="1264.15975027252" cy="330.6913399975747" rx="95.34106425195932" ry="32.93600401431322" fill="#CFFAFE2b"/>
              <ellipse cx="1203.488163930364" cy="339.35870947502553" rx="60.67158634215593" ry="22.535160641372205" fill="#E0F2FE24"/>
              <ellipse cx="1324.8313366146758" cy="342.82565726600586" rx="69.33895581960678" ry="24.268634536862375" fill="#E0F2FE1c"/>
            
              <ellipse cx="1019.2991245212033" cy="355.02788411453366" rx="193.89936334919184" ry="66.98341642972082" fill="#CFFAFE2b"/>
              <ellipse cx="895.9086205717176" cy="372.6550989644602" rx="123.39050394948572" ry="45.83075860980898" fill="#E0F2FE24"/>
              <ellipse cx="1142.689628470689" cy="379.7059849044308" rx="141.01771879941225" ry="49.35620157979429" fill="#E0F2FE1c"/>
            
              <ellipse cx="639.8440210986882" cy="236.34586012922227" rx="181.17798797879368" ry="62.58875948358327" fill="#CFFAFE2b"/>
              <ellipse cx="524.5489378394559" cy="252.8165863091126" rx="115.29508325923234" ry="42.82388806771487" fill="#E0F2FE24"/>
              <ellipse cx="755.1391043579206" cy="259.40487678106877" rx="131.76580943912268" ry="46.11803330369293" fill="#E0F2FE1c"/>
            
              <ellipse cx="577.0507945306599" cy="331.45527304150164" rx="163.91318045556545" ry="56.62455324828625" fill="#CFFAFE2b"/>
              <ellipse cx="472.74240696802735" cy="346.35647126473486" rx="104.30838756263256" ry="38.74311538040638" fill="#E0F2FE24"/>
              <ellipse cx="681.3591820932925" cy="352.31695055402815" rx="119.20958578586578" ry="41.723355025053024" fill="#E0F2FE1c"/>
            
              <ellipse cx="346.91258548758924" cy="127.67508374527097" rx="112.19067074265332" ry="38.756777165643875" fill="#CFFAFE2b"/>
              <ellipse cx="275.51852228771895" cy="137.87423563096672" rx="71.39406319987029" ry="26.517794902808966" fill="#E0F2FE24"/>
              <ellipse cx="418.30664868745953" cy="141.95389638524503" rx="81.59321508556604" ry="28.55762527994812" fill="#E0F2FE1c"/>
            
              <ellipse cx="851.2224938906729" cy="163.81624713540077" rx="90.88385592401028" ry="31.39624113738537" fill="#CFFAFE2b"/>
              <ellipse cx="793.3873128481209" cy="172.07841585576534" rx="57.835181042551994" ry="21.481638672947884" fill="#E0F2FE24"/>
              <ellipse cx="909.0576749332249" cy="175.38328334391116" rx="66.09734976291656" ry="23.1340724170208" fill="#E0F2FE1c"/>
            
          <rect x="992.6313020288944" y="186.71855219639838" width="68.35716725979" height="68.35716725979" rx="8" fill="#7DD3FC1c" stroke="#CFFAFE2e"/><rect x="1086.4026626944542" y="457.59206033311784" width="54.302079781889915" height="54.302079781889915" rx="8" fill="#7DD3FC1c" stroke="#CFFAFE2e"/><rect x="884.478534180671" y="217.75619347579777" width="35.33006797730923" height="35.33006797730923" rx="8" fill="#7DD3FC1c" stroke="#CFFAFE2e"/><rect x="1054.5176445320249" y="299.7682840935886" width="46.663510982878506" height="46.663510982878506" rx="8" fill="#7DD3FC1c" stroke="#CFFAFE2e"/><rect x="1010.0672082416713" y="512.9910987615585" width="42.35014889575541" height="42.35014889575541" rx="8" fill="#7DD3FC1c" stroke="#CFFAFE2e"/><rect x="711.3843149319291" y="373.77605674788356" width="82.88946713507175" height="82.88946713507175" rx="8" fill="#7DD3FC1c" stroke="#CFFAFE2e"/><rect x="364.29977241903543" y="452.17939137481153" width="74.969925025478" height="74.969925025478" rx="8" fill="#7DD3FC1c" stroke="#CFFAFE2e"/><rect x="272.2824267670512" y="277.0777742471546" width="54.14384069573134" height="54.14384069573134" rx="8" fill="#7DD3FC1c" stroke="#CFFAFE2e"/><rect x="1047.1309672482312" y="340.5277741700411" width="64.01525502745062" height="64.01525502745062" rx="8" fill="#7DD3FC1c" stroke="#CFFAFE2e"/><rect x="1334.6533644758165" y="222.26932915858924" width="33.74867417104542" height="33.74867417104542" rx="8" fill="#7DD3FC1c" stroke="#CFFAFE2e"/><rect x="548.3439011499286" y="527.6276151277125" width="86.53309451136738" height="86.53309451136738" rx="8" fill="#7DD3FC1c" stroke="#CFFAFE2e"/><rect x="240.7622374780476" y="510.1297804620117" width="75.92774016037583" height="75.92774016037583" rx="8" fill="#7DD3FC1c" stroke="#CFFAFE2e"/><rect x="427.2051841393113" y="233.5604311618954" width="65.98084444366395" height="65.98084444366395" rx="8" fill="#7DD3FC1c" stroke="#CFFAFE2e"/><rect x="1406.274811513722" y="269.9262524023652" width="48.64271916169673" height="48.64271916169673" rx="8" fill="#7DD3FC1c" stroke="#CFFAFE2e"/><rect x="411.9660426490009" y="406.89590023830533" width="46.526234491728246" height="46.526234491728246" rx="8" fill="#7DD3FC1c" stroke="#CFFAFE2e"/>
        </g>
      

  <g opacity="0.92">
    
        <g transform="translate(291.22726616915315, 468.96138987969607)">
          <rect x="-34.006333111971614" y="-53.13489548745565" width="68.01266622394323" height="106.2697909749113" rx="8.501583277992903" fill="#7DD3FCc7" stroke="#CFFAFE99" stroke-width="3"/>
          <rect x="-23.379354014480487" y="-34.006333111971614" width="46.758708028960974" height="11.689677007240244" rx="4" fill="#06111fe6"/>
          <rect x="-23.379354014480487" y="-6.376187458494678" width="46.758708028960974" height="11.689677007240244" rx="4" fill="#06111fe6"/>
          <rect x="-23.379354014480487" y="21.25395819498226" width="46.758708028960974" height="11.689677007240244" rx="4" fill="#06111fe6"/>
        </g>
      
        <g transform="translate(665.9970204858109, 582.3214257927611)">
          <rect x="-30.89954586595297" y="-30.89954586595297" width="61.79909173190594" height="61.79909173190594" rx="9.088101725280286" fill="#7DD3FCc7" stroke="#CFFAFE99" stroke-width="3"/>
          <path d="M-16.35858310550451 0 H16.35858310550451 M0 -16.35858310550451 V16.35858310550451" stroke="#06111fe6" stroke-width="3"/>
        </g>
      
        <g transform="translate(929.1562576871365, 474.80738937389106)">
          <path d="M-35.348637622017414 16.832684581913053 Q0 -28.615563789252192 35.348637622017414 16.832684581913053" stroke="#CFFAFE99" stroke-width="6" fill="none" stroke-linecap="round"/>
          <path d="M-25.24902687286958 16.832684581913053 V35.348637622017414 M25.24902687286958 16.832684581913053 V35.348637622017414" stroke="#7DD3FCc7" stroke-width="6" stroke-linecap="round"/>
        </g>
      
        <g transform="translate(1270.017887619324, 584.270998314023)">
          <ellipse rx="42.92657271514646" ry="24.529470122940836" fill="none" stroke="#CFFAFE99" stroke-width="5"/>
          <ellipse rx="20.4412251024507" ry="10.22061255122535" fill="none" stroke="#7DD3FCc7" stroke-width="3"/>
        </g>
      
  </g>

  
    <g>
      <polyline points="0.0,603.8 160.0,567.1 320.0,543.6 480.0,513.0 640.0,477.3 800.0,460.5 960.0,445.4 1120.0,409.1 1280.0,376.4 1440.0,360.6 1600.0,340.2" fill="none" stroke="#CFFAFEe0" stroke-width="6" stroke-linecap="round" stroke-linejoin="round"/>
      <polygon points="0,900 0.0,603.8 160.0,567.1 320.0,543.6 480.0,513.0 640.0,477.3 800.0,460.5 960.0,445.4 1120.0,409.1 1280.0,376.4 1440.0,360.6 1600.0,340.2 1600,900" fill="#7DD3FC1f"/>
    </g>
  

  <g opacity="0.09">
    <text x="70" y="784" font-family="Segoe UI, Arial, sans-serif" font-size="180" font-weight="700" fill="#CFFAFE">
      ORCL
    </text>
  </g>
  <g opacity="0.95">
    <text x="82" y="96" font-family="Segoe UI, Arial, sans-serif" font-size="28" font-weight="700" fill="#CFFAFE">
      ORCL
    </text>
    <text x="82" y="132" font-family="Segoe UI, Arial, sans-serif" font-size="18" font-weight="500" fill="#E0F2FEe6">
      Oracle · 雲端之巔
    </text>
  </g>
</svg>