<svg xmlns="http://www.w3.org/2000/svg" viewBox="0 0 1600 900" fill="none">
  <defs>
    <linearGradient id="bg" x1="0" y1="0" x2="0" y2="1">
      <stop offset="0%" stop-color="#071b12"/>
      <stop offset="48%" stop-color="#134e38"/>
      <stop offset="100%" stop-color="#08120d"/>
    </linearGradient>
    <radialGradient id="glow" cx="50%" cy="25%" r="65%">
      <stop offset="0%" stop-color="#BBF7D047"/>
      <stop offset="100%" stop-color="#BBF7D000"/>
    </radialGradient>
    <linearGradient id="fade" x1="0" y1="0" x2="1" y2="1">
      <stop offset="0%" stop-color="#4ADE802e"/>
      <stop offset="100%" stop-color="#DCFCE708"/>
    </linearGradient>
  </defs>

  <rect width="1600" height="900" fill="url(#bg)"/>
  <rect width="1600" height="900" fill="url(#glow)"/>
  <rect width="1600" height="900" fill="url(#fade)"/>

  
        <g>
          <path d="M-112.05819824710488 900 L47.94180175289512 310.3185387980193 L187.94180175289512 436.27565033733845 L327.9418017528951 900 Z" fill="#DCFCE721"/><path d="M171.65286296978593 900 L331.65286296978593 341.4741758443415 L471.65286296978593 454.6844377205707 L611.6528629697859 900 Z" fill="#DCFCE72e"/><path d="M447.94809117913246 900 L607.9480911791325 263.0595235247165 L747.9480911791325 432.62321752728894 L887.9480911791325 900 Z" fill="#DCFCE72c"/><path d="M742.298700818792 900 L902.298700818792 311.92569432780147 L1042.298700818792 496.5405675396323 L1182.298700818792 900 Z" fill="#DCFCE726"/><path d="M1004.9289896804839 900 L1164.928989680484 278.1305442843586 L1304.928989680484 451.998623481486 L1444.928989680484 900 Z" fill="#DCFCE71f"/><path d="M1301.1735500302166 900 L1461.1735500302166 316.62072954699397 L1601.1735500302166 502.95752834994346 L1741.1735500302166 900 Z" fill="#DCFCE72b"/>
          <path d="M1138.0701063992456 360.4438437195495 V244.44384371954948 M1138.0701063992456 244.44384371954948 L1100.0701063992456 280.4438437195495 M1138.0701063992456 244.44384371954948 L1176.0701063992456 280.4438437195495" stroke="#4ADE8042" stroke-width="4" stroke-linecap="round"/><path d="M1472.3763285018504 455.9121263958514 V339.9121263958514 M1472.3763285018504 339.9121263958514 L1434.3763285018504 375.9121263958514 M1472.3763285018504 339.9121263958514 L1510.3763285018504 375.9121263958514" stroke="#4ADE8042" stroke-width="4" stroke-linecap="round"/><path d="M1317.7272998727858 557.6506247324869 V441.6506247324869 M1317.7272998727858 441.6506247324869 L1279.7272998727858 477.6506247324869 M1317.7272998727858 441.6506247324869 L1355.7272998727858 477.6506247324869" stroke="#4ADE8042" stroke-width="4" stroke-linecap="round"/><path d="M941.2280316697434 510.84108411334455 V394.84108411334455 M941.2280316697434 394.84108411334455 L903.2280316697434 430.84108411334455 M941.2280316697434 394.84108411334455 L979.2280316697434 430.84108411334455" stroke="#4ADE8042" stroke-width="4" stroke-linecap="round"/><path d="M642.2916875127703 404.32470853440464 V288.32470853440464 M642.2916875127703 288.32470853440464 L604.2916875127703 324.32470853440464 M642.2916875127703 288.32470853440464 L680.2916875127703 324.32470853440464" stroke="#4ADE8042" stroke-width="4" stroke-linecap="round"/><path d="M430.0296538742259 566.7016439186409 V450.7016439186409 M430.0296538742259 450.7016439186409 L392.0296538742259 486.7016439186409 M430.0296538742259 450.7016439186409 L468.0296538742259 486.7016439186409" stroke="#4ADE8042" stroke-width="4" stroke-linecap="round"/><path d="M1056.5731820836663 456.2987112952396 V340.2987112952396 M1056.5731820836663 340.2987112952396 L1018.5731820836663 376.2987112952396 M1056.5731820836663 340.2987112952396 L1094.5731820836663 376.2987112952396" stroke="#4ADE8042" stroke-width="4" stroke-linecap="round"/>
        </g>
      

  <g opacity="0.92">
    
        <g transform="translate(338.6091833235696, 449.8089737165719)">
          <circle r="26.13736833469011" fill="#4ADE80c7" stroke="#BBF7D099" stroke-width="3"/>
        </g>
      
        <g transform="translate(616.9674092717469, 603.4594060340896)">
          <rect x="-18.87364409488626" y="-39.46307401658036" width="37.74728818977252" height="78.92614803316071" rx="8" fill="#4ADE80c7" stroke="#BBF7D099" stroke-width="3"/>
          <path d="M-6.863143307231367 -15.442072441270575 H5.1473574804235245 L-1.7157858268078416 1.7157858268078416 H8.578929134039209 L-6.863143307231367 24.021001575309786 Z" fill="#04110ae6"/>
        </g>
      
        <g transform="translate(925.3760633384809, 448.6262910068035)">
          <path d="M0 43.02937612295151 V-3.7416848802566527" stroke="#BBF7D099" stroke-width="4" stroke-linecap="round"/>
          <circle cx="0" cy="-7.483369760513305" r="7.483369760513305" fill="#4ADE80c7"/>
          <path d="M0 -7.483369760513305 L-31.80432148218155 -20.57926684141159 M0 -7.483369760513305 L22.450109281539916 -31.80432148218155 M0 -7.483369760513305 L11.225054640769958 20.57926684141159" stroke="#4ADE80c7" stroke-width="4" stroke-linecap="round"/>
        </g>
      
        <g transform="translate(1246.447984026745, 614.1415868978947)">
          <path d="M-26.232191936895255 -16.863551959432662 L16.863551959432662 -29.979647927880286 V29.979647927880286 L-26.232191936895255 16.863551959432662 Z" fill="#4ADE80c7" stroke="#BBF7D099" stroke-width="3"/>
          <path d="M24.358463941402736 -18.73727995492518 Q41.222015900835395 0 24.358463941402736 18.73727995492518" fill="none" stroke="#BBF7D099" stroke-width="3"/>
        </g>
      
  </g>

  
    <g>
      <polyline points="0.0,646.2 160.0,640.9 320.0,651.5 480.0,633.4 640.0,657.5 800.0,659.5 960.0,656.4 1120.0,650.3 1280.0,646.2 1440.0,646.3 1600.0,631.1" fill="none" stroke="#BBF7D0e0" stroke-width="6" stroke-linecap="round" stroke-linejoin="round"/>
      <polygon points="0,900 0.0,646.2 160.0,640.9 320.0,651.5 480.0,633.4 640.0,657.5 800.0,659.5 960.0,656.4 1120.0,650.3 1280.0,646.2 1440.0,646.3 1600.0,631.1 1600,900" fill="#4ADE801f"/>
    </g>
  

  <g opacity="0.09">
    <text x="70" y="784" font-family="Segoe UI, Arial, sans-serif" font-size="180" font-weight="700" fill="#BBF7D0">
      PLUG
    </text>
  </g>
  <g opacity="0.95">
    <text x="82" y="96" font-family="Segoe UI, Arial, sans-serif" font-size="28" font-weight="700" fill="#BBF7D0">
      PLUG
    </text>
    <text x="82" y="132" font-family="Segoe UI, Arial, sans-serif" font-size="18" font-weight="500" fill="#DCFCE7e6">
      Plug Power · 綠能山脈
    </text>
  </g>
</svg>