<svg xmlns="http://www.w3.org/2000/svg" viewBox="0 0 1600 900" fill="none">
  <defs>
    <linearGradient id="bg" x1="0" y1="0" x2="0" y2="1">
      <stop offset="0%" stop-color="#041a30"/>
      <stop offset="48%" stop-color="#0a3760"/>
      <stop offset="100%" stop-color="#07111f"/>
    </linearGradient>
    <radialGradient id="glow" cx="50%" cy="25%" r="65%">
      <stop offset="0%" stop-color="#8CF8FF47"/>
      <stop offset="100%" stop-color="#8CF8FF00"/>
    </radialGradient>
    <linearGradient id="fade" x1="0" y1="0" x2="1" y2="1">
      <stop offset="0%" stop-color="#00F2FF2e"/>
      <stop offset="100%" stop-color="#89C2FF08"/>
    </linearGradient>
  </defs>

  <rect width="1600" height="900" fill="url(#bg)"/>
  <rect width="1600" height="900" fill="url(#glow)"/>
  <rect width="1600" height="900" fill="url(#fade)"/>

  
        <g opacity="0.95">
          <path d="M-40 220 C240 80, 420 260, 720 170 S1200 80, 1640 210 L1640 0 L-40 0 Z" fill="#00F2FF2e"/>
          <path d="M-20 270 C210 170, 440 280, 690 210 S1160 140, 1620 260" stroke="#8CF8FF8c" stroke-width="8" fill="none" stroke-linecap="round"/>
          <path d="M11.475261226296425 900 L131.47526122629642 303.88212533667684 L281.4752612262964 726.4830378303304 L401.4752612262964 900 Z" fill="#89C2FF32"/><path d="M237.61560674756765 900 L357.61560674756765 361.1536480206996 L507.61560674756765 664.6671273000538 L627.6156067475677 900 Z" fill="#89C2FF36"/><path d="M455.5001750518568 900 L575.5001750518568 345.23434289731085 L725.5001750518568 674.7593986755237 L845.5001750518568 900 Z" fill="#89C2FF2c"/><path d="M674.1084305197 900 L794.1084305197 418.8586622290313 L944.1084305197 720.881035476923 L1064.1084305197 900 Z" fill="#89C2FF36"/><path d="M875.0092328083701 900 L995.0092328083701 329.20338487252593 L1145.0092328083701 706.7908724024892 L1265.0092328083701 900 Z" fill="#89C2FF33"/><path d="M1081.8079826724716 900 L1201.8079826724716 321.407289756462 L1351.8079826724716 685.8621508069336 L1471.8079826724716 900 Z" fill="#89C2FF3e"/><path d="M1318.979271815624 900 L1438.979271815624 331.9257415831089 L1588.979271815624 695.8508435590193 L1708.979271815624 900 Z" fill="#89C2FF3d"/>
          <rect x="677.1336062252522" y="509.92731938138604" width="37.680541172623634" height="2" fill="#00F2FF2e"/><rect x="658.1268209218979" y="401.79038854315877" width="46.06469922279939" height="2" fill="#00F2FF2e"/><rect x="1146.5904779173434" y="335.4460636852309" width="82.56649173842743" height="2" fill="#00F2FF2e"/><rect x="722.4009123630822" y="410.23291145451367" width="63.130318075884134" height="2" fill="#00F2FF2e"/><rect x="1048.4809192828834" y="495.9635841427371" width="100.52601661346853" height="2" fill="#00F2FF2e"/><rect x="403.77643374726176" y="566.6469644848257" width="82.72094460716471" height="2" fill="#00F2FF2e"/><rect x="242.089989092201" y="544.784059827216" width="32.72438781382516" height="2" fill="#00F2FF2e"/><rect x="282.746401168406" y="586.6414236510172" width="54.56078021833673" height="2" fill="#00F2FF2e"/><rect x="102.531494256109" y="351.32083704229444" width="74.86006952635944" height="2" fill="#00F2FF2e"/><rect x="1365.2929307892919" y="564.7768607875332" width="106.69141605775803" height="2" fill="#00F2FF2e"/><rect x="399.3249250203371" y="304.55376755446196" width="97.61950822593644" height="2" fill="#00F2FF2e"/><rect x="1271.6085526533425" y="433.400124553591" width="69.89149131625891" height="2" fill="#00F2FF2e"/><rect x="478.8762921653688" y="313.7531378911808" width="40.563760861288756" height="2" fill="#00F2FF2e"/><rect x="1484.9912591092288" y="535.8641806431115" width="102.86887172656134" height="2" fill="#00F2FF2e"/><rect x="964.8598059080541" y="603.9277230249718" width="118.41588695114478" height="2" fill="#00F2FF2e"/><rect x="421.38706736266613" y="672.3927070060745" width="107.18474912503734" height="2" fill="#00F2FF2e"/>
        </g>
      

  <g opacity="0.92">
    
        <g transform="translate(290.0998946977779, 453.4386822581291)">
          <rect x="-53.18300271243788" y="-53.18300271243788" width="106.36600542487577" height="106.36600542487577" rx="17.018560867980124" fill="#00F2FFc7" stroke="#8CF8FF99" stroke-width="3"/>
          <rect x="-23.40052119347267" y="-23.40052119347267" width="46.80104238694534" height="46.80104238694534" rx="7.445620379741304" fill="#03101de6"/>
          <rect x="-44.67372227844782" y="-68.0742434719205" width="8.509280433990062" height="17.018560867980124" fill="#8CF8FF99"/>
              <rect x="-44.67372227844782" y="51.05568260394037" width="8.509280433990062" height="17.018560867980124" fill="#8CF8FF99"/><rect x="-14.891240759482603" y="-68.0742434719205" width="8.509280433990062" height="17.018560867980124" fill="#8CF8FF99"/>
              <rect x="-14.891240759482603" y="51.05568260394037" width="8.509280433990062" height="17.018560867980124" fill="#8CF8FF99"/><rect x="14.891240759482613" y="-68.0742434719205" width="8.509280433990062" height="17.018560867980124" fill="#8CF8FF99"/>
              <rect x="14.891240759482613" y="51.05568260394037" width="8.509280433990062" height="17.018560867980124" fill="#8CF8FF99"/><rect x="44.67372227844783" y="-68.0742434719205" width="8.509280433990062" height="17.018560867980124" fill="#8CF8FF99"/>
              <rect x="44.67372227844783" y="51.05568260394037" width="8.509280433990062" height="17.018560867980124" fill="#8CF8FF99"/>
        </g>
      
        <g transform="translate(613.9823362976313, 620.3920891322196)">
          <path d="M-27.297307062707844 -17.54826882602647 L17.54826882602647 -31.19692235738039 V31.19692235738039 L-27.297307062707844 17.54826882602647 Z" fill="#00F2FFc7" stroke="#8CF8FF99" stroke-width="3"/>
          <path d="M25.34749941537157 -19.498076473362744 Q42.89576824139804 0 25.34749941537157 19.498076473362744" fill="none" stroke="#8CF8FF99" stroke-width="3"/>
        </g>
      
        <g transform="translate(891.7305696383119, 445.80491052009165)">
          <rect x="-45.10714030195959" y="-45.10714030195959" width="90.21428060391918" height="90.21428060391918" rx="14.43428489662707" fill="#00F2FFc7" stroke="#8CF8FF99" stroke-width="3"/>
          <rect x="-19.84714173286222" y="-19.84714173286222" width="39.69428346572444" height="39.69428346572444" rx="6.314999642274343" fill="#03101de6"/>
          <rect x="-37.88999785364605" y="-57.73713958650828" width="7.217142448313535" height="14.43428489662707" fill="#8CF8FF99"/>
              <rect x="-37.88999785364605" y="43.3028546898812" width="7.217142448313535" height="14.43428489662707" fill="#8CF8FF99"/><rect x="-12.629999284548678" y="-57.73713958650828" width="7.217142448313535" height="14.43428489662707" fill="#8CF8FF99"/>
              <rect x="-12.629999284548678" y="43.3028546898812" width="7.217142448313535" height="14.43428489662707" fill="#8CF8FF99"/><rect x="12.629999284548695" y="-57.73713958650828" width="7.217142448313535" height="14.43428489662707" fill="#8CF8FF99"/>
              <rect x="12.629999284548695" y="43.3028546898812" width="7.217142448313535" height="14.43428489662707" fill="#8CF8FF99"/><rect x="37.889997853646065" y="-57.73713958650828" width="7.217142448313535" height="14.43428489662707" fill="#8CF8FF99"/>
              <rect x="37.889997853646065" y="43.3028546898812" width="7.217142448313535" height="14.43428489662707" fill="#8CF8FF99"/>
        </g>
      
        <g transform="translate(1281.260307263583, 615.7639602199197)">
          <ellipse rx="35.66889304898679" ry="20.382224599421022" fill="none" stroke="#8CF8FF99" stroke-width="5"/>
          <ellipse rx="16.985187166184186" ry="8.492593583092093" fill="none" stroke="#00F2FFc7" stroke-width="3"/>
        </g>
      
  </g>

  
    <g>
      <polyline points="0.0,589.0 160.0,612.6 320.0,552.5 480.0,579.9 640.0,518.9 800.0,536.8 960.0,475.7 1120.0,488.4 1280.0,424.2 1440.0,431.7 1600.0,371.6" fill="none" stroke="#8CF8FFe0" stroke-width="6" stroke-linecap="round" stroke-linejoin="round"/>
      <polygon points="0,900 0.0,589.0 160.0,612.6 320.0,552.5 480.0,579.9 640.0,518.9 800.0,536.8 960.0,475.7 1120.0,488.4 1280.0,424.2 1440.0,431.7 1600.0,371.6 1600,900" fill="#00F2FF1f"/>
    </g>
  

  <g opacity="0.09">
    <text x="70" y="784" font-family="Segoe UI, Arial, sans-serif" font-size="180" font-weight="700" fill="#8CF8FF">
      QCOM
    </text>
  </g>
  <g opacity="0.95">
    <text x="82" y="96" font-family="Segoe UI, Arial, sans-serif" font-size="28" font-weight="700" fill="#8CF8FF">
      QCOM
    </text>
    <text x="82" y="132" font-family="Segoe UI, Arial, sans-serif" font-size="18" font-weight="500" fill="#89C2FFe6">
      Qualcomm · 數位冰原
    </text>
  </g>
</svg>