<svg xmlns="http://www.w3.org/2000/svg" viewBox="0 0 1600 900" fill="none">
  <defs>
    <linearGradient id="bg" x1="0" y1="0" x2="0" y2="1">
      <stop offset="0%" stop-color="#0d1827"/>
      <stop offset="48%" stop-color="#28425e"/>
      <stop offset="100%" stop-color="#0a1118"/>
    </linearGradient>
    <radialGradient id="glow" cx="50%" cy="25%" r="65%">
      <stop offset="0%" stop-color="#FDE68A47"/>
      <stop offset="100%" stop-color="#FDE68A00"/>
    </radialGradient>
    <linearGradient id="fade" x1="0" y1="0" x2="1" y2="1">
      <stop offset="0%" stop-color="#FACC152e"/>
      <stop offset="100%" stop-color="#D1D5DB08"/>
    </linearGradient>
  </defs>

  <rect width="1600" height="900" fill="url(#bg)"/>
  <rect width="1600" height="900" fill="url(#glow)"/>
  <rect width="1600" height="900" fill="url(#fade)"/>

  
        <g>
          <rect x="35.88341625966132" y="154.80511019472033" width="101.02574590593576" height="365.1948898052797" rx="8" fill="#D1D5DB2c"/><rect x="120.08590434864163" y="193.36966805625707" width="127.69111131317914" height="326.63033194374293" rx="8" fill="#D1D5DB39"/><rect x="246.52134686987847" y="328.17314439918846" width="101.8287751590833" height="191.82685560081154" rx="8" fill="#D1D5DB34"/><rect x="368.7768176710233" y="241.92899979650974" width="82.77712802402675" height="278.07100020349026" rx="8" fill="#D1D5DB37"/><rect x="514.6225489117205" y="155.53816897794604" width="94.38799185212702" height="364.46183102205396" rx="8" fill="#D1D5DB2c"/><rect x="623.4207014199346" y="255.4996488848701" width="121.64340423885733" height="264.5003511151299" rx="8" fill="#D1D5DB34"/><rect x="733.9161657001823" y="150.92278157826513" width="109.56882217898965" height="369.07721842173487" rx="8" fill="#D1D5DB40"/><rect x="845.6485488982871" y="102.09548852872103" width="97.5268697924912" height="417.90451147127897" rx="8" fill="#D1D5DB44"/><rect x="993.2224229397252" y="275.46908060088754" width="119.69414042308927" height="244.53091939911246" rx="8" fill="#D1D5DB46"/><rect x="1112.5208176122978" y="200.72975754737854" width="89.36386945191771" height="319.27024245262146" rx="8" fill="#D1D5DB31"/><rect x="1204.1153162838891" y="281.4882186288014" width="93.26674093492329" height="238.5117813711986" rx="8" fill="#D1D5DB40"/><rect x="1327.3794826800004" y="241.38051584362984" width="103.09100810904056" height="278.61948415637016" rx="8" fill="#D1D5DB32"/><rect x="1448.3835603995249" y="260.7276702625677" width="80.62365921214223" height="259.2723297374323" rx="8" fill="#D1D5DB46"/><rect x="1586.2368148248643" y="324.80475827585906" width="108.21393012534827" height="195.19524172414094" rx="8" fill="#D1D5DB31"/>
          <circle cx="1066.8837450444698" cy="428.5205657361075" r="1.4710775488987564" fill="#FFFFFFaf"/><circle cx="1247.7534502744675" cy="484.4791747396812" r="2.7319095682352783" fill="#FFFFFFb7"/><circle cx="1343.9921595156193" cy="898.2253396650776" r="2.4755530953407288" fill="#FFFFFF9c"/><circle cx="148.8273248076439" cy="718.6572533100843" r="2.8028350004926326" fill="#FFFFFF8e"/><circle cx="65.75870253145695" cy="124.03739697765559" r="2.1046030163764953" fill="#FFFFFF93"/><circle cx="1214.6965391933918" cy="4.779863893054426" r="1.419023703970015" fill="#FFFFFFbc"/><circle cx="1152.8671458363533" cy="669.9552155798301" r="1.6319666732102633" fill="#FFFFFFa1"/><circle cx="192.8747784346342" cy="599.2140843300149" r="1.1997285960242152" fill="#FFFFFF96"/><circle cx="946.4946191757917" cy="621.5678881388158" r="2.118619598634541" fill="#FFFFFFba"/><circle cx="107.4786376208067" cy="49.705921090207994" r="2.915884664468467" fill="#FFFFFF8e"/><circle cx="1098.7379867583513" cy="482.4024825822562" r="1.767677468433976" fill="#FFFFFF8f"/><circle cx="256.2933523207903" cy="13.973029050976038" r="1.166282080486417" fill="#FFFFFF9b"/><circle cx="930.8316517621279" cy="875.8977563353255" r="2.629519797489047" fill="#FFFFFFc5"/><circle cx="773.9931985735893" cy="426.65097846183926" r="1.5851677970960736" fill="#FFFFFF93"/><circle cx="381.01146817207336" cy="468.51619365625083" r="3.297110851667821" fill="#FFFFFF9d"/><circle cx="1206.3392251729965" cy="885.0228315219283" r="1.63922688215971" fill="#FFFFFFb8"/><circle cx="813.9485899358988" cy="758.5260678548366" r="2.824568407051265" fill="#FFFFFFac"/><circle cx="554.1065111756325" cy="27.747235377319157" r="1.2560587912797927" fill="#FFFFFFbe"/><circle cx="1059.4311468303204" cy="655.3774433210492" r="1.1503642478957772" fill="#FFFFFFa6"/><circle cx="1345.5807447433472" cy="54.64616138488054" r="3.3126962602138517" fill="#FFFFFFb8"/><circle cx="1537.5236053019762" cy="167.26284795440733" r="3.1494422137737272" fill="#FFFFFF9b"/><circle cx="689.0095539391041" cy="695.9499410586432" r="1.1438397761434316" fill="#FFFFFFc8"/><circle cx="794.6710724383593" cy="478.0139395734295" r="1.616744232363999" fill="#FFFFFFc7"/><circle cx="1588.9152977615595" cy="186.5610073786229" r="2.157050149142742" fill="#FFFFFF98"/><circle cx="485.02733558416367" cy="347.10376986768097" r="2.7700533967465164" fill="#FFFFFFab"/><circle cx="404.54691275954247" cy="840.6502783298492" r="2.8742328725755213" fill="#FFFFFFa7"/><circle cx="511.7333400994539" cy="114.17155768722296" r="2.6052201667800547" fill="#FFFFFFbb"/><circle cx="657.183700427413" cy="148.11246944591403" r="1.8352803360670804" fill="#FFFFFFa5"/><circle cx="163.58792446553707" cy="750.0323825748637" r="2.569661149010062" fill="#FFFFFF9a"/><circle cx="836.9591888040304" cy="543.1272387038916" r="1.0869231985881924" fill="#FFFFFFb1"/><circle cx="485.95969937741756" cy="220.38891369011253" r="1.2148868655785918" fill="#FFFFFFa1"/><circle cx="896.7892322689295" cy="402.0173596451059" r="2.9238170562312007" fill="#FFFFFFaa"/><circle cx="243.28936524689198" cy="680.862361122854" r="1.7643832866102458" fill="#FFFFFF9d"/><circle cx="359.330128878355" cy="613.6689510662109" r="1.3572834445163608" fill="#FFFFFFc6"/><circle cx="126.64391696453094" cy="301.7000259133056" r="2.7065931936725973" fill="#FFFFFFb5"/><circle cx="720.4881768673658" cy="732.883225986734" r="2.603346866182983" fill="#FFFFFF9d"/><circle cx="610.5957489460707" cy="306.09641019254923" r="1.6442668842151762" fill="#FFFFFFa0"/><circle cx="1095.04756629467" cy="493.76016778405756" r="3.1408905144780874" fill="#FFFFFFa6"/><circle cx="7.487257942557335" cy="377.24032101687044" r="1.5490429349243642" fill="#FFFFFFbd"/><circle cx="6.673061475157738" cy="811.400298262015" r="1.046823586523533" fill="#FFFFFF92"/><circle cx="135.55873073637486" cy="351.79973740596324" r="1.2702121237292885" fill="#FFFFFFa3"/><circle cx="1072.3317239433527" cy="315.9673056565225" r="1.164660214073956" fill="#FFFFFFba"/><circle cx="1504.6509958803654" cy="1.4989644521847367" r="3.2338490219786764" fill="#FFFFFFb8"/><circle cx="52.536026015877724" cy="567.5245113205165" r="3.168568265065551" fill="#FFFFFFaa"/><circle cx="92.43339486420155" cy="201.01318436209112" r="2.1569497361779213" fill="#FFFFFFc0"/><circle cx="563.0349043756723" cy="346.5649388032034" r="2.3513965642079713" fill="#FFFFFFa7"/><circle cx="1314.0126191079617" cy="701.0437539545819" r="1.641935739479959" fill="#FFFFFFc0"/><circle cx="938.5251007974148" cy="435.4164427611977" r="1.252259106375277" fill="#FFFFFF9a"/><circle cx="1171.7849090695381" cy="61.58146227244288" r="2.6440974229946734" fill="#FFFFFF94"/><circle cx="1271.012881025672" cy="849.9535731039941" r="2.1577364750206467" fill="#FFFFFFae"/><circle cx="1048.5360946506262" cy="666.9431097339839" r="1.1398010790348052" fill="#FFFFFF8d"/><circle cx="671.5641476213932" cy="343.19202995393425" r="3.398389479331672" fill="#FFFFFF90"/><circle cx="897.0277305692434" cy="458.23811853770167" r="2.8011921547353267" fill="#FFFFFFc6"/><circle cx="1289.4012317061424" cy="336.8290418526158" r="1.5678741119801998" fill="#FFFFFFa7"/><circle cx="935.4169376194477" cy="137.61180890724063" r="1.7837445452809333" fill="#FFFFFF92"/><circle cx="1229.1087038815022" cy="437.204812746495" r="2.0314981127157807" fill="#FFFFFF98"/><circle cx="1457.435728609562" cy="585.1176284020767" r="1.226445334032178" fill="#FFFFFFaa"/><circle cx="871.5861544013023" cy="570.9543517325073" r="1.6135241314768791" fill="#FFFFFFa4"/><circle cx="447.5981943309307" cy="247.20901816617697" r="3.303455439954996" fill="#FFFFFFaa"/><circle cx="789.3237363547087" cy="800.8885417599231" r="2.117209898866713" fill="#FFFFFFa1"/>
        </g>
      

  <g opacity="0.92">
    
        <g transform="translate(271.3530409382656, 445.26039050426334)">
          <circle r="39.82948238322511" fill="#FACC15c7" stroke="#FDE68A99" stroke-width="4"/>
          <circle r="21.72517220903188" fill="none" stroke="#060b11e6" stroke-width="3"/>
        </g>
      
        <g transform="translate(641.3446937967092, 582.0549877220765)">
          <path d="M-36.69377352655865 11.587507429439574 L-19.31251238239929 -17.38126114415936 H21.24376362063922 L36.69377352655865 11.587507429439574 Z" fill="#FACC15c7" stroke="#FDE68A99" stroke-width="3"/>
        </g>
      
        <g transform="translate(898.4973578806967, 454.8049293877557)">
          <path d="M0 -41.75628762960434 L29.82591973543167 -23.860735788345337 V9.941973245143892 Q29.82591973543167 33.80270903348923 0 45.7330769276619 Q-29.82591973543167 33.80270903348923 -29.82591973543167 9.941973245143892 V-23.860735788345337 Z" fill="#FACC15c7" stroke="#FDE68A99" stroke-width="3"/>
          <path d="M0 -17.895551841259003 V17.895551841259003" stroke="#060b11e6" stroke-width="3"/>
        </g>
      
        <g transform="translate(1302.940422380343, 583.5092118661851)">
          <path d="M-24.65676944855601 -15.850780359786004 L15.850780359786004 -28.179165084064007 V28.179165084064007 L-24.65676944855601 15.850780359786004 Z" fill="#FACC15c7" stroke="#FDE68A99" stroke-width="3"/>
          <path d="M22.895571630802007 -17.611978177540006 Q38.74635199058801 0 22.895571630802007 17.611978177540006" fill="none" stroke="#FDE68A99" stroke-width="3"/>
        </g>
      
  </g>

  
    <g>
      <polyline points="0.0,614.9 160.0,616.6 320.0,637.8 480.0,623.9 640.0,637.9 800.0,638.6 960.0,641.2 1120.0,654.0 1280.0,647.9 1440.0,638.7 1600.0,627.7" fill="none" stroke="#FDE68Ae0" stroke-width="6" stroke-linecap="round" stroke-linejoin="round"/>
      <polygon points="0,900 0.0,614.9 160.0,616.6 320.0,637.8 480.0,623.9 640.0,637.9 800.0,638.6 960.0,641.2 1120.0,654.0 1280.0,647.9 1440.0,638.7 1600.0,627.7 1600,900" fill="#FACC151f"/>
    </g>
  

  <g opacity="0.09">
    <text x="70" y="784" font-family="Segoe UI, Arial, sans-serif" font-size="180" font-weight="700" fill="#FDE68A">
      SLV
    </text>
  </g>
  <g opacity="0.95">
    <text x="82" y="96" font-family="Segoe UI, Arial, sans-serif" font-size="28" font-weight="700" fill="#FDE68A">
      SLV
    </text>
    <text x="82" y="132" font-family="Segoe UI, Arial, sans-serif" font-size="18" font-weight="500" fill="#D1D5DBe6">
      Silver ETF · 穩收金庫
    </text>
  </g>
</svg>