<svg xmlns="http://www.w3.org/2000/svg" viewBox="0 0 1600 900" fill="none">
  <defs>
    <linearGradient id="bg" x1="0" y1="0" x2="0" y2="1">
      <stop offset="0%" stop-color="#0a1220"/>
      <stop offset="48%" stop-color="#2c3f56"/>
      <stop offset="100%" stop-color="#0a1118"/>
    </linearGradient>
    <radialGradient id="glow" cx="50%" cy="25%" r="65%">
      <stop offset="0%" stop-color="#E0F2FE47"/>
      <stop offset="100%" stop-color="#E0F2FE00"/>
    </radialGradient>
    <linearGradient id="fade" x1="0" y1="0" x2="1" y2="1">
      <stop offset="0%" stop-color="#93C5FD2e"/>
      <stop offset="100%" stop-color="#CBD5E108"/>
    </linearGradient>
  </defs>

  <rect width="1600" height="900" fill="url(#bg)"/>
  <rect width="1600" height="900" fill="url(#glow)"/>
  <rect width="1600" height="900" fill="url(#fade)"/>

  
        <g>
          <path d="M-40 140 L1640 20" stroke="#93C5FD24" stroke-width="4"/><path d="M-40 182 L1640 62" stroke="#93C5FD26" stroke-width="5"/><path d="M-40 224 L1640 104" stroke="#93C5FD29" stroke-width="6"/><path d="M-40 266 L1640 146" stroke="#93C5FD2b" stroke-width="4"/><path d="M-40 308 L1640 188" stroke="#93C5FD2e" stroke-width="5"/><path d="M-40 350 L1640 230" stroke="#93C5FD30" stroke-width="6"/><path d="M-40 392 L1640 272" stroke="#93C5FD33" stroke-width="4"/><path d="M-40 434 L1640 314" stroke="#93C5FD36" stroke-width="5"/><path d="M-40 476 L1640 356" stroke="#93C5FD38" stroke-width="6"/><path d="M-40 518 L1640 398" stroke="#93C5FD3b" stroke-width="4"/><path d="M-40 560 L1640 440" stroke="#93C5FD3d" stroke-width="5"/><path d="M-40 602 L1640 482" stroke="#93C5FD40" stroke-width="6"/>
          <path d="M0 540 Q800 400, 1600 540" stroke="#CBD5E129" stroke-width="3" fill="none"/><path d="M0 586 Q800 446, 1600 586" stroke="#CBD5E129" stroke-width="3" fill="none"/><path d="M0 632 Q800 492, 1600 632" stroke="#CBD5E129" stroke-width="3" fill="none"/><path d="M0 678 Q800 538, 1600 678" stroke="#CBD5E129" stroke-width="3" fill="none"/>
        </g>
      

  <g opacity="0.92">
    
        <g transform="translate(304.8357873689383, 445.00145295169204)">
          <circle r="35.79640862587839" fill="#060a10e6" stroke="#E0F2FE99" stroke-width="4"/>
          <circle r="16.108383881645278" fill="#93C5FDc7"/>
        </g>
      
        <g transform="translate(571.832413347438, 602.0452126581222)">
          <rect x="-23.840160792516546" y="-49.84760892980732" width="47.68032158503309" height="99.69521785961464" rx="8" fill="#93C5FDc7" stroke="#E0F2FE99" stroke-width="3"/>
          <path d="M-8.669149379096925 -19.50558610296808 H6.501862034322694 L-2.1672873447742314 2.1672873447742314 H10.836436723871158 L-8.669149379096925 30.34202282683924 Z" fill="#060a10e6"/>
        </g>
      
        <g transform="translate(911.8810891034082, 433.99928523693234)">
          <ellipse rx="37.16685531212017" ry="17.60535251626745" fill="#93C5FDc7" stroke="#E0F2FE99" stroke-width="3"/>
          <path d="M-17.60535251626745 15.649202236682177 Q0 41.07915587129071 17.60535251626745 15.649202236682177" stroke="#E0F2FE99" stroke-width="4" fill="none"/>
        </g>
      
        <g transform="translate(1254.59890415892, 621.6347117675468)">
          <path d="M-39.3709212503396 8.947936647804454 Q-7.158349318243563 -30.422984602535145 37.581333920778704 -7.158349318243563" stroke="#E0F2FE99" stroke-width="6" fill="none" stroke-linecap="round"/>
          <path d="M21.475047954730687 -14.316698636487127 L37.581333920778704 -7.158349318243563 L25.054222613852474 5.368761988682672" fill="#93C5FDc7"/>
        </g>
      
  </g>

  
    <g>
      <polyline points="0.0,595.2 160.0,675.8 320.0,615.6 480.0,721.4 640.0,646.6 800.0,732.0 960.0,649.9 1120.0,752.8 1280.0,646.6 1440.0,760.9 1600.0,698.3" fill="none" stroke="#E0F2FEe0" stroke-width="6" stroke-linecap="round" stroke-linejoin="round"/>
      <polygon points="0,900 0.0,595.2 160.0,675.8 320.0,615.6 480.0,721.4 640.0,646.6 800.0,732.0 960.0,649.9 1120.0,752.8 1280.0,646.6 1440.0,760.9 1600.0,698.3 1600,900" fill="#93C5FD1f"/>
    </g>
  

  <g opacity="0.09">
    <text x="70" y="784" font-family="Segoe UI, Arial, sans-serif" font-size="180" font-weight="700" fill="#E0F2FE">
      TSLA
    </text>
  </g>
  <g opacity="0.95">
    <text x="82" y="96" font-family="Segoe UI, Arial, sans-serif" font-size="28" font-weight="700" fill="#E0F2FE">
      TSLA
    </text>
    <text x="82" y="132" font-family="Segoe UI, Arial, sans-serif" font-size="18" font-weight="500" fill="#CBD5E1e6">
      Tesla · 未來交通
    </text>
  </g>
</svg>