<svg xmlns="http://www.w3.org/2000/svg" viewBox="0 0 1600 900" fill="none">
  <defs>
    <linearGradient id="bg" x1="0" y1="0" x2="0" y2="1">
      <stop offset="0%" stop-color="#071224"/>
      <stop offset="48%" stop-color="#10284a"/>
      <stop offset="100%" stop-color="#08111d"/>
    </linearGradient>
    <radialGradient id="glow" cx="50%" cy="25%" r="65%">
      <stop offset="0%" stop-color="#FFE99A47"/>
      <stop offset="100%" stop-color="#FFE99A00"/>
    </radialGradient>
    <linearGradient id="fade" x1="0" y1="0" x2="1" y2="1">
      <stop offset="0%" stop-color="#FFD7002e"/>
      <stop offset="100%" stop-color="#9DB4D808"/>
    </linearGradient>
  </defs>

  <rect width="1600" height="900" fill="url(#bg)"/>
  <rect width="1600" height="900" fill="url(#glow)"/>
  <rect width="1600" height="900" fill="url(#fade)"/>

  
        <g>
          <rect x="24.22612203285098" y="115.75341758783907" width="79.83147186692804" height="404.24658241216093" rx="8" fill="#9DB4D844"/><rect x="142.05974641162902" y="256.14619886502624" width="111.99768831022084" height="263.85380113497376" rx="8" fill="#9DB4D839"/><rect x="242.15393114369363" y="124.86996029037982" width="95.11019195429981" height="395.1300397096202" rx="8" fill="#9DB4D840"/><rect x="377.0447185523808" y="116.01063188631088" width="108.37784241884947" height="403.9893681136891" rx="8" fill="#9DB4D82b"/><rect x="506.66074671037495" y="111.76956579554826" width="109.4626768026501" height="408.23043420445174" rx="8" fill="#9DB4D847"/><rect x="608.2207169188187" y="347.06644916906953" width="122.3890282260254" height="172.93355083093047" rx="8" fill="#9DB4D846"/><rect x="747.8950874134898" y="251.78822081070393" width="89.97694456484169" height="268.21177918929607" rx="8" fill="#9DB4D836"/><rect x="869.0756313353777" y="359.63794025126845" width="84.93869976140559" height="160.36205974873155" rx="8" fill="#9DB4D831"/><rect x="968.9127746466547" y="240.7313451403752" width="72.16974850744009" height="279.2686548596248" rx="8" fill="#9DB4D82e"/><rect x="1105.373573916033" y="178.92764899879694" width="73.82768716663122" height="341.07235100120306" rx="8" fill="#9DB4D838"/><rect x="1221.2718641012907" y="219.47412682697177" width="124.8442548001185" height="300.52587317302823" rx="8" fill="#9DB4D83a"/><rect x="1333.3276463951916" y="175.91081575956196" width="77.2560760146007" height="344.08918424043804" rx="8" fill="#9DB4D841"/><rect x="1452.2029159571975" y="354.43249745760113" width="76.19243178050965" height="165.56750254239887" rx="8" fill="#9DB4D83b"/><rect x="1584.0540251573548" y="138.48819095175713" width="88.38346081320196" height="381.51180904824287" rx="8" fill="#9DB4D843"/>
          <circle cx="361.0218808054924" cy="427.88698207587004" r="3.364769437722862" fill="#FFFFFFa3"/><circle cx="1244.6281000971794" cy="72.48740836512297" r="2.889700035378337" fill="#FFFFFFbb"/><circle cx="650.4790671169758" cy="822.1437762491405" r="3.1998451182618735" fill="#FFFFFF90"/><circle cx="1051.0876290500164" cy="431.0647539328784" r="2.586084309220314" fill="#FFFFFFc4"/><circle cx="782.9053808003664" cy="804.5869760680944" r="1.90281340200454" fill="#FFFFFFac"/><circle cx="118.09551678597927" cy="715.6673938734457" r="1.0327105894684792" fill="#FFFFFFbb"/><circle cx="351.21599175035954" cy="318.72703805565834" r="2.938589661568403" fill="#FFFFFF9a"/><circle cx="596.8252528458834" cy="569.5507496595383" r="1.6335101095959543" fill="#FFFFFFbb"/><circle cx="1189.895448088646" cy="91.42829503398389" r="2.922341693751514" fill="#FFFFFFcb"/><circle cx="1495.0689166784286" cy="157.40431307349354" r="2.1633913164958356" fill="#FFFFFFb8"/><circle cx="1440.1798944920301" cy="415.68157905712724" r="2.9685855554416776" fill="#FFFFFF9a"/><circle cx="1514.4681856036186" cy="445.9604069357738" r="3.010311698168516" fill="#FFFFFFc1"/><circle cx="580.200095102191" cy="803.9205975830555" r="2.1021418878808618" fill="#FFFFFFba"/><circle cx="659.6719585359097" cy="231.21145062614232" r="1.317215467430651" fill="#FFFFFF9b"/><circle cx="1097.227719426155" cy="768.1097957538441" r="1.9560607243329287" fill="#FFFFFFcc"/><circle cx="164.07899409532547" cy="384.840962709859" r="1.4376957366243004" fill="#FFFFFF99"/><circle cx="1344.9157249182463" cy="829.6046142932028" r="1.1500923937186598" fill="#FFFFFFb7"/><circle cx="1501.9594479352236" cy="166.48075310513377" r="2.377869971655309" fill="#FFFFFF9c"/><circle cx="1387.3933501541615" cy="260.3492079069838" r="1.1046815333887934" fill="#FFFFFF90"/><circle cx="857.0965074002743" cy="693.9751093508676" r="3.2034213690087197" fill="#FFFFFF92"/><circle cx="912.9182890057564" cy="633.3920993842185" r="3.1243443626910445" fill="#FFFFFFa2"/><circle cx="1191.324831172824" cy="48.76479136291891" r="1.486998631991446" fill="#FFFFFFa3"/><circle cx="1243.0981662124395" cy="717.259728955105" r="1.124122492223978" fill="#FFFFFFa1"/><circle cx="1362.5204361975193" cy="423.64868111908436" r="2.7661700190976264" fill="#FFFFFF99"/><circle cx="260.6676783412695" cy="813.2069852203131" r="1.5465408597141503" fill="#FFFFFFb5"/><circle cx="1014.9708818644285" cy="152.76225039269775" r="3.3174525488168" fill="#FFFFFFaa"/><circle cx="566.351817175746" cy="193.7990334816277" r="3.094906961172819" fill="#FFFFFFb0"/><circle cx="712.5549804419279" cy="510.5598128400743" r="2.946790567599237" fill="#FFFFFFc6"/><circle cx="543.5881491750479" cy="795.5531559186056" r="2.807169308327138" fill="#FFFFFFb6"/><circle cx="208.6045652627945" cy="652.7095340425149" r="3.3351760232821106" fill="#FFFFFFc9"/><circle cx="1017.969112098217" cy="867.273294297047" r="3.047521323338151" fill="#FFFFFFa6"/><circle cx="1372.6131238043308" cy="146.44717262126505" r="2.177110400423407" fill="#FFFFFFca"/><circle cx="366.40828736126423" cy="804.6173912705854" r="2.4979083463549614" fill="#FFFFFFb1"/><circle cx="325.59400387108326" cy="286.4217824069783" r="2.758398027345538" fill="#FFFFFFa5"/><circle cx="1488.5733488947153" cy="621.0630109068006" r="1.7034559074789284" fill="#FFFFFFaf"/><circle cx="1211.391931772232" cy="25.538644124753773" r="1.384798582829535" fill="#FFFFFFb9"/><circle cx="1572.413145750761" cy="252.87594683468342" r="3.0391324296593667" fill="#FFFFFF90"/><circle cx="677.0437024533749" cy="415.83472376223654" r="1.596857214346528" fill="#FFFFFFa1"/><circle cx="53.392207622528076" cy="718.6525317840278" r="1.9421021493151782" fill="#FFFFFFc4"/><circle cx="463.07308450341225" cy="46.855969238094985" r="2.712245958670974" fill="#FFFFFF96"/><circle cx="288.52126225829124" cy="464.14815676398575" r="1.02134378105402" fill="#FFFFFFb8"/><circle cx="275.49968622624874" cy="127.1886958507821" r="1.3513354817405343" fill="#FFFFFFbd"/><circle cx="907.2568405419588" cy="599.2165056522936" r="2.9342073287814854" fill="#FFFFFFbb"/><circle cx="643.7016315758228" cy="266.7769717751071" r="2.7792707605287434" fill="#FFFFFF90"/><circle cx="900.3861140459776" cy="829.7712528146803" r="1.570616819895804" fill="#FFFFFFa3"/><circle cx="1213.616443052888" cy="148.6128309275955" r="2.9167333740741013" fill="#FFFFFFb5"/><circle cx="173.93164038658142" cy="346.04378580115736" r="1.6366798307746648" fill="#FFFFFFc7"/><circle cx="974.4530897587538" cy="706.6765804309398" r="2.5526179268956186" fill="#FFFFFFc9"/><circle cx="1536.0777389258146" cy="841.9677370693535" r="2.259272445552051" fill="#FFFFFFc7"/><circle cx="505.62952160835266" cy="542.2495903680101" r="3.2279459230601786" fill="#FFFFFF8e"/><circle cx="816.203959658742" cy="422.50998825766146" r="2.8655328007414935" fill="#FFFFFFba"/><circle cx="1012.9981871694326" cy="606.2342423480004" r="2.9061074381694194" fill="#FFFFFFa2"/><circle cx="1260.6332123279572" cy="509.5710705500096" r="2.644286572374403" fill="#FFFFFFb0"/><circle cx="602.0685914903879" cy="73.92005457077175" r="2.325182455964386" fill="#FFFFFFa3"/><circle cx="375.6433468312025" cy="256.46832031197846" r="1.536330243758857" fill="#FFFFFFc0"/><circle cx="260.8533602207899" cy="822.0592359546572" r="2.468813874199986" fill="#FFFFFFa6"/><circle cx="1111.9089540094137" cy="786.9802499189973" r="2.5015841947868465" fill="#FFFFFFb7"/><circle cx="129.54722195863724" cy="125.36876234225929" r="1.1254680190235375" fill="#FFFFFFa1"/><circle cx="1485.6454107910395" cy="712.9493046551943" r="3.096750887669623" fill="#FFFFFF9a"/><circle cx="825.7708054035902" cy="561.4611253375188" r="1.4571366898715497" fill="#FFFFFFcb"/>
        </g>
      

  <g opacity="0.92">
    
        <g transform="translate(310.96352168824524, 474.1154997283593)">
          <circle r="40.37187113130465" fill="#FFD700c7" stroke="#FFE99A99" stroke-width="4"/>
          <circle r="22.021020617075262" fill="none" stroke="#030913e6" stroke-width="3"/>
        </g>
      
        <g transform="translate(651.2351307133213, 638.9341061748564)">
          <path d="M-27.715479006432 -17.817093646991996 L17.817093646991996 -31.674833150208 V31.674833150208 L-27.715479006432 17.817093646991996 Z" fill="#FFD700c7" stroke="#FFE99A99" stroke-width="3"/>
          <path d="M25.735801934543996 -19.796770718879998 Q43.55289558153599 0 25.735801934543996 19.796770718879998" fill="none" stroke="#FFE99A99" stroke-width="3"/>
        </g>
      
        <g transform="translate(962.5615246687084, 456.0995380114764)">
          <path d="M0 -43.96952709373087 L31.406805066950618 -25.125444053560493 V10.468935022316874 Q31.406805066950618 35.59437907587737 0 48.15710110265762 Q-31.406805066950618 35.59437907587737 -31.406805066950618 10.468935022316874 V-25.125444053560493 Z" fill="#FFD700c7" stroke="#FFE99A99" stroke-width="3"/>
          <path d="M0 -18.84408304017037 V18.84408304017037" stroke="#030913e6" stroke-width="3"/>
        </g>
      
        <g transform="translate(1215.3325476124883, 583.0635565100238)">
          <ellipse rx="44.76208090195432" ry="25.578331943973897" fill="none" stroke="#FFE99A99" stroke-width="5"/>
          <ellipse rx="21.31527661997825" ry="10.657638309989125" fill="none" stroke="#FFD700c7" stroke-width="3"/>
        </g>
      
  </g>

  
    <g>
      <polyline points="0.0,634.1 160.0,616.4 320.0,586.4 480.0,571.1 640.0,551.0 800.0,536.4 960.0,523.4 1120.0,508.0 1280.0,489.4 1440.0,455.0 1600.0,420.6" fill="none" stroke="#FFE99Ae0" stroke-width="6" stroke-linecap="round" stroke-linejoin="round"/>
      <polygon points="0,900 0.0,634.1 160.0,616.4 320.0,586.4 480.0,571.1 640.0,551.0 800.0,536.4 960.0,523.4 1120.0,508.0 1280.0,489.4 1440.0,455.0 1600.0,420.6 1600,900" fill="#FFD7001f"/>
    </g>
  

  <g opacity="0.09">
    <text x="70" y="784" font-family="Segoe UI, Arial, sans-serif" font-size="180" font-weight="700" fill="#FFE99A">
      V
    </text>
  </g>
  <g opacity="0.95">
    <text x="82" y="96" font-family="Segoe UI, Arial, sans-serif" font-size="28" font-weight="700" fill="#FFE99A">
      V
    </text>
    <text x="82" y="132" font-family="Segoe UI, Arial, sans-serif" font-size="18" font-weight="500" fill="#9DB4D8e6">
      Visa · 摩天雪都
    </text>
  </g>
</svg>