<svg xmlns="http://www.w3.org/2000/svg" viewBox="0 0 1600 900" fill="none">
  <defs>
    <linearGradient id="bg" x1="0" y1="0" x2="0" y2="1">
      <stop offset="0%" stop-color="#071b12"/>
      <stop offset="48%" stop-color="#134e38"/>
      <stop offset="100%" stop-color="#08120d"/>
    </linearGradient>
    <radialGradient id="glow" cx="50%" cy="25%" r="65%">
      <stop offset="0%" stop-color="#BBF7D047"/>
      <stop offset="100%" stop-color="#BBF7D000"/>
    </radialGradient>
    <linearGradient id="fade" x1="0" y1="0" x2="1" y2="1">
      <stop offset="0%" stop-color="#4ADE802e"/>
      <stop offset="100%" stop-color="#DCFCE708"/>
    </linearGradient>
  </defs>

  <rect width="1600" height="900" fill="url(#bg)"/>
  <rect width="1600" height="900" fill="url(#glow)"/>
  <rect width="1600" height="900" fill="url(#fade)"/>

  
        <g>
          <path d="M-106.34816442616284 900 L53.65183557383716 304.2004960589111 L193.65183557383716 420.106531935744 L333.65183557383716 900 Z" fill="#DCFCE72e"/><path d="M167.69819524139166 900 L327.69819524139166 332.7355432603508 L467.69819524139166 473.16321847960353 L607.6981952413917 900 Z" fill="#DCFCE72f"/><path d="M476.4820843562484 900 L636.4820843562484 252.81383419409394 L776.4820843562484 453.3167368057184 L916.4820843562484 900 Z" fill="#DCFCE72d"/><path d="M759.7746937163174 900 L919.7746937163174 275.3101548179984 L1059.7746937163174 474.18968142941594 L1199.7746937163174 900 Z" fill="#DCFCE72b"/><path d="M1013.3146003074944 900 L1173.3146003074944 271.6609730757773 L1313.3146003074944 498.63751739496365 L1453.3146003074944 900 Z" fill="#DCFCE733"/><path d="M1317.6410105451941 900 L1477.6410105451941 298.70829868130386 L1617.6410105451941 441.7204133514315 L1757.6410105451941 900 Z" fill="#DCFCE724"/>
          <path d="M741.8719780631363 559.6041606087238 V443.60416060872376 M741.8719780631363 443.60416060872376 L703.8719780631363 479.60416060872376 M741.8719780631363 443.60416060872376 L779.8719780631363 479.60416060872376" stroke="#4ADE8042" stroke-width="4" stroke-linecap="round"/><path d="M902.8562250779942 306.30152272526175 V190.30152272526175 M902.8562250779942 190.30152272526175 L864.8562250779942 226.30152272526175 M902.8562250779942 190.30152272526175 L940.8562250779942 226.30152272526175" stroke="#4ADE8042" stroke-width="4" stroke-linecap="round"/><path d="M1246.235067853704 337.1542725758627 V221.1542725758627 M1246.235067853704 221.1542725758627 L1208.235067853704 257.1542725758627 M1246.235067853704 221.1542725758627 L1284.235067853704 257.1542725758627" stroke="#4ADE8042" stroke-width="4" stroke-linecap="round"/><path d="M193.94140362273902 340.9405773784965 V224.94057737849653 M193.94140362273902 224.94057737849653 L155.94140362273902 260.9405773784965 M193.94140362273902 224.94057737849653 L231.94140362273902 260.9405773784965" stroke="#4ADE8042" stroke-width="4" stroke-linecap="round"/><path d="M1145.583122749813 426.16142756771296 V310.16142756771296 M1145.583122749813 310.16142756771296 L1107.583122749813 346.16142756771296 M1145.583122749813 310.16142756771296 L1183.583122749813 346.16142756771296" stroke="#4ADE8042" stroke-width="4" stroke-linecap="round"/><path d="M128.72091666329652 514.8728929040954 V398.87289290409535 M128.72091666329652 398.87289290409535 L90.72091666329652 434.87289290409535 M128.72091666329652 398.87289290409535 L166.72091666329652 434.87289290409535" stroke="#4ADE8042" stroke-width="4" stroke-linecap="round"/><path d="M642.3669801559299 355.2896251017228 V239.28962510172278 M642.3669801559299 239.28962510172278 L604.3669801559299 275.2896251017228 M642.3669801559299 239.28962510172278 L680.3669801559299 275.2896251017228" stroke="#4ADE8042" stroke-width="4" stroke-linecap="round"/>
        </g>
      

  <g opacity="0.92">
    
        <g transform="translate(326.1234326288104, 466.4126163069159)">
          <path d="M0 -40.03556023084558 L-26.690373487230392 36.222649732669815 H26.690373487230392 Z" fill="#4ADE80c7" stroke="#BBF7D099" stroke-width="3"/>
          <path d="M-17.158097241790966 3.81291049817577 H17.158097241790966 M-9.532276245439425 -13.345186743615196 H9.532276245439425" stroke="#04110ae6" stroke-width="3"/>
        </g>
      
        <g transform="translate(608.5926119750366, 633.2853196188807)">
          <path d="M0 40.01859862390906 V-3.479878141209483" stroke="#BBF7D099" stroke-width="4" stroke-linecap="round"/>
          <circle cx="0" cy="-6.959756282418966" r="6.959756282418966" fill="#4ADE80c7"/>
          <path d="M0 -6.959756282418966 L-29.57896420028061 -19.139329776652158 M0 -6.959756282418966 L20.8792688472569 -29.57896420028061 M0 -6.959756282418966 L10.43963442362845 19.139329776652158" stroke="#4ADE80c7" stroke-width="4" stroke-linecap="round"/>
        </g>
      
        <g transform="translate(911.8855306971818, 472.47774220537394)">
          <path d="M-27.053325242642316 -17.391423370270058 L17.391423370270058 -30.918085991591216 V30.918085991591216 L-27.053325242642316 17.391423370270058 Z" fill="#4ADE80c7" stroke="#BBF7D099" stroke-width="3"/>
          <path d="M25.120944868167864 -19.32380374474451 Q42.51236823843792 0 25.120944868167864 19.32380374474451" fill="none" stroke="#BBF7D099" stroke-width="3"/>
        </g>
      
        <g transform="translate(1274.5140503533185, 591.4099677000195)">
          <path d="M-32.555313168345016 10.280625211056321 L-17.134375351760536 -15.420937816584482 H18.84781288693659 L32.555313168345016 10.280625211056321 Z" fill="#4ADE80c7" stroke="#BBF7D099" stroke-width="3"/>
        </g>
      
  </g>

  
    <g>
      <polyline points="0.0,628.5 160.0,653.5 320.0,671.4 480.0,640.1 640.0,671.4 800.0,691.8 960.0,668.5 1120.0,690.2 1280.0,719.2 1440.0,693.6 1600.0,712.0" fill="none" stroke="#BBF7D0e0" stroke-width="6" stroke-linecap="round" stroke-linejoin="round"/>
      <polygon points="0,900 0.0,628.5 160.0,653.5 320.0,671.4 480.0,640.1 640.0,671.4 800.0,691.8 960.0,668.5 1120.0,690.2 1280.0,719.2 1440.0,693.6 1600.0,712.0 1600,900" fill="#4ADE801f"/>
    </g>
  

  <g opacity="0.09">
    <text x="70" y="784" font-family="Segoe UI, Arial, sans-serif" font-size="180" font-weight="700" fill="#BBF7D0">
      XOM
    </text>
  </g>
  <g opacity="0.95">
    <text x="82" y="96" font-family="Segoe UI, Arial, sans-serif" font-size="28" font-weight="700" fill="#BBF7D0">
      XOM
    </text>
    <text x="82" y="132" font-family="Segoe UI, Arial, sans-serif" font-size="18" font-weight="500" fill="#DCFCE7e6">
      ExxonMobil · 綠能山脈
    </text>
  </g>
</svg>